<svg width="136" height="47" viewBox="0 0 136 47" fill="none" xmlns="http://www.w3.org/2000/svg">
<path d="M2.77551 14.4795V31.0692H0V14.4795H2.77551Z" fill="#3052F5"/>
<path d="M22.4511 31.0692H19.6756L11.3224 18.6803V46.8H8.54688V14.4555H11.3224L19.6756 26.8204V0H22.4511V31.0692Z" fill="#3052F5"/>
<path d="M38.5068 14.4795V16.6987H34.0011V31.0692H31.2255V16.6987H26.6953V14.4795H38.5046H38.5068Z" fill="#3052F5"/>
<path d="M45.5512 16.6747V21.5448H51.3958V23.764H45.5512V28.8478H52.1252V31.067H42.7734V14.4533H52.1252V16.6725H45.5512V16.6747Z" fill="#3052F5"/>
<path d="M66.0511 31.0692L62.1547 24.4333H60.0353V31.0692H57.2598V14.4795H63.1044C64.4032 14.4795 65.504 14.7019 66.4047 15.1487C67.3054 15.5935 67.9793 16.1908 68.4263 16.9385C68.8733 17.6863 69.0957 18.5212 69.0957 19.4455C69.0957 20.5268 68.7755 21.51 68.1327 22.3929C67.4922 23.2757 66.5048 23.8774 65.1749 24.1957L69.3626 31.0714H66.0511V31.0692ZM60.0353 22.2621H63.1044C64.1429 22.2621 64.9258 22.007 65.4551 21.4991C65.9822 20.9889 66.2468 20.3044 66.2468 19.4455C66.2468 18.5866 65.9866 17.9152 65.4684 17.429C64.948 16.9429 64.1607 16.7009 63.1066 16.7009H60.0375V22.2621H60.0353Z" fill="#3052F5"/>
<path d="M76.5727 30.6506C75.6631 30.2604 74.9492 29.7067 74.4288 28.9916C73.9084 28.2744 73.6504 27.4395 73.6504 26.4847H76.6216C76.6861 27.2019 76.9752 27.7905 77.4867 28.2504C77.9982 28.7126 78.7166 28.9437 79.6418 28.9437C80.5669 28.9437 81.3475 28.717 81.8813 28.2635C82.4173 27.8101 82.6841 27.2259 82.6841 26.5086C82.6841 25.9527 82.5173 25.4993 82.186 25.1483C81.8524 24.7995 81.4387 24.527 80.945 24.3374C80.4491 24.1455 79.7641 23.9406 78.8878 23.7161C77.7847 23.4305 76.8863 23.1406 76.1968 22.8441C75.5074 22.5498 74.918 22.092 74.431 21.4707C73.9439 20.8494 73.6993 20.0232 73.6993 18.9877C73.6993 18.0328 73.9417 17.1979 74.431 16.4807C74.918 15.7635 75.6008 15.2163 76.4771 14.8326C77.3533 14.4489 78.3674 14.2593 79.5217 14.2593C81.1607 14.2593 82.504 14.6604 83.5515 15.4648C84.599 16.2692 85.1794 17.3701 85.2929 18.7719H82.2238C82.1749 18.168 81.8835 17.6492 81.3475 17.2197C80.8116 16.7902 80.1066 16.5744 79.2281 16.5744C78.4319 16.5744 77.7825 16.7728 77.2799 17.1717C76.7773 17.5707 76.526 18.1418 76.526 18.8896C76.526 19.3997 76.6839 19.8161 77.0019 20.1431C77.3177 20.4701 77.7203 20.7273 78.2073 20.9191C78.6943 21.111 79.3593 21.3181 80.2044 21.5404C81.3253 21.8435 82.2371 22.1443 82.9444 22.4473C83.6493 22.7503 84.252 23.2147 84.7458 23.8447C85.2417 24.4725 85.4886 25.3118 85.4886 26.3626C85.4886 27.2062 85.2573 28.0019 84.7947 28.7497C84.3321 29.4974 83.6582 30.0991 82.7731 30.5525C81.888 31.006 80.8449 31.2327 79.644 31.2327C78.5075 31.2327 77.4845 31.0387 76.5749 30.6484L76.5727 30.6506Z" fill="#3052F5"/>
<path d="M93.4281 16.6747V21.5448H99.2727V23.764H93.4281V28.8478H100.002V31.067H90.6504V14.4533H100.002V16.6725H93.4281V16.6747Z" fill="#3052F5"/>
<path d="M104.956 18.3708C105.727 17.0824 106.773 16.0753 108.096 15.3515C109.419 14.6277 110.867 14.2659 112.441 14.2659C114.243 14.2659 115.846 14.6997 117.25 15.5673C118.653 16.435 119.674 17.6645 120.305 19.2559H116.969C116.531 18.3817 115.922 17.7277 115.144 17.2982C114.365 16.8688 113.462 16.653 112.441 16.653C111.321 16.653 110.322 16.8993 109.446 17.392C108.57 17.8846 107.882 18.5931 107.389 19.5153C106.893 20.4374 106.646 21.5122 106.646 22.7373C106.646 23.9625 106.893 25.0372 107.389 25.9593C107.885 26.8815 108.57 27.5943 109.446 28.0957C110.322 28.5971 111.321 28.8478 112.441 28.8478C113.464 28.8478 114.365 28.632 115.144 28.2025C115.922 27.7731 116.531 27.1213 116.969 26.2449H120.305C119.672 27.8363 118.653 29.0615 117.25 29.9204C115.846 30.7793 114.243 31.2087 112.441 31.2087C110.851 31.2087 109.397 30.8469 108.082 30.1231C106.768 29.3993 105.725 28.3922 104.953 27.1038C104.182 25.8154 103.797 24.3592 103.797 22.7351C103.797 21.111 104.182 19.657 104.953 18.3664L104.956 18.3708Z" fill="#3052F5"/>
<path d="M135.429 14.4795V16.6987H130.923V31.0692H128.147V16.6987H123.617V14.4795H135.426H135.429Z" fill="#3052F5"/>
<path d="M20.4713 35.4422V37.4957C20.4713 37.7203 20.5292 37.8925 20.647 38.0124C20.7627 38.1301 20.9273 38.1912 21.1385 38.1912C21.3498 38.1912 21.5188 38.1323 21.6345 38.0124C21.7501 37.8925 21.8102 37.7225 21.8102 37.4957V35.4422H22.4774V37.4914C22.4774 37.7726 22.4173 38.0124 22.295 38.2064C22.1727 38.4004 22.0103 38.5487 21.8079 38.6468C21.6056 38.7449 21.3787 38.795 21.1296 38.795C20.8805 38.795 20.6604 38.7471 20.4602 38.6468C20.2601 38.5487 20.1022 38.4026 19.9843 38.2064C19.8686 38.0124 19.8086 37.7726 19.8086 37.4914V35.4422H20.4713Z" fill="#3052F5"/>
<path d="M27.0276 38.7623H26.3648L24.8659 36.4842V38.7623H24.2031V35.4378H24.8659L26.3648 37.7203V35.4378H27.0276V38.7623Z" fill="#3052F5"/>
<path d="M29.4303 35.4422V38.7623H28.7676V35.4422H29.4303Z" fill="#3052F5"/>
<path d="M33.3084 35.4421V35.9784H32.4299V38.76H31.7671V35.9784H30.8887V35.4421H33.3084Z" fill="#3052F5"/>
<path d="M35.4284 35.4421V38.7622H34.7656V35.4421H35.4284Z" fill="#3052F5"/>
<path d="M39.9963 38.7623H39.3336L37.8346 36.4842V38.7623H37.1719V35.4378H37.8346L39.3336 37.7203V35.4378H39.9963V38.7623Z" fill="#3052F5"/>
<path d="M44.0239 36.4407C43.9483 36.3012 43.8438 36.1943 43.7125 36.1224C43.5791 36.0505 43.4256 36.0134 43.25 36.0134C43.0542 36.0134 42.8808 36.057 42.7295 36.1464C42.5783 36.2358 42.4604 36.3622 42.3759 36.5279C42.2914 36.6936 42.2492 36.8832 42.2492 37.099C42.2492 37.3148 42.2914 37.5154 42.3782 37.6789C42.4649 37.8446 42.585 37.971 42.7407 38.0604C42.8963 38.1498 43.0743 38.1934 43.2789 38.1934C43.5302 38.1934 43.737 38.1258 43.8994 37.9906C44.0595 37.8555 44.1662 37.668 44.2152 37.4282H43.0809V36.9203H44.869V37.5002C44.8245 37.7312 44.7311 37.9449 44.5843 38.1432C44.4398 38.3394 44.253 38.4964 44.0239 38.6163C43.7948 38.7362 43.5391 38.7951 43.2544 38.7951C42.9364 38.7951 42.6495 38.7231 42.3915 38.5792C42.1335 38.4354 41.9334 38.2348 41.7866 37.9776C41.6398 37.7203 41.5664 37.4282 41.5664 37.1034C41.5664 36.7786 41.6398 36.4843 41.7866 36.2249C41.9334 35.9676 42.1357 35.7649 42.3915 35.621C42.6495 35.4771 42.9341 35.4052 43.25 35.4052C43.6214 35.4052 43.9438 35.4967 44.2196 35.6777C44.4932 35.8608 44.6822 36.1159 44.7867 36.445H44.0261L44.0239 36.4407Z" fill="#3052F5"/>
<path d="M50.865 35.4422V35.9785H49.9865V38.7601H49.3238V35.9785H48.4453V35.4422H50.865Z" fill="#3052F5"/>
<path d="M55.0602 35.4421V38.7622H54.3975V37.3496H52.9831V38.7622H52.3203V35.4421H52.9831V36.8067H54.3975V35.4421H55.0602Z" fill="#3052F5"/>
<path d="M57.4694 35.9785V36.8112H58.5814V37.3388H57.4694V38.2195H58.7215V38.7623H56.8066V35.4378H58.7215V35.9807H57.4694V35.9785Z" fill="#3052F5"/>
<path d="M62.6418 36.2202C62.7886 35.9629 62.9887 35.7602 63.2422 35.6163C63.4958 35.4724 63.7804 35.4005 64.0963 35.4005C64.4654 35.4005 64.7879 35.4964 65.0659 35.6861C65.3439 35.8757 65.5374 36.1395 65.6486 36.4752H64.888C64.8124 36.3161 64.7056 36.1984 64.57 36.1177C64.4321 36.0392 64.2742 36 64.094 36C63.9005 36 63.7315 36.0458 63.5803 36.1351C63.4313 36.2267 63.3134 36.3531 63.2311 36.5188C63.1466 36.6845 63.1066 36.8763 63.1066 37.0987C63.1066 37.3211 63.1488 37.5107 63.2311 37.6764C63.3156 37.8421 63.4313 37.9707 63.5803 38.0622C63.7293 38.1538 63.9005 38.1974 64.094 38.1974C64.2742 38.1974 64.4321 38.156 64.57 38.0753C64.7078 37.9947 64.8124 37.8748 64.888 37.7156H65.6486C65.5374 38.0557 65.3461 38.3195 65.0703 38.507C64.7946 38.6944 64.4699 38.7904 64.0985 38.7904C63.7827 38.7904 63.498 38.7184 63.2445 38.5745C62.9909 38.4307 62.7908 38.2301 62.644 37.9729C62.4972 37.7156 62.4238 37.4235 62.4238 37.0987C62.4238 36.7739 62.4972 36.4796 62.644 36.2202H62.6418Z" fill="#3052F5"/>
<path d="M69.1051 38.1279H67.7907L67.5728 38.7601H66.8789L68.0665 35.4356H68.8382L70.0258 38.7601H69.3253L69.1073 38.1279H69.1051ZM68.925 37.596L68.4468 36.2074L67.9686 37.596H68.9227H68.925Z" fill="#3052F5"/>
<path d="M73.1681 38.7623L72.4409 37.4696H72.1295V38.7623H71.4668V35.4422H72.7055C72.9613 35.4422 73.1793 35.488 73.3572 35.5774C73.5373 35.6667 73.6708 35.7888 73.7619 35.9436C73.8509 36.0984 73.8976 36.2684 73.8976 36.4603C73.8976 36.6783 73.8353 36.8766 73.7086 37.0532C73.5818 37.2298 73.395 37.3497 73.1459 37.4173L73.9354 38.7623H73.1704H73.1681ZM72.1273 36.9704H72.6811C72.8612 36.9704 72.9947 36.9268 73.0836 36.8396C73.1726 36.7524 73.2148 36.6303 73.2148 36.4755C73.2148 36.3207 73.1704 36.2052 73.0836 36.1202C72.9947 36.0373 72.8612 35.9937 72.6811 35.9937H72.1273V36.9682V36.9704Z" fill="#3052F5"/>
<path d="M77.5956 35.647C77.8581 35.7822 78.0627 35.9784 78.205 36.2291C78.3473 36.482 78.4207 36.7741 78.4207 37.1055C78.4207 37.4368 78.3496 37.7289 78.205 37.9774C78.0604 38.226 77.8581 38.42 77.5956 38.5551C77.3332 38.6925 77.0263 38.7601 76.6816 38.7601H75.5273V35.4399H76.6816C77.0285 35.4399 77.3332 35.5075 77.5956 35.6449V35.647ZM77.46 37.9099C77.649 37.7202 77.7446 37.4521 77.7446 37.1055C77.7446 36.7588 77.6512 36.4907 77.46 36.2945C77.2687 36.0983 77.0041 36.0024 76.6571 36.0024H76.1901V38.1954H76.6571C77.0041 38.1954 77.2709 38.0995 77.46 37.9099Z" fill="#3052F5"/>
<path d="M81.816 38.1279H80.5017L80.2837 38.7601H79.5898L80.7774 35.4356H81.5492L82.7368 38.7601H82.0362L81.8183 38.1279H81.816ZM81.6359 37.596L81.1577 36.2074L80.6796 37.596H81.6337H81.6359Z" fill="#3052F5"/>
<path d="M86.9963 38.7623H86.3336L84.8346 36.4842V38.7623H84.1719V35.4378H84.8346L86.3336 37.7202V35.4378H86.9963V38.7623Z" fill="#3052F5"/>
<path d="M89.4071 38.577C89.1491 38.431 88.9445 38.2282 88.7933 37.971C88.642 37.7138 88.5664 37.4195 88.5664 37.0925C88.5664 36.7655 88.642 36.4777 88.7933 36.2205C88.9445 35.9632 89.1491 35.7605 89.4071 35.6144C89.665 35.4684 89.9497 35.3964 90.2589 35.3964C90.568 35.3964 90.8549 35.4684 91.1129 35.6144C91.3708 35.7605 91.5732 35.9632 91.7222 36.2205C91.8712 36.4799 91.9468 36.7698 91.9468 37.0925C91.9468 37.4151 91.8712 37.7116 91.7222 37.971C91.5732 38.2304 91.3686 38.431 91.1106 38.577C90.8526 38.7231 90.568 38.795 90.2589 38.795C89.9497 38.795 89.665 38.7231 89.4071 38.577ZM90.7837 38.0669C90.9349 37.9754 91.0528 37.8467 91.1373 37.6789C91.2218 37.511 91.2641 37.3148 91.2641 37.0946C91.2641 36.8745 91.2218 36.6783 91.1373 36.5126C91.0528 36.3469 90.9349 36.2183 90.7837 36.1289C90.6325 36.0395 90.4568 35.9959 90.2589 35.9959C90.0609 35.9959 89.8852 36.0395 89.7318 36.1289C89.5783 36.2183 89.4604 36.3447 89.3759 36.5126C89.2914 36.6804 89.2492 36.8723 89.2492 37.0946C89.2492 37.317 89.2914 37.511 89.3759 37.6789C89.4604 37.8467 89.5805 37.9754 89.7318 38.0669C89.8852 38.1563 90.0609 38.2021 90.2589 38.2021C90.4568 38.2021 90.6325 38.1563 90.7837 38.0669Z" fill="#3052F5"/>
<path d="M96.3639 35.9784V36.8112H97.4759V37.3387H96.3639V38.2194H97.616V38.7623H95.7012V35.4378H97.616V35.9806H96.3639V35.9784Z" fill="#3052F5"/>
<path d="M99.2746 36.2203C99.4214 35.963 99.6215 35.7603 99.8751 35.6164C100.129 35.4725 100.413 35.4006 100.729 35.4006C101.098 35.4006 101.421 35.4965 101.699 35.6862C101.977 35.8758 102.17 36.1396 102.281 36.4753H101.521C101.445 36.3162 101.338 36.1985 101.203 36.1178C101.065 36.0393 100.907 36.0001 100.727 36.0001C100.533 36.0001 100.364 36.0459 100.213 36.1353C100.064 36.2268 99.9462 36.3533 99.8639 36.5189C99.7794 36.6846 99.7394 36.8765 99.7394 37.0988C99.7394 37.3212 99.7817 37.5108 99.8639 37.6765C99.9485 37.8422 100.064 37.9708 100.213 38.0624C100.362 38.1539 100.533 38.1975 100.727 38.1975C100.907 38.1975 101.065 38.1561 101.203 38.0755C101.341 37.9948 101.445 37.8749 101.521 37.7158H102.281C102.17 38.0558 101.979 38.3196 101.703 38.5071C101.427 38.6946 101.103 38.7905 100.731 38.7905C100.415 38.7905 100.131 38.7185 99.8773 38.5747C99.6238 38.4308 99.4236 38.2302 99.2768 37.973C99.13 37.7158 99.0566 37.4236 99.0566 37.0988C99.0566 36.774 99.13 36.4797 99.2768 36.2203H99.2746Z" fill="#3052F5"/>
<path d="M104.509 38.5771C104.251 38.431 104.046 38.2283 103.895 37.971C103.744 37.7138 103.668 37.4195 103.668 37.0925C103.668 36.7655 103.744 36.4777 103.895 36.2205C104.046 35.9633 104.251 35.7605 104.509 35.6145C104.767 35.4684 105.051 35.3965 105.36 35.3965C105.67 35.3965 105.956 35.4684 106.214 35.6145C106.472 35.7605 106.675 35.9633 106.824 36.2205C106.973 36.4799 107.048 36.7698 107.048 37.0925C107.048 37.4151 106.973 37.7116 106.824 37.971C106.675 38.2304 106.47 38.431 106.212 38.5771C105.954 38.7231 105.67 38.7951 105.36 38.7951C105.051 38.7951 104.767 38.7231 104.509 38.5771ZM105.885 38.0669C106.036 37.9754 106.154 37.8468 106.239 37.6789C106.323 37.511 106.366 37.3148 106.366 37.0947C106.366 36.8745 106.323 36.6783 106.239 36.5126C106.154 36.3469 106.036 36.2183 105.885 36.1289C105.734 36.0396 105.558 35.996 105.36 35.996C105.162 35.996 104.987 36.0396 104.833 36.1289C104.68 36.2183 104.562 36.3448 104.477 36.5126C104.393 36.6805 104.351 36.8723 104.351 37.0947C104.351 37.317 104.393 37.511 104.477 37.6789C104.562 37.8468 104.682 37.9754 104.833 38.0669C104.987 38.1563 105.162 38.2021 105.36 38.2021C105.558 38.2021 105.734 38.1563 105.885 38.0669Z" fill="#3052F5"/>
<path d="M109.087 38.6751C108.902 38.5966 108.756 38.4811 108.649 38.3329C108.542 38.1846 108.487 38.008 108.484 37.8053H109.194C109.203 37.9426 109.252 38.0495 109.338 38.1279C109.425 38.2064 109.543 38.2478 109.694 38.2478C109.845 38.2478 109.97 38.2108 110.059 38.1367C110.148 38.0625 110.19 37.9644 110.19 37.8445C110.19 37.7464 110.161 37.6658 110.101 37.6026C110.041 37.5393 109.966 37.4892 109.877 37.4521C109.788 37.4151 109.663 37.3758 109.505 37.3301C109.292 37.2668 109.116 37.2036 108.983 37.1426C108.849 37.0815 108.733 36.9878 108.638 36.8614C108.542 36.7371 108.493 36.5692 108.493 36.36C108.493 36.1638 108.542 35.9915 108.64 35.8455C108.738 35.6994 108.876 35.5882 109.051 35.5098C109.227 35.4313 109.43 35.3942 109.656 35.3942C109.997 35.3942 110.272 35.4771 110.486 35.6449C110.699 35.8106 110.815 36.0439 110.837 36.3425H110.11C110.103 36.2292 110.057 36.1332 109.966 36.0591C109.877 35.985 109.756 35.9479 109.61 35.9479C109.481 35.9479 109.376 35.9806 109.301 36.0482C109.223 36.1158 109.185 36.2117 109.185 36.3382C109.185 36.4275 109.214 36.5017 109.272 36.5583C109.329 36.6172 109.403 36.6652 109.49 36.7022C109.576 36.7393 109.699 36.7807 109.857 36.8287C110.07 36.8919 110.246 36.9551 110.381 37.0183C110.517 37.0815 110.633 37.1775 110.731 37.3039C110.828 37.4303 110.877 37.5982 110.877 37.8031C110.877 37.9797 110.831 38.1454 110.739 38.298C110.648 38.4506 110.515 38.5705 110.337 38.662C110.161 38.7514 109.95 38.7972 109.708 38.7972C109.465 38.7972 109.269 38.7579 109.085 38.6795L109.087 38.6751Z" fill="#3052F5"/>
<path d="M114.97 35.4421L113.854 37.6068V38.7622H113.191V37.6068L112.07 35.4421H112.818L113.527 36.9593L114.232 35.4421H114.97Z" fill="#3052F5"/>
<path d="M116.786 38.6751C116.602 38.5966 116.455 38.4811 116.348 38.3329C116.241 38.1846 116.186 38.008 116.184 37.8053H116.893C116.902 37.9426 116.951 38.0495 117.038 38.1279C117.124 38.2064 117.242 38.2478 117.393 38.2478C117.545 38.2478 117.669 38.2108 117.758 38.1367C117.847 38.0625 117.889 37.9644 117.889 37.8445C117.889 37.7464 117.86 37.6658 117.8 37.6026C117.74 37.5393 117.665 37.4892 117.576 37.4521C117.487 37.4151 117.362 37.3758 117.204 37.3301C116.991 37.2668 116.815 37.2036 116.682 37.1426C116.548 37.0815 116.433 36.9878 116.337 36.8614C116.241 36.7371 116.192 36.5692 116.192 36.36C116.192 36.1638 116.241 35.9915 116.339 35.8455C116.437 35.6994 116.575 35.5882 116.751 35.5098C116.926 35.4313 117.129 35.3942 117.356 35.3942C117.696 35.3942 117.972 35.4771 118.185 35.6449C118.399 35.8106 118.514 36.0439 118.537 36.3425H117.809C117.803 36.2292 117.756 36.1332 117.665 36.0591C117.576 35.985 117.456 35.9479 117.309 35.9479C117.18 35.9479 117.075 35.9806 117 36.0482C116.922 36.1158 116.884 36.2117 116.884 36.3382C116.884 36.4275 116.913 36.5017 116.971 36.5583C117.029 36.6172 117.102 36.6652 117.189 36.7022C117.276 36.7393 117.398 36.7807 117.556 36.8287C117.769 36.8919 117.945 36.9551 118.081 37.0183C118.216 37.0815 118.332 37.1775 118.43 37.3039C118.528 37.4303 118.577 37.5982 118.577 37.8031C118.577 37.9797 118.53 38.1454 118.439 38.298C118.348 38.4506 118.214 38.5705 118.036 38.662C117.86 38.7514 117.649 38.7972 117.407 38.7972C117.164 38.7972 116.969 38.7579 116.784 38.6795L116.786 38.6751Z" fill="#3052F5"/>
<path d="M122.365 35.4421V35.9784H121.487V38.76H120.824V35.9784H119.945V35.4421H122.365Z" fill="#3052F5"/>
<path d="M124.487 35.9784V36.8112H125.599V37.3387H124.487V38.2194H125.739V38.7623H123.824V35.4378H125.739V35.9806H124.487V35.9784Z" fill="#3052F5"/>
<path d="M131.005 35.4422V38.7623H130.342V36.6041L129.457 38.7623H128.957L128.067 36.6041V38.7623H127.404V35.4422H128.156L129.206 37.9099L130.255 35.4422H131.003H131.005Z" fill="#3052F5"/>
</svg>
