<svg width="454" height="508" viewBox="0 0 454 508" fill="none" xmlns="http://www.w3.org/2000/svg"><g filter="url(#a)"><path d="M207 15.547a40 40 0 0 1 40 0l176.506 101.906a40 40 0 0 1 20 34.641v203.812a40 40 0 0 1-20 34.641L247 492.453a40.002 40.002 0 0 1-40 0L30.494 390.547a39.999 39.999 0 0 1-20-34.641V152.094a39.999 39.999 0 0 1 20-34.641L207 15.547Z" fill="#1894D6"/></g><defs><filter id="a" x=".494" y=".188" width="453.013" height="507.624" filterUnits="userSpaceOnUse" color-interpolation-filters="sRGB"><feFlood flood-opacity="0" result="BackgroundImageFix"/><feColorMatrix in="SourceAlpha" values="0 0 0 0 0 0 0 0 0 0 0 0 0 0 0 0 0 0 127 0" result="hardAlpha"/><feOffset/><feGaussianBlur stdDeviation="5"/><feComposite in2="hardAlpha" operator="out"/><feColorMatrix values="0 0 0 0 0.0941176 0 0 0 0 0.580392 0 0 0 0 0.839216 0 0 0 1 0"/><feBlend in2="BackgroundImageFix" result="effect1_dropShadow_340_459"/><feBlend in="SourceGraphic" in2="effect1_dropShadow_340_459" result="shape"/></filter></defs></svg>