<svg width="540" height="608" viewBox="0 0 540 608" fill="none" xmlns="http://www.w3.org/2000/svg"><g filter="url(#a)"><path d="M250 15.547a40 40 0 0 1 40 0l219.808 126.906a40 40 0 0 1 20 34.641v253.812a40 40 0 0 1-20 34.641L290 592.453a40.002 40.002 0 0 1-40 0L30.192 465.547a39.999 39.999 0 0 1-20-34.641V177.094a39.999 39.999 0 0 1 20-34.641L250 15.547Z" fill="#ACFCC5"/></g><defs><filter id="a" x=".192" y=".188" width="539.615" height="607.624" filterUnits="userSpaceOnUse" color-interpolation-filters="sRGB"><feFlood flood-opacity="0" result="BackgroundImageFix"/><feColorMatrix in="SourceAlpha" values="0 0 0 0 0 0 0 0 0 0 0 0 0 0 0 0 0 0 127 0" result="hardAlpha"/><feOffset/><feGaussianBlur stdDeviation="5"/><feComposite in2="hardAlpha" operator="out"/><feColorMatrix values="0 0 0 0 0.67451 0 0 0 0 0.988235 0 0 0 0 0.772549 0 0 0 1 0"/><feBlend in2="BackgroundImageFix" result="effect1_dropShadow_340_461"/><feBlend in="SourceGraphic" in2="effect1_dropShadow_340_461" result="shape"/></filter></defs></svg>