<svg width="19" height="19" viewBox="0 0 19 19" fill="none" xmlns="http://www.w3.org/2000/svg">
<g clip-path="url(#clip0_568_757)">
<path d="M5.65791 9.79501C5.64049 10.0985 5.74426 10.3965 5.94643 10.6236C6.14861 10.8506 6.43264 10.9881 6.73613 11.0058H6.79867C7.02218 11.0056 7.24073 10.9399 7.42734 10.8169C7.61395 10.6938 7.76046 10.5189 7.84878 10.3136C7.9371 10.1082 7.96336 9.88154 7.92434 9.66146C7.88531 9.44139 7.7827 9.23755 7.62916 9.07512C7.47563 8.91269 7.27789 8.79876 7.06036 8.74741C6.84282 8.69606 6.61502 8.70953 6.40505 8.78615C6.19508 8.86278 6.01214 8.9992 5.87882 9.1786C5.74549 9.35799 5.66761 9.57249 5.65479 9.79564L5.65791 9.79501Z" fill="#F5F9FF"/>
<path d="M12.2632 8.70599C12.1131 8.69736 11.9628 8.71839 11.8209 8.76786C11.6789 8.81733 11.548 8.89428 11.4358 8.99431C11.2092 9.19634 11.072 9.48014 11.0546 9.78326C11.0372 10.0864 11.1409 10.384 11.3429 10.6107C11.545 10.8373 11.8288 10.9745 12.1319 10.9919C12.1538 10.9919 12.1763 10.9919 12.1982 10.9919C12.419 10.9918 12.6351 10.9278 12.8204 10.8076C13.0056 10.6875 13.1522 10.5163 13.2424 10.3147C13.3325 10.1132 13.3625 9.88982 13.3286 9.67162C13.2947 9.45342 13.1984 9.24969 13.0513 9.08499C12.9516 8.97266 12.8307 8.8813 12.6954 8.81623C12.5601 8.75116 12.4132 8.71368 12.2632 8.70599Z" fill="#F5F9FF"/>
<path d="M7.12272 8.03592C7.21773 8.22574 7.36385 8.38526 7.54462 8.49653C7.72539 8.6078 7.93363 8.66639 8.1459 8.66571C8.3416 8.66575 8.53405 8.61564 8.70487 8.52016C8.8757 8.42468 9.01921 8.28701 9.12169 8.12029C9.22418 7.95357 9.28224 7.76337 9.29031 7.56783C9.29839 7.3723 9.25622 7.17796 9.16783 7.00336C9.07215 6.8144 8.92576 6.65582 8.74505 6.54536C8.56434 6.4349 8.35644 6.37693 8.14465 6.37794C7.94955 6.37828 7.75777 6.42845 7.58751 6.5237C7.41724 6.61896 7.27414 6.75613 7.17177 6.92222C7.0694 7.0883 7.01116 7.27779 7.00257 7.4727C6.99399 7.66761 7.03535 7.86148 7.12272 8.03592Z" fill="#F5F9FF"/>
<path d="M9.88595 6.88685C9.74638 7.09984 9.68183 7.3533 9.70251 7.60711C9.7232 7.86092 9.82794 8.10058 10.0002 8.28816C10.1724 8.47575 10.4022 8.60054 10.6534 8.64279C10.9045 8.68503 11.1625 8.64233 11.3866 8.52142C11.6108 8.40052 11.7882 8.20832 11.8907 7.97526C11.9933 7.74219 12.0153 7.48156 11.9531 7.23462C11.8909 6.98768 11.7481 6.76854 11.5474 6.61187C11.3466 6.4552 11.0994 6.36996 10.8447 6.36963C10.6545 6.3695 10.4673 6.41671 10.2999 6.507C10.1325 6.5973 9.99028 6.72784 9.88595 6.88685Z" fill="#F5F9FF"/>
<path d="M11.8759 11.6731C11.7842 11.4913 11.6457 11.3372 11.4745 11.2268C11.3034 11.1164 11.106 11.0536 10.9025 11.045C10.699 11.0363 10.4969 11.0822 10.3171 11.1777C10.1372 11.2732 9.98614 11.415 9.87938 11.5884C9.77261 11.7618 9.71405 11.9606 9.70973 12.1642C9.70541 12.3678 9.7555 12.5689 9.85482 12.7466C9.95414 12.9244 10.0991 13.0725 10.2747 13.1756C10.4504 13.2786 10.6503 13.333 10.854 13.333C11.0331 13.3317 11.2095 13.2889 11.3693 13.2079C11.6396 13.0711 11.8446 12.8328 11.9396 12.5451C12.0345 12.2575 12.0116 11.9439 11.8759 11.6731Z" fill="#F5F9FF"/>
<path d="M9.11254 12.8197C9.25213 12.6066 9.31668 12.3531 9.29597 12.0993C9.27527 11.8455 9.17049 11.6058 8.99823 11.4182C8.82597 11.2306 8.59606 11.1059 8.3449 11.0637C8.09375 11.0215 7.83569 11.0642 7.61158 11.1852C7.38747 11.3062 7.21012 11.4985 7.10759 11.7316C7.00506 11.9647 6.98321 12.2254 7.04551 12.4723C7.10781 12.7193 7.2507 12.9384 7.45154 13.095C7.65239 13.2516 7.89973 13.3367 8.15441 13.3369C8.3446 13.3375 8.53193 13.2905 8.69929 13.2002C8.86665 13.1098 9.00873 12.979 9.11254 12.8197Z" fill="#F5F9FF"/>
<path d="M1.39028 9.50546C1.31731 9.50138 1.24477 9.51901 1.18183 9.55614C1.11888 9.59327 1.06836 9.64823 1.03663 9.71407C1.00491 9.7799 0.993422 9.85367 1.00361 9.92603C1.0138 9.9984 1.04521 10.0661 1.09388 10.1206C1.14254 10.1752 1.20628 10.214 1.27703 10.2323C1.34778 10.2506 1.42237 10.2476 1.49137 10.2235C1.56037 10.1994 1.62069 10.1554 1.6647 10.0971C1.70871 10.0388 1.73444 9.96868 1.73863 9.89572C1.7415 9.84719 1.73476 9.79858 1.71879 9.75267C1.70282 9.70676 1.67793 9.66446 1.64556 9.62819C1.61319 9.59193 1.57397 9.56242 1.53016 9.54135C1.48635 9.52029 1.43881 9.50809 1.39028 9.50546Z" fill="#F5F9FF"/>
<path d="M5.58528 3.15273C5.65026 3.11936 5.70393 3.0675 5.73951 3.0037C5.77509 2.9399 5.791 2.86699 5.78524 2.79417C5.77948 2.72134 5.7523 2.65185 5.70712 2.59443C5.66195 2.53702 5.6008 2.49425 5.53138 2.47151C5.46195 2.44878 5.38735 2.44709 5.31697 2.46666C5.24658 2.48622 5.18356 2.52618 5.13583 2.58149C5.08811 2.6368 5.05781 2.70499 5.04875 2.77748C5.0397 2.84997 5.05229 2.92352 5.08495 2.98887C5.1069 3.03261 5.13729 3.07158 5.17437 3.10352C5.21145 3.13546 5.25448 3.15975 5.30099 3.17498C5.3475 3.19021 5.39657 3.19609 5.44536 3.19227C5.49415 3.18845 5.5417 3.17501 5.58528 3.15273Z" fill="#F5F9FF"/>
<path d="M2.83816 6.56999C2.91601 6.62118 3.00729 6.64813 3.10046 6.64743C3.19363 6.64673 3.28449 6.61841 3.36156 6.56605C3.43863 6.51369 3.49844 6.43965 3.53341 6.35329C3.56839 6.26694 3.57696 6.17215 3.55805 6.08091C3.53914 5.98968 3.49359 5.90611 3.42717 5.84077C3.36075 5.77544 3.27644 5.73127 3.18491 5.71386C3.09338 5.69645 2.99874 5.70658 2.91297 5.74298C2.8272 5.77937 2.75415 5.84038 2.70307 5.9183C2.63465 6.02266 2.61045 6.14991 2.63578 6.27209C2.66111 6.39428 2.7339 6.50142 2.83816 6.56999Z" fill="#F5F9FF"/>
<path d="M2.90109 13.1395C2.81798 13.1815 2.74919 13.2472 2.70341 13.3283C2.65763 13.4094 2.63692 13.5022 2.6439 13.5951C2.65088 13.688 2.68524 13.7767 2.74263 13.85C2.80002 13.9234 2.87786 13.978 2.96632 14.0071C3.05478 14.0363 3.14988 14.0385 3.2396 14.0135C3.32933 13.9886 3.40965 13.9376 3.47041 13.8671C3.53117 13.7965 3.56964 13.7095 3.58096 13.6171C3.59228 13.5246 3.57595 13.4309 3.53402 13.3478C3.50615 13.2925 3.46768 13.2433 3.42078 13.2029C3.37389 13.1625 3.31949 13.1318 3.26072 13.1125C3.20194 13.0931 3.13992 13.0856 3.07821 13.0902C3.01651 13.0948 2.95632 13.1116 2.90109 13.1395Z" fill="#F5F9FF"/>
<path d="M13.346 3.11398C13.4072 3.15414 13.479 3.17522 13.5523 3.17456C13.6255 3.1739 13.6969 3.15153 13.7575 3.11028C13.818 3.06903 13.8649 3.01075 13.8923 2.94282C13.9197 2.87489 13.9264 2.80036 13.9114 2.72866C13.8964 2.65695 13.8605 2.5913 13.8082 2.54001C13.7559 2.48872 13.6896 2.45409 13.6176 2.4405C13.5456 2.42692 13.4713 2.43499 13.4039 2.4637C13.3365 2.4924 13.2791 2.54045 13.239 2.60176C13.1854 2.68389 13.1665 2.78396 13.1865 2.88C13.2066 2.97604 13.2639 3.06019 13.346 3.11398Z" fill="#F5F9FF"/>
<path d="M16.0972 6.5696C16.1803 6.52765 16.2491 6.462 16.295 6.38094C16.3408 6.29989 16.3616 6.20706 16.3546 6.11421C16.3477 6.02135 16.3134 5.93263 16.2561 5.85925C16.1988 5.78587 16.121 5.73113 16.0326 5.70195C15.9442 5.67277 15.8491 5.67045 15.7594 5.69529C15.6696 5.72014 15.5893 5.77103 15.5284 5.84153C15.4676 5.91203 15.429 5.99898 15.4176 6.09139C15.4062 6.1838 15.4224 6.27752 15.4643 6.36071C15.5205 6.47229 15.6188 6.55696 15.7375 6.59613C15.8562 6.63529 15.9855 6.62575 16.0972 6.5696Z" fill="#F5F9FF"/>
<path d="M9.45588 2.94111C9.54889 2.94641 9.64138 2.924 9.72165 2.87673C9.80192 2.82945 9.86637 2.75943 9.90684 2.67552C9.94731 2.59161 9.96198 2.49759 9.949 2.40534C9.93603 2.31308 9.89598 2.22676 9.83393 2.15727C9.77188 2.08778 9.69062 2.03826 9.60042 2.01496C9.51022 1.99167 9.41514 1.99565 9.3272 2.0264C9.23927 2.05715 9.16242 2.11329 9.1064 2.18772C9.05037 2.26215 9.01768 2.35152 9.01246 2.44453C9.00546 2.56917 9.04824 2.69149 9.13138 2.78461C9.21453 2.87772 9.33125 2.93402 9.45588 2.94111Z" fill="#F5F9FF"/>
<path d="M17.6513 9.46643C17.5782 9.46222 17.5055 9.47979 17.4423 9.51691C17.3792 9.55402 17.3285 9.60903 17.2967 9.67496C17.2648 9.74089 17.2532 9.81479 17.2633 9.88732C17.2735 9.95984 17.3049 10.0277 17.3536 10.0824C17.4023 10.1371 17.4662 10.1761 17.537 10.1945C17.6079 10.2128 17.6827 10.2098 17.7518 10.1857C17.821 10.1616 17.8814 10.1175 17.9255 10.0591C17.9697 10.0006 17.9954 9.93043 17.9996 9.85732C18.0051 9.75933 17.9715 9.66317 17.9062 9.5899C17.8409 9.51664 17.7493 9.47224 17.6513 9.46643Z" fill="#F5F9FF"/>
<path d="M16.1596 13.1375C16.0817 13.0865 15.9904 13.0597 15.8973 13.0606C15.8042 13.0614 15.7134 13.0898 15.6365 13.1423C15.5595 13.1947 15.4998 13.2688 15.4649 13.3551C15.4301 13.4415 15.4216 13.5362 15.4405 13.6274C15.4595 13.7186 15.5051 13.8021 15.5715 13.8674C15.6379 13.9326 15.7222 13.9768 15.8137 13.9941C15.9052 14.0115 15.9998 14.0014 16.0855 13.965C16.1712 13.9287 16.2443 13.8677 16.2953 13.7898C16.3293 13.7381 16.3527 13.6802 16.3643 13.6194C16.3758 13.5586 16.3753 13.4961 16.3627 13.4356C16.3501 13.375 16.3256 13.3175 16.2908 13.2663C16.256 13.2152 16.2114 13.1714 16.1596 13.1375Z" fill="#F5F9FF"/>
<path d="M5.65345 16.5944C5.59223 16.5542 5.52048 16.5331 5.44726 16.5337C5.37405 16.5343 5.30265 16.5566 5.24211 16.5978C5.18156 16.639 5.13459 16.6972 5.10712 16.765C5.07965 16.8329 5.07292 16.9074 5.08779 16.9791C5.10265 17.0508 5.13844 17.1165 5.19063 17.1678C5.24281 17.2192 5.30905 17.2539 5.38098 17.2676C5.4529 17.2813 5.52728 17.2734 5.5947 17.2449C5.66212 17.2163 5.71957 17.1684 5.75977 17.1072C5.78647 17.0666 5.80491 17.0211 5.81402 16.9733C5.82313 16.9255 5.82274 16.8764 5.81286 16.8288C5.80299 16.7812 5.78383 16.7359 5.75647 16.6957C5.72912 16.6555 5.69411 16.6211 5.65345 16.5944Z" fill="#F5F9FF"/>
<path d="M13.4131 16.5555C13.3477 16.5884 13.2935 16.64 13.2575 16.7038C13.2214 16.7675 13.2051 16.8405 13.2105 16.9136C13.2159 16.9866 13.2429 17.0564 13.288 17.1141C13.3331 17.1718 13.3943 17.2148 13.4638 17.2377C13.5334 17.2607 13.6082 17.2624 13.6787 17.2428C13.7493 17.2233 13.8125 17.1832 13.8603 17.1277C13.9081 17.0722 13.9383 17.0038 13.9472 16.9311C13.9561 16.8584 13.9433 16.7847 13.9103 16.7193C13.8885 16.6759 13.8583 16.6371 13.8214 16.6054C13.7846 16.5736 13.7419 16.5494 13.6957 16.5342C13.6495 16.519 13.6008 16.513 13.5523 16.5167C13.5038 16.5203 13.4565 16.5335 13.4131 16.5555Z" fill="#F5F9FF"/>
<path d="M9.49475 16.7669C9.40177 16.7616 9.30931 16.784 9.22906 16.8312C9.14881 16.8785 9.08437 16.9485 9.04389 17.0324C9.00341 17.1162 8.9887 17.2102 9.00163 17.3024C9.01456 17.3947 9.05455 17.481 9.11654 17.5505C9.17852 17.62 9.25973 17.6696 9.34988 17.6929C9.44003 17.7163 9.53509 17.7124 9.62303 17.6817C9.71097 17.6511 9.78785 17.595 9.84394 17.5207C9.90003 17.4464 9.93283 17.3571 9.93817 17.2641C9.94172 17.2023 9.93307 17.1405 9.9127 17.082C9.89234 17.0236 9.86066 16.9698 9.81948 16.9236C9.7783 16.8774 9.72843 16.8398 9.67271 16.8129C9.61699 16.786 9.55652 16.7704 9.49475 16.7669Z" fill="#F5F9FF"/>
<path d="M6.81655 5.09638C6.9175 5.04545 7.00108 4.96575 7.05673 4.86733C7.11238 4.76891 7.13761 4.65621 7.12921 4.54346C7.12082 4.43071 7.07918 4.32298 7.00957 4.23388C6.93996 4.14479 6.8455 4.07834 6.73812 4.04293C6.63075 4.00752 6.51529 4.00473 6.40633 4.03493C6.29738 4.06513 6.19982 4.12696 6.126 4.21259C6.05218 4.29823 6.0054 4.40383 5.99159 4.51604C5.97777 4.62826 5.99754 4.74205 6.04839 4.84303C6.08217 4.91012 6.12884 4.9699 6.18574 5.01895C6.24263 5.068 6.30863 5.10535 6.37997 5.12888C6.45131 5.15241 6.52658 5.16164 6.60149 5.15607C6.6764 5.15049 6.74948 5.13021 6.81655 5.09638Z" fill="#F5F9FF"/>
<path d="M3.60395 9.21673C3.49108 9.21036 3.37885 9.2376 3.28145 9.295C3.18405 9.3524 3.10586 9.43739 3.05675 9.53922C3.00765 9.64105 2.98983 9.75516 3.00556 9.86711C3.02129 9.97907 3.06986 10.0838 3.14513 10.1682C3.22039 10.2526 3.31898 10.3127 3.42842 10.3411C3.53787 10.3694 3.65326 10.3646 3.76001 10.3274C3.86676 10.2902 3.96007 10.2222 4.02816 10.1319C4.09625 10.0417 4.13606 9.93324 4.14254 9.82037C4.15108 9.66893 4.09915 9.52028 3.99817 9.4071C3.89718 9.29391 3.75539 9.22544 3.60395 9.21673Z" fill="#F5F9FF"/>
<path d="M5.19257 8.03487C5.3039 8.10783 5.43437 8.14614 5.56748 8.14496C5.70059 8.14378 5.83036 8.10315 5.94038 8.02822C6.05041 7.95329 6.13574 7.84742 6.18559 7.72399C6.23545 7.60057 6.24759 7.46513 6.22047 7.33481C6.19336 7.20448 6.12821 7.08513 6.03326 6.99183C5.93832 6.89853 5.81784 6.83547 5.68706 6.81064C5.55628 6.78581 5.42108 6.80032 5.29854 6.85232C5.17601 6.90433 5.07165 6.9915 4.99865 7.10281C4.95009 7.17672 4.91658 7.25947 4.90005 7.34634C4.88351 7.43321 4.88427 7.52249 4.90228 7.60906C4.92029 7.69564 4.9552 7.77781 5.00502 7.85088C5.05483 7.92394 5.11856 7.98646 5.19257 8.03487Z" fill="#F5F9FF"/>
<path d="M12.2438 5.05176C12.3386 5.1136 12.4496 5.14594 12.5628 5.1447C12.6759 5.14346 12.7862 5.1087 12.8796 5.0448C12.973 4.98091 13.0454 4.89075 13.0876 4.78573C13.1298 4.68071 13.1399 4.56553 13.1167 4.45477C13.0934 4.344 13.0378 4.24262 12.957 4.16343C12.8761 4.08424 12.7736 4.0308 12.6623 4.00987C12.5511 3.98894 12.4362 4.00146 12.3321 4.04584C12.2279 4.09022 12.1393 4.16447 12.0774 4.25921C12.0362 4.32214 12.0078 4.39258 11.9938 4.46651C11.9799 4.54044 11.9806 4.6164 11.9961 4.69002C12.0115 4.76365 12.0414 4.83351 12.0839 4.89558C12.1264 4.95766 12.1807 5.01073 12.2438 5.05176Z" fill="#F5F9FF"/>
<path d="M13.2658 6.8534C13.1469 6.91328 13.0485 7.00708 12.9829 7.12292C12.9173 7.23876 12.8875 7.37145 12.8973 7.50421C12.9072 7.63697 12.9561 7.76384 13.0381 7.86877C13.12 7.97369 13.2312 8.05197 13.3576 8.0937C13.484 8.13543 13.62 8.13874 13.7483 8.1032C13.8765 8.06767 13.9914 7.99489 14.0784 7.89407C14.1653 7.79325 14.2204 7.66891 14.2366 7.53679C14.2529 7.40466 14.2296 7.27068 14.1697 7.15178C14.13 7.07278 14.0751 7.00239 14.0082 6.94462C13.9413 6.88686 13.8636 6.84286 13.7797 6.81514C13.6957 6.78743 13.6071 6.77654 13.5189 6.78311C13.4308 6.78967 13.3448 6.81356 13.2658 6.8534Z" fill="#F5F9FF"/>
<path d="M9.5216 5.8246C9.65448 5.83205 9.78658 5.79994 9.90121 5.73233C10.0158 5.66472 10.1079 5.56465 10.1656 5.44476C10.2234 5.32487 10.2443 5.19054 10.2258 5.05876C10.2072 4.92697 10.15 4.80365 10.0614 4.70436C9.97279 4.60508 9.85673 4.53429 9.72789 4.50095C9.59905 4.46762 9.46322 4.47322 9.33756 4.51706C9.2119 4.5609 9.10206 4.641 9.02192 4.74725C8.94178 4.8535 8.89493 4.98112 8.8873 5.11398C8.87723 5.29232 8.93839 5.46736 9.05733 5.60061C9.17628 5.73387 9.34327 5.81443 9.5216 5.8246Z" fill="#F5F9FF"/>
<path d="M5.87453 12.6955C5.99341 12.6355 6.09185 12.5417 6.15739 12.4258C6.22293 12.3099 6.25263 12.1772 6.24274 12.0444C6.23284 11.9117 6.1838 11.7848 6.10181 11.6799C6.01981 11.5751 5.90856 11.4968 5.78211 11.4552C5.65566 11.4135 5.51969 11.4103 5.39141 11.4459C5.26313 11.4816 5.1483 11.5544 5.06144 11.6553C4.97457 11.7562 4.91958 11.8806 4.90342 12.0127C4.88725 12.1449 4.91064 12.2789 4.97063 12.3977C5.05103 12.557 5.19142 12.6779 5.36093 12.7338C5.53043 12.7896 5.71517 12.7758 5.87453 12.6955Z" fill="#F5F9FF"/>
<path d="M13.9477 11.5132C13.8364 11.4402 13.706 11.4018 13.5729 11.4029C13.4398 11.4039 13.31 11.4445 13.1999 11.5193C13.0898 11.5942 13.0044 11.7 12.9544 11.8234C12.9045 11.9468 12.8923 12.0822 12.9193 12.2126C12.9463 12.3429 13.0114 12.4623 13.1063 12.5557C13.2012 12.6491 13.3216 12.7122 13.4524 12.7371C13.5832 12.762 13.7184 12.7476 13.841 12.6956C13.9635 12.6437 14.068 12.5566 14.141 12.4453C14.2387 12.296 14.2731 12.114 14.2369 11.9393C14.2007 11.7646 14.0967 11.6114 13.9477 11.5132Z" fill="#F5F9FF"/>
<path d="M16.1392 9.7939C16.1455 9.68102 16.1183 9.56879 16.0609 9.47139C16.0035 9.374 15.9185 9.2958 15.8167 9.24669C15.7148 9.19759 15.6007 9.17977 15.4888 9.1955C15.3768 9.21123 15.272 9.2598 15.1877 9.33507C15.1033 9.41033 15.0432 9.50892 15.0148 9.61836C14.9865 9.72781 14.9912 9.8432 15.0285 9.94995C15.0657 10.0567 15.1337 10.15 15.224 10.2181C15.3142 10.2862 15.4226 10.326 15.5355 10.3325C15.687 10.341 15.8356 10.2891 15.9488 10.1881C16.062 10.0871 16.1304 9.94533 16.1392 9.7939Z" fill="#F5F9FF"/>
<path d="M6.895 14.4976C6.80039 14.4357 6.68955 14.4032 6.5765 14.4043C6.46345 14.4054 6.35326 14.44 6.25986 14.5037C6.16646 14.5674 6.09404 14.6573 6.05175 14.7622C6.00947 14.867 5.99921 14.9821 6.02229 15.0928C6.04537 15.2034 6.10075 15.3048 6.18141 15.384C6.26208 15.4632 6.36442 15.5167 6.4755 15.5378C6.58658 15.5588 6.7014 15.5465 6.80547 15.5023C6.90953 15.4581 6.99815 15.3841 7.06014 15.2895C7.14317 15.1626 7.17241 15.0079 7.14145 14.8594C7.11048 14.7109 7.02184 14.5808 6.895 14.4976Z" fill="#F5F9FF"/>
<path d="M9.56987 13.7249C9.43688 13.7168 9.30448 13.7484 9.18944 13.8156C9.07441 13.8828 8.98191 13.9827 8.92367 14.1025C8.86543 14.2223 8.84406 14.3568 8.86228 14.4887C8.88049 14.6207 8.93747 14.7443 9.026 14.8439C9.11452 14.9435 9.2306 15.0146 9.35955 15.0481C9.48849 15.0817 9.62449 15.0762 9.75032 15.0324C9.87615 14.9886 9.98615 14.9084 10.0664 14.802C10.1466 14.6957 10.1935 14.5679 10.201 14.4349C10.2113 14.2571 10.1506 14.0824 10.0323 13.9493C9.91394 13.8162 9.74765 13.7355 9.56987 13.7249Z" fill="#F5F9FF"/>
<path d="M12.3227 14.452C12.2217 14.5033 12.1381 14.5833 12.0826 14.6821C12.0272 14.7808 12.0022 14.8938 12.011 15.0067C12.0198 15.1197 12.0618 15.2274 12.1319 15.3164C12.2019 15.4054 12.2968 15.4717 12.4045 15.5067C12.5122 15.5418 12.6279 15.5441 12.7369 15.5134C12.8459 15.4826 12.9434 15.4203 13.0169 15.3341C13.0905 15.248 13.1368 15.142 13.1501 15.0295C13.1633 14.917 13.1429 14.8031 13.0914 14.7022C13.0575 14.6353 13.0106 14.5757 12.9535 14.5269C12.8965 14.478 12.8304 14.4409 12.7589 14.4177C12.6875 14.3944 12.6122 14.3855 12.5374 14.3914C12.4625 14.3973 12.3896 14.4179 12.3227 14.452Z" fill="#F5F9FF"/>
</g>
<defs>
<clipPath id="clip0_568_757">
<rect width="19" height="19" fill="white"/>
</clipPath>
</defs>
</svg>
