<svg width="19" height="19" viewBox="0 0 19 19" fill="none" xmlns="http://www.w3.org/2000/svg">
<g clip-path="url(#clip0_568_761)">
<path d="M5.65791 9.79501C5.64049 10.0985 5.74426 10.3965 5.94643 10.6236C6.14861 10.8506 6.43264 10.9881 6.73613 11.0058H6.79867C7.02218 11.0056 7.24073 10.9399 7.42734 10.8169C7.61395 10.6938 7.76046 10.5189 7.84878 10.3136C7.9371 10.1082 7.96336 9.88154 7.92434 9.66146C7.88531 9.44139 7.7827 9.23755 7.62916 9.07512C7.47563 8.91269 7.27789 8.79876 7.06036 8.74741C6.84282 8.69606 6.61502 8.70953 6.40505 8.78615C6.19508 8.86278 6.01214 8.9992 5.87882 9.1786C5.74549 9.35799 5.66761 9.57249 5.65479 9.79564L5.65791 9.79501Z" fill="#F5F9FF"/>
<path d="M12.2632 8.70599C12.1131 8.69736 11.9628 8.71839 11.8209 8.76786C11.6789 8.81733 11.548 8.89428 11.4358 8.99431C11.2092 9.19634 11.072 9.48014 11.0546 9.78326C11.0372 10.0864 11.1409 10.384 11.3429 10.6107C11.545 10.8373 11.8288 10.9745 12.1319 10.9919C12.1538 10.9919 12.1763 10.9919 12.1982 10.9919C12.419 10.9918 12.6351 10.9278 12.8204 10.8076C13.0056 10.6875 13.1522 10.5163 13.2424 10.3147C13.3325 10.1132 13.3625 9.88982 13.3286 9.67162C13.2947 9.45342 13.1984 9.24969 13.0513 9.08499C12.9516 8.97266 12.8307 8.8813 12.6954 8.81623C12.5601 8.75116 12.4132 8.71368 12.2632 8.70599Z" fill="#F5F9FF"/>
<path d="M7.12272 8.03592C7.21773 8.22574 7.36385 8.38526 7.54462 8.49653C7.72539 8.6078 7.93363 8.66639 8.1459 8.66571C8.3416 8.66575 8.53405 8.61564 8.70487 8.52016C8.8757 8.42468 9.01921 8.28701 9.12169 8.12029C9.22418 7.95357 9.28224 7.76337 9.29031 7.56783C9.29839 7.3723 9.25622 7.17796 9.16783 7.00336C9.07215 6.8144 8.92576 6.65582 8.74505 6.54536C8.56434 6.4349 8.35644 6.37693 8.14465 6.37794C7.94955 6.37828 7.75777 6.42845 7.58751 6.5237C7.41724 6.61896 7.27414 6.75613 7.17177 6.92222C7.0694 7.0883 7.01116 7.27779 7.00257 7.4727C6.99399 7.66761 7.03535 7.86148 7.12272 8.03592Z" fill="#F5F9FF"/>
<path d="M9.88595 6.88685C9.74638 7.09984 9.68183 7.3533 9.70251 7.60711C9.7232 7.86092 9.82794 8.10058 10.0002 8.28816C10.1724 8.47575 10.4022 8.60054 10.6534 8.64279C10.9045 8.68503 11.1625 8.64233 11.3866 8.52142C11.6108 8.40052 11.7882 8.20832 11.8907 7.97526C11.9933 7.74219 12.0153 7.48156 11.9531 7.23462C11.8909 6.98768 11.7481 6.76854 11.5474 6.61187C11.3466 6.4552 11.0994 6.36996 10.8447 6.36963C10.6545 6.3695 10.4673 6.41671 10.2999 6.507C10.1325 6.5973 9.99028 6.72784 9.88595 6.88685Z" fill="#F5F9FF"/>
<path d="M11.8759 11.6731C11.7842 11.4913 11.6457 11.3372 11.4745 11.2268C11.3034 11.1164 11.106 11.0536 10.9025 11.045C10.699 11.0363 10.4969 11.0822 10.3171 11.1777C10.1372 11.2732 9.98614 11.415 9.87938 11.5884C9.77261 11.7618 9.71405 11.9606 9.70973 12.1642C9.70541 12.3678 9.7555 12.5689 9.85482 12.7466C9.95414 12.9244 10.0991 13.0725 10.2747 13.1756C10.4504 13.2786 10.6503 13.333 10.854 13.333C11.0331 13.3317 11.2095 13.2889 11.3693 13.2079C11.6396 13.0711 11.8446 12.8328 11.9396 12.5451C12.0345 12.2575 12.0116 11.9439 11.8759 11.6731Z" fill="#F5F9FF"/>
<path d="M9.11254 12.8197C9.25213 12.6066 9.31668 12.3531 9.29597 12.0993C9.27527 11.8455 9.17049 11.6058 8.99823 11.4182C8.82597 11.2306 8.59606 11.1059 8.3449 11.0637C8.09375 11.0215 7.83569 11.0642 7.61158 11.1852C7.38747 11.3062 7.21012 11.4985 7.10759 11.7316C7.00506 11.9647 6.98321 12.2254 7.04551 12.4723C7.10781 12.7193 7.2507 12.9384 7.45154 13.095C7.65239 13.2516 7.89973 13.3367 8.15441 13.3369C8.3446 13.3375 8.53193 13.2905 8.69929 13.2002C8.86665 13.1098 9.00873 12.979 9.11254 12.8197Z" fill="#F5F9FF"/>
</g>
<defs>
<clipPath id="clip0_568_761">
<rect width="19" height="19" fill="white"/>
</clipPath>
</defs>
</svg>
