<svg width="44" height="44" viewBox="0 0 44 44" fill="none" xmlns="http://www.w3.org/2000/svg">
<path d="M34.0817 10.7983C31.8267 9.75327 29.4251 8.98327 26.8951 8.54327C26.5834 9.09327 26.2167 9.84494 25.9784 10.4499C23.3017 10.0466 20.6434 10.0466 18.0218 10.4499C17.7651 9.84494 17.3984 9.09327 17.0867 8.54327C14.5568 8.98327 12.1551 9.75327 9.90008 10.7983C5.35342 17.6549 4.12508 24.3467 4.73008 30.9283C7.75508 33.1833 10.6701 34.54 13.5484 35.4383C14.2634 34.4667 14.8867 33.4217 15.4367 32.34C14.3917 31.955 13.4018 31.46 12.4668 30.8917C12.7234 30.7083 12.9617 30.5067 13.2001 30.3233C18.9384 33 25.1534 33 30.8184 30.3233C31.0567 30.525 31.2951 30.7083 31.5517 30.8917C30.6167 31.46 29.6084 31.9367 28.5817 32.34C29.1317 33.4217 29.7551 34.4667 30.4701 35.4383C33.3484 34.54 36.2817 33.1833 39.2884 30.9283C40.0034 23.2833 38.0601 16.6649 34.1184 10.7983H34.0817ZM16.2067 26.895C14.4834 26.895 13.0717 25.3 13.0717 23.3383C13.0717 21.3767 14.4467 19.7817 16.2067 19.7817C17.9667 19.7817 19.3601 21.3767 19.3417 23.3383C19.3417 25.2817 17.9667 26.895 16.2067 26.895ZM27.7751 26.895C26.0517 26.895 24.6401 25.3 24.6401 23.3383C24.6401 21.3767 26.0151 19.7817 27.7751 19.7817C29.5351 19.7817 30.9284 21.3767 30.9101 23.3383C30.9101 25.2817 29.5351 26.895 27.7751 26.895Z" fill="#39486C"/>
</svg>
