<svg width="19" height="19" viewBox="0 0 19 19" fill="none" xmlns="http://www.w3.org/2000/svg">
<path fill-rule="evenodd" clip-rule="evenodd" d="M9.5 3.4375C6.18629 3.4375 3.5 6.12379 3.5 9.4375C3.5 12.7512 6.18629 15.4375 9.5 15.4375C12.8137 15.4375 15.5 12.7512 15.5 9.4375C15.5 6.12379 12.8137 3.4375 9.5 3.4375ZM2 9.4375C2 5.29536 5.35786 1.9375 9.5 1.9375C13.6421 1.9375 17 5.29536 17 9.4375C17 13.5796 13.6421 16.9375 9.5 16.9375C5.35786 16.9375 2 13.5796 2 9.4375ZM9.28033 6.65717C9.57322 6.95006 9.57322 7.42494 9.28033 7.71783L8.31066 8.6875L12.5 8.6875C12.9142 8.6875 13.25 9.02329 13.25 9.4375C13.25 9.85171 12.9142 10.1875 12.5 10.1875L8.31066 10.1875L9.28033 11.1572C9.57322 11.4501 9.57322 11.9249 9.28033 12.2178C8.98744 12.5107 8.51256 12.5107 8.21967 12.2178L5.96967 9.96783C5.67678 9.67494 5.67678 9.20006 5.96967 8.90717L8.21967 6.65717C8.51256 6.36428 8.98744 6.36428 9.28033 6.65717Z" fill="#3052F5"/>
</svg>
