<svg width="18" height="18" viewBox="0 0 19 19" fill="none" xmlns="http://www.w3.org/2000/svg">
<path fill-rule="evenodd" clip-rule="evenodd" d="M9.5 3.5C6.18629 3.5 3.5 6.18629 3.5 9.5C3.5 12.8137 6.18629 15.5 9.5 15.5C12.8137 15.5 15.5 12.8137 15.5 9.5C15.5 6.18629 12.8137 3.5 9.5 3.5ZM2 9.5C2 5.35786 5.35786 2 9.5 2C13.6421 2 17 5.35786 17 9.5C17 13.6421 13.6421 17 9.5 17C5.35786 17 2 13.6421 2 9.5ZM9.71967 6.71967C10.0126 6.42678 10.4874 6.42678 10.7803 6.71967L13.0303 8.96967C13.3232 9.26256 13.3232 9.73744 13.0303 10.0303L10.7803 12.2803C10.4874 12.5732 10.0126 12.5732 9.71967 12.2803C9.42678 11.9874 9.42678 11.5126 9.71967 11.2197L10.6893 10.25L6.5 10.25C6.08579 10.25 5.75 9.91421 5.75 9.5C5.75 9.08578 6.08579 8.75 6.5 8.75L10.6893 8.75L9.71967 7.78033C9.42678 7.48744 9.42678 7.01256 9.71967 6.71967Z" fill="#3052F5"/>
</svg>
