<svg width="24" height="24" viewBox="0 0 24 24" fill="none" xmlns="http://www.w3.org/2000/svg">
<path d="M10.2505 10.3899C9.68047 10.3899 9.23047 10.8899 9.23047 11.4999C9.23047 12.1099 9.69047 12.6099 10.2505 12.6099C10.8205 12.6099 11.2705 12.1099 11.2705 11.4999C11.2805 10.8899 10.8205 10.3899 10.2505 10.3899ZM13.9005 10.3899C13.3305 10.3899 12.8805 10.8899 12.8805 11.4999C12.8805 12.1099 13.3405 12.6099 13.9005 12.6099C14.4705 12.6099 14.9205 12.1099 14.9205 11.4999C14.9205 10.8899 14.4705 10.3899 13.9005 10.3899Z" fill="black"/>
<path d="M18.7605 2H5.36055C4.23055 2 3.31055 2.92 3.31055 4.06V17.58C3.31055 18.72 4.23055 19.64 5.36055 19.64H16.7005L16.1705 17.79L17.4505 18.98L18.6605 20.1L20.8105 22V4.06C20.8105 2.92 19.8905 2 18.7605 2ZM14.9005 15.06C14.9005 15.06 14.5405 14.63 14.2405 14.25C15.5505 13.88 16.0505 13.06 16.0505 13.06C15.6405 13.33 15.2505 13.52 14.9005 13.65C14.4005 13.86 13.9205 14 13.4505 14.08C12.4905 14.26 11.6105 14.21 10.8605 14.07C10.2905 13.96 9.80055 13.8 9.39055 13.64C9.16055 13.55 8.91055 13.44 8.66055 13.3C8.63055 13.28 8.60055 13.27 8.57055 13.25C8.55055 13.24 8.54055 13.23 8.53055 13.22C8.35055 13.12 8.25055 13.05 8.25055 13.05C8.25055 13.05 8.73055 13.85 10.0005 14.23C9.70055 14.61 9.33055 15.06 9.33055 15.06C7.12055 14.99 6.28055 13.54 6.28055 13.54C6.28055 10.32 7.72055 7.71 7.72055 7.71C9.16055 6.63 10.5305 6.66 10.5305 6.66L10.6305 6.78C8.83055 7.3 8.00055 8.09 8.00055 8.09C8.00055 8.09 8.22055 7.97 8.59055 7.8C9.66055 7.33 10.5105 7.2 10.8605 7.17C10.9205 7.16 10.9705 7.15 11.0305 7.15C11.6405 7.07 12.3305 7.05 13.0505 7.13C14.0005 7.24 15.0205 7.52 16.0605 8.09C16.0605 8.09 15.2705 7.34 13.5705 6.82L13.7105 6.66C13.7105 6.66 15.0805 6.63 16.5205 7.71C16.5205 7.71 17.9605 10.32 17.9605 13.54C17.9605 13.54 17.1105 14.99 14.9005 15.06Z" fill="black"/>
</svg>
