<svg width="18" height="18" viewBox="0 0 18 18" fill="none" xmlns="http://www.w3.org/2000/svg">
<path fill-rule="evenodd" clip-rule="evenodd" d="M10.5 4.25C10.0858 4.25 9.75 3.91421 9.75 3.5C9.75 3.08579 10.0858 2.75 10.5 2.75H15C15.4142 2.75 15.75 3.08579 15.75 3.5V8C15.75 8.41421 15.4142 8.75 15 8.75C14.5858 8.75 14.25 8.41421 14.25 8V5.31066L8.03033 11.5303C7.73744 11.8232 7.26256 11.8232 6.96967 11.5303C6.67678 11.2374 6.67678 10.7626 6.96967 10.4697L13.1893 4.25H10.5ZM4.5 5.75C4.08579 5.75 3.75 6.08579 3.75 6.5V14C3.75 14.4142 4.08579 14.75 4.5 14.75H12C12.4142 14.75 12.75 14.4142 12.75 14V11C12.75 10.5858 13.0858 10.25 13.5 10.25C13.9142 10.25 14.25 10.5858 14.25 11V14C14.25 15.2426 13.2426 16.25 12 16.25H4.5C3.25736 16.25 2.25 15.2426 2.25 14V6.5C2.25 5.25736 3.25736 4.25 4.5 4.25H7.5C7.91421 4.25 8.25 4.58579 8.25 5C8.25 5.41421 7.91421 5.75 7.5 5.75H4.5Z" fill="#0B30E0"/>
</svg>
