<svg width="16" height="16" viewBox="0 0 16 16" fill="none" xmlns="http://www.w3.org/2000/svg">
<path fill-rule="evenodd" clip-rule="evenodd" d="M7.99992 2.66671C5.0544 2.66671 2.66659 5.05452 2.66659 8.00004C2.66659 10.9456 5.0544 13.3334 7.99992 13.3334C10.9454 13.3334 13.3333 10.9456 13.3333 8.00004C13.3333 5.05452 10.9454 2.66671 7.99992 2.66671ZM1.33325 8.00004C1.33325 4.31814 4.31802 1.33337 7.99992 1.33337C11.6818 1.33337 14.6666 4.31814 14.6666 8.00004C14.6666 11.6819 11.6818 14.6667 7.99992 14.6667C4.31802 14.6667 1.33325 11.6819 1.33325 8.00004ZM7.33325 5.33337C7.33325 4.96518 7.63173 4.66671 7.99992 4.66671H8.00659C8.37478 4.66671 8.67325 4.96518 8.67325 5.33337C8.67325 5.70156 8.37478 6.00004 8.00659 6.00004H7.99992C7.63173 6.00004 7.33325 5.70156 7.33325 5.33337ZM6.66659 8.00004C6.66659 7.63185 6.96506 7.33337 7.33325 7.33337H7.99992C8.36811 7.33337 8.66659 7.63185 8.66659 8.00004V10C9.03478 10 9.33325 10.2985 9.33325 10.6667C9.33325 11.0349 9.03478 11.3334 8.66659 11.3334H7.99992C7.63173 11.3334 7.33325 11.0349 7.33325 10.6667V8.66671C6.96506 8.66671 6.66659 8.36823 6.66659 8.00004Z" fill="#212A3D"/>
</svg>
