<svg width="19" height="19" viewBox="0 0 19 19" fill="none" xmlns="http://www.w3.org/2000/svg">
    <path d="M9.5 4.1875C9.91421 4.1875 10.25 4.52329 10.25 4.9375V8.6875H14C14.4142 8.6875 14.75 9.02329 14.75 9.4375C14.75 9.85171 14.4142 10.1875 14 10.1875H10.25V13.9375C10.25 14.3517 9.91421 14.6875 9.5 14.6875C9.08579 14.6875 8.75 14.3517 8.75 13.9375V10.1875L5 10.1875C4.58579 10.1875 4.25 9.85171 4.25 9.4375C4.25 9.02329 4.58579 8.6875 5 8.6875H8.75V4.9375C8.75 4.52329 9.08579 4.1875 9.5 4.1875Z" fill="#3052F5"/>
</svg>
