<svg width="24" height="24" viewBox="0 0 24 24" fill="none" xmlns="http://www.w3.org/2000/svg">
    <path fill-rule="evenodd" clip-rule="evenodd" d="M 12 4 C 7.582 4 4 7.582 4 12 C 4 16.418 7.582 20 12 20 C 16.418 20 20 16.418 20 12 C 20 7.582 16.418 4 12 4 Z M 2 12 C 2 6.477 6.477 2 12 2 C 17.523 2 22 6.477 22 12 C 22 17.523 17.523 22 12 22 C 6.477 22 2 17.523 2 12 Z M 12 8 C 10.528 8 9.472 8.706 9.132 9.426 C 8.897 9.926 8.301 10.14 7.801 9.905 C 7.302 9.669 7.088 9.073 7.323 8.574 C 8.082 6.963 9.989 6 12 6 C 13.3 6 14.516 6.394 15.429 7.079 C 16.342 7.764 17 8.786 17 10 C 17 12.069 15.166 13.508 13.183 13.889 C 13.11 13.903 13.052 13.939 13.021 13.972 C 13.006 13.987 13.001 13.997 13 14 C 13 14 13 14 13 14.001 C 13 14.553 12.552 15 12 15 C 11.448 15 11 14.552 11 14 C 11 12.858 11.91 12.096 12.806 11.925 C 14.279 11.642 15 10.73 15 10 C 15 9.557 14.763 9.08 14.229 8.679 C 13.694 8.278 12.909 8 12 8 Z M 11 17 C 11 16.448 11.448 16 12 16 L 12.01 16 C 12.562 16 13.01 16.448 13.01 17 C 13.01 17.552 12.562 18 12.01 18 L 12 18 C 11.448 18 11 17.552 11 17 Z" fill="#212A3D"></path>
</svg>
