<svg width="40" height="40" viewBox="0 0 40 40" fill="none" xmlns="http://www.w3.org/2000/svg">
<path fill-rule="evenodd" clip-rule="evenodd" d="M19.9993 8.33333C18.1584 8.33333 16.666 9.82572 16.666 11.6667C16.666 13.5076 18.1584 15 19.9993 15C21.8403 15 23.3327 13.5076 23.3327 11.6667C23.3327 9.82572 21.8403 8.33333 19.9993 8.33333ZM13.3327 11.6667C13.3327 7.98477 16.3174 5 19.9993 5C23.6812 5 26.666 7.98477 26.666 11.6667C26.666 15.3486 23.6812 18.3333 19.9993 18.3333C16.3174 18.3333 13.3327 15.3486 13.3327 11.6667ZM8.33268 15C7.41221 15 6.66602 15.7462 6.66602 16.6667C6.66602 17.5871 7.41221 18.3333 8.33268 18.3333C9.25316 18.3333 9.99935 17.5871 9.99935 16.6667C9.99935 15.7462 9.25316 15 8.33268 15ZM3.33268 16.6667C3.33268 13.9052 5.57126 11.6667 8.33268 11.6667C11.0941 11.6667 13.3327 13.9052 13.3327 16.6667C13.3327 19.4281 11.0941 21.6667 8.33268 21.6667C5.57126 21.6667 3.33268 19.4281 3.33268 16.6667ZM31.666 15C30.7455 15 29.9993 15.7462 29.9993 16.6667C29.9993 17.5871 30.7455 18.3333 31.666 18.3333C32.5865 18.3333 33.3327 17.5871 33.3327 16.6667C33.3327 15.7462 32.5865 15 31.666 15ZM26.666 16.6667C26.666 13.9052 28.9046 11.6667 31.666 11.6667C34.4274 11.6667 36.666 13.9052 36.666 16.6667C36.666 19.4281 34.4274 21.6667 31.666 21.6667C28.9046 21.6667 26.666 19.4281 26.666 16.6667ZM19.9993 23.3333C17.1951 23.3333 14.7913 25.0653 13.8071 27.5242C13.5016 28.2874 13.3327 29.122 13.3327 30V31.6667H26.666V30C26.666 29.122 26.4971 28.2874 26.1916 27.5242C25.2074 25.0653 22.8036 23.3333 19.9993 23.3333ZM29.9993 31.6667H34.9993V30C34.9993 28.159 33.507 26.6667 31.666 26.6667C30.9059 26.6667 30.2055 26.9201 29.6439 27.3496C29.8758 28.195 29.9993 29.0841 29.9993 30V31.6667ZM28.2137 24.2961C26.4084 21.7009 23.4038 20 19.9993 20C16.5949 20 13.5903 21.7009 11.785 24.2961C10.7784 23.6857 9.5965 23.3333 8.33268 23.3333C4.65078 23.3333 1.66602 26.3181 1.66602 30V31.6667C1.66602 33.5076 3.1584 35 4.99935 35H34.9993C36.8403 35 38.3327 33.5076 38.3327 31.6667V30C38.3327 26.3181 35.3479 23.3333 31.666 23.3333C30.4022 23.3333 29.2203 23.6857 28.2137 24.2961ZM10.3548 27.3496C9.79321 26.9201 9.0928 26.6667 8.33268 26.6667C6.49173 26.6667 4.99935 28.159 4.99935 30V31.6667H9.99935V30C9.99935 29.0841 10.1229 28.195 10.3548 27.3496Z" fill="#D6D8FF"/>
</svg>
