<svg width="24" height="24" viewBox="0 0 24 24" fill="none" xmlns="http://www.w3.org/2000/svg">
<path fill-rule="evenodd" clip-rule="evenodd" d="M9 4.5C7.34315 4.5 6 5.84315 6 7.5C6 9.15685 7.34315 10.5 9 10.5C10.6569 10.5 12 9.15685 12 7.5C12 5.84315 10.6569 4.5 9 4.5ZM4 7.5C4 4.73858 6.23858 2.5 9 2.5C11.7614 2.5 14 4.73858 14 7.5C14 10.2614 11.7614 12.5 9 12.5C6.23858 12.5 4 10.2614 4 7.5ZM18 8.5C18.5523 8.5 19 8.94772 19 9.5V11.5H21C21.5523 11.5 22 11.9477 22 12.5C22 13.0523 21.5523 13.5 21 13.5H19V15.5C19 16.0523 18.5523 16.5 18 16.5C17.4477 16.5 17 16.0523 17 15.5V13.5H15C14.4477 13.5 14 13.0523 14 12.5C14 11.9477 14.4477 11.5 15 11.5H17V9.5C17 8.94772 17.4477 8.5 18 8.5ZM9 15.5C6.23858 15.5 4 17.7386 4 20.5H14C14 17.7386 11.7614 15.5 9 15.5ZM2 20.5C2 16.634 5.13401 13.5 9 13.5C12.866 13.5 16 16.634 16 20.5C16 21.6046 15.1046 22.5 14 22.5H4C2.89543 22.5 2 21.6046 2 20.5Z" fill="#E76309"/>
</svg>
