<svg width="40" height="40" viewBox="0 0 40 40" fill="none" xmlns="http://www.w3.org/2000/svg">
<path fill-rule="evenodd" clip-rule="evenodd" d="M20.0006 6.66667C17.2392 6.66667 15.0006 8.90524 15.0006 11.6667C15.0006 14.4281 17.2392 16.6667 20.0006 16.6667C22.762 16.6667 25.0006 14.4281 25.0006 11.6667C25.0006 8.90524 22.762 6.66667 20.0006 6.66667ZM11.6673 11.6667C11.6673 7.06429 15.3982 3.33333 20.0006 3.33333C24.603 3.33333 28.3339 7.06429 28.3339 11.6667C28.3339 16.269 24.603 20 20.0006 20C15.3982 20 11.6673 16.269 11.6673 11.6667ZM20.0006 25C15.4592 25 11.6209 28.0286 10.4034 32.1798C10.3247 32.4481 10.3831 32.6768 10.5806 32.8926C10.8026 33.1352 11.1953 33.3333 11.6673 33.3333H28.3339C28.806 33.3333 29.1987 33.1352 29.4207 32.8926C29.6181 32.6768 29.6765 32.4481 29.5979 32.1798C28.3803 28.0286 24.542 25 20.0006 25ZM7.20478 31.2416C8.82743 25.7093 13.9398 21.6667 20.0006 21.6667C26.0615 21.6667 31.1738 25.7093 32.7964 31.2416C33.2359 32.7398 32.7832 34.1557 31.8797 35.143C31.0008 36.1034 29.7029 36.6667 28.3339 36.6667H11.6673C10.2983 36.6667 9.00038 36.1034 8.12147 35.143C7.21804 34.1557 6.76534 32.7398 7.20478 31.2416Z" fill="#D6D8FF"/>
</svg>
