<svg width="24" height="24" viewBox="0 0 24 24" fill="none" xmlns="http://www.w3.org/2000/svg">
<g clip-path="url(#clip0_695_48241)">
<path d="M18.5332 4.25042C18.7611 4.80169 19.1987 5.23988 19.7496 5.46865L21.6814 6.26884C22.2327 6.4972 22.6708 6.93522 22.8991 7.48653C23.1275 8.03785 23.1275 8.65729 22.8991 9.20861L22.0995 11.1391C21.871 11.6906 21.8707 12.3107 22.1002 12.862L22.8984 14.7919C23.0117 15.0649 23.0699 15.3576 23.07 15.6532C23.07 15.9488 23.0118 16.2415 22.8987 16.5146C22.7856 16.7877 22.6198 17.0358 22.4107 17.2448C22.2017 17.4538 21.9535 17.6195 21.6804 17.7326L19.7499 18.5322C19.1987 18.7601 18.7605 19.1976 18.5317 19.7486L17.7315 21.6804C17.5031 22.2317 17.0651 22.6697 16.5138 22.8981C15.9625 23.1265 15.343 23.1265 14.7917 22.8981L12.8613 22.0985C12.31 21.8707 11.6907 21.8711 11.1397 22.0998L9.20792 22.8988C8.65691 23.1267 8.038 23.1265 7.48713 22.8983C6.93627 22.6701 6.4985 22.2326 6.26998 21.6819L5.46955 19.7495C5.24161 19.1982 4.80408 18.76 4.25315 18.5313L2.32132 17.7311C1.77025 17.5028 1.33236 17.0651 1.10392 16.5141C0.875471 15.9631 0.875161 15.3439 1.10306 14.7927L1.90267 12.8622C2.13047 12.3109 2.13001 11.6917 1.90138 11.1407L1.10291 9.20747C0.989703 8.93442 0.93141 8.64173 0.931363 8.34613C0.931315 8.05054 0.989514 7.75783 1.10263 7.48473C1.21575 7.21164 1.38158 6.96351 1.59063 6.75453C1.79968 6.54554 2.04786 6.3798 2.32099 6.26677L4.25144 5.46715C4.80223 5.23941 5.24015 4.80243 5.46909 4.25214L6.26928 2.3203C6.49764 1.76899 6.93566 1.33098 7.48697 1.10261C8.03829 0.874252 8.65774 0.874252 9.20905 1.10261L11.1395 1.90223C11.6908 2.13003 12.3101 2.12956 12.861 1.90094L14.7937 1.10385C15.3449 0.87562 15.9642 0.875667 16.5154 1.10398C17.0666 1.3323 17.5046 1.77019 17.733 2.32136L18.5334 4.25377L18.5332 4.25042Z" fill="#0B30E0"/>
<path fill-rule="evenodd" clip-rule="evenodd" d="M16.6999 8.85437C16.8602 8.60255 16.9139 8.29735 16.8492 8.00592C16.7845 7.71449 16.6067 7.46069 16.3549 7.30037C16.1031 7.14005 15.7979 7.08633 15.5064 7.15103C15.215 7.21573 14.9612 7.39355 14.8009 7.64537L10.3954 14.5679L8.37939 12.0479C8.19301 11.8147 7.92166 11.6652 7.62502 11.6322C7.32838 11.5991 7.03077 11.6852 6.79764 11.8716C6.56452 12.058 6.41498 12.3294 6.38193 12.626C6.34887 12.9226 6.43501 13.2202 6.62139 13.4534L9.62139 17.2034C9.7332 17.3433 9.8768 17.4545 10.0402 17.5278C10.2037 17.601 10.3823 17.6342 10.5611 17.6245C10.74 17.6148 10.9139 17.5626 11.0685 17.4721C11.2231 17.3816 11.3538 17.2556 11.4499 17.1044L16.6999 8.85437Z" fill="white"/>
</g>
<defs>
<clipPath id="clip0_695_48241">
<rect width="24" height="24" fill="white"/>
</clipPath>
</defs>
</svg>
