<svg width="183" height="169" viewBox="0 0 183 169" fill="none" xmlns="http://www.w3.org/2000/svg">
<mask id="path-1-inside-1_141_1845" fill="white">
<path d="M4.1858 80.2846C3.40322 80.2409 2.62523 80.4296 1.95013 80.8268C1.27503 81.224 0.733131 81.8119 0.392917 82.5162C0.0527036 83.2205 -0.0705556 84.0096 0.0387169 84.7837C0.147989 85.5579 0.484889 86.2823 1.00684 86.8656C1.52879 87.4488 2.21236 87.8646 2.97117 88.0605C3.72998 88.2563 4.52997 88.2234 5.27003 87.9659C6.01009 87.7084 6.65702 87.2379 7.12905 86.6137C7.60108 85.9896 7.87702 85.2399 7.92201 84.4594C7.95192 83.9405 7.87897 83.4208 7.70733 82.9301C7.53569 82.4393 7.26872 81.9871 6.92171 81.5994C6.5747 81.2116 6.15444 80.8959 5.68499 80.6703C5.21553 80.4447 4.70609 80.3136 4.1858 80.2846Z"/>
<path d="M49.9594 83.389C49.7743 86.6353 50.8879 89.8223 53.0559 92.2507C55.2239 94.679 58.2692 96.1503 61.5235 96.3418H62.1943C64.5915 96.3391 66.9355 95.6364 68.937 94.3204C70.9384 93.0044 72.5097 91.1326 73.457 88.9362C74.4042 86.7397 74.686 84.3146 74.2674 81.9603C73.8488 79.606 72.7482 77.4254 71.1015 75.6878C69.4548 73.9501 67.3341 72.7314 65.001 72.1821C62.6679 71.6327 60.2246 71.7768 57.9726 72.5965C55.7207 73.4162 53.7586 74.8757 52.3287 76.7948C50.8987 78.7138 50.0634 81.0085 49.9259 83.3957L49.9594 83.389Z"/>
<path d="M4.1858 80.2846C3.40322 80.2409 2.62523 80.4296 1.95013 80.8268C1.27503 81.224 0.733131 81.8119 0.392917 82.5162C0.0527036 83.2205 -0.0705556 84.0096 0.0387169 84.7837C0.147989 85.5579 0.484889 86.2823 1.00684 86.8656C1.52879 87.4488 2.21236 87.8646 2.97117 88.0605C3.72998 88.2563 4.52997 88.2234 5.27003 87.9659C6.01009 87.7084 6.65702 87.2379 7.12905 86.6137C7.60108 85.9896 7.87702 85.2399 7.92201 84.4594C7.95192 83.9405 7.87897 83.4208 7.70733 82.9301C7.53569 82.4393 7.26872 81.9871 6.92171 81.5994C6.5747 81.2116 6.15444 80.8959 5.68499 80.6703C5.21553 80.4447 4.70609 80.3136 4.1858 80.2846Z"/>
<path d="M49.1813 12.3293C49.8783 11.9722 50.4538 11.4176 50.8354 10.735C51.2171 10.0525 51.3877 9.27256 51.3259 8.49349C51.2641 7.71441 50.9726 6.97098 50.4881 6.35679C50.0036 5.74259 49.3478 5.28508 48.6032 5.04185C47.8586 4.79862 47.0585 4.78053 46.3036 4.98988C45.5487 5.19922 44.8728 5.62663 44.3609 6.21831C43.849 6.80998 43.5241 7.53948 43.4269 8.31496C43.3298 9.09045 43.4649 9.87725 43.8151 10.5763C44.0492 11.0455 44.3744 11.4636 44.7719 11.8064C45.1694 12.1491 45.6312 12.4095 46.1305 12.5726C46.6298 12.7358 47.1567 12.7982 47.6804 12.7564C48.2041 12.7147 48.7143 12.5694 49.1813 12.3293Z"/>
<path d="M61.6376 33.9931C62.72 33.4484 63.6163 32.5959 64.2131 31.5433C64.8098 30.4907 65.0803 29.2852 64.9903 28.0793C64.9003 26.8733 64.4538 25.7211 63.7074 24.7682C62.9609 23.8153 61.948 23.1046 60.7966 22.7259C59.6452 22.3471 58.4071 22.3173 57.2388 22.6403C56.0704 22.9633 55.0243 23.6246 54.2327 24.5405C53.4411 25.4564 52.9395 26.5859 52.7914 27.7861C52.6433 28.9863 52.8552 30.2033 53.4005 31.2834C53.762 32.0016 54.2622 32.6416 54.8721 33.1667C55.4821 33.6918 56.19 34.0916 56.9552 34.3433C57.7204 34.5951 58.5279 34.6937 59.3314 34.6336C60.1349 34.5735 60.9186 34.3558 61.6376 33.9931Z"/>
<path d="M19.7209 48.8928C20.5554 49.4406 21.5339 49.7293 22.5329 49.7223C23.5318 49.7154 24.5063 49.4132 25.333 48.8538C26.1598 48.2945 26.8016 47.5033 27.1775 46.5801C27.5534 45.6569 27.6463 44.6433 27.4447 43.6674C27.243 42.6915 26.7557 41.7972 26.0444 41.0975C25.3332 40.3979 24.4299 39.9243 23.4488 39.7367C22.4677 39.5491 21.4529 39.6558 20.5326 40.0435C19.6123 40.4312 18.828 41.0823 18.2788 41.9146C17.9141 42.4673 17.6621 43.0861 17.5372 43.7359C17.4123 44.3857 17.4169 45.0536 17.5508 45.7016C17.6847 46.3496 17.9453 46.965 18.3177 47.5125C18.69 48.06 19.1668 48.5291 19.7209 48.8928Z"/>
<path d="M27.1866 78.0566C25.9763 77.9885 24.7728 78.2798 23.7284 78.8938C22.684 79.5077 21.8455 80.4167 21.3189 81.5059C20.7923 82.595 20.6013 83.8154 20.77 85.0129C20.9387 86.2103 21.4595 87.331 22.2665 88.2332C23.0736 89.1355 24.1308 89.7788 25.3044 90.0819C26.478 90.385 27.7153 90.3343 28.86 89.9361C30.0047 89.538 31.0053 88.8102 31.7355 87.845C32.4656 86.8797 32.8924 85.7202 32.962 84.513C33.0091 83.7105 32.897 82.9067 32.632 82.1475C32.3671 81.3884 31.9545 80.6888 31.418 80.089C30.8814 79.4892 30.2315 79.001 29.5054 78.6522C28.7793 78.3034 27.9913 78.1011 27.1866 78.0566Z"/>
<path d="M20.3917 119.17C19.5003 119.619 18.7625 120.322 18.2715 121.189C17.7805 122.057 17.5584 123.05 17.6333 124.044C17.7081 125.037 18.0766 125.986 18.6921 126.771C19.3076 127.555 20.1425 128.14 21.0912 128.452C22.04 128.763 23.06 128.787 24.0223 128.52C24.9846 128.253 25.8461 127.708 26.4977 126.953C27.1494 126.198 27.562 125.267 27.6834 124.279C27.8049 123.29 27.6296 122.287 27.1799 121.398C26.8818 120.806 26.4694 120.279 25.9666 119.846C25.4637 119.414 24.8802 119.085 24.2496 118.878C23.6189 118.671 22.9535 118.59 22.2915 118.64C21.6294 118.69 20.9838 118.87 20.3917 119.17Z"/>
<path d="M44.2243 65.4183C45.4181 66.1987 46.8172 66.6085 48.2446 66.5958C49.6719 66.5832 51.0634 66.1487 52.2432 65.3473C53.423 64.5458 54.3381 63.4135 54.8727 62.0934C55.4073 60.7733 55.5374 59.3247 55.2467 57.9308C54.9559 56.5369 54.2573 55.2603 53.2392 54.2624C52.2211 53.2645 50.9292 52.5901 49.5268 52.3246C48.1245 52.059 46.6747 52.2141 45.3607 52.7703C44.0467 53.3265 42.9276 54.2589 42.1449 55.4495C41.625 56.2402 41.2664 57.1253 41.0896 58.0542C40.9128 58.9832 40.9211 59.9378 41.1142 60.8635C41.3073 61.7893 41.6814 62.668 42.215 63.4495C42.7486 64.231 43.4314 64.9 44.2243 65.4183Z"/>
<path d="M119.834 33.5114C120.85 34.1737 122.04 34.5207 123.254 34.5085C124.467 34.4963 125.65 34.1255 126.652 33.4429C127.655 32.7602 128.432 31.7965 128.885 30.6735C129.338 29.5505 129.448 28.3187 129.199 27.1337C128.951 25.9487 128.356 24.8639 127.489 24.0162C126.623 23.1686 125.523 22.5962 124.331 22.3716C123.138 22.1469 121.906 22.2799 120.789 22.7539C119.672 23.2279 118.721 24.0216 118.056 25.0345C117.614 25.7076 117.31 26.461 117.16 27.2517C117.01 28.0424 117.019 28.8548 117.184 29.6423C117.35 30.4298 117.67 31.177 118.126 31.8409C118.582 32.5048 119.164 33.0725 119.841 33.5114H119.834Z"/>
<path d="M132.418 11.9144C133.075 12.3432 133.844 12.568 134.63 12.5605C135.415 12.5529 136.18 12.3134 136.829 11.8721C137.478 11.4308 137.981 10.8076 138.274 10.0813C138.568 9.35491 138.639 8.55802 138.479 7.79131C138.319 7.02461 137.934 6.32252 137.374 5.77379C136.813 5.22506 136.103 4.85432 135.331 4.70843C134.56 4.56255 133.762 4.64807 133.039 4.95418C132.317 5.2603 131.701 5.77326 131.271 6.42824C130.984 6.86351 130.787 7.35075 130.69 7.86212C130.593 8.37348 130.598 8.89894 130.704 9.40846C130.811 9.91797 131.017 10.4015 131.311 10.8315C131.605 11.2615 131.981 11.6295 132.418 11.9144Z"/>
<path d="M120.8 71.7341C117.593 71.6242 114.471 72.7702 112.101 74.9268C109.73 77.0835 108.3 80.0797 108.116 83.2745C107.932 86.4693 109.009 89.6092 111.116 92.0224C113.223 94.4357 116.193 95.9308 119.391 96.1879H120.102C122.471 96.1867 124.788 95.5022 126.775 94.2169C128.762 92.9316 130.334 91.1004 131.301 88.9441C132.268 86.7878 132.589 84.3984 132.226 82.0642C131.862 79.7299 130.829 77.5505 129.252 75.7886C128.183 74.5873 126.885 73.6101 125.434 72.914C123.983 72.2179 122.408 71.8168 120.8 71.7341Z"/>
<path d="M65.6689 64.5686C67.0051 67.2612 69.2867 69.3702 72.08 70.4946C74.8732 71.6189 77.9834 71.6802 80.819 70.6668C83.6546 69.6535 86.018 67.636 87.4598 64.9982C88.9016 62.3603 89.3212 59.2859 88.6389 56.3596C87.9566 53.4333 86.22 50.8591 83.7592 49.1265C81.2984 47.3939 78.285 46.6236 75.2921 46.9622C72.2991 47.3008 69.5353 48.7247 67.526 50.963C65.5168 53.2013 64.4023 56.0981 64.3944 59.1025C64.3878 60.9985 64.8241 62.8701 65.6689 64.5686Z"/>
<path d="M161.925 48.8794C162.816 48.4306 163.555 47.7283 164.046 46.8612C164.538 45.9941 164.76 45.0012 164.686 44.0078C164.612 43.0145 164.245 42.0653 163.63 41.2804C163.015 40.4954 162.181 39.9098 161.232 39.5976C160.284 39.2854 159.264 39.2607 158.302 39.5264C157.339 39.7922 156.477 40.3366 155.825 41.0908C155.173 41.8449 154.759 42.7751 154.637 43.7637C154.514 44.7522 154.688 45.7549 155.137 46.6448C155.74 47.8384 156.794 48.7442 158.067 49.1632C159.34 49.5822 160.728 49.4801 161.925 48.8794Z"/>
<path d="M130.801 52.78C129.526 53.4204 128.47 54.4236 127.767 55.6626C127.064 56.9016 126.744 58.3208 126.85 59.7407C126.955 61.1607 127.48 62.5176 128.359 63.6399C129.237 64.7621 130.43 65.5993 131.785 66.0457C133.141 66.492 134.598 66.5274 135.974 66.1473C137.35 65.7672 138.582 64.9888 139.514 63.9105C140.446 62.8321 141.037 61.5023 141.211 60.0891C141.385 58.676 141.136 57.243 140.494 55.9713C140.067 55.127 139.478 54.3747 138.761 53.7573C138.043 53.14 137.21 52.6697 136.31 52.3734C135.41 52.077 134.46 51.9604 133.515 52.0302C132.57 52.0999 131.648 52.3547 130.801 52.78Z"/>
<path d="M90.6955 10.0679C91.6912 10.124 92.6813 9.88476 93.541 9.38042C94.4007 8.87609 95.0914 8.1292 95.5261 7.2339C95.9608 6.33861 96.1201 5.33498 95.9838 4.34954C95.8475 3.3641 95.4218 2.44095 94.7603 1.69648C94.0988 0.952001 93.2312 0.419517 92.2667 0.16615C91.3023 -0.0872176 90.2842 -0.0501268 89.3409 0.272747C88.3975 0.59562 87.5711 1.18982 86.9659 1.98045C86.3606 2.77108 86.0035 3.72274 85.9397 4.71547C85.897 5.37894 85.9864 6.04427 86.2028 6.67311C86.4191 7.30194 86.7581 7.88185 87.2002 8.37941C87.6423 8.87696 88.1787 9.28231 88.7786 9.5721C89.3785 9.86189 90.03 10.0304 90.6955 10.0679Z"/>
<path d="M90.6418 41.7741C92.0668 41.8551 93.484 41.5129 94.714 40.7906C95.944 40.0684 96.9318 38.9986 97.5523 37.7165C98.1728 36.4344 98.3983 34.9976 98.2002 33.5877C98.0021 32.1778 97.3893 30.8581 96.4394 29.7956C95.4894 28.733 94.2449 27.9752 92.8632 27.6181C91.4815 27.2609 90.0247 27.3204 88.6768 27.789C87.329 28.2576 86.1508 29.1143 85.2911 30.2507C84.4314 31.3872 83.9288 32.7524 83.8469 34.1737C83.7388 36.08 84.3937 37.9512 85.6677 39.3762C86.9418 40.8013 88.7308 41.6637 90.6418 41.7741Z"/>
<path d="M51.5357 115.262C52.8106 114.622 53.8665 113.619 54.5698 112.38C55.2732 111.141 55.5924 109.722 55.487 108.302C55.3817 106.882 54.8566 105.525 53.9781 104.403C53.0996 103.28 51.9072 102.443 50.5516 101.997C49.1961 101.55 47.7383 101.515 46.3626 101.895C44.9869 102.275 43.7551 103.054 42.8229 104.132C41.8908 105.21 41.3001 106.54 41.1257 107.953C40.9513 109.366 41.2009 110.799 41.843 112.071C42.7054 113.775 44.2104 115.068 46.0276 115.666C47.8448 116.265 49.8258 116.119 51.5357 115.262Z"/>
<path d="M95.3037 52.2782C93.8051 54.5578 93.1116 57.2708 93.333 59.9879C93.5544 62.7049 94.6781 65.2706 96.5261 67.2789C98.3741 69.2872 100.841 70.6233 103.536 71.0758C106.231 71.5283 109 71.0712 111.406 69.7769C113.811 68.4827 115.715 66.4252 116.816 63.9302C117.917 61.4352 118.152 58.6452 117.484 56.0019C116.816 53.3586 115.283 51.0129 113.129 49.3363C110.974 47.6597 108.32 46.7478 105.587 46.7451C103.547 46.7419 101.538 47.2462 99.7424 48.2123C97.9469 49.1784 96.4213 50.5759 95.3037 52.2782Z"/>
<path d="M116.648 103.481C115.664 101.535 114.178 99.8871 112.343 98.7058C110.508 97.5246 108.39 96.8532 106.208 96.7609C104.025 96.6685 101.858 97.1586 99.9291 98.1806C98.0002 99.2025 96.3795 100.719 95.2344 102.574C94.0893 104.43 93.4612 106.556 93.4149 108.734C93.3686 110.912 93.9058 113.063 94.971 114.965C96.0363 116.867 97.591 118.451 99.4747 119.553C101.359 120.656 103.503 121.237 105.687 121.237C107.608 121.222 109.5 120.764 111.214 119.899C114.113 118.435 116.312 115.886 117.331 112.809C118.349 109.732 118.103 106.378 116.648 103.481Z"/>
<path d="M138.099 102.624C136.906 101.843 135.507 101.432 134.079 101.443C132.652 101.455 131.26 101.889 130.08 102.689C128.899 103.49 127.983 104.622 127.448 105.941C126.912 107.261 126.781 108.71 127.071 110.104C127.361 111.498 128.059 112.775 129.076 113.774C130.094 114.772 131.385 115.448 132.788 115.714C134.19 115.98 135.64 115.826 136.954 115.271C138.269 114.715 139.388 113.783 140.172 112.593C140.692 111.803 141.051 110.918 141.228 109.989C141.406 109.061 141.398 108.106 141.205 107.18C141.013 106.255 140.639 105.376 140.107 104.594C139.574 103.812 138.891 103.143 138.099 102.624Z"/>
<path d="M161.603 84.232C161.671 83.0247 161.379 81.8244 160.764 80.7826C160.148 79.7409 159.237 78.9046 158.145 78.3793C157.053 77.8541 155.829 77.6636 154.629 77.8318C153.428 78.0001 152.305 78.5195 151.4 79.3245C150.496 80.1296 149.851 81.184 149.547 82.3546C149.243 83.5251 149.294 84.7593 149.693 85.9011C150.092 87.0428 150.822 88.0409 151.789 88.7691C152.757 89.4974 153.92 89.9231 155.13 89.9925C155.934 90.0386 156.74 89.9261 157.501 89.6615C158.261 89.3969 158.962 88.9854 159.563 88.4504C160.165 87.9154 160.654 87.2675 161.004 86.5436C161.354 85.8198 161.558 85.0343 161.603 84.232Z"/>
<path d="M178.587 79.8765C177.803 79.8314 177.023 80.0193 176.346 80.4164C175.669 80.8135 175.125 81.4019 174.783 82.1072C174.442 82.8126 174.317 83.6031 174.426 84.379C174.535 85.1548 174.872 85.8811 175.394 86.4659C175.917 87.0507 176.601 87.4679 177.362 87.6646C178.122 87.8613 178.924 87.8287 179.665 87.571C180.407 87.3132 181.055 86.8419 181.528 86.2166C182.001 85.5913 182.278 84.8401 182.323 84.058C182.382 83.0098 182.021 81.9811 181.321 81.1973C180.621 80.4135 179.638 79.9386 178.587 79.8765Z"/>
<path d="M162.596 119.15C161.76 118.604 160.781 118.317 159.782 118.326C158.784 118.335 157.81 118.64 156.984 119.2C156.159 119.761 155.519 120.554 155.145 121.478C154.771 122.401 154.68 123.415 154.883 124.39C155.087 125.366 155.575 126.259 156.288 126.957C157 127.656 157.904 128.127 158.885 128.313C159.867 128.499 160.881 128.391 161.801 128.002C162.72 127.613 163.503 126.961 164.051 126.128C164.416 125.575 164.668 124.955 164.792 124.305C164.917 123.654 164.911 122.986 164.776 122.337C164.641 121.689 164.379 121.074 164.004 120.527C163.63 119.98 163.152 119.512 162.596 119.15Z"/>
<path d="M49.9057 156.128C49.2492 155.698 48.4796 155.472 47.6943 155.479C46.9091 155.485 46.1434 155.724 45.494 156.164C44.8447 156.605 44.3408 157.228 44.0462 157.954C43.7516 158.68 43.6795 159.477 43.8389 160.244C43.9983 161.01 44.3821 161.713 44.9418 162.262C45.5016 162.812 46.212 163.183 46.9834 163.33C47.7548 163.477 48.5525 163.392 49.2756 163.087C49.9988 162.781 50.6149 162.269 51.046 161.614C51.3325 161.179 51.5302 160.692 51.6279 160.181C51.7256 159.67 51.7214 159.145 51.6155 158.635C51.5096 158.126 51.3041 157.642 51.0107 157.212C50.7174 156.782 50.3419 156.413 49.9057 156.128Z"/>
<path d="M133.135 155.713C132.438 156.07 131.863 156.625 131.481 157.307C131.1 157.99 130.929 158.77 130.991 159.549C131.053 160.328 131.344 161.071 131.829 161.686C132.313 162.3 132.969 162.757 133.713 163.001C134.458 163.244 135.258 163.262 136.013 163.053C136.768 162.843 137.444 162.416 137.956 161.824C138.468 161.232 138.793 160.503 138.89 159.727C138.987 158.952 138.852 158.165 138.502 157.466C138.269 157.002 137.946 156.588 137.553 156.248C137.159 155.908 136.702 155.649 136.208 155.485C135.714 155.322 135.192 155.257 134.673 155.295C134.154 155.333 133.647 155.473 133.182 155.706L133.135 155.713Z"/>
<path d="M87.0129 115.744C88.5084 113.466 89.1995 110.756 88.977 108.043C88.7544 105.329 87.631 102.767 85.7843 100.762C83.9377 98.7569 81.4734 97.4234 78.7814 96.9724C76.0894 96.5215 73.3236 96.9789 70.9215 98.2722C68.5195 99.5655 66.6185 101.621 65.5194 104.113C64.4203 106.605 64.1858 109.392 64.8532 112.032C65.5205 114.672 67.0515 117.015 69.2039 118.689C71.3562 120.364 74.007 121.274 76.7367 121.277C78.7755 121.279 80.7826 120.774 82.5767 119.808C84.3708 118.842 85.8955 117.445 87.0129 115.744Z"/>
<path d="M62.4827 134.538C61.4682 133.876 60.2797 133.529 59.0675 133.54C57.8552 133.552 56.6736 133.922 55.6721 134.603C54.6705 135.284 53.8939 136.247 53.4405 137.368C52.9871 138.489 52.8771 139.72 53.1246 140.903C53.3721 142.087 53.9659 143.171 54.8309 144.018C55.6959 144.866 56.7933 145.438 57.9844 145.663C59.1755 145.888 60.4068 145.756 61.5227 145.284C62.6385 144.811 63.5889 144.019 64.2536 143.008C64.6962 142.336 65.0015 141.584 65.152 140.794C65.3026 140.005 65.2954 139.193 65.1309 138.406C64.9664 137.619 64.6478 136.873 64.1933 136.209C63.7389 135.545 63.1576 134.977 62.4827 134.538Z"/>
<path d="M91.1047 157.975C90.1074 157.918 89.1157 158.158 88.255 158.663C87.3943 159.169 86.7032 159.917 86.269 160.815C85.8348 161.712 85.6771 162.717 85.8158 163.704C85.9545 164.691 86.3834 165.614 87.0482 166.358C87.713 167.101 88.584 167.631 89.5509 167.881C90.5178 168.131 91.5373 168.09 92.4805 167.762C93.4237 167.434 94.2482 166.834 94.8498 166.039C95.4514 165.243 95.8031 164.288 95.8604 163.294C95.9355 161.959 95.477 160.65 94.5854 159.653C93.6938 158.656 92.442 158.052 91.1047 157.975Z"/>
<path d="M91.1583 126.275C89.7336 126.19 88.3157 126.529 87.0838 127.248C85.8519 127.967 84.8614 129.034 84.2375 130.314C83.6135 131.594 83.3841 133.03 83.5783 134.441C83.7726 135.851 84.3816 137.172 85.3286 138.238C86.2755 139.303 87.5178 140.064 88.8983 140.425C90.2789 140.786 91.7358 140.731 93.0849 140.266C94.4339 139.801 95.6146 138.948 96.4775 137.814C97.3405 136.68 97.847 135.316 97.9331 133.895C97.9912 132.951 97.862 132.005 97.5527 131.11C97.2435 130.216 96.7604 129.391 96.131 128.683C95.5017 127.975 94.7385 127.398 93.8852 126.985C93.0319 126.572 92.1052 126.33 91.1583 126.275Z"/>
<path d="M120.679 134.049C119.597 134.598 118.702 135.455 118.108 136.511C117.514 137.568 117.248 138.776 117.343 139.983C117.437 141.191 117.889 142.343 118.64 143.294C119.391 144.245 120.409 144.953 121.563 145.328C122.718 145.702 123.958 145.727 125.127 145.398C126.295 145.07 127.34 144.403 128.128 143.482C128.917 142.561 129.414 141.428 129.557 140.225C129.699 139.022 129.481 137.804 128.93 136.726C128.193 135.283 126.913 134.19 125.37 133.688C123.826 133.187 122.147 133.316 120.699 134.049H120.679Z"/>
</mask>
<path d="M4.1858 80.2846C3.40322 80.2409 2.62523 80.4296 1.95013 80.8268C1.27503 81.224 0.733131 81.8119 0.392917 82.5162C0.0527036 83.2205 -0.0705556 84.0096 0.0387169 84.7837C0.147989 85.5579 0.484889 86.2823 1.00684 86.8656C1.52879 87.4488 2.21236 87.8646 2.97117 88.0605C3.72998 88.2563 4.52997 88.2234 5.27003 87.9659C6.01009 87.7084 6.65702 87.2379 7.12905 86.6137C7.60108 85.9896 7.87702 85.2399 7.92201 84.4594C7.95192 83.9405 7.87897 83.4208 7.70733 82.9301C7.53569 82.4393 7.26872 81.9871 6.92171 81.5994C6.5747 81.2116 6.15444 80.8959 5.68499 80.6703C5.21553 80.4447 4.70609 80.3136 4.1858 80.2846Z" stroke="#2867ED" stroke-width="4.4" mask="url(#path-1-inside-1_141_1845)"/>
<path d="M49.9594 83.389C49.7743 86.6353 50.8879 89.8223 53.0559 92.2507C55.2239 94.679 58.2692 96.1503 61.5235 96.3418H62.1943C64.5915 96.3391 66.9355 95.6364 68.937 94.3204C70.9384 93.0044 72.5097 91.1326 73.457 88.9362C74.4042 86.7397 74.686 84.3146 74.2674 81.9603C73.8488 79.606 72.7482 77.4254 71.1015 75.6878C69.4548 73.9501 67.3341 72.7314 65.001 72.1821C62.6679 71.6327 60.2246 71.7768 57.9726 72.5965C55.7207 73.4162 53.7586 74.8757 52.3287 76.7948C50.8987 78.7138 50.0634 81.0085 49.9259 83.3957L49.9594 83.389Z" stroke="#2867ED" stroke-width="4.4" mask="url(#path-1-inside-1_141_1845)"/>
<path d="M4.1858 80.2846C3.40322 80.2409 2.62523 80.4296 1.95013 80.8268C1.27503 81.224 0.733131 81.8119 0.392917 82.5162C0.0527036 83.2205 -0.0705556 84.0096 0.0387169 84.7837C0.147989 85.5579 0.484889 86.2823 1.00684 86.8656C1.52879 87.4488 2.21236 87.8646 2.97117 88.0605C3.72998 88.2563 4.52997 88.2234 5.27003 87.9659C6.01009 87.7084 6.65702 87.2379 7.12905 86.6137C7.60108 85.9896 7.87702 85.2399 7.92201 84.4594C7.95192 83.9405 7.87897 83.4208 7.70733 82.9301C7.53569 82.4393 7.26872 81.9871 6.92171 81.5994C6.5747 81.2116 6.15444 80.8959 5.68499 80.6703C5.21553 80.4447 4.70609 80.3136 4.1858 80.2846Z" stroke="#2867ED" stroke-width="4.4" mask="url(#path-1-inside-1_141_1845)"/>
<path d="M49.1813 12.3293C49.8783 11.9722 50.4538 11.4176 50.8354 10.735C51.2171 10.0525 51.3877 9.27256 51.3259 8.49349C51.2641 7.71441 50.9726 6.97098 50.4881 6.35679C50.0036 5.74259 49.3478 5.28508 48.6032 5.04185C47.8586 4.79862 47.0585 4.78053 46.3036 4.98988C45.5487 5.19922 44.8728 5.62663 44.3609 6.21831C43.849 6.80998 43.5241 7.53948 43.4269 8.31496C43.3298 9.09045 43.4649 9.87725 43.8151 10.5763C44.0492 11.0455 44.3744 11.4636 44.7719 11.8064C45.1694 12.1491 45.6312 12.4095 46.1305 12.5726C46.6298 12.7358 47.1567 12.7982 47.6804 12.7564C48.2041 12.7147 48.7143 12.5694 49.1813 12.3293Z" stroke="#2867ED" stroke-width="4.4" mask="url(#path-1-inside-1_141_1845)"/>
<path d="M61.6376 33.9931C62.72 33.4484 63.6163 32.5959 64.2131 31.5433C64.8098 30.4907 65.0803 29.2852 64.9903 28.0793C64.9003 26.8733 64.4538 25.7211 63.7074 24.7682C62.9609 23.8153 61.948 23.1046 60.7966 22.7259C59.6452 22.3471 58.4071 22.3173 57.2388 22.6403C56.0704 22.9633 55.0243 23.6246 54.2327 24.5405C53.4411 25.4564 52.9395 26.5859 52.7914 27.7861C52.6433 28.9863 52.8552 30.2033 53.4005 31.2834C53.762 32.0016 54.2622 32.6416 54.8721 33.1667C55.4821 33.6918 56.19 34.0916 56.9552 34.3433C57.7204 34.5951 58.5279 34.6937 59.3314 34.6336C60.1349 34.5735 60.9186 34.3558 61.6376 33.9931Z" stroke="#2867ED" stroke-width="4.4" mask="url(#path-1-inside-1_141_1845)"/>
<path d="M19.7209 48.8928C20.5554 49.4406 21.5339 49.7293 22.5329 49.7223C23.5318 49.7154 24.5063 49.4132 25.333 48.8538C26.1598 48.2945 26.8016 47.5033 27.1775 46.5801C27.5534 45.6569 27.6463 44.6433 27.4447 43.6674C27.243 42.6915 26.7557 41.7972 26.0444 41.0975C25.3332 40.3979 24.4299 39.9243 23.4488 39.7367C22.4677 39.5491 21.4529 39.6558 20.5326 40.0435C19.6123 40.4312 18.828 41.0823 18.2788 41.9146C17.9141 42.4673 17.6621 43.0861 17.5372 43.7359C17.4123 44.3857 17.4169 45.0536 17.5508 45.7016C17.6847 46.3496 17.9453 46.965 18.3177 47.5125C18.69 48.06 19.1668 48.5291 19.7209 48.8928Z" stroke="#2867ED" stroke-width="4.4" mask="url(#path-1-inside-1_141_1845)"/>
<path d="M27.1866 78.0566C25.9763 77.9885 24.7728 78.2798 23.7284 78.8938C22.684 79.5077 21.8455 80.4167 21.3189 81.5059C20.7923 82.595 20.6013 83.8154 20.77 85.0129C20.9387 86.2103 21.4595 87.331 22.2665 88.2332C23.0736 89.1355 24.1308 89.7788 25.3044 90.0819C26.478 90.385 27.7153 90.3343 28.86 89.9361C30.0047 89.538 31.0053 88.8102 31.7355 87.845C32.4656 86.8797 32.8924 85.7202 32.962 84.513C33.0091 83.7105 32.897 82.9067 32.632 82.1475C32.3671 81.3884 31.9545 80.6888 31.418 80.089C30.8814 79.4892 30.2315 79.001 29.5054 78.6522C28.7793 78.3034 27.9913 78.1011 27.1866 78.0566Z" stroke="#2867ED" stroke-width="4.4" mask="url(#path-1-inside-1_141_1845)"/>
<path d="M20.3917 119.17C19.5003 119.619 18.7625 120.322 18.2715 121.189C17.7805 122.057 17.5584 123.05 17.6333 124.044C17.7081 125.037 18.0766 125.986 18.6921 126.771C19.3076 127.555 20.1425 128.14 21.0912 128.452C22.04 128.763 23.06 128.787 24.0223 128.52C24.9846 128.253 25.8461 127.708 26.4977 126.953C27.1494 126.198 27.562 125.267 27.6834 124.279C27.8049 123.29 27.6296 122.287 27.1799 121.398C26.8818 120.806 26.4694 120.279 25.9666 119.846C25.4637 119.414 24.8802 119.085 24.2496 118.878C23.6189 118.671 22.9535 118.59 22.2915 118.64C21.6294 118.69 20.9838 118.87 20.3917 119.17Z" stroke="#2867ED" stroke-width="4.4" mask="url(#path-1-inside-1_141_1845)"/>
<path d="M44.2243 65.4183C45.4181 66.1987 46.8172 66.6085 48.2446 66.5958C49.6719 66.5832 51.0634 66.1487 52.2432 65.3473C53.423 64.5458 54.3381 63.4135 54.8727 62.0934C55.4073 60.7733 55.5374 59.3247 55.2467 57.9308C54.9559 56.5369 54.2573 55.2603 53.2392 54.2624C52.2211 53.2645 50.9292 52.5901 49.5268 52.3246C48.1245 52.059 46.6747 52.2141 45.3607 52.7703C44.0467 53.3265 42.9276 54.2589 42.1449 55.4495C41.625 56.2402 41.2664 57.1253 41.0896 58.0542C40.9128 58.9832 40.9211 59.9378 41.1142 60.8635C41.3073 61.7893 41.6814 62.668 42.215 63.4495C42.7486 64.231 43.4314 64.9 44.2243 65.4183Z" stroke="#2867ED" stroke-width="4.4" mask="url(#path-1-inside-1_141_1845)"/>
<path d="M119.834 33.5114C120.85 34.1737 122.04 34.5207 123.254 34.5085C124.467 34.4963 125.65 34.1255 126.652 33.4429C127.655 32.7602 128.432 31.7965 128.885 30.6735C129.338 29.5505 129.448 28.3187 129.199 27.1337C128.951 25.9487 128.356 24.8639 127.489 24.0162C126.623 23.1686 125.523 22.5962 124.331 22.3716C123.138 22.1469 121.906 22.2799 120.789 22.7539C119.672 23.2279 118.721 24.0216 118.056 25.0345C117.614 25.7076 117.31 26.461 117.16 27.2517C117.01 28.0424 117.019 28.8548 117.184 29.6423C117.35 30.4298 117.67 31.177 118.126 31.8409C118.582 32.5048 119.164 33.0725 119.841 33.5114H119.834Z" stroke="#2867ED" stroke-width="4.4" mask="url(#path-1-inside-1_141_1845)"/>
<path d="M132.418 11.9144C133.075 12.3432 133.844 12.568 134.63 12.5605C135.415 12.5529 136.18 12.3134 136.829 11.8721C137.478 11.4308 137.981 10.8076 138.274 10.0813C138.568 9.35491 138.639 8.55802 138.479 7.79131C138.319 7.02461 137.934 6.32252 137.374 5.77379C136.813 5.22506 136.103 4.85432 135.331 4.70843C134.56 4.56255 133.762 4.64807 133.039 4.95418C132.317 5.2603 131.701 5.77326 131.271 6.42824C130.984 6.86351 130.787 7.35075 130.69 7.86212C130.593 8.37348 130.598 8.89894 130.704 9.40846C130.811 9.91797 131.017 10.4015 131.311 10.8315C131.605 11.2615 131.981 11.6295 132.418 11.9144Z" stroke="#2867ED" stroke-width="4.4" mask="url(#path-1-inside-1_141_1845)"/>
<path d="M120.8 71.7341C117.593 71.6242 114.471 72.7702 112.101 74.9268C109.73 77.0835 108.3 80.0797 108.116 83.2745C107.932 86.4693 109.009 89.6092 111.116 92.0224C113.223 94.4357 116.193 95.9308 119.391 96.1879H120.102C122.471 96.1867 124.788 95.5022 126.775 94.2169C128.762 92.9316 130.334 91.1004 131.301 88.9441C132.268 86.7878 132.589 84.3984 132.226 82.0642C131.862 79.7299 130.829 77.5505 129.252 75.7886C128.183 74.5873 126.885 73.6101 125.434 72.914C123.983 72.2179 122.408 71.8168 120.8 71.7341Z" stroke="#2867ED" stroke-width="4.4" mask="url(#path-1-inside-1_141_1845)"/>
<path d="M65.6689 64.5686C67.0051 67.2612 69.2867 69.3702 72.08 70.4946C74.8732 71.6189 77.9834 71.6802 80.819 70.6668C83.6546 69.6535 86.018 67.636 87.4598 64.9982C88.9016 62.3603 89.3212 59.2859 88.6389 56.3596C87.9566 53.4333 86.22 50.8591 83.7592 49.1265C81.2984 47.3939 78.285 46.6236 75.2921 46.9622C72.2991 47.3008 69.5353 48.7247 67.526 50.963C65.5168 53.2013 64.4023 56.0981 64.3944 59.1025C64.3878 60.9985 64.8241 62.8701 65.6689 64.5686Z" stroke="#2867ED" stroke-width="4.4" mask="url(#path-1-inside-1_141_1845)"/>
<path d="M161.925 48.8794C162.816 48.4306 163.555 47.7283 164.046 46.8612C164.538 45.9941 164.76 45.0012 164.686 44.0078C164.612 43.0145 164.245 42.0653 163.63 41.2804C163.015 40.4954 162.181 39.9098 161.232 39.5976C160.284 39.2854 159.264 39.2607 158.302 39.5264C157.339 39.7922 156.477 40.3366 155.825 41.0908C155.173 41.8449 154.759 42.7751 154.637 43.7637C154.514 44.7522 154.688 45.7549 155.137 46.6448C155.74 47.8384 156.794 48.7442 158.067 49.1632C159.34 49.5822 160.728 49.4801 161.925 48.8794Z" stroke="#2867ED" stroke-width="4.4" mask="url(#path-1-inside-1_141_1845)"/>
<path d="M130.801 52.78C129.526 53.4204 128.47 54.4236 127.767 55.6626C127.064 56.9016 126.744 58.3208 126.85 59.7407C126.955 61.1607 127.48 62.5176 128.359 63.6399C129.237 64.7621 130.43 65.5993 131.785 66.0457C133.141 66.492 134.598 66.5274 135.974 66.1473C137.35 65.7672 138.582 64.9888 139.514 63.9105C140.446 62.8321 141.037 61.5023 141.211 60.0891C141.385 58.676 141.136 57.243 140.494 55.9713C140.067 55.127 139.478 54.3747 138.761 53.7573C138.043 53.14 137.21 52.6697 136.31 52.3734C135.41 52.077 134.46 51.9604 133.515 52.0302C132.57 52.0999 131.648 52.3547 130.801 52.78Z" stroke="#2867ED" stroke-width="4.4" mask="url(#path-1-inside-1_141_1845)"/>
<path d="M90.6955 10.0679C91.6912 10.124 92.6813 9.88476 93.541 9.38042C94.4007 8.87609 95.0914 8.1292 95.5261 7.2339C95.9608 6.33861 96.1201 5.33498 95.9838 4.34954C95.8475 3.3641 95.4218 2.44095 94.7603 1.69648C94.0988 0.952001 93.2312 0.419517 92.2667 0.16615C91.3023 -0.0872176 90.2842 -0.0501268 89.3409 0.272747C88.3975 0.59562 87.5711 1.18982 86.9659 1.98045C86.3606 2.77108 86.0035 3.72274 85.9397 4.71547C85.897 5.37894 85.9864 6.04427 86.2028 6.67311C86.4191 7.30194 86.7581 7.88185 87.2002 8.37941C87.6423 8.87696 88.1787 9.28231 88.7786 9.5721C89.3785 9.86189 90.03 10.0304 90.6955 10.0679Z" stroke="#2867ED" stroke-width="4.4" mask="url(#path-1-inside-1_141_1845)"/>
<path d="M90.6418 41.7741C92.0668 41.8551 93.484 41.5129 94.714 40.7906C95.944 40.0684 96.9318 38.9986 97.5523 37.7165C98.1728 36.4344 98.3983 34.9976 98.2002 33.5877C98.0021 32.1778 97.3893 30.8581 96.4394 29.7956C95.4894 28.733 94.2449 27.9752 92.8632 27.6181C91.4815 27.2609 90.0247 27.3204 88.6768 27.789C87.329 28.2576 86.1508 29.1143 85.2911 30.2507C84.4314 31.3872 83.9288 32.7524 83.8469 34.1737C83.7388 36.08 84.3937 37.9512 85.6677 39.3762C86.9418 40.8013 88.7308 41.6637 90.6418 41.7741Z" stroke="#2867ED" stroke-width="4.4" mask="url(#path-1-inside-1_141_1845)"/>
<path d="M51.5357 115.262C52.8106 114.622 53.8665 113.619 54.5698 112.38C55.2732 111.141 55.5924 109.722 55.487 108.302C55.3817 106.882 54.8566 105.525 53.9781 104.403C53.0996 103.28 51.9072 102.443 50.5516 101.997C49.1961 101.55 47.7383 101.515 46.3626 101.895C44.9869 102.275 43.7551 103.054 42.8229 104.132C41.8908 105.21 41.3001 106.54 41.1257 107.953C40.9513 109.366 41.2009 110.799 41.843 112.071C42.7054 113.775 44.2104 115.068 46.0276 115.666C47.8448 116.265 49.8258 116.119 51.5357 115.262Z" stroke="#2867ED" stroke-width="4.4" mask="url(#path-1-inside-1_141_1845)"/>
<path d="M95.3037 52.2782C93.8051 54.5578 93.1116 57.2708 93.333 59.9879C93.5544 62.7049 94.6781 65.2706 96.5261 67.2789C98.3741 69.2872 100.841 70.6233 103.536 71.0758C106.231 71.5283 109 71.0712 111.406 69.7769C113.811 68.4827 115.715 66.4252 116.816 63.9302C117.917 61.4352 118.152 58.6452 117.484 56.0019C116.816 53.3586 115.283 51.0129 113.129 49.3363C110.974 47.6597 108.32 46.7478 105.587 46.7451C103.547 46.7419 101.538 47.2462 99.7424 48.2123C97.9469 49.1784 96.4213 50.5759 95.3037 52.2782Z" stroke="#2867ED" stroke-width="4.4" mask="url(#path-1-inside-1_141_1845)"/>
<path d="M116.648 103.481C115.664 101.535 114.178 99.8871 112.343 98.7058C110.508 97.5246 108.39 96.8532 106.208 96.7609C104.025 96.6685 101.858 97.1586 99.9291 98.1806C98.0002 99.2025 96.3795 100.719 95.2344 102.574C94.0893 104.43 93.4612 106.556 93.4149 108.734C93.3686 110.912 93.9058 113.063 94.971 114.965C96.0363 116.867 97.591 118.451 99.4747 119.553C101.359 120.656 103.503 121.237 105.687 121.237C107.608 121.222 109.5 120.764 111.214 119.899C114.113 118.435 116.312 115.886 117.331 112.809C118.349 109.732 118.103 106.378 116.648 103.481Z" stroke="#2867ED" stroke-width="4.4" mask="url(#path-1-inside-1_141_1845)"/>
<path d="M138.099 102.624C136.906 101.843 135.507 101.432 134.079 101.443C132.652 101.455 131.26 101.889 130.08 102.689C128.899 103.49 127.983 104.622 127.448 105.941C126.912 107.261 126.781 108.71 127.071 110.104C127.361 111.498 128.059 112.775 129.076 113.774C130.094 114.772 131.385 115.448 132.788 115.714C134.19 115.98 135.64 115.826 136.954 115.271C138.269 114.715 139.388 113.783 140.172 112.593C140.692 111.803 141.051 110.918 141.228 109.989C141.406 109.061 141.398 108.106 141.205 107.18C141.013 106.255 140.639 105.376 140.107 104.594C139.574 103.812 138.891 103.143 138.099 102.624Z" stroke="#2867ED" stroke-width="4.4" mask="url(#path-1-inside-1_141_1845)"/>
<path d="M161.603 84.232C161.671 83.0247 161.379 81.8244 160.764 80.7826C160.148 79.7409 159.237 78.9046 158.145 78.3793C157.053 77.8541 155.829 77.6636 154.629 77.8318C153.428 78.0001 152.305 78.5195 151.4 79.3245C150.496 80.1296 149.851 81.184 149.547 82.3546C149.243 83.5251 149.294 84.7593 149.693 85.9011C150.092 87.0428 150.822 88.0409 151.789 88.7691C152.757 89.4974 153.92 89.9231 155.13 89.9925C155.934 90.0386 156.74 89.9261 157.501 89.6615C158.261 89.3969 158.962 88.9854 159.563 88.4504C160.165 87.9154 160.654 87.2675 161.004 86.5436C161.354 85.8198 161.558 85.0343 161.603 84.232Z" stroke="#2867ED" stroke-width="4.4" mask="url(#path-1-inside-1_141_1845)"/>
<path d="M178.587 79.8765C177.803 79.8314 177.023 80.0193 176.346 80.4164C175.669 80.8135 175.125 81.4019 174.783 82.1072C174.442 82.8126 174.317 83.6031 174.426 84.379C174.535 85.1548 174.872 85.8811 175.394 86.4659C175.917 87.0507 176.601 87.4679 177.362 87.6646C178.122 87.8613 178.924 87.8287 179.665 87.571C180.407 87.3132 181.055 86.8419 181.528 86.2166C182.001 85.5913 182.278 84.8401 182.323 84.058C182.382 83.0098 182.021 81.9811 181.321 81.1973C180.621 80.4135 179.638 79.9386 178.587 79.8765Z" stroke="#2867ED" stroke-width="4.4" mask="url(#path-1-inside-1_141_1845)"/>
<path d="M162.596 119.15C161.76 118.604 160.781 118.317 159.782 118.326C158.784 118.335 157.81 118.64 156.984 119.2C156.159 119.761 155.519 120.554 155.145 121.478C154.771 122.401 154.68 123.415 154.883 124.39C155.087 125.366 155.575 126.259 156.288 126.957C157 127.656 157.904 128.127 158.885 128.313C159.867 128.499 160.881 128.391 161.801 128.002C162.72 127.613 163.503 126.961 164.051 126.128C164.416 125.575 164.668 124.955 164.792 124.305C164.917 123.654 164.911 122.986 164.776 122.337C164.641 121.689 164.379 121.074 164.004 120.527C163.63 119.98 163.152 119.512 162.596 119.15Z" stroke="#2867ED" stroke-width="4.4" mask="url(#path-1-inside-1_141_1845)"/>
<path d="M49.9057 156.128C49.2492 155.698 48.4796 155.472 47.6943 155.479C46.9091 155.485 46.1434 155.724 45.494 156.164C44.8447 156.605 44.3408 157.228 44.0462 157.954C43.7516 158.68 43.6795 159.477 43.8389 160.244C43.9983 161.01 44.3821 161.713 44.9418 162.262C45.5016 162.812 46.212 163.183 46.9834 163.33C47.7548 163.477 48.5525 163.392 49.2756 163.087C49.9988 162.781 50.6149 162.269 51.046 161.614C51.3325 161.179 51.5302 160.692 51.6279 160.181C51.7256 159.67 51.7214 159.145 51.6155 158.635C51.5096 158.126 51.3041 157.642 51.0107 157.212C50.7174 156.782 50.3419 156.413 49.9057 156.128Z" stroke="#2867ED" stroke-width="4.4" mask="url(#path-1-inside-1_141_1845)"/>
<path d="M133.135 155.713C132.438 156.07 131.863 156.625 131.481 157.307C131.1 157.99 130.929 158.77 130.991 159.549C131.053 160.328 131.344 161.071 131.829 161.686C132.313 162.3 132.969 162.757 133.713 163.001C134.458 163.244 135.258 163.262 136.013 163.053C136.768 162.843 137.444 162.416 137.956 161.824C138.468 161.232 138.793 160.503 138.89 159.727C138.987 158.952 138.852 158.165 138.502 157.466C138.269 157.002 137.946 156.588 137.553 156.248C137.159 155.908 136.702 155.649 136.208 155.485C135.714 155.322 135.192 155.257 134.673 155.295C134.154 155.333 133.647 155.473 133.182 155.706L133.135 155.713Z" stroke="#2867ED" stroke-width="4.4" mask="url(#path-1-inside-1_141_1845)"/>
<path d="M87.0129 115.744C88.5084 113.466 89.1995 110.756 88.977 108.043C88.7544 105.329 87.631 102.767 85.7843 100.762C83.9377 98.7569 81.4734 97.4234 78.7814 96.9724C76.0894 96.5215 73.3236 96.9789 70.9215 98.2722C68.5195 99.5655 66.6185 101.621 65.5194 104.113C64.4203 106.605 64.1858 109.392 64.8532 112.032C65.5205 114.672 67.0515 117.015 69.2039 118.689C71.3562 120.364 74.007 121.274 76.7367 121.277C78.7755 121.279 80.7826 120.774 82.5767 119.808C84.3708 118.842 85.8955 117.445 87.0129 115.744Z" stroke="#2867ED" stroke-width="4.4" mask="url(#path-1-inside-1_141_1845)"/>
<path d="M62.4827 134.538C61.4682 133.876 60.2797 133.529 59.0675 133.54C57.8552 133.552 56.6736 133.922 55.6721 134.603C54.6705 135.284 53.8939 136.247 53.4405 137.368C52.9871 138.489 52.8771 139.72 53.1246 140.903C53.3721 142.087 53.9659 143.171 54.8309 144.018C55.6959 144.866 56.7933 145.438 57.9844 145.663C59.1755 145.888 60.4068 145.756 61.5227 145.284C62.6385 144.811 63.5889 144.019 64.2536 143.008C64.6962 142.336 65.0015 141.584 65.152 140.794C65.3026 140.005 65.2954 139.193 65.1309 138.406C64.9664 137.619 64.6478 136.873 64.1933 136.209C63.7389 135.545 63.1576 134.977 62.4827 134.538Z" stroke="#2867ED" stroke-width="4.4" mask="url(#path-1-inside-1_141_1845)"/>
<path d="M91.1047 157.975C90.1074 157.918 89.1157 158.158 88.255 158.663C87.3943 159.169 86.7032 159.917 86.269 160.815C85.8348 161.712 85.6771 162.717 85.8158 163.704C85.9545 164.691 86.3834 165.614 87.0482 166.358C87.713 167.101 88.584 167.631 89.5509 167.881C90.5178 168.131 91.5373 168.09 92.4805 167.762C93.4237 167.434 94.2482 166.834 94.8498 166.039C95.4514 165.243 95.8031 164.288 95.8604 163.294C95.9355 161.959 95.477 160.65 94.5854 159.653C93.6938 158.656 92.442 158.052 91.1047 157.975Z" stroke="#2867ED" stroke-width="4.4" mask="url(#path-1-inside-1_141_1845)"/>
<path d="M91.1583 126.275C89.7336 126.19 88.3157 126.529 87.0838 127.248C85.8519 127.967 84.8614 129.034 84.2375 130.314C83.6135 131.594 83.3841 133.03 83.5783 134.441C83.7726 135.851 84.3816 137.172 85.3286 138.238C86.2755 139.303 87.5178 140.064 88.8983 140.425C90.2789 140.786 91.7358 140.731 93.0849 140.266C94.4339 139.801 95.6146 138.948 96.4775 137.814C97.3405 136.68 97.847 135.316 97.9331 133.895C97.9912 132.951 97.862 132.005 97.5527 131.11C97.2435 130.216 96.7604 129.391 96.131 128.683C95.5017 127.975 94.7385 127.398 93.8852 126.985C93.0319 126.572 92.1052 126.33 91.1583 126.275Z" stroke="#2867ED" stroke-width="4.4" mask="url(#path-1-inside-1_141_1845)"/>
<path d="M120.679 134.049C119.597 134.598 118.702 135.455 118.108 136.511C117.514 137.568 117.248 138.776 117.343 139.983C117.437 141.191 117.889 142.343 118.64 143.294C119.391 144.245 120.409 144.953 121.563 145.328C122.718 145.702 123.958 145.727 125.127 145.398C126.295 145.07 127.34 144.403 128.128 143.482C128.917 142.561 129.414 141.428 129.557 140.225C129.699 139.022 129.481 137.804 128.93 136.726C128.193 135.283 126.913 134.19 125.37 133.688C123.826 133.187 122.147 133.316 120.699 134.049H120.679Z" stroke="#2867ED" stroke-width="4.4" mask="url(#path-1-inside-1_141_1845)"/>
</svg>
