<svg width="246" height="240" viewBox="0 0 246 240" fill="none" xmlns="http://www.w3.org/2000/svg">
<rect width="246" height="240" rx="24" fill="#E8EDFF"/>
<mask id="path-2-inside-1_124_561" fill="white">
<path d="M50.4882 116.904C49.836 116.867 49.1877 117.025 48.6251 117.356C48.0625 117.687 47.6109 118.177 47.3274 118.764C47.0439 119.35 46.9412 120.008 47.0323 120.653C47.1233 121.298 47.4041 121.902 47.839 122.388C48.274 122.874 48.8436 123.221 49.476 123.384C50.1083 123.547 50.775 123.52 51.3917 123.305C52.0084 123.09 52.5475 122.698 52.9409 122.178C53.3342 121.658 53.5642 121.033 53.6017 120.383C53.6266 119.95 53.5658 119.517 53.4228 119.108C53.2797 118.699 53.0573 118.323 52.7681 118C52.4789 117.676 52.1287 117.413 51.7375 117.225C51.3463 117.037 50.9217 116.928 50.4882 116.904Z"/>
<path d="M88.6328 119.491C88.4786 122.196 89.4066 124.852 91.2133 126.876C93.0199 128.899 95.5577 130.125 98.2696 130.285H98.8286C100.826 130.283 102.78 129.697 104.447 128.6C106.115 127.504 107.425 125.944 108.214 124.114C109.004 122.283 109.238 120.262 108.889 118.3C108.541 116.338 107.624 114.521 106.251 113.073C104.879 111.625 103.112 110.61 101.167 110.152C99.2232 109.694 97.1871 109.814 95.3105 110.497C93.4339 111.18 91.7989 112.396 90.6072 113.996C89.4156 115.595 88.7195 117.507 88.6049 119.496L88.6328 119.491Z"/>
<path d="M50.4882 116.904C49.836 116.867 49.1877 117.025 48.6251 117.356C48.0625 117.687 47.6109 118.177 47.3274 118.764C47.0439 119.35 46.9412 120.008 47.0323 120.653C47.1233 121.298 47.4041 121.902 47.839 122.388C48.274 122.874 48.8436 123.221 49.476 123.384C50.1083 123.547 50.775 123.52 51.3917 123.305C52.0084 123.09 52.5475 122.698 52.9409 122.178C53.3342 121.658 53.5642 121.033 53.6017 120.383C53.6266 119.95 53.5658 119.517 53.4228 119.108C53.2797 118.699 53.0573 118.323 52.7681 118C52.4789 117.676 52.1287 117.413 51.7375 117.225C51.3463 117.037 50.9217 116.928 50.4882 116.904Z"/>
<path d="M87.9844 60.2744C88.5652 59.9769 89.0448 59.5147 89.3629 58.9459C89.6809 58.3771 89.8231 57.7272 89.7716 57.0779C89.7201 56.4287 89.4772 55.8092 89.0734 55.2974C88.6697 54.7855 88.1232 54.4043 87.5027 54.2016C86.8822 53.9989 86.2154 53.9838 85.5863 54.1583C84.9572 54.3327 84.394 54.6889 83.9674 55.182C83.5408 55.675 83.27 56.2829 83.1891 56.9292C83.1082 57.5754 83.2207 58.2311 83.5126 58.8137C83.7076 59.2046 83.9787 59.5531 84.3099 59.8387C84.6411 60.1242 85.026 60.3413 85.4421 60.4772C85.8582 60.6132 86.2972 60.6652 86.7337 60.6304C87.1701 60.5956 87.5953 60.4746 87.9844 60.2744Z"/>
<path d="M98.3646 78.3276C99.2667 77.8737 100.014 77.1633 100.511 76.2861C101.008 75.4089 101.234 74.4044 101.159 73.3994C101.084 72.3945 100.712 71.4343 100.089 70.6402C99.4674 69.8462 98.6233 69.2539 97.6638 68.9382C96.7043 68.6226 95.6726 68.5978 94.699 68.867C93.7254 69.1361 92.8536 69.6872 92.1939 70.4505C91.5343 71.2137 91.1163 72.1549 90.9928 73.1551C90.8694 74.1553 91.046 75.1695 91.5004 76.0695C91.8017 76.6681 92.2185 77.2014 92.7268 77.6389C93.2351 78.0765 93.825 78.4097 94.4627 78.6195C95.1003 78.8292 95.7732 78.9114 96.4428 78.8613C97.1124 78.8113 97.7655 78.6299 98.3646 78.3276Z"/>
<path d="M63.4341 90.744C64.1295 91.2005 64.945 91.4411 65.7774 91.4353C66.6099 91.4295 67.4219 91.1777 68.1108 90.7116C68.7998 90.2455 69.3347 89.5861 69.6479 88.8168C69.9611 88.0474 70.0386 87.2028 69.8706 86.3895C69.7025 85.5763 69.2964 84.831 68.7037 84.248C68.111 83.6649 67.3582 83.2703 66.5407 83.1139C65.7231 82.9576 64.8774 83.0466 64.1105 83.3696C63.3436 83.6927 62.69 84.2353 62.2323 84.9289C61.9284 85.3894 61.7184 85.9051 61.6143 86.4466C61.5102 86.9881 61.5141 87.5447 61.6257 88.0847C61.7373 88.6247 61.9544 89.1375 62.2647 89.5938C62.575 90.0501 62.9724 90.4409 63.4341 90.744Z"/>
<path d="M69.6555 115.047C68.6469 114.99 67.644 115.233 66.7737 115.745C65.9033 116.256 65.2046 117.014 64.7658 117.922C64.3269 118.829 64.1678 119.846 64.3083 120.844C64.4489 121.842 64.8829 122.776 65.5555 123.528C66.228 124.28 67.109 124.816 68.087 125.068C69.065 125.321 70.0961 125.279 71.05 124.947C72.0039 124.615 72.8378 124.009 73.4462 123.204C74.0547 122.4 74.4103 121.434 74.4683 120.428C74.5076 119.759 74.4142 119.089 74.1934 118.456C73.9726 117.824 73.6288 117.241 73.1817 116.741C72.7345 116.241 72.1929 115.834 71.5878 115.544C70.9827 115.253 70.3261 115.084 69.6555 115.047Z"/>
<path d="M63.9931 149.308C63.2502 149.683 62.6354 150.268 62.2262 150.991C61.8171 151.714 61.632 152.542 61.6944 153.37C61.7568 154.198 62.0638 154.988 62.5767 155.642C63.0897 156.296 63.7854 156.784 64.576 157.043C65.3666 157.302 66.2166 157.322 67.0186 157.1C67.8205 156.878 68.5384 156.423 69.0814 155.794C69.6245 155.165 69.9683 154.39 70.0695 153.565C70.1707 152.741 70.0247 151.906 69.6499 151.165C69.4015 150.672 69.0579 150.232 68.6388 149.872C68.2198 149.512 67.7335 149.237 67.208 149.065C66.6824 148.892 66.1279 148.825 65.5762 148.867C65.0245 148.909 64.4865 149.059 63.9931 149.308Z"/>
<path d="M83.8536 104.515C84.8485 105.166 86.0143 105.507 87.2038 105.497C88.3933 105.486 89.5529 105.124 90.536 104.456C91.5192 103.788 92.2817 102.845 92.7272 101.744C93.1727 100.644 93.2812 99.4373 93.0389 98.2757C92.7966 97.1141 92.2144 96.0503 91.366 95.2187C90.5176 94.3871 89.441 93.8251 88.2724 93.6038C87.1037 93.3825 85.8955 93.5118 84.8006 93.9753C83.7056 94.4388 82.773 95.2158 82.1207 96.2079C81.6875 96.8668 81.3887 97.6044 81.2413 98.3786C81.094 99.1527 81.1009 99.9482 81.2619 100.72C81.4228 101.491 81.7345 102.223 82.1792 102.875C82.6239 103.526 83.1928 104.083 83.8536 104.515Z"/>
<path d="M146.862 77.9262C147.708 78.4781 148.7 78.7673 149.711 78.7571C150.723 78.7469 151.708 78.4379 152.544 77.8691C153.379 77.3002 154.027 76.4971 154.404 75.5613C154.782 74.6255 154.873 73.5989 154.666 72.6115C154.459 71.624 153.963 70.7199 153.241 70.0135C152.519 69.3072 151.603 68.8302 150.609 68.643C149.615 68.4558 148.588 68.5666 147.657 68.9616C146.727 69.3566 145.934 70.018 145.38 70.8621C145.012 71.423 144.758 72.0509 144.633 72.7098C144.509 73.3687 144.516 74.0457 144.654 74.702C144.792 75.3582 145.058 75.9808 145.438 76.5341C145.818 77.0874 146.304 77.5604 146.867 77.9262H146.862Z"/>
<path d="M157.348 59.9287C157.896 60.286 158.537 60.4734 159.191 60.4671C159.846 60.4608 160.483 60.2612 161.024 59.8935C161.565 59.5257 161.984 59.0064 162.229 58.4011C162.473 57.7958 162.533 57.1317 162.399 56.4928C162.265 55.8539 161.945 55.2688 161.478 54.8115C161.011 54.3542 160.419 54.0453 159.776 53.9237C159.133 53.8022 158.468 53.8734 157.866 54.1285C157.264 54.3836 156.751 54.8111 156.392 55.3569C156.154 55.7196 155.989 56.1257 155.908 56.5518C155.827 56.9779 155.831 57.4158 155.92 57.8404C156.009 58.265 156.181 58.668 156.426 59.0263C156.671 59.3846 156.984 59.6913 157.348 59.9287Z"/>
<path d="M147.666 109.778C144.994 109.687 142.393 110.642 140.417 112.439C138.442 114.236 137.25 116.733 137.097 119.395C136.944 122.058 137.841 124.674 139.597 126.685C141.353 128.696 143.828 129.942 146.493 130.157H147.085C149.059 130.156 150.99 129.585 152.646 128.514C154.302 127.443 155.612 125.917 156.418 124.12C157.224 122.323 157.491 120.332 157.188 118.387C156.885 116.442 156.024 114.625 154.71 113.157C153.819 112.156 152.738 111.342 151.529 110.762C150.319 110.182 149.006 109.847 147.666 109.778Z"/>
<path d="M101.724 103.807C102.838 106.051 104.739 107.809 107.067 108.746C109.394 109.682 111.986 109.734 114.349 108.889C116.712 108.045 118.682 106.363 119.883 104.165C121.085 101.967 121.434 99.405 120.866 96.9664C120.297 94.5278 118.85 92.3826 116.799 90.9388C114.749 89.4949 112.238 88.8531 109.743 89.1352C107.249 89.4174 104.946 90.6039 103.272 92.4692C101.597 94.3345 100.669 96.7484 100.662 99.2521C100.656 100.832 101.02 102.392 101.724 103.807Z"/>
<path d="M181.937 90.7329C182.68 90.3589 183.296 89.7736 183.705 89.0511C184.115 88.3285 184.3 87.501 184.239 86.6732C184.177 85.8454 183.87 85.0545 183.358 84.4003C182.846 83.7462 182.151 83.2582 181.36 82.998C180.57 82.7379 179.72 82.7172 178.918 82.9387C178.116 83.1602 177.398 83.6138 176.854 84.2423C176.311 84.8708 175.966 85.646 175.864 86.4698C175.762 87.2936 175.907 88.1291 176.281 88.8707C176.784 89.8654 177.662 90.6202 178.723 90.9694C179.783 91.3185 180.94 91.2335 181.937 90.7329Z"/>
<path d="M156.001 93.9833C154.938 94.5171 154.059 95.353 153.472 96.3855C152.886 97.418 152.62 98.6007 152.708 99.784C152.796 100.967 153.233 102.098 153.966 103.033C154.698 103.968 155.691 104.666 156.821 105.038C157.951 105.41 159.165 105.439 160.312 105.123C161.458 104.806 162.485 104.157 163.262 103.259C164.038 102.36 164.531 101.252 164.676 100.074C164.821 98.8967 164.613 97.7025 164.078 96.6428C163.723 95.9392 163.232 95.3123 162.634 94.7978C162.036 94.2834 161.342 93.8915 160.592 93.6445C159.842 93.3976 159.05 93.3004 158.262 93.3585C157.475 93.4167 156.706 93.629 156.001 93.9833Z"/>
<path d="M122.58 58.3899C123.409 58.4367 124.234 58.2373 124.951 57.817C125.667 57.3968 126.243 56.7744 126.605 56.0283C126.967 55.2822 127.1 54.4458 126.987 53.6246C126.873 52.8034 126.518 52.0342 125.967 51.4138C125.416 50.7934 124.693 50.3496 123.889 50.1385C123.085 49.9273 122.237 49.9583 121.451 50.2273C120.665 50.4964 119.976 50.9915 119.472 51.6504C118.967 52.3093 118.67 53.1023 118.616 53.9296C118.581 54.4825 118.655 55.0369 118.836 55.561C119.016 56.085 119.298 56.5682 119.667 56.9829C120.035 57.3975 120.482 57.7353 120.982 57.9768C121.482 58.2183 122.025 58.3587 122.58 58.3899Z"/>
<path d="M122.535 84.8118C123.722 84.8793 124.903 84.5941 125.928 83.9922C126.953 83.3904 127.776 82.4989 128.294 81.4305C128.811 80.362 128.999 79.1647 128.833 77.9898C128.668 76.8149 128.158 75.7151 127.366 74.8297C126.574 73.9442 125.537 73.3127 124.386 73.0151C123.235 72.7174 122.021 72.767 120.897 73.1575C119.774 73.548 118.792 74.2619 118.076 75.209C117.359 76.156 116.941 77.2937 116.872 78.4781C116.782 80.0667 117.328 81.626 118.39 82.8135C119.451 84.0011 120.942 84.7198 122.535 84.8118Z"/>
<path d="M89.9464 146.052C91.0089 145.518 91.8888 144.682 92.4749 143.65C93.061 142.617 93.327 141.435 93.2392 140.251C93.1514 139.068 92.7138 137.937 91.9817 137.002C91.2496 136.067 90.256 135.369 89.1263 134.997C87.9967 134.625 86.7819 134.596 85.6355 134.913C84.4891 135.229 83.4626 135.878 82.6858 136.777C81.909 137.675 81.4168 138.783 81.2714 139.961C81.1261 141.139 81.3341 142.333 81.8692 143.393C82.5878 144.813 83.842 145.89 85.3563 146.389C86.8707 146.887 88.5215 146.766 89.9464 146.052Z"/>
<path d="M126.42 93.5652C125.171 95.4649 124.593 97.7257 124.778 99.9899C124.962 102.254 125.898 104.392 127.438 106.066C128.978 107.739 131.034 108.853 133.28 109.23C135.526 109.607 137.834 109.226 139.838 108.147C141.843 107.069 143.429 105.354 144.347 103.275C145.264 101.196 145.46 98.871 144.903 96.6683C144.347 94.4655 143.07 92.5108 141.274 91.1136C139.478 89.7164 137.266 88.9566 134.989 88.9543C133.289 88.9516 131.615 89.3719 130.119 90.177C128.622 90.982 127.351 92.1466 126.42 93.5652Z"/>
<path d="M144.206 136.234C143.387 134.613 142.149 133.239 140.619 132.255C139.09 131.271 137.325 130.711 135.506 130.634C133.688 130.557 131.882 130.966 130.274 131.817C128.667 132.669 127.316 133.933 126.362 135.479C125.408 137.025 124.884 138.797 124.846 140.612C124.807 142.427 125.255 144.219 126.143 145.804C127.03 147.389 128.326 148.709 129.896 149.628C131.465 150.547 133.253 151.031 135.073 151.031C136.674 151.018 138.25 150.637 139.679 149.916C142.094 148.696 143.927 146.572 144.775 144.007C145.624 141.443 145.419 138.648 144.206 136.234Z"/>
<path d="M162.083 135.52C161.088 134.869 159.922 134.527 158.733 134.536C157.543 134.546 156.383 134.907 155.4 135.574C154.416 136.242 153.653 137.185 153.207 138.285C152.76 139.384 152.651 140.592 152.893 141.753C153.134 142.915 153.716 143.979 154.564 144.812C155.412 145.644 156.488 146.206 157.656 146.428C158.825 146.65 160.033 146.522 161.129 146.059C162.224 145.596 163.157 144.819 163.81 143.827C164.243 143.169 164.542 142.432 164.69 141.658C164.838 140.884 164.832 140.088 164.671 139.317C164.511 138.546 164.2 137.813 163.755 137.162C163.311 136.51 162.743 135.952 162.083 135.52Z"/>
<path d="M181.669 120.193C181.726 119.187 181.483 118.187 180.97 117.319C180.457 116.451 179.697 115.754 178.787 115.316C177.877 114.878 176.858 114.72 175.857 114.86C174.857 115 173.921 115.433 173.167 116.104C172.413 116.775 171.875 117.653 171.622 118.629C171.369 119.604 171.411 120.633 171.744 121.584C172.077 122.536 172.685 123.367 173.491 123.974C174.298 124.581 175.266 124.936 176.275 124.994C176.945 125.032 177.617 124.938 178.251 124.718C178.884 124.497 179.469 124.155 179.97 123.709C180.471 123.263 180.878 122.723 181.17 122.12C181.462 121.517 181.631 120.862 181.669 120.193Z"/>
<path d="M195.822 116.564C195.169 116.526 194.519 116.683 193.955 117.014C193.391 117.345 192.938 117.835 192.653 118.423C192.368 119.01 192.264 119.669 192.355 120.316C192.446 120.962 192.726 121.568 193.162 122.055C193.597 122.542 194.168 122.89 194.801 123.054C195.435 123.218 196.103 123.191 196.721 122.976C197.339 122.761 197.879 122.368 198.274 121.847C198.668 121.326 198.898 120.7 198.936 120.048C198.985 119.175 198.685 118.318 198.101 117.664C197.517 117.011 196.698 116.616 195.822 116.564Z"/>
<path d="M182.496 149.291C181.8 148.837 180.984 148.598 180.152 148.605C179.32 148.613 178.508 148.866 177.82 149.334C177.133 149.801 176.599 150.462 176.287 151.231C175.976 152.001 175.9 152.846 176.069 153.659C176.239 154.471 176.646 155.216 177.24 155.798C177.833 156.38 178.587 156.773 179.404 156.928C180.222 157.083 181.068 156.993 181.834 156.668C182.6 156.344 183.253 155.801 183.709 155.107C184.014 154.646 184.223 154.129 184.327 153.587C184.431 153.045 184.426 152.488 184.313 151.948C184.201 151.408 183.982 150.895 183.67 150.439C183.359 149.983 182.96 149.593 182.496 149.291Z"/>
<path d="M88.5881 180.107C88.041 179.749 87.3997 179.56 86.7453 179.566C86.0909 179.571 85.4528 179.77 84.9117 180.137C84.3705 180.504 83.9507 181.023 83.7052 181.628C83.4597 182.233 83.3996 182.897 83.5324 183.536C83.6652 184.175 83.9851 184.761 84.4515 185.219C84.918 185.677 85.51 185.986 86.1529 186.109C86.7957 186.231 87.4604 186.16 88.063 185.906C88.6656 185.651 89.1791 185.224 89.5384 184.679C89.7771 184.316 89.9418 183.91 90.0232 183.484C90.1047 183.059 90.1011 182.621 90.0129 182.196C89.9246 181.772 89.7534 181.369 89.5089 181.01C89.2645 180.652 88.9516 180.345 88.5881 180.107Z"/>
<path d="M157.946 179.761C157.365 180.059 156.886 180.521 156.568 181.09C156.25 181.658 156.107 182.308 156.159 182.957C156.21 183.607 156.453 184.226 156.857 184.738C157.261 185.25 157.807 185.631 158.428 185.834C159.048 186.037 159.715 186.052 160.344 185.877C160.973 185.703 161.537 185.347 161.963 184.853C162.39 184.36 162.66 183.753 162.741 183.106C162.822 182.46 162.71 181.804 162.418 181.222C162.224 180.835 161.955 180.49 161.627 180.207C161.299 179.923 160.918 179.707 160.507 179.571C160.095 179.435 159.66 179.381 159.228 179.413C158.795 179.444 158.373 179.561 157.985 179.755L157.946 179.761Z"/>
<path d="M119.511 146.454C120.757 144.555 121.333 142.297 121.147 140.036C120.962 137.774 120.026 135.639 118.487 133.968C116.948 132.297 114.894 131.186 112.651 130.81C110.408 130.435 108.103 130.816 106.101 131.894C104.1 132.971 102.515 134.684 101.599 136.761C100.684 138.838 100.488 141.16 101.044 143.36C101.6 145.56 102.876 147.512 104.67 148.908C106.464 150.303 108.673 151.062 110.947 151.064C112.646 151.066 114.319 150.645 115.814 149.84C117.309 149.035 118.58 147.871 119.511 146.454Z"/>
<path d="M99.0689 162.115C98.2235 161.563 97.2331 161.274 96.2229 161.284C95.2127 161.293 94.228 161.601 93.3934 162.169C92.5587 162.737 91.9116 163.539 91.5337 164.473C91.1559 165.408 91.0643 166.433 91.2705 167.42C91.4767 168.406 91.9716 169.309 92.6924 170.015C93.4132 170.721 94.3277 171.198 95.3203 171.386C96.3129 171.574 97.339 171.464 98.2689 171.07C99.1988 170.676 99.9907 170.016 100.545 169.173C100.913 168.614 101.168 167.987 101.293 167.329C101.419 166.671 101.413 165.994 101.276 165.339C101.139 164.683 100.873 164.061 100.494 163.507C100.116 162.954 99.6313 162.481 99.0689 162.115Z"/>
<path d="M122.921 181.646C122.09 181.598 121.263 181.798 120.546 182.219C119.829 182.641 119.253 183.264 118.891 184.012C118.529 184.76 118.398 185.598 118.513 186.42C118.629 187.242 118.986 188.012 119.54 188.631C120.094 189.251 120.82 189.693 121.626 189.901C122.431 190.109 123.281 190.075 124.067 189.801C124.853 189.528 125.54 189.028 126.041 188.366C126.543 187.703 126.836 186.907 126.884 186.078C126.946 184.966 126.564 183.875 125.821 183.044C125.078 182.213 124.035 181.71 122.921 181.646Z"/>
<path d="M122.965 155.229C121.778 155.159 120.596 155.441 119.57 156.04C118.543 156.639 117.718 157.528 117.198 158.595C116.678 159.662 116.487 160.859 116.649 162.034C116.81 163.209 117.318 164.31 118.107 165.198C118.896 166.086 119.931 166.72 121.082 167.021C122.232 167.322 123.447 167.275 124.571 166.888C125.695 166.501 126.679 165.79 127.398 164.845C128.117 163.9 128.539 162.764 128.611 161.58C128.659 160.793 128.552 160.004 128.294 159.259C128.036 158.513 127.634 157.826 127.109 157.236C126.585 156.646 125.949 156.165 125.238 155.821C124.527 155.476 123.754 155.275 122.965 155.229Z"/>
<path d="M147.566 161.708C146.664 162.165 145.919 162.879 145.424 163.76C144.929 164.64 144.707 165.647 144.786 166.653C144.864 167.659 145.241 168.619 145.867 169.412C146.493 170.205 147.341 170.794 148.303 171.106C149.265 171.418 150.298 171.439 151.272 171.165C152.246 170.891 153.117 170.336 153.774 169.568C154.431 168.801 154.845 167.856 154.964 166.854C155.083 165.852 154.901 164.837 154.441 163.938C153.828 162.736 152.761 161.825 151.475 161.407C150.189 160.989 148.789 161.097 147.583 161.708H147.566Z"/>
</mask>
<path d="M50.4882 116.904C49.836 116.867 49.1877 117.025 48.6251 117.356C48.0625 117.687 47.6109 118.177 47.3274 118.764C47.0439 119.35 46.9412 120.008 47.0323 120.653C47.1233 121.298 47.4041 121.902 47.839 122.388C48.274 122.874 48.8436 123.221 49.476 123.384C50.1083 123.547 50.775 123.52 51.3917 123.305C52.0084 123.09 52.5475 122.698 52.9409 122.178C53.3342 121.658 53.5642 121.033 53.6017 120.383C53.6266 119.95 53.5658 119.517 53.4228 119.108C53.2797 118.699 53.0573 118.323 52.7681 118C52.4789 117.676 52.1287 117.413 51.7375 117.225C51.3463 117.037 50.9217 116.928 50.4882 116.904Z" stroke="#2867ED" stroke-width="2" mask="url(#path-2-inside-1_124_561)"/>
<path d="M88.6328 119.491C88.4786 122.196 89.4066 124.852 91.2133 126.876C93.0199 128.899 95.5577 130.125 98.2696 130.285H98.8286C100.826 130.283 102.78 129.697 104.447 128.6C106.115 127.504 107.425 125.944 108.214 124.114C109.004 122.283 109.238 120.262 108.889 118.3C108.541 116.338 107.624 114.521 106.251 113.073C104.879 111.625 103.112 110.61 101.167 110.152C99.2232 109.694 97.1871 109.814 95.3105 110.497C93.4339 111.18 91.7989 112.396 90.6072 113.996C89.4156 115.595 88.7195 117.507 88.6049 119.496L88.6328 119.491Z" stroke="#2867ED" stroke-width="2" mask="url(#path-2-inside-1_124_561)"/>
<path d="M50.4882 116.904C49.836 116.867 49.1877 117.025 48.6251 117.356C48.0625 117.687 47.6109 118.177 47.3274 118.764C47.0439 119.35 46.9412 120.008 47.0323 120.653C47.1233 121.298 47.4041 121.902 47.839 122.388C48.274 122.874 48.8436 123.221 49.476 123.384C50.1083 123.547 50.775 123.52 51.3917 123.305C52.0084 123.09 52.5475 122.698 52.9409 122.178C53.3342 121.658 53.5642 121.033 53.6017 120.383C53.6266 119.95 53.5658 119.517 53.4228 119.108C53.2797 118.699 53.0573 118.323 52.7681 118C52.4789 117.676 52.1287 117.413 51.7375 117.225C51.3463 117.037 50.9217 116.928 50.4882 116.904Z" stroke="#2867ED" stroke-width="2" mask="url(#path-2-inside-1_124_561)"/>
<path d="M87.9844 60.2744C88.5652 59.9769 89.0448 59.5147 89.3629 58.9459C89.6809 58.3771 89.8231 57.7272 89.7716 57.0779C89.7201 56.4287 89.4772 55.8092 89.0734 55.2974C88.6697 54.7855 88.1232 54.4043 87.5027 54.2016C86.8822 53.9989 86.2154 53.9838 85.5863 54.1583C84.9572 54.3327 84.394 54.6889 83.9674 55.182C83.5408 55.675 83.27 56.2829 83.1891 56.9292C83.1082 57.5754 83.2207 58.2311 83.5126 58.8137C83.7076 59.2046 83.9787 59.5531 84.3099 59.8387C84.6411 60.1242 85.026 60.3413 85.4421 60.4772C85.8582 60.6132 86.2972 60.6652 86.7337 60.6304C87.1701 60.5956 87.5953 60.4746 87.9844 60.2744Z" stroke="#2867ED" stroke-width="2" mask="url(#path-2-inside-1_124_561)"/>
<path d="M98.3646 78.3276C99.2667 77.8737 100.014 77.1633 100.511 76.2861C101.008 75.4089 101.234 74.4044 101.159 73.3994C101.084 72.3945 100.712 71.4343 100.089 70.6402C99.4674 69.8462 98.6233 69.2539 97.6638 68.9382C96.7043 68.6226 95.6726 68.5978 94.699 68.867C93.7254 69.1361 92.8536 69.6872 92.1939 70.4505C91.5343 71.2137 91.1163 72.1549 90.9928 73.1551C90.8694 74.1553 91.046 75.1695 91.5004 76.0695C91.8017 76.6681 92.2185 77.2014 92.7268 77.6389C93.2351 78.0765 93.825 78.4097 94.4627 78.6195C95.1003 78.8292 95.7732 78.9114 96.4428 78.8613C97.1124 78.8113 97.7655 78.6299 98.3646 78.3276Z" stroke="#2867ED" stroke-width="2" mask="url(#path-2-inside-1_124_561)"/>
<path d="M63.4341 90.744C64.1295 91.2005 64.945 91.4411 65.7774 91.4353C66.6099 91.4295 67.4219 91.1777 68.1108 90.7116C68.7998 90.2455 69.3347 89.5861 69.6479 88.8168C69.9611 88.0474 70.0386 87.2028 69.8706 86.3895C69.7025 85.5763 69.2964 84.831 68.7037 84.248C68.111 83.6649 67.3582 83.2703 66.5407 83.1139C65.7231 82.9576 64.8774 83.0466 64.1105 83.3696C63.3436 83.6927 62.69 84.2353 62.2323 84.9289C61.9284 85.3894 61.7184 85.9051 61.6143 86.4466C61.5102 86.9881 61.5141 87.5447 61.6257 88.0847C61.7373 88.6247 61.9544 89.1375 62.2647 89.5938C62.575 90.0501 62.9724 90.4409 63.4341 90.744Z" stroke="#2867ED" stroke-width="2" mask="url(#path-2-inside-1_124_561)"/>
<path d="M69.6555 115.047C68.6469 114.99 67.644 115.233 66.7737 115.745C65.9033 116.256 65.2046 117.014 64.7658 117.922C64.3269 118.829 64.1678 119.846 64.3083 120.844C64.4489 121.842 64.8829 122.776 65.5555 123.528C66.228 124.28 67.109 124.816 68.087 125.068C69.065 125.321 70.0961 125.279 71.05 124.947C72.0039 124.615 72.8378 124.009 73.4462 123.204C74.0547 122.4 74.4103 121.434 74.4683 120.428C74.5076 119.759 74.4142 119.089 74.1934 118.456C73.9726 117.824 73.6288 117.241 73.1817 116.741C72.7345 116.241 72.1929 115.834 71.5878 115.544C70.9827 115.253 70.3261 115.084 69.6555 115.047Z" stroke="#2867ED" stroke-width="2" mask="url(#path-2-inside-1_124_561)"/>
<path d="M63.9931 149.308C63.2502 149.683 62.6354 150.268 62.2262 150.991C61.8171 151.714 61.632 152.542 61.6944 153.37C61.7568 154.198 62.0638 154.988 62.5767 155.642C63.0897 156.296 63.7854 156.784 64.576 157.043C65.3666 157.302 66.2166 157.322 67.0186 157.1C67.8205 156.878 68.5384 156.423 69.0814 155.794C69.6245 155.165 69.9683 154.39 70.0695 153.565C70.1707 152.741 70.0247 151.906 69.6499 151.165C69.4015 150.672 69.0579 150.232 68.6388 149.872C68.2198 149.512 67.7335 149.237 67.208 149.065C66.6824 148.892 66.1279 148.825 65.5762 148.867C65.0245 148.909 64.4865 149.059 63.9931 149.308Z" stroke="#2867ED" stroke-width="2" mask="url(#path-2-inside-1_124_561)"/>
<path d="M83.8536 104.515C84.8485 105.166 86.0143 105.507 87.2038 105.497C88.3933 105.486 89.5529 105.124 90.536 104.456C91.5192 103.788 92.2817 102.845 92.7272 101.744C93.1727 100.644 93.2812 99.4373 93.0389 98.2757C92.7966 97.1141 92.2144 96.0503 91.366 95.2187C90.5176 94.3871 89.441 93.8251 88.2724 93.6038C87.1037 93.3825 85.8955 93.5118 84.8006 93.9753C83.7056 94.4388 82.773 95.2158 82.1207 96.2079C81.6875 96.8668 81.3887 97.6044 81.2413 98.3786C81.094 99.1527 81.1009 99.9482 81.2619 100.72C81.4228 101.491 81.7345 102.223 82.1792 102.875C82.6239 103.526 83.1928 104.083 83.8536 104.515Z" stroke="#2867ED" stroke-width="2" mask="url(#path-2-inside-1_124_561)"/>
<path d="M146.862 77.9262C147.708 78.4781 148.7 78.7673 149.711 78.7571C150.723 78.7469 151.708 78.4379 152.544 77.8691C153.379 77.3002 154.027 76.4971 154.404 75.5613C154.782 74.6255 154.873 73.5989 154.666 72.6115C154.459 71.624 153.963 70.7199 153.241 70.0135C152.519 69.3072 151.603 68.8302 150.609 68.643C149.615 68.4558 148.588 68.5666 147.657 68.9616C146.727 69.3566 145.934 70.018 145.38 70.8621C145.012 71.423 144.758 72.0509 144.633 72.7098C144.509 73.3687 144.516 74.0457 144.654 74.702C144.792 75.3582 145.058 75.9808 145.438 76.5341C145.818 77.0874 146.304 77.5604 146.867 77.9262H146.862Z" stroke="#2867ED" stroke-width="2" mask="url(#path-2-inside-1_124_561)"/>
<path d="M157.348 59.9287C157.896 60.286 158.537 60.4734 159.191 60.4671C159.846 60.4608 160.483 60.2612 161.024 59.8935C161.565 59.5257 161.984 59.0064 162.229 58.4011C162.473 57.7958 162.533 57.1317 162.399 56.4928C162.265 55.8539 161.945 55.2688 161.478 54.8115C161.011 54.3542 160.419 54.0453 159.776 53.9237C159.133 53.8022 158.468 53.8734 157.866 54.1285C157.264 54.3836 156.751 54.8111 156.392 55.3569C156.154 55.7196 155.989 56.1257 155.908 56.5518C155.827 56.9779 155.831 57.4158 155.92 57.8404C156.009 58.265 156.181 58.668 156.426 59.0263C156.671 59.3846 156.984 59.6913 157.348 59.9287Z" stroke="#2867ED" stroke-width="2" mask="url(#path-2-inside-1_124_561)"/>
<path d="M147.666 109.778C144.994 109.687 142.393 110.642 140.417 112.439C138.442 114.236 137.25 116.733 137.097 119.395C136.944 122.058 137.841 124.674 139.597 126.685C141.353 128.696 143.828 129.942 146.493 130.157H147.085C149.059 130.156 150.99 129.585 152.646 128.514C154.302 127.443 155.612 125.917 156.418 124.12C157.224 122.323 157.491 120.332 157.188 118.387C156.885 116.442 156.024 114.625 154.71 113.157C153.819 112.156 152.738 111.342 151.529 110.762C150.319 110.182 149.006 109.847 147.666 109.778Z" stroke="#2867ED" stroke-width="2" mask="url(#path-2-inside-1_124_561)"/>
<path d="M101.724 103.807C102.838 106.051 104.739 107.809 107.067 108.746C109.394 109.682 111.986 109.734 114.349 108.889C116.712 108.045 118.682 106.363 119.883 104.165C121.085 101.967 121.434 99.405 120.866 96.9664C120.297 94.5278 118.85 92.3826 116.799 90.9388C114.749 89.4949 112.238 88.8531 109.743 89.1352C107.249 89.4174 104.946 90.6039 103.272 92.4692C101.597 94.3345 100.669 96.7484 100.662 99.2521C100.656 100.832 101.02 102.392 101.724 103.807Z" stroke="#2867ED" stroke-width="2" mask="url(#path-2-inside-1_124_561)"/>
<path d="M181.937 90.7329C182.68 90.3589 183.296 89.7736 183.705 89.0511C184.115 88.3285 184.3 87.501 184.239 86.6732C184.177 85.8454 183.87 85.0545 183.358 84.4003C182.846 83.7462 182.151 83.2582 181.36 82.998C180.57 82.7379 179.72 82.7172 178.918 82.9387C178.116 83.1602 177.398 83.6138 176.854 84.2423C176.311 84.8708 175.966 85.646 175.864 86.4698C175.762 87.2936 175.907 88.1291 176.281 88.8707C176.784 89.8654 177.662 90.6202 178.723 90.9694C179.783 91.3185 180.94 91.2335 181.937 90.7329Z" stroke="#2867ED" stroke-width="2" mask="url(#path-2-inside-1_124_561)"/>
<path d="M156.001 93.9833C154.938 94.5171 154.059 95.353 153.472 96.3855C152.886 97.418 152.62 98.6007 152.708 99.784C152.796 100.967 153.233 102.098 153.966 103.033C154.698 103.968 155.691 104.666 156.821 105.038C157.951 105.41 159.165 105.439 160.312 105.123C161.458 104.806 162.485 104.157 163.262 103.259C164.038 102.36 164.531 101.252 164.676 100.074C164.821 98.8967 164.613 97.7025 164.078 96.6428C163.723 95.9392 163.232 95.3123 162.634 94.7978C162.036 94.2834 161.342 93.8915 160.592 93.6445C159.842 93.3976 159.05 93.3004 158.262 93.3585C157.475 93.4167 156.706 93.629 156.001 93.9833Z" stroke="#2867ED" stroke-width="2" mask="url(#path-2-inside-1_124_561)"/>
<path d="M122.58 58.3899C123.409 58.4367 124.234 58.2373 124.951 57.817C125.667 57.3968 126.243 56.7744 126.605 56.0283C126.967 55.2822 127.1 54.4458 126.987 53.6246C126.873 52.8034 126.518 52.0342 125.967 51.4138C125.416 50.7934 124.693 50.3496 123.889 50.1385C123.085 49.9273 122.237 49.9583 121.451 50.2273C120.665 50.4964 119.976 50.9915 119.472 51.6504C118.967 52.3093 118.67 53.1023 118.616 53.9296C118.581 54.4825 118.655 55.0369 118.836 55.561C119.016 56.085 119.298 56.5682 119.667 56.9829C120.035 57.3975 120.482 57.7353 120.982 57.9768C121.482 58.2183 122.025 58.3587 122.58 58.3899Z" stroke="#2867ED" stroke-width="2" mask="url(#path-2-inside-1_124_561)"/>
<path d="M122.535 84.8118C123.722 84.8793 124.903 84.5941 125.928 83.9922C126.953 83.3904 127.776 82.4989 128.294 81.4305C128.811 80.362 128.999 79.1647 128.833 77.9898C128.668 76.8149 128.158 75.7151 127.366 74.8297C126.574 73.9442 125.537 73.3127 124.386 73.0151C123.235 72.7174 122.021 72.767 120.897 73.1575C119.774 73.548 118.792 74.2619 118.076 75.209C117.359 76.156 116.941 77.2937 116.872 78.4781C116.782 80.0667 117.328 81.626 118.39 82.8135C119.451 84.0011 120.942 84.7198 122.535 84.8118Z" stroke="#2867ED" stroke-width="2" mask="url(#path-2-inside-1_124_561)"/>
<path d="M89.9464 146.052C91.0089 145.518 91.8888 144.682 92.4749 143.65C93.061 142.617 93.327 141.435 93.2392 140.251C93.1514 139.068 92.7138 137.937 91.9817 137.002C91.2496 136.067 90.256 135.369 89.1263 134.997C87.9967 134.625 86.7819 134.596 85.6355 134.913C84.4891 135.229 83.4626 135.878 82.6858 136.777C81.909 137.675 81.4168 138.783 81.2714 139.961C81.1261 141.139 81.3341 142.333 81.8692 143.393C82.5878 144.813 83.842 145.89 85.3563 146.389C86.8707 146.887 88.5215 146.766 89.9464 146.052Z" stroke="#2867ED" stroke-width="2" mask="url(#path-2-inside-1_124_561)"/>
<path d="M126.42 93.5652C125.171 95.4649 124.593 97.7257 124.778 99.9899C124.962 102.254 125.898 104.392 127.438 106.066C128.978 107.739 131.034 108.853 133.28 109.23C135.526 109.607 137.834 109.226 139.838 108.147C141.843 107.069 143.429 105.354 144.347 103.275C145.264 101.196 145.46 98.871 144.903 96.6683C144.347 94.4655 143.07 92.5108 141.274 91.1136C139.478 89.7164 137.266 88.9566 134.989 88.9543C133.289 88.9516 131.615 89.3719 130.119 90.177C128.622 90.982 127.351 92.1466 126.42 93.5652Z" stroke="#2867ED" stroke-width="2" mask="url(#path-2-inside-1_124_561)"/>
<path d="M144.206 136.234C143.387 134.613 142.149 133.239 140.619 132.255C139.09 131.271 137.325 130.711 135.506 130.634C133.688 130.557 131.882 130.966 130.274 131.817C128.667 132.669 127.316 133.933 126.362 135.479C125.408 137.025 124.884 138.797 124.846 140.612C124.807 142.427 125.255 144.219 126.143 145.804C127.03 147.389 128.326 148.709 129.896 149.628C131.465 150.547 133.253 151.031 135.073 151.031C136.674 151.018 138.25 150.637 139.679 149.916C142.094 148.696 143.927 146.572 144.775 144.007C145.624 141.443 145.419 138.648 144.206 136.234Z" stroke="#2867ED" stroke-width="2" mask="url(#path-2-inside-1_124_561)"/>
<path d="M162.083 135.52C161.088 134.869 159.922 134.527 158.733 134.536C157.543 134.546 156.383 134.907 155.4 135.574C154.416 136.242 153.653 137.185 153.207 138.285C152.76 139.384 152.651 140.592 152.893 141.753C153.134 142.915 153.716 143.979 154.564 144.812C155.412 145.644 156.488 146.206 157.656 146.428C158.825 146.65 160.033 146.522 161.129 146.059C162.224 145.596 163.157 144.819 163.81 143.827C164.243 143.169 164.542 142.432 164.69 141.658C164.838 140.884 164.832 140.088 164.671 139.317C164.511 138.546 164.2 137.813 163.755 137.162C163.311 136.51 162.743 135.952 162.083 135.52Z" stroke="#2867ED" stroke-width="2" mask="url(#path-2-inside-1_124_561)"/>
<path d="M181.669 120.193C181.726 119.187 181.483 118.187 180.97 117.319C180.457 116.451 179.697 115.754 178.787 115.316C177.877 114.878 176.858 114.72 175.857 114.86C174.857 115 173.921 115.433 173.167 116.104C172.413 116.775 171.875 117.653 171.622 118.629C171.369 119.604 171.411 120.633 171.744 121.584C172.077 122.536 172.685 123.367 173.491 123.974C174.298 124.581 175.266 124.936 176.275 124.994C176.945 125.032 177.617 124.938 178.251 124.718C178.884 124.497 179.469 124.155 179.97 123.709C180.471 123.263 180.878 122.723 181.17 122.12C181.462 121.517 181.631 120.862 181.669 120.193Z" stroke="#2867ED" stroke-width="2" mask="url(#path-2-inside-1_124_561)"/>
<path d="M195.822 116.564C195.169 116.526 194.519 116.683 193.955 117.014C193.391 117.345 192.938 117.835 192.653 118.423C192.368 119.01 192.264 119.669 192.355 120.316C192.446 120.962 192.726 121.568 193.162 122.055C193.597 122.542 194.168 122.89 194.801 123.054C195.435 123.218 196.103 123.191 196.721 122.976C197.339 122.761 197.879 122.368 198.274 121.847C198.668 121.326 198.898 120.7 198.936 120.048C198.985 119.175 198.685 118.318 198.101 117.664C197.517 117.011 196.698 116.616 195.822 116.564Z" stroke="#2867ED" stroke-width="2" mask="url(#path-2-inside-1_124_561)"/>
<path d="M182.496 149.291C181.8 148.837 180.984 148.598 180.152 148.605C179.32 148.613 178.508 148.866 177.82 149.334C177.133 149.801 176.599 150.462 176.287 151.231C175.976 152.001 175.9 152.846 176.069 153.659C176.239 154.471 176.646 155.216 177.24 155.798C177.833 156.38 178.587 156.773 179.404 156.928C180.222 157.083 181.068 156.993 181.834 156.668C182.6 156.344 183.253 155.801 183.709 155.107C184.014 154.646 184.223 154.129 184.327 153.587C184.431 153.045 184.426 152.488 184.313 151.948C184.201 151.408 183.982 150.895 183.67 150.439C183.359 149.983 182.96 149.593 182.496 149.291Z" stroke="#2867ED" stroke-width="2" mask="url(#path-2-inside-1_124_561)"/>
<path d="M88.5881 180.107C88.041 179.749 87.3997 179.56 86.7453 179.566C86.0909 179.571 85.4528 179.77 84.9117 180.137C84.3705 180.504 83.9507 181.023 83.7052 181.628C83.4597 182.233 83.3996 182.897 83.5324 183.536C83.6652 184.175 83.9851 184.761 84.4515 185.219C84.918 185.677 85.51 185.986 86.1529 186.109C86.7957 186.231 87.4604 186.16 88.063 185.906C88.6656 185.651 89.1791 185.224 89.5384 184.679C89.7771 184.316 89.9418 183.91 90.0232 183.484C90.1047 183.059 90.1011 182.621 90.0129 182.196C89.9246 181.772 89.7534 181.369 89.5089 181.01C89.2645 180.652 88.9516 180.345 88.5881 180.107Z" stroke="#2867ED" stroke-width="2" mask="url(#path-2-inside-1_124_561)"/>
<path d="M157.946 179.761C157.365 180.059 156.886 180.521 156.568 181.09C156.25 181.658 156.107 182.308 156.159 182.957C156.21 183.607 156.453 184.226 156.857 184.738C157.261 185.25 157.807 185.631 158.428 185.834C159.048 186.037 159.715 186.052 160.344 185.877C160.973 185.703 161.537 185.347 161.963 184.853C162.39 184.36 162.66 183.753 162.741 183.106C162.822 182.46 162.71 181.804 162.418 181.222C162.224 180.835 161.955 180.49 161.627 180.207C161.299 179.923 160.918 179.707 160.507 179.571C160.095 179.435 159.66 179.381 159.228 179.413C158.795 179.444 158.373 179.561 157.985 179.755L157.946 179.761Z" stroke="#2867ED" stroke-width="2" mask="url(#path-2-inside-1_124_561)"/>
<path d="M119.511 146.454C120.757 144.555 121.333 142.297 121.147 140.036C120.962 137.774 120.026 135.639 118.487 133.968C116.948 132.297 114.894 131.186 112.651 130.81C110.408 130.435 108.103 130.816 106.101 131.894C104.1 132.971 102.515 134.684 101.599 136.761C100.684 138.838 100.488 141.16 101.044 143.36C101.6 145.56 102.876 147.512 104.67 148.908C106.464 150.303 108.673 151.062 110.947 151.064C112.646 151.066 114.319 150.645 115.814 149.84C117.309 149.035 118.58 147.871 119.511 146.454Z" stroke="#2867ED" stroke-width="2" mask="url(#path-2-inside-1_124_561)"/>
<path d="M99.0689 162.115C98.2235 161.563 97.2331 161.274 96.2229 161.284C95.2127 161.293 94.228 161.601 93.3934 162.169C92.5587 162.737 91.9116 163.539 91.5337 164.473C91.1559 165.408 91.0643 166.433 91.2705 167.42C91.4767 168.406 91.9716 169.309 92.6924 170.015C93.4132 170.721 94.3277 171.198 95.3203 171.386C96.3129 171.574 97.339 171.464 98.2689 171.07C99.1988 170.676 99.9907 170.016 100.545 169.173C100.913 168.614 101.168 167.987 101.293 167.329C101.419 166.671 101.413 165.994 101.276 165.339C101.139 164.683 100.873 164.061 100.494 163.507C100.116 162.954 99.6313 162.481 99.0689 162.115Z" stroke="#2867ED" stroke-width="2" mask="url(#path-2-inside-1_124_561)"/>
<path d="M122.921 181.646C122.09 181.598 121.263 181.798 120.546 182.219C119.829 182.641 119.253 183.264 118.891 184.012C118.529 184.76 118.398 185.598 118.513 186.42C118.629 187.242 118.986 188.012 119.54 188.631C120.094 189.251 120.82 189.693 121.626 189.901C122.431 190.109 123.281 190.075 124.067 189.801C124.853 189.528 125.54 189.028 126.041 188.366C126.543 187.703 126.836 186.907 126.884 186.078C126.946 184.966 126.564 183.875 125.821 183.044C125.078 182.213 124.035 181.71 122.921 181.646Z" stroke="#2867ED" stroke-width="2" mask="url(#path-2-inside-1_124_561)"/>
<path d="M122.965 155.229C121.778 155.159 120.596 155.441 119.57 156.04C118.543 156.639 117.718 157.528 117.198 158.595C116.678 159.662 116.487 160.859 116.649 162.034C116.81 163.209 117.318 164.31 118.107 165.198C118.896 166.086 119.931 166.72 121.082 167.021C122.232 167.322 123.447 167.275 124.571 166.888C125.695 166.501 126.679 165.79 127.398 164.845C128.117 163.9 128.539 162.764 128.611 161.58C128.659 160.793 128.552 160.004 128.294 159.259C128.036 158.513 127.634 157.826 127.109 157.236C126.585 156.646 125.949 156.165 125.238 155.821C124.527 155.476 123.754 155.275 122.965 155.229Z" stroke="#2867ED" stroke-width="2" mask="url(#path-2-inside-1_124_561)"/>
<path d="M147.566 161.708C146.664 162.165 145.919 162.879 145.424 163.76C144.929 164.64 144.707 165.647 144.786 166.653C144.864 167.659 145.241 168.619 145.867 169.412C146.493 170.205 147.341 170.794 148.303 171.106C149.265 171.418 150.298 171.439 151.272 171.165C152.246 170.891 153.117 170.336 153.774 169.568C154.431 168.801 154.845 167.856 154.964 166.854C155.083 165.852 154.901 164.837 154.441 163.938C153.828 162.736 152.761 161.825 151.475 161.407C150.189 160.989 148.789 161.097 147.583 161.708H147.566Z" stroke="#2867ED" stroke-width="2" mask="url(#path-2-inside-1_124_561)"/>
</svg>
