<svg width="20" height="20" viewBox="0 0 20 20" fill="none" xmlns="http://www.w3.org/2000/svg">
    <g clip-path="url(#clip0_1275_1410)">
        <path d="M4.54053 6.50488H0.25293V19.9996H4.54053V6.50488Z" fill="#FAF9F6"/>
        <path fill-rule="evenodd" clip-rule="evenodd" d="M2.42479 0C0.958678 0 0 1.00813 0 2.33097C0 3.65381 0.930579 4.66194 2.36859 4.66194H2.39669C3.89256 4.66194 4.82314 3.62615 4.82314 2.33097C4.79504 1.0064 3.89256 0 2.42645 0H2.42479Z" fill="#FAF9F6"/>
        <path fill-rule="evenodd" clip-rule="evenodd" d="M15.0644 6.18848C12.7884 6.18848 11.7702 7.49749 11.2 8.41569V8.46065H11.1719C11.1801 8.44509 11.1917 8.42953 11.2 8.41569V6.50492H6.91235C6.96855 7.7707 6.91235 19.9996 6.91235 19.9996H11.2V12.4638C11.2 12.0609 11.2281 11.658 11.3405 11.3692C11.6512 10.5634 12.3553 9.72816 13.5405 9.72816C15.0925 9.72816 15.7124 10.9663 15.7124 12.7802V19.9996H20V12.2614C20 8.11654 17.8843 6.18848 15.0644 6.18848Z" fill="#FAF9F6"/>
    </g>
    <defs>
        <clipPath id="clip0_1275_1410">
            <rect width="20" height="20" fill="white"/>
        </clipPath>
    </defs>
</svg>
