<svg width="174" height="48" viewBox="0 0 174 48" fill="none" xmlns="http://www.w3.org/2000/svg">
<path d="M4.28394 23.0776C4.09239 23.0668 3.90197 23.1134 3.73672 23.2114C3.57148 23.3095 3.43884 23.4546 3.35557 23.6285C3.2723 23.8023 3.24213 23.9971 3.26888 24.1882C3.29562 24.3793 3.37808 24.5581 3.50584 24.7021C3.63359 24.8461 3.80091 24.9487 3.98664 24.9971C4.17237 25.0454 4.36818 25.0373 4.54932 24.9737C4.73047 24.9102 4.88881 24.794 5.00435 24.64C5.11988 24.4859 5.18743 24.3008 5.19844 24.1082C5.20576 23.9801 5.1879 23.8518 5.14589 23.7306C5.10388 23.6095 5.03854 23.4979 4.9536 23.4022C4.86866 23.3064 4.7658 23.2285 4.65089 23.1728C4.53598 23.1171 4.41129 23.0848 4.28394 23.0776Z" fill="#E8EDFF"/>
<path d="M15.4878 23.8439C15.4425 24.6453 15.715 25.432 16.2457 26.0314C16.7763 26.6309 17.5217 26.9941 18.3183 27.0413H18.4824C19.0692 27.0407 19.6429 26.8672 20.1328 26.5423C20.6227 26.2175 21.0073 25.7554 21.2392 25.2132C21.471 24.671 21.54 24.0724 21.4375 23.4913C21.3351 22.9101 21.0657 22.3718 20.6626 21.9429C20.2596 21.5139 19.7405 21.2131 19.1694 21.0775C18.5984 20.9419 18.0003 20.9775 17.4491 21.1798C16.8979 21.3822 16.4177 21.7424 16.0677 22.2161C15.7177 22.6899 15.5132 23.2563 15.4795 23.8456L15.4878 23.8439Z" fill="#E8EDFF"/>
<path d="M4.28394 23.0776C4.09239 23.0668 3.90197 23.1134 3.73672 23.2114C3.57148 23.3095 3.43884 23.4546 3.35557 23.6285C3.2723 23.8023 3.24213 23.9971 3.26888 24.1882C3.29562 24.3793 3.37808 24.5581 3.50584 24.7021C3.63359 24.8461 3.80091 24.9487 3.98664 24.9971C4.17237 25.0454 4.36818 25.0373 4.54932 24.9737C4.73047 24.9102 4.88881 24.794 5.00435 24.64C5.11988 24.4859 5.18743 24.3008 5.19844 24.1082C5.20576 23.9801 5.1879 23.8518 5.14589 23.7306C5.10388 23.6095 5.03854 23.4979 4.9536 23.4022C4.86866 23.3064 4.7658 23.2285 4.65089 23.1728C4.53598 23.1171 4.41129 23.0848 4.28394 23.0776Z" fill="#E8EDFF"/>
<path d="M15.2973 6.30287C15.4679 6.21474 15.6088 6.07782 15.7022 5.90933C15.7956 5.74084 15.8374 5.54833 15.8222 5.35601C15.8071 5.1637 15.7358 4.98018 15.6172 4.82857C15.4986 4.67696 15.3381 4.56402 15.1558 4.50398C14.9735 4.44394 14.7777 4.43947 14.5929 4.49115C14.4082 4.54282 14.2427 4.64833 14.1174 4.79439C13.9921 4.94044 13.9126 5.12052 13.8888 5.31194C13.8651 5.50337 13.8981 5.69759 13.9838 5.87016C14.0411 5.98598 14.1207 6.08919 14.218 6.17379C14.3153 6.25839 14.4284 6.32269 14.5506 6.36295C14.6728 6.40321 14.8017 6.41863 14.9299 6.40832C15.0581 6.39801 15.183 6.36216 15.2973 6.30287Z" fill="#E8EDFF"/>
<path d="M18.3462 11.6506C18.6111 11.5161 18.8305 11.3057 18.9766 11.0458C19.1226 10.786 19.1888 10.4884 19.1668 10.1908C19.1448 9.89307 19.0355 9.60864 18.8528 9.37342C18.6701 9.13821 18.4221 8.96276 18.1403 8.86926C17.8585 8.77577 17.5555 8.76842 17.2695 8.84815C16.9835 8.92789 16.7275 9.09112 16.5337 9.31721C16.34 9.5433 16.2172 9.82211 16.1809 10.1184C16.1447 10.4146 16.1966 10.7151 16.33 10.9817C16.4185 11.159 16.5409 11.317 16.6902 11.4466C16.8395 11.5762 17.0128 11.6749 17.2001 11.737C17.3874 11.7992 17.585 11.8235 17.7817 11.8087C17.9784 11.7938 18.1702 11.7401 18.3462 11.6506Z" fill="#E8EDFF"/>
<path d="M8.08641 15.3286C8.29065 15.4638 8.53017 15.535 8.77468 15.5333C9.01919 15.5316 9.2577 15.457 9.46006 15.3189C9.66241 15.1809 9.81953 14.9856 9.91153 14.7577C10.0035 14.5298 10.0263 14.2796 9.97692 14.0387C9.92755 13.7978 9.80828 13.577 9.63419 13.4043C9.4601 13.2316 9.239 13.1147 8.99886 13.0684C8.75872 13.0221 8.51033 13.0484 8.28508 13.1441C8.05983 13.2398 7.86785 13.4005 7.73341 13.606C7.64415 13.7424 7.58247 13.8952 7.5519 14.0556C7.52133 14.216 7.52247 14.3809 7.55524 14.5408C7.58802 14.7008 7.6518 14.8527 7.74294 14.9878C7.83408 15.123 7.95079 15.2388 8.08641 15.3286Z" fill="#E8EDFF"/>
<path d="M9.91376 22.5276C9.6175 22.5108 9.32294 22.5827 9.0673 22.7343C8.81166 22.8858 8.60643 23.1102 8.47754 23.3791C8.34865 23.6479 8.3019 23.9492 8.34318 24.2448C8.38447 24.5404 8.51194 24.817 8.70949 25.0397C8.90704 25.2624 9.16579 25.4212 9.45305 25.4961C9.7403 25.5709 10.0432 25.5584 10.3233 25.4601C10.6035 25.3618 10.8484 25.1822 11.0272 24.9439C11.2059 24.7056 11.3103 24.4194 11.3274 24.1214C11.3389 23.9233 11.3115 23.7249 11.2466 23.5375C11.1818 23.3501 11.0808 23.1774 10.9494 23.0293C10.8181 22.8813 10.659 22.7607 10.4813 22.6747C10.3036 22.5886 10.1107 22.5386 9.91376 22.5276Z" fill="#E8EDFF"/>
<path d="M8.25059 32.6764C8.0324 32.7873 7.85181 32.9608 7.73163 33.175C7.61145 33.3891 7.55709 33.6343 7.57542 33.8795C7.59374 34.1247 7.68393 34.359 7.83459 34.5527C7.98524 34.7463 8.18959 34.8907 8.42181 34.9676C8.65403 35.0445 8.90369 35.0503 9.13924 34.9845C9.37478 34.9187 9.58563 34.7841 9.74513 34.5977C9.90464 34.4113 10.0056 34.1816 10.0354 33.9375C10.0651 33.6934 10.0222 33.4459 9.91212 33.2263C9.83914 33.0803 9.73822 32.9502 9.61513 32.8434C9.49205 32.7367 9.34923 32.6554 9.19487 32.6043C9.0405 32.5532 8.87763 32.5333 8.71559 32.5457C8.55355 32.558 8.39553 32.6024 8.25059 32.6764Z" fill="#E8EDFF"/>
<path d="M14.084 19.4079C14.3762 19.6005 14.7187 19.7017 15.068 19.6985C15.4174 19.6954 15.758 19.5882 16.0468 19.3903C16.3355 19.1925 16.5595 18.913 16.6904 18.5871C16.8212 18.2612 16.8531 17.9037 16.7819 17.5596C16.7107 17.2155 16.5397 16.9004 16.2905 16.654C16.0413 16.4077 15.7251 16.2412 15.3819 16.1757C15.0386 16.1101 14.6838 16.1484 14.3621 16.2857C14.0405 16.423 13.7666 16.6532 13.575 16.9471C13.4478 17.1423 13.36 17.3607 13.3167 17.5901C13.2734 17.8194 13.2755 18.055 13.3228 18.2835C13.37 18.512 13.4616 18.729 13.5922 18.9219C13.7228 19.1148 13.8899 19.2799 14.084 19.4079Z" fill="#E8EDFF"/>
<path d="M32.5906 11.5317C32.8393 11.6952 33.1306 11.7808 33.4277 11.7778C33.7247 11.7748 34.0142 11.6832 34.2596 11.5147C34.5049 11.3462 34.6951 11.1084 34.8061 10.8311C34.917 10.5539 34.9438 10.2498 34.883 9.95734C34.8222 9.66483 34.6765 9.39703 34.4644 9.18779C34.2523 8.97855 33.9833 8.83727 33.6913 8.78181C33.3994 8.72634 33.0977 8.75919 32.8244 8.87619C32.551 8.9932 32.3183 9.18911 32.1556 9.43915C32.0473 9.6053 31.9728 9.79129 31.9362 9.98648C31.8995 10.1817 31.9016 10.3822 31.9421 10.5766C31.9827 10.771 32.061 10.9554 32.1726 11.1193C32.2842 11.2832 32.4268 11.4233 32.5923 11.5317H32.5906Z" fill="#E8EDFF"/>
<path d="M35.6707 6.20047C35.8315 6.30631 36.02 6.36181 36.2121 6.35995C36.4043 6.35809 36.5917 6.29895 36.7504 6.19002C36.9092 6.08109 37.0323 5.92725 37.1042 5.74795C37.1761 5.56865 37.1935 5.37194 37.1543 5.18268C37.1151 4.99342 37.0209 4.82011 36.8838 4.68466C36.7466 4.5492 36.5727 4.45768 36.3838 4.42167C36.195 4.38566 35.9998 4.40677 35.8229 4.48234C35.646 4.5579 35.4953 4.68453 35.39 4.84621C35.3199 4.95365 35.2716 5.07393 35.2478 5.20016C35.2241 5.32639 35.2252 5.4561 35.2513 5.58187C35.2774 5.70765 35.3278 5.82702 35.3998 5.93316C35.4718 6.0393 35.5638 6.13014 35.6707 6.20047Z" fill="#E8EDFF"/>
<path d="M32.8271 20.9669C32.0422 20.9398 31.278 21.2227 30.6978 21.755C30.1177 22.2874 29.7676 23.027 29.7226 23.8157C29.6775 24.6043 29.9411 25.3794 30.4568 25.9751C30.9725 26.5708 31.6995 26.9399 32.4823 27.0033H32.6563C33.236 27.003 33.8032 26.8341 34.2896 26.5168C34.776 26.1995 35.1607 25.7475 35.3975 25.2152C35.6342 24.6829 35.7128 24.0931 35.6238 23.5169C35.5347 22.9407 35.2819 22.4027 34.8958 21.9678C34.6342 21.6712 34.3166 21.43 33.9614 21.2582C33.6063 21.0864 33.2206 20.9873 32.8271 20.9669Z" fill="#E8EDFF"/>
<path d="M19.3329 19.1981C19.66 19.8628 20.2184 20.3834 20.9021 20.6609C21.5858 20.9385 22.3471 20.9536 23.0411 20.7035C23.7352 20.4533 24.3137 19.9553 24.6666 19.3042C25.0195 18.653 25.1222 17.8941 24.9552 17.1717C24.7882 16.4494 24.3631 15.8139 23.7608 15.3862C23.1585 14.9585 22.4209 14.7684 21.6883 14.852C20.9558 14.9356 20.2793 15.2871 19.7875 15.8396C19.2957 16.3921 19.0229 17.1072 19.021 17.8488C19.0193 18.3169 19.1261 18.7788 19.3329 19.1981Z" fill="#E8EDFF"/>
<path d="M42.8931 15.3253C43.1113 15.2145 43.292 15.0411 43.4123 14.8271C43.5326 14.613 43.5871 14.3679 43.569 14.1227C43.5508 13.8775 43.4609 13.6432 43.3104 13.4494C43.1599 13.2557 42.9557 13.1111 42.7236 13.034C42.4915 12.957 42.2418 12.9509 42.0063 13.0165C41.7707 13.0821 41.5597 13.2165 41.4 13.4026C41.2404 13.5888 41.1391 13.8184 41.1092 14.0624C41.0792 14.3065 41.1218 14.554 41.2316 14.7736C41.3793 15.0683 41.6373 15.2919 41.9489 15.3953C42.2604 15.4987 42.6 15.4735 42.8931 15.3253Z" fill="#E8EDFF"/>
<path d="M35.275 16.2881C34.963 16.4462 34.7045 16.6938 34.5324 16.9997C34.3602 17.3055 34.2821 17.6559 34.3079 18.0064C34.3337 18.3569 34.4622 18.6918 34.6772 18.9689C34.8922 19.2459 35.1841 19.4526 35.5159 19.5627C35.8477 19.6729 36.2045 19.6816 36.5412 19.5878C36.878 19.494 37.1795 19.3018 37.4076 19.0357C37.6358 18.7695 37.7803 18.4412 37.823 18.0924C37.8657 17.7435 37.8046 17.3898 37.6475 17.0759C37.5431 16.8675 37.399 16.6818 37.2233 16.5294C37.0476 16.377 36.8437 16.2609 36.6234 16.1877C36.4031 16.1146 36.1707 16.0858 35.9393 16.103C35.7079 16.1202 35.4822 16.1831 35.275 16.2881Z" fill="#E8EDFF"/>
<path d="M25.4586 5.74465C25.7023 5.75849 25.9446 5.69945 26.155 5.57495C26.3655 5.45046 26.5345 5.26609 26.6409 5.04508C26.7473 4.82408 26.7863 4.57634 26.753 4.33308C26.7196 4.08982 26.6154 3.86195 26.4535 3.67817C26.2916 3.4944 26.0792 3.36296 25.8431 3.30041C25.6071 3.23787 25.3579 3.24703 25.127 3.32673C24.8961 3.40643 24.6938 3.55311 24.5457 3.74827C24.3975 3.94344 24.3101 4.17836 24.2945 4.42341C24.2841 4.58719 24.3059 4.75142 24.3589 4.90665C24.4118 5.06188 24.4948 5.20503 24.603 5.32785C24.7112 5.45067 24.8425 5.55073 24.9894 5.62227C25.1362 5.6938 25.2957 5.73539 25.4586 5.74465Z" fill="#E8EDFF"/>
<path d="M25.4454 13.5713C25.7942 13.5913 26.1411 13.5068 26.4422 13.3285C26.7432 13.1503 26.985 12.8862 27.1369 12.5697C27.2888 12.2532 27.3439 11.8985 27.2955 11.5505C27.247 11.2025 27.097 10.8767 26.8645 10.6144C26.6319 10.3521 26.3273 10.1651 25.9891 10.0769C25.6509 9.98874 25.2944 10.0034 24.9645 10.1191C24.6346 10.2348 24.3462 10.4462 24.1357 10.7268C23.9253 11.0073 23.8023 11.3443 23.7823 11.6952C23.7558 12.1657 23.9161 12.6276 24.2279 12.9794C24.5398 13.3312 24.9777 13.5441 25.4454 13.5713Z" fill="#E8EDFF"/>
<path d="M15.8736 31.7119C16.1856 31.5538 16.4441 31.3062 16.6162 31.0003C16.7884 30.6945 16.8665 30.3441 16.8407 29.9936C16.8149 29.6431 16.6864 29.3082 16.4714 29.0311C16.2564 28.7541 15.9645 28.5474 15.6327 28.4372C15.3009 28.3271 14.9441 28.3183 14.6074 28.4122C14.2707 28.506 13.9691 28.6981 13.741 28.9643C13.5128 29.2305 13.3683 29.5588 13.3256 29.9076C13.2829 30.2564 13.344 30.6102 13.5011 30.9241C13.7122 31.3447 14.0806 31.6639 14.5254 31.8116C14.9702 31.9593 15.455 31.9234 15.8736 31.7119Z" fill="#E8EDFF"/>
<path d="M26.5865 16.1642C26.2197 16.727 26.0499 17.3967 26.1041 18.0674C26.1583 18.7381 26.4334 19.3714 26.8857 19.8672C27.338 20.3629 27.9418 20.6927 28.6015 20.8044C29.2611 20.9161 29.939 20.8033 30.5277 20.4838C31.1165 20.1643 31.5825 19.6564 31.8519 19.0405C32.1214 18.4246 32.1789 17.7359 32.0155 17.0834C31.852 16.4309 31.4769 15.8519 30.9494 15.438C30.422 15.0242 29.7724 14.7991 29.1034 14.7984C28.6041 14.7976 28.1124 14.9221 27.6729 15.1606C27.2335 15.3991 26.86 15.744 26.5865 16.1642Z" fill="#E8EDFF"/>
<path d="M31.8108 28.8035C31.5701 28.3233 31.2063 27.9165 30.7571 27.6249C30.3079 27.3333 29.7895 27.1676 29.2554 27.1448C28.7213 27.122 28.1908 27.243 27.7186 27.4952C27.2465 27.7475 26.8498 28.1219 26.5695 28.5798C26.2893 29.0378 26.1355 29.5627 26.1242 30.1003C26.1129 30.638 26.2443 31.1689 26.5051 31.6384C26.7658 32.1079 27.1463 32.4989 27.6074 32.771C28.0685 33.0432 28.5934 33.1867 29.128 33.1867C29.5983 33.183 30.0613 33.0699 30.4809 32.8564C31.1904 32.4951 31.7287 31.8658 31.9779 31.1062C32.2272 30.3466 32.1671 29.5186 31.8108 28.8035Z" fill="#E8EDFF"/>
<path d="M37.0613 28.5921C36.7692 28.3992 36.4269 28.2978 36.0775 28.3007C35.7281 28.3035 35.3874 28.4105 35.0985 28.6082C34.8095 28.8058 34.5854 29.0852 34.4543 29.411C34.3232 29.7368 34.2911 30.0944 34.3621 30.4385C34.433 30.7827 34.6038 31.0979 34.8529 31.3444C35.1019 31.5909 35.4181 31.7576 35.7613 31.8233C36.1045 31.8891 36.4594 31.851 36.7811 31.7139C37.1029 31.5767 37.3769 31.3467 37.5687 31.0529C37.696 30.8578 37.7838 30.6394 37.8273 30.4102C37.8707 30.1809 37.8688 29.9453 37.8216 29.7168C37.7745 29.4883 37.6831 29.2714 37.5527 29.0784C37.4222 28.8854 37.2553 28.7202 37.0613 28.5921Z" fill="#E8EDFF"/>
<path d="M42.8143 24.052C42.831 23.754 42.7595 23.4577 42.6089 23.2005C42.4582 22.9434 42.2351 22.7369 41.9679 22.6073C41.7006 22.4776 41.4011 22.4306 41.1073 22.4721C40.8134 22.5137 40.5384 22.6419 40.317 22.8406C40.0956 23.0393 39.9377 23.2996 39.8633 23.5886C39.7889 23.8775 39.8014 24.1822 39.8991 24.464C39.9968 24.7459 40.1754 24.9922 40.4123 25.172C40.6491 25.3518 40.9337 25.4569 41.2299 25.474C41.4268 25.4854 41.624 25.4576 41.8102 25.3923C41.9964 25.327 42.1679 25.2254 42.3151 25.0933C42.4622 24.9613 42.5821 24.8013 42.6677 24.6226C42.7534 24.444 42.8032 24.2501 42.8143 24.052Z" fill="#E8EDFF"/>
<path d="M46.9714 22.9769C46.7795 22.9657 46.5886 23.0121 46.4229 23.1101C46.2572 23.2082 46.1241 23.3534 46.0404 23.5275C45.9568 23.7016 45.9263 23.8968 45.9529 24.0883C45.9795 24.2798 46.062 24.4591 46.1899 24.6035C46.3178 24.7478 46.4854 24.8508 46.6715 24.8993C46.8576 24.9479 47.0538 24.9399 47.2353 24.8762C47.4168 24.8126 47.5755 24.6963 47.6913 24.5419C47.8072 24.3876 47.8749 24.2021 47.8859 24.0091C47.9002 23.7503 47.812 23.4964 47.6406 23.3029C47.4692 23.1094 47.2286 22.9922 46.9714 22.9769Z" fill="#E8EDFF"/>
<path d="M43.0573 32.6714C42.8528 32.5367 42.6131 32.466 42.3687 32.4682C42.1242 32.4704 41.8859 32.5455 41.6838 32.684C41.4818 32.8224 41.3251 33.018 41.2336 33.2461C41.142 33.4741 41.1197 33.7243 41.1695 33.9651C41.2193 34.2058 41.339 34.4263 41.5133 34.5987C41.6877 34.7711 41.9089 34.8876 42.1491 34.9335C42.3893 34.9794 42.6376 34.9527 42.8627 34.8566C43.0877 34.7606 43.2794 34.5996 43.4136 34.394C43.5029 34.2574 43.5645 34.1045 43.595 33.9439C43.6254 33.7834 43.624 33.6183 43.5909 33.4583C43.5578 33.2983 43.4937 33.1464 43.4021 33.0113C43.3105 32.8763 43.1933 32.7608 43.0573 32.6714Z" fill="#E8EDFF"/>
<path d="M15.4746 41.7995C15.3139 41.6934 15.1256 41.6377 14.9333 41.6393C14.7411 41.6409 14.5537 41.6998 14.3948 41.8085C14.2358 41.9172 14.1125 42.0709 14.0404 42.2502C13.9683 42.4294 13.9506 42.6261 13.9897 42.8154C14.0287 43.0047 14.1226 43.1782 14.2596 43.3138C14.3966 43.4494 14.5705 43.5411 14.7593 43.5774C14.9481 43.6136 15.1434 43.5927 15.3204 43.5173C15.4974 43.4419 15.6482 43.3154 15.7537 43.1538C15.8238 43.0464 15.8722 42.9262 15.8961 42.8001C15.9201 42.6739 15.919 42.5442 15.8931 42.4185C15.8672 42.2927 15.8169 42.1733 15.7451 42.0671C15.6733 41.9609 15.5814 41.87 15.4746 41.7995Z" fill="#E8EDFF"/>
<path d="M35.8464 41.6971C35.6758 41.7852 35.5349 41.9222 35.4415 42.0907C35.3481 42.2591 35.3063 42.4517 35.3215 42.644C35.3366 42.8363 35.4079 43.0198 35.5265 43.1714C35.6451 43.323 35.8056 43.436 35.9879 43.496C36.1701 43.556 36.366 43.5605 36.5507 43.5088C36.7355 43.4572 36.901 43.3517 37.0263 43.2056C37.1515 43.0595 37.2311 42.8795 37.2549 42.688C37.2786 42.4966 37.2456 42.3024 37.1598 42.1298C37.1028 42.0152 37.0239 41.913 36.9276 41.8291C36.8312 41.7452 36.7194 41.6812 36.5985 41.6409C36.4775 41.6005 36.3498 41.5846 36.2228 41.594C36.0957 41.6033 35.9717 41.6378 35.8579 41.6955L35.8464 41.6971Z" fill="#E8EDFF"/>
<path d="M24.5572 31.8308C24.9232 31.2685 25.0924 30.5995 25.0379 29.9297C24.9835 29.2598 24.7085 28.6274 24.2565 28.1324C23.8045 27.6375 23.2013 27.3083 22.5424 27.197C21.8835 27.0857 21.2065 27.1986 20.6186 27.5178C20.0306 27.8371 19.5653 28.3445 19.2963 28.9597C19.0273 29.5749 18.9699 30.2627 19.1332 30.9144C19.2966 31.5661 19.6713 32.1444 20.1981 32.5578C20.725 32.9711 21.3738 33.1959 22.0419 33.1966C22.541 33.197 23.0322 33.0723 23.4714 32.8339C23.9105 32.5954 24.2837 32.2507 24.5572 31.8308Z" fill="#E8EDFF"/>
<path d="M18.553 36.47C18.3047 36.3066 18.0138 36.2209 17.7171 36.2237C17.4204 36.2266 17.1312 36.3179 16.886 36.4861C16.6409 36.6543 16.4508 36.8918 16.3398 37.1686C16.2288 37.4454 16.2019 37.7491 16.2625 38.0413C16.3231 38.3335 16.4684 38.6011 16.6801 38.8103C16.8918 39.0194 17.1605 39.1607 17.452 39.2163C17.7435 39.2719 18.0449 39.2393 18.318 39.1226C18.5912 39.006 18.8238 38.8105 18.9865 38.5608C19.0948 38.395 19.1695 38.2093 19.2064 38.0144C19.2432 37.8195 19.2415 37.6191 19.2012 37.4249C19.1609 37.2307 19.083 37.0463 18.9717 36.8825C18.8605 36.7186 18.7182 36.5784 18.553 36.47Z" fill="#E8EDFF"/>
<path d="M25.5587 42.2553C25.3146 42.2414 25.0719 42.3005 24.8612 42.4253C24.6505 42.5501 24.4814 42.7349 24.3751 42.9564C24.2688 43.1779 24.2302 43.4261 24.2642 43.6696C24.2981 43.9132 24.4031 44.1411 24.5658 44.3247C24.7286 44.5082 24.9417 44.6391 25.1784 44.7008C25.4151 44.7625 25.6646 44.7522 25.8955 44.6712C26.1263 44.5903 26.3281 44.4423 26.4754 44.246C26.6226 44.0497 26.7087 43.8138 26.7228 43.5683C26.7411 43.239 26.6289 42.9158 26.4107 42.6697C26.1924 42.4235 25.886 42.2745 25.5587 42.2553Z" fill="#E8EDFF"/>
<path d="M25.5718 34.4303C25.2231 34.4094 24.8761 34.493 24.5745 34.6704C24.273 34.8479 24.0306 35.1113 23.8779 35.4273C23.7251 35.7434 23.669 36.0979 23.7165 36.446C23.7641 36.7942 23.9131 37.1203 24.1449 37.3833C24.3767 37.6462 24.6808 37.8341 25.0187 37.9232C25.3566 38.0123 25.7132 37.9987 26.0434 37.8839C26.3736 37.7692 26.6626 37.5586 26.8738 37.2787C27.085 36.9988 27.209 36.6622 27.2301 36.3114C27.2443 36.0783 27.2127 35.8447 27.137 35.6239C27.0613 35.4031 26.943 35.1995 26.789 35.0248C26.635 34.85 26.4482 34.7076 26.2393 34.6056C26.0304 34.5035 25.8036 34.444 25.5718 34.4303Z" fill="#E8EDFF"/>
<path d="M32.7975 36.3494C32.5326 36.4849 32.3137 36.6964 32.1683 36.9572C32.0229 37.2179 31.9577 37.5162 31.9809 37.8142C32.004 38.1122 32.1146 38.3966 32.2985 38.6315C32.4824 38.8663 32.7314 39.041 33.014 39.1334C33.2966 39.2259 33.6001 39.2319 33.8861 39.1508C34.1722 39.0697 34.4279 38.9051 34.6209 38.6778C34.8139 38.4505 34.9355 38.1707 34.9704 37.8738C35.0053 37.577 34.9519 37.2764 34.817 37.01C34.6368 36.6538 34.3234 36.3842 33.9456 36.2603C33.5679 36.1364 33.1567 36.1685 32.8024 36.3494H32.7975Z" fill="#E8EDFF"/>
<path d="M59.0475 22L56.8767 19.8292V9.75761L59.0475 7.58684H65.8531L67.8284 9.56204L66.2834 11.1266L64.8558 9.73805H60.1818L59.3213 10.5985L59.3408 18.9883L60.1818 19.8488H65.0318L66.4594 18.4407L68.0044 20.0248L66.0292 22H59.0475ZM68.5992 22L73.2927 7.58684H76.9498L81.6434 22H79.0423L77.9667 18.4994H72.2758L71.2002 22H68.5992ZM72.9212 16.3482H77.3018L75.3462 9.91406H74.8768L72.9212 16.3482ZM83.3941 22V7.58684H91.7839L93.9547 9.75761V14.5294L91.9795 16.5046L94.424 22H91.647L89.3784 16.7002H85.8387V22H83.3941ZM85.8387 14.549H90.6496L91.5101 13.6885V10.5985L90.6496 9.73805H85.8387V14.549ZM96.9729 22V7.58684H105.284L108.316 10.6181V18.9687L105.284 22H96.9729ZM99.4175 19.8488H104.131L105.852 18.1278V11.459L104.131 9.73805H99.4175V19.8488ZM109.24 22L113.934 7.58684H117.591L122.284 22H119.683L118.608 18.4994H112.917L111.841 22H109.24ZM113.562 16.3482H117.943L115.987 9.91406H115.518L113.562 16.3482ZM124.035 22V7.58684H127.184L132.894 17.6584V7.58684H135.358V22H132.679L126.969 11.9284H126.48V22H124.035ZM140.272 22L138.101 19.8292V9.75761L140.272 7.58684H147.332L149.503 9.75761V19.8292L147.332 22H140.272ZM141.426 19.8488H146.198L147.058 18.9883L147.039 10.5985L146.198 9.73805H141.406L140.546 10.5985L140.565 18.9883L141.426 19.8488ZM57.2678 41V26.5868H65.5598L67.7306 28.7576V32.1409L66.7919 33.1969L68.3759 34.7615V38.8292L66.2052 41H57.2678ZM59.7124 32.3756H64.4255L65.2665 31.3977V29.5985L64.406 28.7381H59.7124V32.3756ZM59.7124 38.8488H65.0513L65.9118 37.9883V35.3873L65.0513 34.5268H59.7124V38.8488ZM69.535 41L74.2285 26.5868H77.8856L82.5792 41H79.9782L78.9026 37.4994H73.2116L72.136 41H69.535ZM73.857 35.3482H78.2376L76.282 28.9141H75.8126L73.857 35.3482ZM84.3299 41V26.5868H86.7745V38.7706H93.7562V41H84.3299ZM95.5215 41V26.5868H97.966V38.7706H104.948V41H95.5215ZM108.493 41L106.322 38.8292V28.7576L108.493 26.5868H115.553L117.723 28.7576V38.8292L115.553 41H108.493ZM109.646 38.8488H114.418L115.279 37.9883L115.259 29.5985L114.418 28.7381H109.627L108.766 29.5985L108.786 37.9883L109.646 38.8488ZM123.202 41V28.8163H119.193V26.5868H129.655V28.8163H125.646V41H123.202Z" fill="#E8EDFF"/>
<rect x="132.652" y="25.2605" width="37.9131" height="18.4017" rx="4.95656" fill="#FF6444"/>
<path d="M144.208 38.9613H138.109V37.6781L140.299 35.464C140.741 35.0104 141.095 34.6324 141.362 34.33C141.632 34.0236 141.827 33.7451 141.946 33.4945C142.07 33.2438 142.131 32.9752 142.131 32.6887C142.131 32.3426 142.034 32.084 141.839 31.9129C141.648 31.7378 141.391 31.6503 141.069 31.6503C140.731 31.6503 140.403 31.7279 140.084 31.883C139.766 32.0382 139.434 32.259 139.088 32.5455L138.085 31.3578C138.336 31.143 138.6 30.9401 138.879 30.7491C139.161 30.5581 139.488 30.4049 139.858 30.2895C140.232 30.1702 140.679 30.1105 141.2 30.1105C141.773 30.1105 142.265 30.2139 142.675 30.4208C143.088 30.6277 143.407 30.9102 143.629 31.2683C143.852 31.6224 143.964 32.0243 143.964 32.4739C143.964 32.9553 143.868 33.395 143.677 33.7929C143.486 34.1907 143.208 34.5846 142.842 34.9746C142.48 35.3645 142.042 35.7962 141.529 36.2697L140.407 37.326V37.4096H144.208V38.9613ZM151.155 34.5986C151.155 35.3028 151.1 35.9315 150.988 36.4845C150.881 37.0376 150.706 37.5071 150.463 37.893C150.224 38.2789 149.91 38.5734 149.52 38.7763C149.13 38.9792 148.657 39.0807 148.1 39.0807C147.399 39.0807 146.824 38.9036 146.375 38.5495C145.925 38.1914 145.593 37.6781 145.378 37.0097C145.163 36.3373 145.056 35.5336 145.056 34.5986C145.056 33.6556 145.153 32.8499 145.348 32.1815C145.547 31.509 145.869 30.9938 146.315 30.6357C146.761 30.2776 147.356 30.0986 148.1 30.0986C148.796 30.0986 149.369 30.2776 149.818 30.6357C150.272 30.9898 150.608 31.5031 150.827 32.1755C151.046 32.8439 151.155 33.6516 151.155 34.5986ZM146.888 34.5986C146.888 35.263 146.924 35.8181 146.995 36.2637C147.071 36.7053 147.196 37.0376 147.371 37.2604C147.547 37.4832 147.789 37.5946 148.1 37.5946C148.406 37.5946 148.647 37.4852 148.822 37.2663C149.001 37.0435 149.128 36.7113 149.204 36.2697C149.279 35.824 149.317 35.267 149.317 34.5986C149.317 33.9341 149.279 33.3791 149.204 32.9334C149.128 32.4878 149.001 32.1536 148.822 31.9308C148.647 31.704 148.406 31.5906 148.1 31.5906C147.789 31.5906 147.547 31.704 147.371 31.9308C147.196 32.1536 147.071 32.4878 146.995 32.9334C146.924 33.3791 146.888 33.9341 146.888 34.5986ZM158.198 38.9613H152.098V37.6781L154.289 35.464C154.73 35.0104 155.084 34.6324 155.351 34.33C155.621 34.0236 155.816 33.7451 155.936 33.4945C156.059 33.2438 156.121 32.9752 156.121 32.6887C156.121 32.3426 156.023 32.084 155.828 31.9129C155.637 31.7378 155.381 31.6503 155.058 31.6503C154.72 31.6503 154.392 31.7279 154.074 31.883C153.755 32.0382 153.423 32.259 153.077 32.5455L152.074 31.3578C152.325 31.143 152.59 30.9401 152.868 30.7491C153.151 30.5581 153.477 30.4049 153.847 30.2895C154.221 30.1702 154.669 30.1105 155.19 30.1105C155.763 30.1105 156.254 30.2139 156.664 30.4208C157.078 30.6277 157.396 30.9102 157.619 31.2683C157.842 31.6224 157.953 32.0243 157.953 32.4739C157.953 32.9553 157.858 33.395 157.667 33.7929C157.476 34.1907 157.197 34.5846 156.831 34.9746C156.469 35.3645 156.031 35.7962 155.518 36.2697L154.396 37.326V37.4096H158.198V38.9613ZM162.268 33.387C162.801 33.387 163.275 33.4885 163.688 33.6914C164.106 33.8943 164.435 34.1927 164.673 34.5866C164.912 34.9805 165.031 35.4659 165.031 36.0429C165.031 36.6715 164.9 37.2146 164.637 37.6722C164.379 38.1258 163.991 38.4739 163.474 38.7166C162.96 38.9593 162.32 39.0807 161.552 39.0807C161.094 39.0807 160.663 39.0409 160.257 38.9613C159.855 38.8857 159.503 38.7683 159.2 38.6092V37.0157C159.503 37.1748 159.865 37.3101 160.287 37.4215C160.712 37.5289 161.112 37.5827 161.486 37.5827C161.852 37.5827 162.161 37.5349 162.411 37.4394C162.662 37.3399 162.851 37.1888 162.978 36.9858C163.11 36.7789 163.175 36.5163 163.175 36.198C163.175 35.7723 163.032 35.446 162.746 35.2193C162.459 34.9925 162.019 34.8791 161.427 34.8791C161.2 34.8791 160.963 34.901 160.716 34.9447C160.474 34.9885 160.271 35.0323 160.108 35.076L159.373 34.6821L159.702 30.2358H164.435V31.7995H161.319L161.158 33.5124C161.293 33.4845 161.44 33.4567 161.6 33.4288C161.759 33.4009 161.982 33.387 162.268 33.387Z" fill="#E8EDFF"/>
</svg>
