<svg width="214" height="62" viewBox="0 0 214 62" fill="none" xmlns="http://www.w3.org/2000/svg">
<path d="M1.51058 29.2198C1.22816 29.2039 0.947393 29.2726 0.703763 29.4171C0.460133 29.5617 0.264573 29.7757 0.141796 30.032C0.0190197 30.2883 -0.0254621 30.5755 0.0139722 30.8573C0.0534065 31.139 0.174987 31.4027 0.363349 31.615C0.55171 31.8272 0.798399 31.9786 1.07224 32.0499C1.34608 32.1211 1.63478 32.1092 1.90185 32.0154C2.16893 31.9217 2.40239 31.7505 2.57274 31.5233C2.74308 31.2962 2.84266 31.0233 2.8589 30.7392C2.8697 30.5504 2.84337 30.3612 2.78143 30.1826C2.71948 30.004 2.62314 29.8394 2.49791 29.6983C2.37268 29.5572 2.22102 29.4423 2.0516 29.3602C1.88219 29.2781 1.69834 29.2304 1.51058 29.2198Z" fill="#FAF2EB"/>
<path d="M18.0294 30.3496C17.9626 31.5312 18.3645 32.6911 19.1469 33.5749C19.9293 34.4587 21.0282 34.9942 22.2027 35.0638H22.4447C23.3098 35.0629 24.1557 34.8071 24.878 34.3282C25.6003 33.8492 26.1674 33.168 26.5092 32.3686C26.8511 31.5692 26.9527 30.6865 26.8017 29.8297C26.6506 28.9728 26.2534 28.1792 25.6592 27.5468C25.0649 26.9143 24.2996 26.4708 23.4576 26.2709C22.6156 26.0709 21.7339 26.1234 20.9212 26.4217C20.1085 26.72 19.4005 27.2512 18.8844 27.9497C18.3684 28.6481 18.0669 29.4833 18.0173 30.3521L18.0294 30.3496Z" fill="#FAF2EB"/>
<path d="M1.51058 29.2198C1.22816 29.2039 0.947393 29.2726 0.703763 29.4171C0.460133 29.5617 0.264573 29.7757 0.141796 30.032C0.0190197 30.2883 -0.0254621 30.5755 0.0139722 30.8573C0.0534065 31.139 0.174987 31.4027 0.363349 31.615C0.55171 31.8272 0.798399 31.9786 1.07224 32.0499C1.34608 32.1211 1.63478 32.1092 1.90185 32.0154C2.16893 31.9217 2.40239 31.7505 2.57274 31.5233C2.74308 31.2962 2.84266 31.0233 2.8589 30.7392C2.8697 30.5504 2.84337 30.3612 2.78143 30.1826C2.71948 30.004 2.62314 29.8394 2.49791 29.6983C2.37268 29.5572 2.22102 29.4423 2.0516 29.3602C1.88219 29.2781 1.69834 29.2304 1.51058 29.2198Z" fill="#FAF2EB"/>
<path d="M17.7486 4.48727C18.0001 4.35733 18.2078 4.15545 18.3455 3.90704C18.4832 3.65862 18.5448 3.37477 18.5225 3.09123C18.5002 2.80768 18.395 2.53711 18.2202 2.31357C18.0453 2.09003 17.8087 1.92352 17.54 1.83499C17.2712 1.74647 16.9825 1.73989 16.7101 1.81608C16.4376 1.89227 16.1937 2.04783 16.009 2.26317C15.8243 2.47851 15.707 2.74401 15.6719 3.02625C15.6369 3.30849 15.6856 3.59485 15.812 3.84929C15.8965 4.02005 16.0139 4.17222 16.1573 4.29695C16.3008 4.42168 16.4674 4.51649 16.6476 4.57585C16.8278 4.63521 17.0179 4.65795 17.2069 4.64274C17.3959 4.62754 17.5801 4.57469 17.7486 4.48727Z" fill="#FAF2EB"/>
<path d="M22.2438 12.3719C22.6344 12.1737 22.9579 11.8634 23.1733 11.4803C23.3886 11.0972 23.4862 10.6584 23.4537 10.2195C23.4213 9.78063 23.2601 9.36127 22.9908 9.01446C22.7214 8.66766 22.3558 8.40898 21.9403 8.27114C21.5248 8.13329 21.078 8.12246 20.6564 8.24001C20.2347 8.35757 19.8572 8.59823 19.5715 8.93158C19.2859 9.26493 19.1049 9.676 19.0514 10.1128C18.9979 10.5496 19.0744 10.9926 19.2712 11.3857C19.4017 11.6471 19.5822 11.88 19.8023 12.0711C20.0224 12.2622 20.2779 12.4077 20.554 12.4993C20.8302 12.591 21.1216 12.6269 21.4116 12.605C21.7015 12.5831 21.9843 12.5039 22.2438 12.3719Z" fill="#FAF2EB"/>
<path d="M7.1169 17.7947C7.41804 17.994 7.77119 18.0991 8.13169 18.0966C8.49218 18.0941 8.84385 17.9841 9.1422 17.7805C9.44055 17.5769 9.67219 17.2889 9.80784 16.9529C9.94348 16.617 9.97703 16.248 9.90425 15.8929C9.83147 15.5377 9.65562 15.2122 9.39894 14.9576C9.14226 14.7029 8.81628 14.5306 8.46222 14.4623C8.10816 14.394 7.74192 14.4329 7.40982 14.5739C7.07771 14.715 6.79466 14.952 6.59645 15.2549C6.46484 15.4561 6.3739 15.6813 6.32883 15.9178C6.28375 16.1543 6.28543 16.3974 6.33376 16.6332C6.38209 16.8691 6.47612 17.093 6.61049 17.2923C6.74486 17.4916 6.91694 17.6623 7.1169 17.7947Z" fill="#FAF2EB"/>
<path d="M9.81113 28.4089C9.37433 28.3841 8.94003 28.4902 8.56312 28.7136C8.18621 28.937 7.88362 29.2679 7.69358 29.6643C7.50355 30.0607 7.43462 30.5049 7.49549 30.9407C7.55636 31.3765 7.7443 31.7843 8.03557 32.1127C8.32683 32.4411 8.70834 32.6752 9.13186 32.7856C9.55539 32.8959 10.0019 32.8774 10.415 32.7325C10.8281 32.5876 11.1892 32.3227 11.4527 31.9714C11.7162 31.6201 11.8702 31.1981 11.8953 30.7587C11.9124 30.4667 11.8719 30.1741 11.7763 29.8978C11.6807 29.6215 11.5318 29.3669 11.3381 29.1486C11.1445 28.9303 10.91 28.7526 10.6479 28.6257C10.3859 28.4987 10.1015 28.4251 9.81113 28.4089Z" fill="#FAF2EB"/>
<path d="M7.35897 43.3721C7.03728 43.5357 6.77101 43.7915 6.59382 44.1072C6.41663 44.423 6.33648 44.7845 6.3635 45.146C6.39052 45.5076 6.52349 45.853 6.74562 46.1385C6.96774 46.4241 7.26903 46.637 7.61142 46.7503C7.9538 46.8636 8.3219 46.8723 8.66918 46.7752C9.01647 46.6782 9.32734 46.4797 9.56251 46.2049C9.79768 45.9301 9.94659 45.5914 9.99041 45.2315C10.0342 44.8716 9.971 44.5067 9.80871 44.183C9.70111 43.9677 9.55231 43.7758 9.37084 43.6184C9.18937 43.461 8.9788 43.3413 8.75121 43.2659C8.52361 43.1906 8.28347 43.1612 8.04456 43.1794C7.80565 43.1977 7.57266 43.2631 7.35897 43.3721Z" fill="#FAF2EB"/>
<path d="M15.9597 23.8092C16.3905 24.0932 16.8954 24.2423 17.4105 24.2377C17.9256 24.2331 18.4278 24.075 18.8536 23.7833C19.2793 23.4916 19.6096 23.0795 19.8025 22.599C19.9954 22.1186 20.0424 21.5914 19.9375 21.0841C19.8325 20.5768 19.5804 20.1121 19.213 19.7489C18.8456 19.3858 18.3794 19.1403 17.8733 19.0437C17.3672 18.947 16.844 19.0035 16.3698 19.2059C15.8956 19.4083 15.4918 19.7477 15.2093 20.181C15.0217 20.4688 14.8923 20.7909 14.8284 21.129C14.7646 21.4671 14.7676 21.8145 14.8373 22.1514C14.907 22.4884 15.042 22.8082 15.2346 23.0926C15.4272 23.3771 15.6736 23.6205 15.9597 23.8092Z" fill="#FAF2EB"/>
<path d="M43.2457 12.1965C43.6124 12.4376 44.0418 12.5639 44.4798 12.5595C44.9178 12.555 45.3447 12.4201 45.7064 12.1716C46.0682 11.9232 46.3486 11.5724 46.5122 11.1637C46.6758 10.755 46.7152 10.3067 46.6255 9.87539C46.5359 9.44411 46.3211 9.04927 46.0084 8.74077C45.6956 8.43227 45.299 8.22396 44.8686 8.14219C44.4382 8.06042 43.9934 8.10884 43.5903 8.28135C43.1873 8.45387 42.8441 8.74271 42.6043 9.11137C42.4447 9.35633 42.3348 9.63057 42.2808 9.91834C42.2268 10.2061 42.2298 10.5018 42.2896 10.7884C42.3494 11.075 42.4649 11.3469 42.6294 11.5886C42.7939 11.8302 43.0041 12.0368 43.2482 12.1965H43.2457Z" fill="#FAF2EB"/>
<path d="M47.787 4.33629C48.0241 4.49234 48.3019 4.57416 48.5853 4.57142C48.8686 4.56868 49.1448 4.48149 49.3789 4.32088C49.613 4.16028 49.7945 3.93346 49.9005 3.6691C50.0065 3.40474 50.0322 3.11471 49.9743 2.83567C49.9165 2.55663 49.7777 2.3011 49.5755 2.10139C49.3733 1.90167 49.1168 1.76674 48.8384 1.71365C48.56 1.66055 48.2722 1.69168 48.0113 1.80309C47.7505 1.9145 47.5284 2.10119 47.373 2.33958C47.2698 2.49799 47.1986 2.67533 47.1635 2.86144C47.1284 3.04755 47.1301 3.23879 47.1686 3.42423C47.207 3.60967 47.2814 3.78567 47.3875 3.94217C47.4936 4.09867 47.6294 4.23259 47.787 4.33629Z" fill="#FAF2EB"/>
<path d="M43.5943 26.1078C42.4372 26.0678 41.3104 26.4849 40.455 27.2698C39.5996 28.0548 39.0835 29.1452 39.0171 30.308C38.9507 31.4708 39.3392 32.6135 40.0996 33.4918C40.86 34.3701 41.9319 34.9143 43.086 35.0078H43.3426C44.1973 35.0074 45.0336 34.7583 45.7507 34.2905C46.4678 33.8227 47.0351 33.1562 47.3841 32.3714C47.7331 31.5866 47.849 30.717 47.7177 29.8675C47.5865 29.0179 47.2137 28.2247 46.6444 27.5835C46.2587 27.1462 45.7905 26.7906 45.2668 26.5373C44.7432 26.2839 44.1746 26.1379 43.5943 26.1078Z" fill="#FAF2EB"/>
<path d="M23.6986 23.4999C24.1808 24.4799 25.0042 25.2475 26.0123 25.6567C27.0203 26.0659 28.1427 26.0882 29.166 25.7194C30.1893 25.3506 31.0422 24.6163 31.5625 23.6563C32.0829 22.6962 32.2343 21.5773 31.9881 20.5122C31.7418 19.4472 31.1151 18.5103 30.2271 17.8797C29.339 17.2491 28.2516 16.9688 27.1715 17.092C26.0914 17.2153 25.0939 17.7335 24.3688 18.5481C23.6438 19.3628 23.2416 20.4171 23.2387 21.5105C23.2363 22.2006 23.3938 22.8817 23.6986 23.4999Z" fill="#FAF2EB"/>
<path d="M58.4356 17.7898C58.7573 17.6265 59.0237 17.3709 59.2011 17.0553C59.3785 16.7397 59.4589 16.3783 59.4321 16.0168C59.4054 15.6552 59.2727 15.3098 59.0508 15.0241C58.829 14.7384 58.5279 14.5253 58.1856 14.4117C57.8434 14.298 57.4754 14.289 57.128 14.3857C56.7807 14.4825 56.4697 14.6806 56.2342 14.9551C55.9988 15.2296 55.8496 15.5681 55.8054 15.9279C55.7611 16.2877 55.8239 16.6526 55.9858 16.9765C56.2037 17.4109 56.5841 17.7406 57.0434 17.8931C57.5027 18.0456 58.0035 18.0084 58.4356 17.7898Z" fill="#FAF2EB"/>
<path d="M47.2036 19.2094C46.7435 19.4425 46.3624 19.8076 46.1086 20.2586C45.8548 20.7095 45.7396 21.226 45.7776 21.7428C45.8156 22.2596 46.0051 22.7534 46.3222 23.1619C46.6392 23.5703 47.0695 23.8751 47.5587 24.0375C48.0479 24.1999 48.574 24.2128 49.0705 24.0745C49.5669 23.9362 50.0115 23.6529 50.3478 23.2604C50.6842 22.8679 50.8974 22.3839 50.9603 21.8696C51.0233 21.3553 50.9332 20.8337 50.7015 20.3709C50.5476 20.0636 50.3351 19.7898 50.076 19.5651C49.817 19.3405 49.5165 19.1693 49.1917 19.0614C48.8669 18.9536 48.5241 18.9111 48.183 18.9365C47.8419 18.9619 47.5091 19.0546 47.2036 19.2094Z" fill="#FAF2EB"/>
<path d="M32.7302 3.66423C33.0896 3.68464 33.4469 3.59758 33.7571 3.41403C34.0674 3.23048 34.3166 2.95864 34.4735 2.6328C34.6304 2.30695 34.6879 1.94168 34.6387 1.58303C34.5895 1.22437 34.4359 0.888392 34.1972 0.617437C33.9585 0.346483 33.6453 0.152684 33.2973 0.0604706C32.9492 -0.0317431 32.5818 -0.0182438 32.2414 0.0992668C31.901 0.216777 31.6027 0.433039 31.3843 0.720791C31.1659 1.00854 31.037 1.3549 31.014 1.71621C30.9986 1.95768 31.0308 2.19983 31.1089 2.4287C31.187 2.65756 31.3093 2.86862 31.4689 3.04971C31.6284 3.23079 31.822 3.37832 32.0385 3.48379C32.255 3.58926 32.4901 3.65058 32.7302 3.66423Z" fill="#FAF2EB"/>
<path d="M32.7109 15.2038C33.2252 15.2333 33.7366 15.1087 34.1805 14.8459C34.6244 14.583 34.9808 14.1936 35.2047 13.727C35.4287 13.2604 35.51 12.7375 35.4385 12.2243C35.3671 11.7112 35.1459 11.2309 34.8031 10.8442C34.4603 10.4575 34.0112 10.1817 33.5125 10.0517C33.0139 9.92168 32.4882 9.94333 32.0018 10.1139C31.5154 10.2844 31.0902 10.5962 30.7799 11.0098C30.4697 11.4235 30.2883 11.9203 30.2587 12.4376C30.2197 13.1314 30.4561 13.8124 30.9158 14.3311C31.3756 14.8497 32.0212 15.1636 32.7109 15.2038Z" fill="#FAF2EB"/>
<path d="M18.5982 41.9501C19.0583 41.717 19.4394 41.3519 19.6932 40.901C19.947 40.45 20.0622 39.9335 20.0242 39.4167C19.9862 38.8999 19.7967 38.4061 19.4796 37.9976C19.1626 37.5892 18.7323 37.2844 18.2431 37.122C17.7539 36.9596 17.2278 36.9467 16.7314 37.085C16.2349 37.2233 15.7904 37.5066 15.454 37.8991C15.1176 38.2916 14.9044 38.7756 14.8415 39.2899C14.7785 39.8042 14.8686 40.3258 15.1003 40.7886C15.4116 41.4087 15.9547 41.8793 16.6105 42.0971C17.2663 42.3149 17.9812 42.262 18.5982 41.9501Z" fill="#FAF2EB"/>
<path d="M34.3933 19.0268C33.8525 19.8565 33.6022 20.8439 33.6821 21.8327C33.762 22.8216 34.1675 23.7554 34.8344 24.4863C35.5013 25.2173 36.3915 25.7036 37.3641 25.8682C38.3367 26.0329 39.3362 25.8666 40.2042 25.3955C41.0722 24.9245 41.7593 24.1756 42.1566 23.2676C42.5539 22.3595 42.6387 21.3441 42.3977 20.382C42.1567 19.42 41.6036 18.5663 40.8259 17.9561C40.0483 17.3459 39.0905 17.014 38.1042 17.013C37.368 17.0119 36.6431 17.1954 35.9951 17.547C35.3472 17.8986 34.7966 18.4072 34.3933 19.0268Z" fill="#FAF2EB"/>
<path d="M42.0959 37.662C41.741 36.9541 41.2047 36.3542 40.5424 35.9243C39.8801 35.4944 39.1158 35.25 38.3283 35.2164C37.5408 35.1828 36.7586 35.3611 36.0625 35.7331C35.3664 36.105 34.7815 36.6571 34.3683 37.3322C33.955 38.0074 33.7284 38.7813 33.7116 39.574C33.6949 40.3667 33.8888 41.1496 34.2732 41.8417C34.6576 42.5339 35.2187 43.1104 35.8985 43.5117C36.5783 43.913 37.3523 44.1246 38.1405 44.1246C38.8338 44.1191 39.5165 43.9524 40.1351 43.6376C41.1812 43.1049 41.9748 42.1771 42.3423 41.0571C42.7098 39.9372 42.6212 38.7164 42.0959 37.662Z" fill="#FAF2EB"/>
<path d="M49.8373 37.3503C49.4066 37.0659 48.9018 36.9164 48.3867 36.9206C47.8715 36.9249 47.3692 37.0826 46.9432 37.374C46.5172 37.6654 46.1867 38.0773 45.9935 38.5577C45.8002 39.038 45.7529 39.5653 45.8575 40.0727C45.9621 40.5801 46.2139 41.0449 46.5812 41.4083C46.9484 41.7717 47.4145 42.0175 47.9205 42.1144C48.4266 42.2114 48.9499 42.1552 49.4242 41.953C49.8985 41.7508 50.3026 41.4117 50.5853 40.9785C50.773 40.6909 50.9025 40.3689 50.9665 40.0309C51.0306 39.6929 51.0277 39.3455 50.9583 39.0086C50.8888 38.6717 50.7541 38.3518 50.5617 38.0673C50.3694 37.7828 50.1232 37.5392 49.8373 37.3503Z" fill="#FAF2EB"/>
<path d="M58.3194 30.6565C58.344 30.2171 58.2386 29.7802 58.0165 29.4011C57.7944 29.0219 57.4655 28.7175 57.0714 28.5264C56.6774 28.3352 56.2358 28.2659 55.8026 28.3271C55.3693 28.3883 54.9638 28.5774 54.6374 28.8704C54.311 29.1634 54.0782 29.5471 53.9685 29.9732C53.8588 30.3992 53.8772 30.8484 54.0213 31.2639C54.1653 31.6795 54.4286 32.0427 54.7779 32.3078C55.1271 32.5728 55.5466 32.7278 55.9834 32.753C56.2737 32.7698 56.5644 32.7289 56.8389 32.6326C57.1135 32.5363 57.3664 32.3865 57.5834 32.1918C57.8003 31.997 57.977 31.7612 58.1033 31.4978C58.2296 31.2344 58.303 30.9485 58.3194 30.6565Z" fill="#FAF2EB"/>
<path d="M64.4486 29.0713C64.1656 29.0549 63.8842 29.1233 63.6399 29.2678C63.3955 29.4123 63.1993 29.6264 63.076 29.8832C62.9526 30.1399 62.9077 30.4276 62.947 30.71C62.9862 30.9923 63.1078 31.2566 63.2964 31.4695C63.485 31.6823 63.732 31.8342 64.0064 31.9058C64.2808 31.9773 64.5701 31.9655 64.8377 31.8717C65.1054 31.7779 65.3394 31.6063 65.5101 31.3788C65.6808 31.1512 65.7806 30.8778 65.7969 30.5931C65.8181 30.2116 65.688 29.8372 65.4353 29.552C65.1826 29.2667 64.8278 29.0939 64.4486 29.0713Z" fill="#FAF2EB"/>
<path d="M58.6777 43.3648C58.3761 43.1662 58.0228 43.0619 57.6624 43.0652C57.3019 43.0685 56.9506 43.1792 56.6527 43.3833C56.3548 43.5875 56.1237 43.8759 55.9888 44.2121C55.8538 44.5483 55.8209 44.9172 55.8944 45.2722C55.9678 45.6272 56.1442 45.9523 56.4013 46.2064C56.6583 46.4606 56.9846 46.6323 57.3387 46.7C57.6928 46.7677 58.0589 46.7283 58.3907 46.5867C58.7226 46.4451 59.0052 46.2077 59.2029 45.9046C59.3346 45.7032 59.4255 45.4777 59.4704 45.241C59.5153 45.0043 59.5133 44.7609 59.4645 44.525C59.4157 44.289 59.3211 44.0651 59.186 43.866C59.051 43.6669 58.8782 43.4966 58.6777 43.3648Z" fill="#FAF2EB"/>
<path d="M18.01 56.8232C17.7731 56.6668 17.4954 56.5846 17.212 56.587C16.9286 56.5893 16.6522 56.6761 16.4179 56.8365C16.1836 56.9968 16.0017 57.2234 15.8954 57.4876C15.7891 57.7519 15.7631 58.0419 15.8206 58.3211C15.8781 58.6002 16.0167 58.8559 16.2186 59.0559C16.4206 59.2558 16.677 59.3911 16.9554 59.4445C17.2338 59.4979 17.5217 59.467 17.7826 59.3559C18.0436 59.2447 18.2659 59.0582 18.4215 58.8199C18.5249 58.6617 18.5962 58.4844 18.6315 58.2984C18.6668 58.1124 18.6652 57.9212 18.627 57.7358C18.5888 57.5504 18.5147 57.3743 18.4088 57.2178C18.3029 57.0612 18.1674 56.9271 18.01 56.8232Z" fill="#FAF2EB"/>
<path d="M48.046 56.6722C47.7944 56.8022 47.5867 57.0041 47.449 57.2525C47.3113 57.5009 47.2497 57.7847 47.272 58.0683C47.2943 58.3518 47.3995 58.6224 47.5744 58.8459C47.7492 59.0695 47.9859 59.236 48.2546 59.3245C48.5233 59.413 48.812 59.4196 49.0845 59.3434C49.3569 59.2672 49.6008 59.1117 49.7856 58.8963C49.9703 58.681 50.0876 58.4155 50.1226 58.1332C50.1577 57.851 50.1089 57.5646 49.9825 57.3102C49.8985 57.1412 49.7821 56.9905 49.6401 56.8668C49.498 56.7431 49.3331 56.6488 49.1548 56.5894C48.9765 56.5299 48.7883 56.5063 48.6009 56.5201C48.4135 56.534 48.2307 56.5848 48.0629 56.6698L48.046 56.6722Z" fill="#FAF2EB"/>
<path d="M31.4013 42.1254C31.941 41.2964 32.1904 40.3101 32.1101 39.3225C32.0298 38.3348 31.6243 37.4024 30.9579 36.6726C30.2915 35.9429 29.4022 35.4575 28.4307 35.2934C27.4592 35.1292 26.4611 35.2957 25.5942 35.7664C24.7274 36.2371 24.0413 36.9852 23.6447 37.8922C23.248 38.7993 23.1634 39.8135 23.4043 40.7743C23.6451 41.7352 24.1976 42.5878 24.9743 43.1972C25.7511 43.8067 26.7077 44.1382 27.6928 44.1392C28.4286 44.1397 29.1529 43.9559 29.8003 43.6043C30.4478 43.2527 30.998 42.7445 31.4013 42.1254Z" fill="#FAF2EB"/>
<path d="M22.5488 48.9654C22.1827 48.7245 21.7538 48.5981 21.3163 48.6024C20.8788 48.6066 20.4524 48.7412 20.091 48.9891C19.7295 49.2371 19.4493 49.5873 19.2856 49.9954C19.122 50.4036 19.0823 50.8514 19.1716 51.2822C19.261 51.713 19.4752 52.1075 19.7874 52.4159C20.0996 52.7242 20.4956 52.9325 20.9254 53.0145C21.3553 53.0965 21.7996 53.0484 22.2023 52.8764C22.605 52.7044 22.948 52.4162 23.1879 52.0481C23.3476 51.8036 23.4578 51.5299 23.5121 51.2425C23.5664 50.9551 23.5638 50.6597 23.5045 50.3733C23.4451 50.0869 23.3301 49.8151 23.1661 49.5735C23.0021 49.3319 22.7924 49.1253 22.5488 48.9654Z" fill="#FAF2EB"/>
<path d="M32.8779 57.4953C32.518 57.4747 32.1602 57.5619 31.8495 57.7459C31.5389 57.9299 31.2895 58.2023 31.1328 58.5289C30.9761 58.8555 30.9192 59.2214 30.9693 59.5805C31.0193 59.9396 31.1741 60.2757 31.414 60.5463C31.6539 60.8169 31.9682 61.0099 32.3172 61.1008C32.6661 61.1918 33.034 61.1766 33.3744 61.0573C33.7148 60.9379 34.0123 60.7197 34.2295 60.4303C34.4466 60.1408 34.5735 59.7931 34.5942 59.4311C34.6213 58.9456 34.4558 58.4691 34.134 58.1062C33.8123 57.7432 33.3605 57.5235 32.8779 57.4953Z" fill="#FAF2EB"/>
<path d="M32.8973 45.9581C32.3831 45.9273 31.8714 46.0505 31.4269 46.3121C30.9823 46.5738 30.6248 46.9622 30.3997 47.4281C30.1745 47.8941 30.0917 48.4168 30.1618 48.9301C30.2319 49.4434 30.4517 49.9243 30.7934 50.3119C31.1352 50.6996 31.5835 50.9766 32.0817 51.108C32.5799 51.2394 33.1057 51.2193 33.5925 51.0501C34.0794 50.881 34.5055 50.5704 34.8169 50.1578C35.1283 49.7451 35.3111 49.2488 35.3422 48.7316C35.3631 48.3879 35.3165 48.0434 35.2049 47.7179C35.0933 47.3924 34.9189 47.0922 34.6918 46.8346C34.4647 46.5769 34.1893 46.3669 33.8814 46.2165C33.5734 46.0661 33.239 45.9783 32.8973 45.9581Z" fill="#FAF2EB"/>
<path d="M43.5507 48.7876C43.1602 48.9874 42.8373 49.2993 42.623 49.6837C42.4087 50.0681 42.3125 50.5079 42.3467 50.9473C42.3809 51.3867 42.5438 51.806 42.8149 52.1523C43.0861 52.4985 43.4532 52.7561 43.8699 52.8924C44.2866 53.0287 44.7341 53.0376 45.1558 52.918C45.5775 52.7985 45.9545 52.5557 46.2391 52.2206C46.5237 51.8855 46.703 51.4729 46.7545 51.0352C46.8059 50.5975 46.7272 50.1543 46.5282 49.7616C46.2625 49.2365 45.8004 48.8389 45.2435 48.6563C44.6866 48.4736 44.0803 48.5209 43.558 48.7876H43.5507Z" fill="#FAF2EB"/>
<path d="M185.103 55.6007L185.103 37.6525L179.198 37.6525L179.198 34.3682L194.61 34.3682L194.61 37.6525L188.705 37.6525L188.705 55.6007L185.103 55.6007Z" fill="#FAF2EB"/>
<path d="M169.128 55.6007L169.128 52.3164L171.288 52.3164L171.288 37.6525L169.128 37.6525L169.128 34.3682L177.05 34.3682L177.05 37.6525L174.89 37.6525L174.89 52.3164L177.05 52.3164L177.05 55.6007L169.128 55.6007Z" fill="#FAF2EB"/>
<path d="M143.792 55.6007L143.792 34.3682L148.344 34.3682L154.452 49.7812L160.531 34.3682L165.083 34.3682L165.083 55.6007L161.481 55.6007L161.481 40.7639L155.46 55.6007L153.415 55.6007L147.394 40.7639L147.394 55.6007L143.792 55.6007Z" fill="#FAF2EB"/>
<path d="M117.881 55.6007L117.881 34.3682L122.433 34.3682L128.54 49.7812L134.619 34.3682L139.171 34.3682L139.171 55.6007L135.57 55.6007L135.57 40.7639L129.549 55.6007L127.503 55.6007L121.482 40.7639L121.482 55.6007L117.881 55.6007Z" fill="#FAF2EB"/>
<path d="M100.109 55.6007L96.9109 52.4029L96.9109 34.3682L100.512 34.3682L100.512 51.1641L101.78 52.4317L108.809 52.4317L110.077 51.1641L110.106 34.3682L113.707 34.3682L113.707 52.4029L110.509 55.6007L100.109 55.6007Z" fill="#FAF2EB"/>
<path d="M78.0431 55.6007L78.0431 52.3164L88.5873 52.2876L89.8549 51.02L89.8261 47.4477L88.5873 46.18L80.5207 46.18L77.3229 42.9822L77.3229 37.5661L80.5207 34.3682L92.2749 34.3682L92.2749 37.6525L82.2205 37.6813L80.924 38.9201L80.9528 41.7434L82.2205 43.0398L90.2583 43.011L93.4561 46.2089L93.4561 52.4029L90.2583 55.6007L78.0431 55.6007Z" fill="#FAF2EB"/>
<path d="M200.319 26.7914L197.121 23.5936L197.121 8.75679L200.319 5.55896L210.719 5.55896L213.917 8.7568L213.917 23.5936L210.719 26.7914L200.319 26.7914ZM202.019 23.6224L209.048 23.6224L210.316 22.3548L210.287 9.9956L209.048 8.72799L201.99 8.72798L200.722 9.9956L200.751 22.3548L202.019 23.6224Z" fill="#FAF2EB"/>
<path d="M176.4 26.7914L176.4 5.55896L181.038 5.55896L189.451 20.3958L189.451 5.55896L193.08 5.55896L193.08 26.7914L189.134 26.7914L180.721 11.9546L180.001 11.9546L180.001 26.7914L176.4 26.7914Z" fill="#FAF2EB"/>
<path d="M154.605 26.7914L161.519 5.55896L166.907 5.55896L173.821 26.7914L169.989 26.7914L168.405 21.6346L160.021 21.6346L158.437 26.7914L154.605 26.7914ZM160.972 18.4655L167.425 18.4655L164.544 8.98727L163.853 8.98727L160.972 18.4655Z" fill="#FAF2EB"/>
<path d="M136.534 26.7914L136.534 5.55896L148.778 5.55896L153.243 10.0244L153.243 22.326L148.778 26.7914L136.534 26.7914ZM140.135 23.6224L147.078 23.6224L149.613 21.0872L149.613 11.2632L147.078 8.72799L140.135 8.72798L140.135 23.6224Z" fill="#FAF2EB"/>
<path d="M116.531 26.7914L116.531 5.55896L128.89 5.55896L132.088 8.7568L132.088 15.7863L129.178 18.696L132.779 26.7914L128.688 26.7914L125.346 18.9841L120.132 18.9841L120.132 26.7914L116.531 26.7914ZM120.132 15.8151L127.219 15.8151L128.486 14.5475L128.486 9.9956L127.219 8.72799L120.132 8.72798L120.132 15.8151Z" fill="#FAF2EB"/>
<path d="M94.7356 26.7914L101.65 5.55896L107.037 5.55896L113.951 26.7914L110.12 26.7914L108.535 21.6346L100.152 21.6346L98.5672 26.7914L94.7356 26.7914ZM101.102 18.4655L107.556 18.4655L104.675 8.98727L103.983 8.98727L101.102 18.4655Z" fill="#FAF2EB"/>
<path d="M80.6647 26.7914L77.4669 23.5936L77.4669 8.75679L80.6648 5.55896L90.6904 5.55896L93.6001 8.4687L91.3242 10.7734L89.2211 8.72799L82.3357 8.72798L81.0681 9.9956L81.0969 22.3548L82.3357 23.6224L89.4804 23.6224L91.5835 21.5481L93.8594 23.8817L90.9497 26.7914L80.6647 26.7914Z" fill="#FAF2EB"/>
</svg>
