<svg width="52" height="57" viewBox="0 0 52 57" fill="none" xmlns="http://www.w3.org/2000/svg">
<path d="M23.4537 36.8312L17.236 53.2209C16.8361 52.908 16.4274 52.5828 16.0231 52.2435L22.0676 36.3056L23.4546 36.8312H23.4537ZM20.119 35.0593L11.2091 47.666C11.5484 48.0439 11.8964 48.4131 12.2436 48.7691L21.3319 35.9145L20.119 35.0593ZM18.5448 33.37L7.47008 42.7545C7.73112 43.1755 8.00096 43.593 8.2875 44.0008L19.5064 34.4985L18.5457 33.3691L18.5448 33.37ZM17.4443 31.3378L4.9475 37.3832C5.09956 37.857 5.2692 38.3211 5.45202 38.7816L18.0921 32.6712L17.4443 31.3378ZM16.888 29.0965L4.00352 31.6806C4.00791 32.1843 4.03428 32.6835 4.08174 33.1792L17.1789 30.5521L16.888 29.0974V29.0965ZM4 26.087V27.568L16.8273 28.2668L16.9099 26.7858L4 26.087ZM4 20.2807V21.8312L17.0576 25.9701L17.5059 24.5585L4 20.2807ZM4 13.3845V15.1301L17.8583 23.8026L18.645 22.5475L4 13.3845ZM8.4 8.39473L6.74758 8.80695L19.1706 21.905L20.2491 20.8845L8.4 8.39473ZM15.0439 6.73616L13.5524 7.10971L20.9188 20.3941L22.2188 19.6777L15.0439 6.73616ZM20.8757 5.2815L19.436 5.63748L22.9931 19.3692L24.4284 18.9957L20.8757 5.2815ZM26.7286 4.18282L25.9982 4L25.2459 4.18634L25.2547 18.8911H26.7374L26.7286 4.18194V4.18282ZM31.1032 5.27711L27.5636 18.9957L29.0025 19.3648L32.5464 5.63308L31.1032 5.27711ZM36.9385 6.73176L29.7768 19.6734L31.0724 20.3897L38.4256 7.10092L36.9385 6.73176ZM43.578 8.39033L31.7465 20.8801L32.825 21.9006L45.226 8.80256L43.578 8.39033ZM33.3506 22.544L34.1417 23.7991L48 15.1046V13.359L33.3506 22.544ZM34.4897 24.5497L34.9415 25.9657L47.9991 21.8145V20.2596L34.4889 24.5506L34.4897 24.5497ZM35.0901 26.7823L35.1727 28.2633L48 27.5513V26.0659L35.0901 26.7823ZM35.112 29.0921L34.8255 30.5424L47.9183 33.1573C47.9701 32.6668 47.9921 32.1667 47.9965 31.663L35.1129 29.0921H35.112ZM34.56 31.3334L33.9123 32.6668L46.5577 38.764C46.7405 38.3035 46.9101 37.835 47.0622 37.3612L34.5609 31.3334H34.56ZM33.4596 33.3612L32.4989 34.4941L43.7266 43.9876C44.0087 43.5798 44.2829 43.1623 44.544 42.7369L33.4605 33.3612H33.4596ZM31.8854 35.0549L30.6769 35.9101L39.7696 48.7515C40.122 48.3955 40.4692 48.0264 40.8041 47.6484L31.8854 35.054V35.0549ZM29.9412 36.3012L28.5542 36.8268L34.7807 53.2077C35.1806 52.8948 35.5849 52.5696 35.9936 52.2304L29.9403 36.3012H29.9412Z" fill="#E6F1FF"/>
</svg>
