<svg width="202" height="48" viewBox="0 0 202 48" fill="none" xmlns="http://www.w3.org/2000/svg">
    <g clip-path="url(#clip0_289_183)">
        <path d="M67.9555 23.5299C66.7935 23.5299 65.7159 23.3237 64.7227 22.9114C63.7294 22.4804 62.9329 21.7964 62.3332 20.8593C61.7523 19.9035 61.4618 18.6385 61.4618 17.0643V9.27753C61.4618 7.70331 61.7523 6.44768 62.3332 5.51064C62.9329 4.55487 63.7294 3.87083 64.7227 3.45853C65.7159 3.02749 66.8029 2.81198 67.9836 2.81198C69.2954 2.81198 70.448 3.03687 71.4412 3.48664C72.4532 3.91768 73.2403 4.52675 73.8026 5.31387C74.3835 6.10098 74.674 7.04738 74.674 8.15309C74.674 8.88398 74.5241 9.37126 74.2242 9.61487C73.9244 9.83976 73.4652 9.9522 72.8468 9.9522C72.3408 9.9522 71.9097 9.86787 71.5537 9.6992C71.2163 9.51181 71.0383 9.21192 71.0196 8.79964C71.0196 8.57475 70.9821 8.31236 70.9071 8.01253C70.8509 7.69392 70.7291 7.38472 70.5417 7.08487C70.3543 6.78502 70.0638 6.53202 69.6702 6.32587C69.2954 6.11972 68.7707 6.01664 68.096 6.01664C67.1402 6.01664 66.4093 6.28838 65.9033 6.83187C65.3973 7.35661 65.1443 8.17181 65.1443 9.27753V17.0643C65.1443 18.1888 65.3973 19.0134 65.9033 19.5381C66.4281 20.0628 67.1777 20.3252 68.1522 20.3252C68.7894 20.3252 69.2954 20.2221 69.6702 20.016C70.0451 19.8098 70.3168 19.5568 70.4855 19.257C70.6728 18.9384 70.7947 18.6104 70.8509 18.2731C70.9258 17.9358 70.9821 17.6171 71.0196 17.3173C71.0571 16.8675 71.2445 16.5677 71.5818 16.4178C71.9191 16.2491 72.3314 16.1648 72.8187 16.1648C73.4558 16.1648 73.9244 16.2866 74.2242 16.5302C74.5241 16.7738 74.674 17.2517 74.674 17.9639C74.674 19.0883 74.3835 20.0722 73.8026 20.9155C73.2403 21.7589 72.4532 22.4054 71.4412 22.8552C70.4292 23.305 69.2673 23.5299 67.9555 23.5299ZM78.0412 23.3612C77.7039 23.3612 77.3572 23.2956 77.0011 23.1644C76.645 23.0333 76.3452 22.8552 76.1015 22.6303C75.8579 22.4054 75.7361 22.143 75.7361 21.8432C75.7361 21.787 75.7454 21.6933 75.7642 21.5621L81.1897 3.8802C81.3208 3.46791 81.6113 3.15868 82.0611 2.95253C82.5296 2.74638 83.0262 2.64331 83.551 2.64331C84.0944 2.64331 84.5911 2.74638 85.0409 2.95253C85.4907 3.15868 85.7811 3.46791 85.9123 3.8802L91.3378 21.5621C91.3752 21.6933 91.394 21.787 91.394 21.8432C91.394 22.1243 91.2628 22.3867 91.0004 22.6303C90.7568 22.8552 90.4569 23.0333 90.1009 23.1644C89.7448 23.2956 89.3981 23.3612 89.0608 23.3612C88.7609 23.3612 88.4986 23.3144 88.2737 23.2206C88.0675 23.1082 87.9269 22.9114 87.852 22.6303L86.7838 18.8915H80.3182L79.2781 22.6303C79.2031 22.9114 79.0532 23.1082 78.8283 23.2206C78.6034 23.3144 78.341 23.3612 78.0412 23.3612ZM81.1053 16.0242H85.9967L83.551 7.39409L81.1053 16.0242ZM104.584 23.5018C104.341 23.5018 104.097 23.4268 103.853 23.2769C103.628 23.1269 103.45 22.9114 103.319 22.6303L99.3275 14.8716H96.9661V22.1805C96.9661 22.5741 96.7787 22.8739 96.4039 23.0801C96.0291 23.2675 95.6074 23.3612 95.1389 23.3612C94.6891 23.3612 94.2675 23.2675 93.8739 23.0801C93.4991 22.8739 93.3117 22.5741 93.3117 22.1805V3.96453C93.3117 3.64594 93.4147 3.3742 93.6209 3.14931C93.8458 2.92442 94.1363 2.81198 94.4923 2.81198H100.058C101.295 2.81198 102.41 2.99002 103.404 3.34609C104.416 3.70216 105.221 4.31124 105.821 5.17331C106.421 6.01664 106.721 7.18794 106.721 8.6872C106.721 9.77414 106.561 10.7018 106.243 11.4702C105.924 12.2198 105.484 12.8289 104.922 13.2974C104.378 13.7472 103.75 14.0845 103.038 14.3094L106.749 21.1404C106.786 21.2154 106.814 21.2997 106.833 21.3934C106.852 21.4684 106.861 21.534 106.861 21.5902C106.861 21.89 106.749 22.1899 106.524 22.4898C106.299 22.7896 106.009 23.0333 105.652 23.2206C105.315 23.408 104.959 23.5018 104.584 23.5018ZM96.9661 12.0043H100.058C100.977 12.0043 101.708 11.7794 102.251 11.3296C102.795 10.8799 103.066 10.1115 103.066 9.02453C103.066 7.90009 102.795 7.12234 102.251 6.69131C101.708 6.24153 100.977 6.01664 100.058 6.01664H96.9661V12.0043ZM110.891 23.3612C110.404 23.3612 110.01 23.2488 109.711 23.0239C109.429 22.799 109.289 22.5273 109.289 22.2086V3.96453C109.289 3.64594 109.429 3.3742 109.711 3.14931C110.01 2.92442 110.404 2.81198 110.891 2.81198H115.867C117.123 2.81198 118.247 3.02749 119.24 3.45853C120.234 3.87083 121.021 4.55487 121.602 5.51064C122.201 6.44768 122.501 7.70331 122.501 9.27753V16.8956C122.501 18.4699 122.201 19.7349 121.602 20.6906C121.021 21.6277 120.234 22.3117 119.24 22.7428C118.247 23.155 117.123 23.3612 115.867 23.3612H110.891ZM112.943 20.1565H115.867C116.804 20.1565 117.535 19.8941 118.06 19.3694C118.584 18.8259 118.847 18.0014 118.847 16.8956V9.27753C118.847 8.17181 118.584 7.35661 118.06 6.83187C117.535 6.28838 116.813 6.01664 115.895 6.01664H112.943V20.1565ZM126.494 23.3612C126.157 23.3612 125.811 23.2956 125.454 23.1644C125.098 23.0333 124.799 22.8552 124.555 22.6303C124.311 22.4054 124.189 22.143 124.189 21.8432C124.189 21.787 124.199 21.6933 124.217 21.5621L129.643 3.8802C129.774 3.46791 130.064 3.15868 130.514 2.95253C130.983 2.74638 131.48 2.64331 132.004 2.64331C132.548 2.64331 133.044 2.74638 133.494 2.95253C133.944 3.15868 134.234 3.46791 134.365 3.8802L139.791 21.5621C139.829 21.6933 139.847 21.787 139.847 21.8432C139.847 22.1243 139.716 22.3867 139.454 22.6303C139.21 22.8552 138.91 23.0333 138.554 23.1644C138.198 23.2956 137.851 23.3612 137.514 23.3612C137.214 23.3612 136.952 23.3144 136.727 23.2206C136.521 23.1082 136.38 22.9114 136.305 22.6303L135.237 18.8915H128.771L127.731 22.6303C127.656 22.9114 127.506 23.1082 127.281 23.2206C127.057 23.3144 126.795 23.3612 126.494 23.3612ZM129.558 16.0242H134.45L132.004 7.39409L129.558 16.0242ZM143.592 23.3612C143.142 23.3612 142.721 23.2675 142.327 23.0801C141.952 22.8739 141.765 22.5741 141.765 22.1805V3.96453C141.765 3.57098 141.952 3.28049 142.327 3.09309C142.721 2.90568 143.142 2.81198 143.592 2.81198C144.042 2.81198 144.407 2.85883 144.689 2.95253C144.988 3.04624 145.26 3.23364 145.504 3.51476C145.766 3.77713 146.038 4.18942 146.319 4.75164L151.744 15.2371V3.96453C151.744 3.55224 151.932 3.26175 152.307 3.09309C152.7 2.90568 153.122 2.81198 153.572 2.81198C154.04 2.81198 154.462 2.90568 154.837 3.09309C155.212 3.26175 155.399 3.55224 155.399 3.96453V22.1805C155.399 22.5741 155.212 22.8739 154.837 23.0801C154.462 23.2675 154.04 23.3612 153.572 23.3612C153.14 23.3612 152.738 23.2769 152.363 23.1082C152.007 22.9395 151.716 22.6397 151.491 22.2086L145.419 10.908V22.1805C145.419 22.5741 145.232 22.8739 144.857 23.0801C144.482 23.2675 144.061 23.3612 143.592 23.3612ZM165.194 23.5299C163.957 23.5299 162.842 23.3237 161.848 22.9114C160.856 22.4804 160.059 21.7964 159.459 20.8593C158.878 19.9035 158.588 18.6385 158.588 17.0643V9.27753C158.588 7.70331 158.878 6.44768 159.459 5.51064C160.059 4.55487 160.846 3.87083 161.82 3.45853C162.814 3.02749 163.938 2.81198 165.194 2.81198C166.431 2.81198 167.546 3.02749 168.539 3.45853C169.551 3.87083 170.348 4.55487 170.928 5.51064C171.51 6.44768 171.8 7.70331 171.8 9.27753V17.0643C171.8 18.6385 171.51 19.9035 170.928 20.8593C170.348 21.7964 169.551 22.4804 168.539 22.9114C167.546 23.3237 166.431 23.5299 165.194 23.5299ZM165.194 20.3252C166.112 20.3252 166.834 20.0628 167.358 19.5381C167.883 19.0134 168.145 18.1888 168.145 17.0643V9.27753C168.145 8.15309 167.883 7.32849 167.358 6.80375C166.834 6.27901 166.112 6.01664 165.194 6.01664C164.276 6.01664 163.554 6.27901 163.029 6.80375C162.523 7.32849 162.27 8.15309 162.27 9.27753V17.0643C162.27 18.1888 162.523 19.0134 163.029 19.5381C163.554 20.0628 164.276 20.3252 165.194 20.3252ZM63.289 46.3612C62.8018 46.3612 62.4082 46.2488 62.1083 46.0239C61.8272 45.799 61.6867 45.5273 61.6867 45.2086V26.9926C61.6867 26.5991 61.8553 26.3086 62.1927 26.1212C62.53 25.915 62.8955 25.812 63.289 25.812H68.7426C69.6983 25.812 70.6073 25.9525 71.4693 26.2336C72.3314 26.496 73.0342 26.9833 73.5777 27.6954C74.1212 28.4076 74.3929 29.4289 74.3929 30.7595C74.3929 31.9027 74.1774 32.8585 73.7463 33.6269C73.3153 34.3765 72.7343 34.9106 72.0035 35.2292C72.5844 35.4354 73.0904 35.7258 73.5215 36.1006C73.9525 36.4567 74.2899 36.9346 74.5335 37.5343C74.7771 38.1153 74.8989 38.8743 74.8989 39.8113V40.4016C74.8989 41.8634 74.6459 43.0347 74.1399 43.9155C73.6526 44.7776 72.978 45.4054 72.1159 45.799C71.2726 46.1738 70.3262 46.3612 69.2767 46.3612H63.289ZM65.3411 43.1565H68.4896C69.3516 43.1565 70.0263 42.9129 70.5136 42.4256C71.0009 41.9384 71.2445 41.1606 71.2445 40.0924V39.6426C71.2445 38.5369 71.0009 37.7686 70.5136 37.3375C70.0263 36.8878 69.3516 36.6629 68.4896 36.6629H65.3411V43.1565ZM65.3411 33.7955H68.4896C69.258 33.7955 69.8202 33.5706 70.1762 33.1209C70.5511 32.6711 70.7385 32.0901 70.7385 31.378C70.7385 30.872 70.6447 30.4503 70.4573 30.113C70.27 29.7569 70.0076 29.4851 69.6702 29.2978C69.3329 29.1104 68.93 29.0166 68.4615 29.0166H65.3411V33.7955ZM78.3432 46.3612C78.0058 46.3612 77.6592 46.2956 77.303 46.1644C76.947 46.0333 76.6472 45.8552 76.4035 45.6303C76.1599 45.4054 76.038 45.143 76.038 44.8432C76.038 44.787 76.0474 44.6933 76.0662 44.5621L81.4916 26.8802C81.6228 26.4679 81.9133 26.1587 82.363 25.9525C82.8316 25.7464 83.3282 25.6433 83.8529 25.6433C84.3964 25.6433 84.893 25.7464 85.3428 25.9525C85.7926 26.1587 86.0831 26.4679 86.2143 26.8802L91.6397 44.5621C91.6772 44.6933 91.6959 44.787 91.6959 44.8432C91.6959 45.1243 91.5648 45.3867 91.3024 45.6303C91.0588 45.8552 90.7589 46.0333 90.4028 46.1644C90.0468 46.2956 89.7 46.3612 89.3627 46.3612C89.0629 46.3612 88.8005 46.3144 88.5756 46.2206C88.3695 46.1082 88.2289 45.9114 88.1539 45.6303L87.0857 41.8915H80.6202L79.58 45.6303C79.5051 45.9114 79.3552 46.1082 79.1303 46.2206C78.9054 46.3144 78.643 46.3612 78.3432 46.3612ZM81.4073 39.0242H86.2986L83.8529 30.3941L81.4073 39.0242ZM95.216 46.3612C94.8225 46.3612 94.457 46.2675 94.1197 46.0801C93.7824 45.8739 93.6137 45.5741 93.6137 45.1805V26.9645C93.6137 26.5523 93.8011 26.2618 94.1759 26.0931C94.5695 25.9057 94.9911 25.812 95.4409 25.812C95.9094 25.812 96.3311 25.9057 96.7059 26.0931C97.0807 26.2618 97.2681 26.5523 97.2681 26.9645V43.1565H104.155C104.53 43.1565 104.802 43.3252 104.971 43.6625C105.139 43.9811 105.224 44.3466 105.224 44.7589C105.224 45.1524 105.139 45.5179 104.971 45.8552C104.802 46.1925 104.53 46.3612 104.155 46.3612H95.216ZM108.805 46.3612C108.411 46.3612 108.046 46.2675 107.709 46.0801C107.371 45.8739 107.203 45.5741 107.203 45.1805V26.9645C107.203 26.5523 107.39 26.2618 107.765 26.0931C108.158 25.9057 108.58 25.812 109.03 25.812C109.498 25.812 109.92 25.9057 110.295 26.0931C110.67 26.2618 110.857 26.5523 110.857 26.9645V43.1565H117.744C118.119 43.1565 118.391 43.3252 118.559 43.6625C118.728 43.9811 118.812 44.3466 118.812 44.7589C118.812 45.1524 118.728 45.5179 118.559 45.8552C118.391 46.1925 118.119 46.3612 117.744 46.3612H108.805ZM126.788 46.5299C125.551 46.5299 124.436 46.3237 123.443 45.9114C122.45 45.4804 121.653 44.7964 121.054 43.8593C120.473 42.9035 120.182 41.6385 120.182 40.0643V32.2775C120.182 30.7033 120.473 29.4477 121.054 28.5106C121.653 27.5549 122.44 26.8708 123.415 26.4585C124.408 26.0275 125.533 25.812 126.788 25.812C128.025 25.812 129.14 26.0275 130.133 26.4585C131.145 26.8708 131.942 27.5549 132.523 28.5106C133.104 29.4477 133.394 30.7033 133.394 32.2775V40.0643C133.394 41.6385 133.104 42.9035 132.523 43.8593C131.942 44.7964 131.145 45.4804 130.133 45.9114C129.14 46.3237 128.025 46.5299 126.788 46.5299ZM126.788 43.3252C127.706 43.3252 128.428 43.0628 128.953 42.5381C129.477 42.0134 129.74 41.1888 129.74 40.0643V32.2775C129.74 31.1531 129.477 30.3285 128.953 29.8038C128.428 29.279 127.706 29.0166 126.788 29.0166C125.87 29.0166 125.148 29.279 124.624 29.8038C124.118 30.3285 123.865 31.1531 123.865 32.2775V40.0643C123.865 41.1888 124.118 42.0134 124.624 42.5381C125.148 43.0628 125.87 43.3252 126.788 43.3252ZM141.815 46.3612C141.347 46.3612 140.926 46.2675 140.55 46.0801C140.176 45.8739 139.988 45.5741 139.988 45.1805V29.101H135.856C135.5 29.101 135.219 28.9323 135.013 28.595C134.807 28.2576 134.703 27.8735 134.703 27.4424C134.703 27.0489 134.797 26.6834 134.984 26.3461C135.172 25.99 135.462 25.812 135.856 25.812H147.747C148.16 25.812 148.45 25.99 148.618 26.3461C148.806 26.6834 148.899 27.0489 148.899 27.4424C148.899 27.8735 148.797 28.2576 148.59 28.595C148.403 28.9323 148.122 29.101 147.747 29.101H143.643V45.1805C143.643 45.5741 143.446 45.8739 143.052 46.0801C142.678 46.2675 142.265 46.3612 141.815 46.3612ZM150.852 46.3612C150.702 46.3612 150.552 46.305 150.402 46.1925C150.252 46.0801 150.177 45.9395 150.177 45.7709V43.0441C150.177 42.257 150.411 41.5355 150.88 40.8795C151.348 40.2236 151.939 39.6051 152.651 39.0242C153.382 38.4245 154.159 37.8435 154.984 37.2813C155.808 36.7191 156.577 36.1288 157.289 35.5103C158.02 34.8919 158.62 34.2359 159.089 33.5425C159.557 32.8304 159.791 32.0433 159.791 31.1812C159.791 30.5253 159.641 29.8975 159.341 29.2978C159.041 28.6793 158.591 28.1733 157.992 27.7798C157.392 27.3675 156.633 27.1613 155.715 27.1613C154.665 27.1613 153.794 27.4611 153.101 28.0609C152.407 28.6418 152.061 29.5226 152.061 30.7033C152.061 30.8345 151.995 30.9657 151.864 31.0969C151.752 31.228 151.573 31.2936 151.33 31.2936C151.086 31.2936 150.917 31.228 150.824 31.0969C150.73 30.9469 150.683 30.6939 150.683 30.3379C150.683 29.4758 150.899 28.7074 151.33 28.0328C151.78 27.3394 152.388 26.7959 153.157 26.4023C153.925 26.0088 154.787 25.812 155.743 25.812C156.83 25.812 157.776 26.0556 158.582 26.5429C159.407 27.0301 160.044 27.6767 160.494 28.4825C160.962 29.2696 161.197 30.1505 161.197 31.125C161.197 32.1183 160.962 33.0178 160.494 33.8236C160.025 34.6295 159.426 35.3604 158.695 36.0163C157.983 36.6723 157.214 37.2907 156.389 37.8716C155.565 38.4339 154.787 38.9867 154.057 39.5302C153.344 40.0549 152.754 40.6078 152.286 41.1888C151.836 41.751 151.611 42.3694 151.611 43.0441V45.0119H160.86C161.009 45.0119 161.141 45.0775 161.253 45.2086C161.384 45.3398 161.45 45.4991 161.45 45.6865C161.45 45.8552 161.384 46.0145 161.253 46.1644C161.141 46.2956 161.009 46.3612 160.86 46.3612H150.852ZM169.708 46.5299C168.64 46.5299 167.675 46.3331 166.813 45.9395C165.969 45.546 165.295 44.9275 164.789 44.0842C164.301 43.2221 164.058 42.0789 164.058 40.6546V31.6872C164.058 30.2629 164.301 29.1291 164.789 28.2858C165.295 27.4237 165.969 26.7959 166.813 26.4023C167.675 26.0088 168.64 25.812 169.708 25.812C170.757 25.812 171.713 26.0088 172.575 26.4023C173.437 26.7959 174.122 27.4237 174.628 28.2858C175.134 29.1291 175.387 30.2629 175.387 31.6872V40.6546C175.387 42.0789 175.134 43.2221 174.628 44.0842C174.122 44.9275 173.437 45.546 172.575 45.9395C171.713 46.3331 170.757 46.5299 169.708 46.5299ZM169.708 45.1805C171.038 45.1805 172.078 44.8151 172.828 44.0842C173.596 43.3346 173.981 42.1914 173.981 40.6546V31.6872C173.981 30.1505 173.596 29.0166 172.828 28.2858C172.078 27.5361 171.038 27.1613 169.708 27.1613C168.377 27.1613 167.337 27.5361 166.588 28.2858C165.838 29.0166 165.463 30.1505 165.463 31.6872V40.6546C165.463 42.1914 165.838 43.3346 166.588 44.0842C167.337 44.8151 168.377 45.1805 169.708 45.1805ZM169.736 37.1408C169.474 37.1408 169.249 37.047 169.062 36.8596C168.874 36.6723 168.78 36.4474 168.78 36.185C168.78 35.9226 168.874 35.7071 169.062 35.5384C169.249 35.351 169.474 35.2573 169.736 35.2573C169.998 35.2573 170.214 35.351 170.383 35.5384C170.57 35.7071 170.664 35.9226 170.664 36.185C170.664 36.4474 170.57 36.6723 170.383 36.8596C170.214 37.047 169.998 37.1408 169.736 37.1408ZM178.826 46.3612C178.676 46.3612 178.525 46.305 178.376 46.1925C178.226 46.0801 178.151 45.9395 178.151 45.7709V43.0441C178.151 42.257 178.385 41.5355 178.854 40.8795C179.322 40.2236 179.912 39.6051 180.625 39.0242C181.356 38.4245 182.133 37.8435 182.958 37.2813C183.782 36.7191 184.551 36.1288 185.263 35.5103C185.994 34.8919 186.593 34.2359 187.062 33.5425C187.531 32.8304 187.765 32.0433 187.765 31.1812C187.765 30.5253 187.615 29.8975 187.315 29.2978C187.015 28.6793 186.565 28.1733 185.966 27.7798C185.366 27.3675 184.607 27.1613 183.689 27.1613C182.639 27.1613 181.768 27.4611 181.075 28.0609C180.381 28.6418 180.034 29.5226 180.034 30.7033C180.034 30.8345 179.969 30.9657 179.838 31.0969C179.725 31.228 179.547 31.2936 179.304 31.2936C179.06 31.2936 178.891 31.228 178.798 31.0969C178.704 30.9469 178.657 30.6939 178.657 30.3379C178.657 29.4758 178.872 28.7074 179.304 28.0328C179.753 27.3394 180.362 26.7959 181.131 26.4023C181.899 26.0088 182.761 25.812 183.717 25.812C184.804 25.812 185.75 26.0556 186.556 26.5429C187.38 27.0301 188.018 27.6767 188.468 28.4825C188.936 29.2696 189.171 30.1505 189.171 31.125C189.171 32.1183 188.936 33.0178 188.468 33.8236C187.999 34.6295 187.4 35.3604 186.669 36.0163C185.956 36.6723 185.188 37.2907 184.364 37.8716C183.539 38.4339 182.761 38.9867 182.03 39.5302C181.318 40.0549 180.728 40.6078 180.259 41.1888C179.81 41.751 179.585 42.3694 179.585 43.0441V45.0119H188.833C188.983 45.0119 189.114 45.0775 189.227 45.2086C189.358 45.3398 189.424 45.4991 189.424 45.6865C189.424 45.8552 189.358 46.0145 189.227 46.1644C189.114 46.2956 188.983 46.3612 188.833 46.3612H178.826ZM198.099 46.3612C197.911 46.3612 197.743 46.3144 197.593 46.2206C197.461 46.1082 197.396 45.9583 197.396 45.7709V41.4418H190.144C189.956 41.4418 189.806 41.3855 189.694 41.2731C189.6 41.1419 189.553 40.992 189.553 40.8233C189.553 40.7296 189.562 40.6546 189.581 40.5984C189.6 40.5235 189.628 40.4673 189.666 40.4298L196.806 26.2899C196.899 26.1025 197.003 25.9806 197.115 25.9244C197.246 25.8495 197.377 25.812 197.509 25.812C197.621 25.812 197.724 25.8401 197.818 25.8963C197.911 25.9338 197.996 25.9994 198.071 26.0931C198.146 26.168 198.183 26.2711 198.183 26.4023C198.183 26.496 198.155 26.6085 198.099 26.7396L191.352 40.0643H197.396V34.0204C197.396 33.8143 197.461 33.6737 197.593 33.5988C197.743 33.505 197.911 33.4582 198.099 33.4582C198.286 33.4582 198.445 33.505 198.577 33.5988C198.726 33.6737 198.802 33.8143 198.802 34.0204V40.0643H200.404C200.61 40.0643 200.76 40.1393 200.854 40.2892C200.966 40.4204 201.023 40.5797 201.023 40.7671C201.023 40.9358 200.966 41.095 200.854 41.245C200.742 41.3761 200.591 41.4418 200.404 41.4418H198.802V45.7709C198.802 45.9583 198.726 46.1082 198.577 46.2206C198.445 46.3144 198.286 46.3612 198.099 46.3612Z" fill="#FAF9F6"/>
        <path d="M125.61 39.903L122.917 37.2104L123.573 36.5655L125.61 38.6019L129.943 34.2688L130.599 34.9137L125.61 39.903Z" fill="#FAF9F6"/>
    </g>
    <path fill-rule="evenodd" clip-rule="evenodd" d="M23.6857 4.63612C23.9463 4.65095 24.2053 4.58819 24.4302 4.45577C24.655 4.32334 24.8355 4.12721 24.9489 3.89218C25.0622 3.65714 25.1033 3.39377 25.067 3.13537C25.0306 2.87697 24.9185 2.63516 24.7447 2.44052C24.5709 2.24588 24.3432 2.10716 24.0906 2.04191C23.838 1.97666 23.5716 1.9878 23.3253 2.07394C23.079 2.16008 22.8638 2.31733 22.7069 2.52581C22.5499 2.73429 22.4584 2.98463 22.4437 3.24517C22.4241 3.59429 22.5439 3.93691 22.7768 4.19773C23.0097 4.45855 23.3367 4.61623 23.6857 4.63612ZM35.1596 5.28922C34.9544 5.29106 34.7533 5.23201 34.5818 5.11953C34.3519 4.96887 34.1913 4.73315 34.1351 4.46414C34.079 4.19513 34.1319 3.91482 34.2822 3.68478C34.3945 3.51304 34.5551 3.37845 34.7439 3.29805C34.9326 3.21764 35.141 3.19504 35.3426 3.23309C35.5442 3.27114 35.73 3.36814 35.8765 3.51181C36.0229 3.65548 36.1235 3.83937 36.1654 4.04022C36.2074 4.24106 36.1888 4.44983 36.112 4.64011C36.0353 4.83038 35.9038 4.99362 35.7343 5.10917C35.5648 5.22471 35.3648 5.28737 35.1596 5.28922ZM12.844 5.22816C13.026 5.13468 13.1763 4.98944 13.2759 4.81073C13.3756 4.63201 13.4202 4.4278 13.404 4.22381C13.3879 4.01982 13.3118 3.82516 13.1852 3.66434C13.0587 3.50352 12.8874 3.38373 12.693 3.32004C12.4985 3.25635 12.2896 3.25162 12.0924 3.30643C11.8953 3.36125 11.7188 3.47316 11.5851 3.62808C11.4514 3.783 11.3665 3.97401 11.3412 4.17707C11.3158 4.38012 11.3511 4.58613 11.4425 4.76918C11.504 4.89171 11.5892 5.00085 11.693 5.09032C11.7969 5.17979 11.9174 5.24782 12.0477 5.29048C12.178 5.33315 12.3154 5.34961 12.452 5.33891C12.5887 5.32822 12.7219 5.29057 12.844 5.22816ZM13.8554 26.1552C13.2891 25.5193 12.9984 24.6845 13.0472 23.8344L13.0385 23.8362C13.0744 23.2111 13.2925 22.6103 13.666 22.1078C14.0394 21.6053 14.5518 21.2232 15.1399 21.0085C15.7281 20.7939 16.3661 20.7562 16.9754 20.9C17.5847 21.0439 18.1386 21.363 18.5686 21.8179C18.9987 22.2729 19.2861 22.8439 19.3954 23.4603C19.5047 24.0768 19.4312 24.7118 19.1838 25.2869C18.9364 25.862 18.526 26.3521 18.0034 26.6967C17.4807 27.0413 16.8685 27.2253 16.2425 27.2259H16.0673C15.2172 27.1763 14.4217 26.7912 13.8554 26.1552ZM0.509288 23.1635C0.685595 23.0595 0.888774 23.0101 1.09315 23.0215C1.2291 23.0289 1.36226 23.063 1.48497 23.122C1.60768 23.181 1.71753 23.2637 1.80819 23.3653C1.89886 23.4668 1.96857 23.5853 2.0133 23.7139C2.05804 23.8425 2.07693 23.9787 2.06888 24.1146C2.05713 24.319 1.98507 24.5153 1.8618 24.6787C1.73852 24.8421 1.56957 24.9653 1.3763 25.0328C1.18303 25.1002 0.974108 25.1088 0.77594 25.0575C0.577773 25.0062 0.399253 24.8974 0.262942 24.7446C0.126632 24.5919 0.0386484 24.4022 0.0101112 24.1995C-0.018426 23.9968 0.0137639 23.7902 0.102613 23.6058C0.191462 23.4214 0.332982 23.2675 0.509288 23.1635ZM16.7696 10.2592C16.6138 10.5348 16.3797 10.7581 16.097 10.9007C15.9092 10.9954 15.7046 11.0522 15.4948 11.0678C15.285 11.0835 15.0742 11.0576 14.8744 10.9917C14.6747 10.9258 14.4898 10.8212 14.3305 10.6838C14.1712 10.5465 14.0405 10.3791 13.9459 10.1912C13.8035 9.90838 13.7481 9.5897 13.7868 9.27544C13.8255 8.96118 13.9565 8.66545 14.1632 8.42563C14.3699 8.18581 14.6431 8.01267 14.9483 7.92809C15.2534 7.84352 15.5767 7.85131 15.8774 7.95048C16.1781 8.04966 16.4426 8.23575 16.6376 8.48526C16.8325 8.73476 16.9491 9.03646 16.9726 9.35221C16.9961 9.66797 16.9255 9.98361 16.7696 10.2592ZM5.15019 14.8019C5.36824 14.9453 5.62392 15.0208 5.88488 15.0189C6.14584 15.0169 6.40036 14.9376 6.61622 14.7909C6.83209 14.6443 6.9996 14.4369 7.09757 14.195C7.19554 13.9531 7.21955 13.6876 7.16658 13.432C7.11361 13.1765 6.98603 12.9424 6.79999 12.7594C6.61394 12.5764 6.3778 12.4527 6.12142 12.4039C5.86505 12.3551 5.59997 12.3835 5.35974 12.4854C5.1195 12.5874 4.91489 12.7583 4.77181 12.9765C4.58018 13.2689 4.51239 13.6253 4.58334 13.9675C4.65428 14.3098 4.85816 14.6099 5.15019 14.8019ZM6.19687 22.6574C6.46962 22.4967 6.78391 22.4204 7.10001 22.4382C7.5241 22.4626 7.92116 22.6544 8.20397 22.9713C8.48677 23.2883 8.63219 23.7046 8.60828 24.1287C8.59011 24.4448 8.47864 24.7484 8.28797 25.0012C8.09729 25.2539 7.83596 25.4445 7.53702 25.5487C7.23808 25.653 6.91494 25.6663 6.60845 25.5869C6.30196 25.5075 6.02588 25.3391 5.8151 25.1028C5.60432 24.8666 5.46831 24.5732 5.42426 24.2596C5.38021 23.9461 5.4301 23.6265 5.56762 23.3414C5.70514 23.0562 5.92411 22.8182 6.19687 22.6574ZM5.32536 33.2032C5.09256 33.3209 4.89987 33.5049 4.77165 33.7321C4.64342 33.9592 4.58542 34.2193 4.60497 34.4794C4.62453 34.7395 4.72076 34.988 4.8815 35.1934C5.04224 35.3989 5.26027 35.552 5.50805 35.6336C5.75582 35.7151 6.0222 35.7213 6.27351 35.6515C6.52483 35.5817 6.7498 35.4389 6.91998 35.2412C7.09017 35.0435 7.19793 34.7998 7.22964 34.5409C7.26135 34.282 7.21559 34.0195 7.09815 33.7866C7.02011 33.6318 6.91233 33.4939 6.78098 33.3809C6.64963 33.2678 6.49728 33.1817 6.33264 33.1275C6.168 33.0733 5.9943 33.0521 5.82146 33.0651C5.64863 33.0781 5.48005 33.125 5.32536 33.2032ZM12.5994 19.4372C12.2266 19.4405 11.8612 19.3332 11.5494 19.1289C11.3422 18.9934 11.1637 18.8183 11.0242 18.6136C10.8847 18.409 10.787 18.1789 10.7365 17.9364C10.6861 17.694 10.684 17.444 10.7303 17.2007C10.7766 16.9574 10.8704 16.7256 11.0064 16.5187C11.2108 16.2069 11.5031 15.9628 11.8462 15.8172C12.1894 15.6715 12.568 15.6309 12.9342 15.7005C13.3005 15.77 13.6379 15.9466 13.9038 16.2079C14.1696 16.4691 14.3521 16.8034 14.428 17.1684C14.5039 17.5334 14.47 17.9127 14.3303 18.2583C14.1907 18.604 13.9518 18.9005 13.6437 19.1103C13.3355 19.3201 12.9721 19.4339 12.5994 19.4372ZM31.2954 10.7744C31.5608 10.9476 31.8717 11.0382 32.1886 11.0347C32.5055 11.0312 32.8143 10.9339 33.0759 10.7549C33.3376 10.576 33.5403 10.3235 33.6584 10.0294C33.7766 9.73528 33.8049 9.41274 33.7397 9.10254C33.6746 8.79234 33.519 8.50841 33.2925 8.28664C33.0661 8.06488 32.779 7.91523 32.4675 7.85661C32.156 7.798 31.8341 7.83305 31.5426 7.95733C31.251 8.08162 31.0028 8.28956 30.8294 8.55487C30.7139 8.73111 30.6344 8.92839 30.5953 9.13543C30.5562 9.34247 30.5584 9.55518 30.6017 9.76138C30.645 9.96758 30.7285 10.1632 30.8476 10.337C30.9666 10.5109 31.1188 10.6595 31.2954 10.7744ZM31.5476 20.7828C31.1272 20.7586 30.7062 20.8175 30.3085 20.9561C29.9109 21.0946 29.5444 21.3102 29.2301 21.5904C28.5952 22.1563 28.2111 22.9512 28.1623 23.8003C28.1136 24.6494 28.4041 25.483 28.9699 26.1179C29.5358 26.7528 30.3307 27.1369 31.1798 27.1857H31.3655C31.984 27.1854 32.5892 27.0062 33.1081 26.6696C33.6271 26.3331 34.0376 25.8536 34.2902 25.289C34.5427 24.7244 34.6266 24.0988 34.5316 23.4876C34.4366 22.8764 34.1669 22.3057 33.7549 21.8444C33.4759 21.5297 33.137 21.2738 32.758 21.0916C32.3791 20.9093 31.9676 20.8043 31.5476 20.7828ZM18.3316 20.1966C17.8252 19.885 17.416 19.4381 17.1498 18.9065C16.9051 18.4178 16.7893 17.8748 16.8133 17.3288C16.8373 16.7829 17.0005 16.2521 17.2872 15.7869C17.5739 15.3217 17.9748 14.9375 18.4517 14.6706C18.9286 14.4038 19.4657 14.2633 20.0122 14.2624C20.6054 14.2595 21.1877 14.4219 21.6939 14.7313C22.2001 15.0407 22.6101 15.4849 22.8781 16.0142C23.1257 16.5033 23.2438 17.0476 23.2212 17.5953C23.1986 18.143 23.036 18.6758 22.7489 19.1428C22.4618 19.6098 22.0599 19.9954 21.5814 20.2628C21.1029 20.5303 20.5639 20.6707 20.0157 20.6705C19.4212 20.6724 18.8379 20.5083 18.3316 20.1966ZM42.2877 14.7984C42.5206 14.6809 42.7133 14.497 42.8417 14.27C42.9701 14.043 43.0282 13.783 43.0089 13.5229C42.9895 13.2628 42.8935 13.0142 42.7329 12.8087C42.5724 12.6032 42.3545 12.4498 42.1068 12.3681C41.8592 12.2864 41.5928 12.2799 41.3415 12.3495C41.0901 12.419 40.8651 12.5616 40.6947 12.7591C40.5243 12.9565 40.4163 13.2001 40.3843 13.4589C40.3523 13.7178 40.3978 13.9803 40.5149 14.2133C40.6726 14.5259 40.9478 14.763 41.2802 14.8727C41.6126 14.9824 41.975 14.9557 42.2877 14.7984ZM33.3655 16.5745C33.5491 16.2501 33.8249 15.9874 34.1578 15.8197C34.3789 15.7082 34.6197 15.6413 34.8666 15.6229C35.1136 15.6045 35.3617 15.635 35.5968 15.7126C35.8319 15.7902 36.0494 15.9134 36.2368 16.0752C36.4243 16.237 36.578 16.4341 36.6892 16.6554C36.8568 16.9883 36.922 17.3635 36.8765 17.7336C36.8309 18.1036 36.6767 18.4518 36.4333 18.7341C36.1898 19.0165 35.8681 19.2203 35.5088 19.3198C35.1496 19.4193 34.7689 19.4101 34.4149 19.2932C34.0608 19.1763 33.7494 18.9571 33.52 18.6633C33.2906 18.3694 33.1535 18.0141 33.1259 17.6423C33.0984 17.2705 33.1818 16.8989 33.3655 16.5745ZM24.7347 12.6797C24.4137 12.869 24.0438 12.9589 23.6717 12.9381C23.1723 12.9096 22.7046 12.684 22.3715 12.3108C22.0384 11.9376 21.8672 11.4474 21.8954 10.948C21.9167 10.5759 22.0479 10.2185 22.2724 9.92094C22.4968 9.62339 22.8044 9.39905 23.1563 9.27628C23.5082 9.15351 23.8885 9.13781 24.2493 9.23118C24.6102 9.32454 24.9352 9.52277 25.1834 9.80082C25.4315 10.0789 25.5917 10.4242 25.6437 10.7933C25.6956 11.1624 25.637 11.5386 25.4752 11.8743C25.3134 12.2101 25.0557 12.4903 24.7347 12.6797ZM13.4589 32.18C13.7918 32.0122 14.0674 31.7494 14.251 31.4248C14.4345 31.1003 14.5177 30.7286 14.49 30.3568C14.4623 29.985 14.3249 29.6298 14.0953 29.336C13.8657 29.0423 13.5542 28.8232 13.2 28.7066C12.8459 28.5899 12.4652 28.5809 12.1059 28.6807C11.7467 28.7804 11.4251 28.9845 11.1819 29.2671C10.9386 29.5496 10.7846 29.898 10.7393 30.268C10.6941 30.6381 10.7596 31.0133 10.9276 31.3462C11.1527 31.7924 11.5459 32.1309 12.0206 32.2872C12.4953 32.4436 13.0126 32.405 13.4589 32.18ZM24.3754 17.706C24.3175 16.995 24.4983 16.2851 24.8892 15.6885C25.1814 15.2431 25.5799 14.8774 26.0487 14.6245C26.5176 14.3716 27.042 14.2393 27.5746 14.2397C28.2879 14.2406 28.9805 14.4794 29.5428 14.9182C30.1051 15.3571 30.505 15.9709 30.6792 16.6626C30.8534 17.3543 30.7919 18.0843 30.5046 18.7372C30.2172 19.39 29.7203 19.9283 29.0926 20.267C28.4648 20.6057 27.7421 20.7253 27.0387 20.6069C26.3353 20.4886 25.6915 20.1391 25.2091 19.6136C24.7267 19.0882 24.4333 18.4169 24.3754 17.706ZM30.4633 29.0949C30.2065 28.5856 29.8184 28.154 29.3391 27.8447C28.8598 27.5354 28.3067 27.3596 27.7368 27.3355C27.1669 27.3113 26.6009 27.4396 26.0972 27.7072C25.5934 27.9748 25.1702 28.3719 24.8711 28.8577C24.5721 29.3434 24.408 29.9002 24.3959 30.4705C24.3839 31.0408 24.5241 31.604 24.8023 32.1019C25.0805 32.5999 25.4865 33.0147 25.9785 33.3034C26.4705 33.5921 27.0305 33.7443 27.6009 33.7443C28.1027 33.7408 28.5969 33.6209 29.0444 33.3939C29.8014 33.0107 30.3757 32.3432 30.6417 31.5375C30.9076 30.7317 30.8435 29.8535 30.4633 29.0949ZM35.0157 28.5617C35.3885 28.5587 35.7538 28.6663 36.0654 28.8709C36.4826 29.1458 36.7738 29.5749 36.8753 30.0642C36.9767 30.5534 36.8802 31.0629 36.6067 31.4811C36.4021 31.7927 36.1097 32.0367 35.7665 32.1822C35.4232 32.3277 35.0446 32.3681 34.6784 32.2983C34.3121 32.2286 33.9748 32.0518 33.7091 31.7903C33.4434 31.5288 33.2611 31.1944 33.1854 30.8294C33.1097 30.4644 33.1439 30.0851 33.2838 29.7395C33.4237 29.3939 33.6628 29.0976 33.9711 28.8879C34.2794 28.6783 34.6429 28.5648 35.0157 28.5617ZM42.2037 24.055C42.2215 23.7388 42.1452 23.4245 41.9845 23.1518C41.8237 22.879 41.5857 22.66 41.3006 22.5225C41.0154 22.385 40.6958 22.3351 40.3823 22.3791C40.0688 22.4232 39.7754 22.5592 39.5392 22.77C39.3029 22.9808 39.1345 23.2569 39.0551 23.5634C38.9757 23.8699 38.989 24.193 39.0933 24.492C39.1975 24.7909 39.3881 25.0523 39.6408 25.243C39.8935 25.4336 40.1971 25.5451 40.5132 25.5633C40.9373 25.5872 41.3536 25.4418 41.6706 25.1589C41.9875 24.8761 42.1793 24.4791 42.2037 24.055ZM46.0539 23.0561C46.2307 22.9521 46.4344 22.9029 46.6392 22.9147C46.9136 22.931 47.1704 23.0553 47.3532 23.2606C47.5361 23.4658 47.6302 23.7351 47.6149 24.0096C47.6031 24.2144 47.5309 24.4111 47.4073 24.5748C47.2838 24.7385 47.1145 24.8619 46.9208 24.9294C46.7271 24.9969 46.5177 25.0054 46.3192 24.9539C46.1206 24.9024 45.9418 24.7932 45.8054 24.6401C45.6689 24.487 45.5809 24.2968 45.5525 24.0936C45.5241 23.8905 45.5566 23.6835 45.6458 23.4988C45.7351 23.3141 45.8771 23.1601 46.0539 23.0561ZM42.4629 33.1979C42.2447 33.0549 41.9891 32.9799 41.7282 32.9823C41.4674 32.9847 41.2131 33.0643 40.9975 33.2112C40.782 33.358 40.6148 33.5655 40.5171 33.8074C40.4194 34.0493 40.3956 34.3147 40.4488 34.57C40.5019 34.8254 40.6296 35.0593 40.8156 35.2422C41.0016 35.425 41.2377 35.5486 41.494 35.5973C41.7502 35.646 42.0152 35.6176 42.2553 35.5157C42.4954 35.4139 42.7 35.2431 42.8431 35.025C42.9382 34.8801 43.0037 34.7179 43.0361 34.5476C43.0685 34.3773 43.0669 34.2023 43.0316 34.0327C42.9963 33.863 42.9279 33.7019 42.8304 33.5587C42.7328 33.4154 42.6079 33.2928 42.4629 33.1979ZM12.4557 42.7101C12.6608 42.7085 12.8617 42.7676 13.0332 42.8801C13.1471 42.9549 13.2452 43.0513 13.3218 43.164C13.3984 43.2766 13.4521 43.4033 13.4797 43.5367C13.5074 43.6701 13.5085 43.8076 13.483 43.9414C13.4574 44.0753 13.4058 44.2027 13.331 44.3166C13.2184 44.488 13.0575 44.6222 12.8687 44.7022C12.6798 44.7822 12.4715 44.8043 12.27 44.7659C12.0686 44.7275 11.883 44.6302 11.7369 44.4864C11.5907 44.3425 11.4904 44.1585 11.4488 43.9577C11.4072 43.7569 11.426 43.5482 11.503 43.3581C11.5799 43.168 11.7115 43.005 11.8811 42.8896C12.0506 42.7743 12.2506 42.7118 12.4557 42.7101ZM34.7691 42.7716C34.586 42.864 34.4343 43.0085 34.3333 43.1871C34.2323 43.3656 34.1865 43.5701 34.2017 43.7747C34.2169 43.9792 34.2925 44.1747 34.4188 44.3363C34.5451 44.4979 34.7165 44.6185 34.9113 44.6827C35.1061 44.7469 35.3156 44.7519 35.5133 44.697C35.7109 44.6422 35.8879 44.5299 36.0217 44.3745C36.1556 44.219 36.2403 44.0274 36.2653 43.8238C36.2902 43.6202 36.2542 43.4137 36.1618 43.2306C36.1006 43.1089 36.0161 43.0004 35.9129 42.9114C35.8098 42.8224 35.6901 42.7547 35.5607 42.7121C35.4314 42.6694 35.2948 42.6527 35.159 42.663C35.0232 42.6732 34.8907 42.7101 34.7691 42.7716ZM23.2378 30.2885C23.2958 30.9995 23.115 31.7095 22.724 32.3062C22.4332 32.7526 22.0353 33.119 21.5665 33.3721C21.0977 33.6251 20.573 33.7568 20.0403 33.755C19.3269 33.7544 18.6341 33.516 18.0716 33.0774C17.509 32.6388 17.1088 32.025 16.9343 31.3333C16.7598 30.6416 16.821 29.9115 17.1082 29.2585C17.3953 28.6055 17.8921 28.0669 18.5198 27.7281C19.1476 27.3892 19.8704 27.2694 20.5739 27.3876C21.2773 27.5058 21.9213 27.8553 22.4038 28.3807C22.8863 28.9061 23.1798 29.5775 23.2378 30.2885ZM16.3177 37.227C16.0528 37.0537 15.7424 36.9628 15.4258 36.9659C15.1092 36.9689 14.8006 37.0657 14.5391 37.2441C14.2775 37.4225 14.0747 37.6745 13.9563 37.9681C13.8379 38.2617 13.8091 38.5839 13.8738 38.8938C13.9384 39.2038 14.0935 39.4876 14.3194 39.7094C14.5453 39.9313 14.8319 40.0811 15.1429 40.1401C15.454 40.1991 15.7756 40.1645 16.067 40.0408C16.3584 39.917 16.6066 39.7096 16.7802 39.4449C17.0127 39.0894 17.0946 38.6561 17.0079 38.2402C16.9212 37.8244 16.6729 37.46 16.3177 37.227ZM23.0484 43.5442C23.2732 43.4118 23.5322 43.3491 23.7926 43.3639C23.9656 43.3737 24.135 43.4176 24.291 43.4929C24.4471 43.5682 24.5868 43.6736 24.7021 43.8029C24.8175 43.9322 24.9062 44.083 24.9633 44.2467C25.0203 44.4103 25.0445 44.5836 25.0346 44.7566C25.0196 45.017 24.9278 45.2672 24.7707 45.4754C24.6135 45.6836 24.3982 45.8406 24.1519 45.9265C23.9056 46.0124 23.6393 46.0233 23.3868 45.9578C23.1343 45.8924 22.9069 45.7536 22.7332 45.5589C22.5596 45.3642 22.4476 45.1224 22.4114 44.8641C22.3752 44.6057 22.4163 44.3424 22.5297 44.1075C22.6431 43.8726 22.8236 43.6765 23.0484 43.5442ZM23.8065 35.0637C23.4341 35.041 23.0633 35.1295 22.7411 35.3177C22.419 35.506 22.16 35.7856 21.9969 36.1212C21.8338 36.4568 21.7739 36.8332 21.8249 37.2029C21.876 37.5725 22.0355 37.9187 22.2834 38.1975C22.5313 38.4764 22.8564 38.6754 23.2175 38.7694C23.5786 38.8633 23.9595 38.848 24.3118 38.7253C24.6642 38.6027 24.9723 38.3782 25.197 38.0803C25.4216 37.7824 25.5529 37.4245 25.574 37.052C25.6027 36.5541 25.4328 36.0651 25.1014 35.6923C24.77 35.3195 24.3043 35.0935 23.8065 35.0637ZM30.844 37.7433C30.9993 37.4667 31.2332 37.2425 31.5161 37.099C31.7034 37.0034 31.9078 36.9457 32.1174 36.9292C32.3271 36.9127 32.5379 36.9377 32.7379 37.0028C32.9379 37.0679 33.123 37.1718 33.2828 37.3085C33.4426 37.4453 33.5738 37.6122 33.669 37.7997C33.8132 38.0822 33.8703 38.4012 33.8332 38.7162C33.796 39.0312 33.6663 39.3281 33.4603 39.5693C33.2543 39.8105 32.9814 39.9852 32.6761 40.0713C32.3708 40.1573 32.0469 40.1508 31.7453 40.0527C31.4437 39.9545 31.178 39.769 30.9818 39.5198C30.7856 39.2705 30.6678 38.9687 30.6433 38.6524C30.6188 38.3362 30.6886 38.0198 30.844 37.7433Z" fill="#FAF9F6"/>
    <defs>
        <clipPath id="clip0_289_183">
            <rect width="141.833" height="46" fill="white" transform="translate(60 1)"/>
        </clipPath>
    </defs>
</svg>
