<svg width="52" height="52" viewBox="0 0 52 52" fill="none" xmlns="http://www.w3.org/2000/svg">
<rect x="0.5" y="0.5" width="51" height="51" rx="11.5" stroke="#FAF9F6"/>
<g clip-path="url(#clip0_2474_5100)">
<path d="M30.1667 34.3337C29.4723 34.3337 28.882 34.0906 28.3959 33.6045C27.9098 33.1184 27.6667 32.5281 27.6667 31.8337C27.6667 31.7503 27.6876 31.5559 27.7292 31.2503L21.8751 27.8337C21.6529 28.042 21.3959 28.2052 21.1042 28.3232C20.8126 28.4413 20.5001 28.5003 20.1667 28.5003C19.4723 28.5003 18.882 28.2573 18.3959 27.7712C17.9098 27.285 17.6667 26.6948 17.6667 26.0003C17.6667 25.3059 17.9098 24.7156 18.3959 24.2295C18.882 23.7434 19.4723 23.5003 20.1667 23.5003C20.5001 23.5003 20.8126 23.5594 21.1042 23.6774C21.3959 23.7955 21.6529 23.9587 21.8751 24.167L27.7292 20.7503C27.7015 20.6531 27.6841 20.5594 27.6772 20.4691C27.6702 20.3788 27.6667 20.2781 27.6667 20.167C27.6667 19.4725 27.9098 18.8823 28.3959 18.3962C28.882 17.91 29.4723 17.667 30.1667 17.667C30.8612 17.667 31.4515 17.91 31.9376 18.3962C32.4237 18.8823 32.6667 19.4725 32.6667 20.167C32.6667 20.8614 32.4237 21.4517 31.9376 21.9378C31.4515 22.4239 30.8612 22.667 30.1667 22.667C29.8334 22.667 29.5209 22.608 29.2292 22.4899C28.9376 22.3719 28.6806 22.2087 28.4584 22.0003L22.6042 25.417C22.632 25.5142 22.6494 25.608 22.6563 25.6982C22.6633 25.7885 22.6667 25.8892 22.6667 26.0003C22.6667 26.1114 22.6633 26.2121 22.6563 26.3024C22.6494 26.3927 22.632 26.4864 22.6042 26.5837L28.4584 30.0003C28.6806 29.792 28.9376 29.6288 29.2292 29.5107C29.5209 29.3927 29.8334 29.3337 30.1667 29.3337C30.8612 29.3337 31.4515 29.5767 31.9376 30.0628C32.4237 30.5489 32.6667 31.1392 32.6667 31.8337C32.6667 32.5281 32.4237 33.1184 31.9376 33.6045C31.4515 34.0906 30.8612 34.3337 30.1667 34.3337ZM30.1667 32.667C30.4029 32.667 30.6008 32.5871 30.7605 32.4274C30.9202 32.2677 31.0001 32.0698 31.0001 31.8337C31.0001 31.5975 30.9202 31.3996 30.7605 31.2399C30.6008 31.0802 30.4029 31.0003 30.1667 31.0003C29.9306 31.0003 29.7327 31.0802 29.573 31.2399C29.4133 31.3996 29.3334 31.5975 29.3334 31.8337C29.3334 32.0698 29.4133 32.2677 29.573 32.4274C29.7327 32.5871 29.9306 32.667 30.1667 32.667ZM20.1667 26.8337C20.4029 26.8337 20.6008 26.7538 20.7605 26.5941C20.9202 26.4344 21.0001 26.2364 21.0001 26.0003C21.0001 25.7642 20.9202 25.5663 20.7605 25.4066C20.6008 25.2469 20.4029 25.167 20.1667 25.167C19.9306 25.167 19.7327 25.2469 19.573 25.4066C19.4133 25.5663 19.3334 25.7642 19.3334 26.0003C19.3334 26.2364 19.4133 26.4344 19.573 26.5941C19.7327 26.7538 19.9306 26.8337 20.1667 26.8337ZM30.1667 21.0003C30.4029 21.0003 30.6008 20.9205 30.7605 20.7607C30.9202 20.601 31.0001 20.4031 31.0001 20.167C31.0001 19.9309 30.9202 19.733 30.7605 19.5732C30.6008 19.4135 30.4029 19.3337 30.1667 19.3337C29.9306 19.3337 29.7327 19.4135 29.573 19.5732C29.4133 19.733 29.3334 19.9309 29.3334 20.167C29.3334 20.4031 29.4133 20.601 29.573 20.7607C29.7327 20.9205 29.9306 21.0003 30.1667 21.0003Z" fill="#FAF9F6"/>
</g>
<defs>
<clipPath id="clip0_2474_5100">
<rect width="20" height="20" fill="white" transform="translate(16 16)"/>
</clipPath>
</defs>
</svg>
