<svg width="40" height="40" viewBox="0 0 40 40" fill="none" xmlns="http://www.w3.org/2000/svg">
    <g clip-path="url(#clip0_2402_3372)">
        <path d="M12.4324 18.7401C12.3174 19.0317 12.2191 19.3278 12.1364 19.6308C11.6827 21.2848 11.6991 23.0341 12.1838 24.6791C12.2665 24.9585 12.3649 25.2404 12.4776 25.5145C13.2367 27.373 14.5804 28.9281 16.3017 29.94C16.7056 30.1789 17.1275 30.3854 17.5635 30.5575C20.921 31.8853 24.7451 31.1175 27.3297 28.5964C28.1244 27.8218 28.7705 26.9058 29.2356 25.8944C27.8585 27.3423 26.08 28.3365 24.1332 28.7467C24.0505 28.7875 23.9652 28.8253 23.8803 28.8626C21.2296 30.0125 18.1524 29.5135 16.001 27.5845C15.8808 27.4773 15.7638 27.3649 15.6497 27.2489L15.5988 27.1945C14.5642 26.122 13.8802 24.7553 13.6389 23.2785C13.6171 23.1458 13.5993 23.0132 13.5836 22.8797C13.5551 22.614 13.5405 22.3471 13.5396 22.0799C13.534 20.6261 13.9583 19.203 14.7605 17.9904C14.9616 17.6842 15.1871 17.3926 15.4321 17.1207C16.1172 16.3587 16.9509 15.7479 17.881 15.3264C18.8111 14.905 19.8175 14.6821 20.837 14.6717H21.0129C22.6271 14.6839 24.1931 15.2282 25.4724 16.2217C25.4283 16.0578 25.378 15.8956 25.3218 15.7355C25.2766 15.6081 25.2291 15.486 25.1773 15.363C24.884 14.6612 24.4719 14.0162 23.9595 13.4568L23.9299 13.4344C23.4999 13.2851 23.0594 13.1691 22.6107 13.0874C21.451 12.8744 20.2617 12.8852 19.106 13.1195C18.3088 13.28 17.5365 13.548 16.8101 13.9162C16.3109 14.1694 15.8356 14.4682 15.3903 14.8087L15.3503 14.8386C15.0687 15.0582 14.8001 15.2936 14.5451 15.5431C13.9758 16.0991 13.4816 16.7283 13.0752 17.4146C12.8435 17.8067 12.6422 18.2164 12.4733 18.64L12.4689 18.7401H12.431H12.4324ZM17.9491 11.805C17.399 11.805 16.8484 11.8546 16.307 11.9543C16.2368 11.965 16.1671 11.9786 16.098 11.9951C15.8456 12.047 15.5901 12.1111 15.3381 12.1871C15.0481 12.2721 14.7627 12.3721 14.4828 12.4866C12.6277 13.2317 11.0716 14.5793 10.0602 16.3165C9.92959 16.5381 9.80904 16.7655 9.69898 16.9982C9.60932 17.1849 9.52532 17.3737 9.45002 17.5639C7.67246 22.028 9.65676 27.1053 13.9914 29.181L14.1185 29.2416C12.672 27.8712 11.675 26.0874 11.2611 24.1292C11.2168 24.0462 11.1766 23.961 11.1405 23.874C11.0735 23.7203 11.0134 23.5635 10.9573 23.4032C10.6333 22.4874 10.4935 21.5156 10.546 20.5447C10.5986 19.5737 10.8424 18.6231 11.2633 17.7484C11.6474 16.9437 12.173 16.216 12.8145 15.6006C13.0656 15.3579 13.3345 15.1346 13.6188 14.9326C14.0537 14.6217 14.5206 14.359 15.0112 14.149C16.1652 13.2705 17.5 12.665 18.9171 12.3772C19.4429 12.2674 19.9774 12.2016 20.5145 12.1796L20.3939 12.1445C19.5987 11.9202 18.777 11.8059 17.9513 11.805H17.9491ZM19.5013 27.8318L19.6218 27.8652C20.9511 28.2319 22.3456 28.2947 23.7032 28.0505L23.741 28.0439C24.058 27.9866 24.3716 27.9114 24.6803 27.8186C24.9419 27.7413 25.2017 27.6517 25.4637 27.548L25.553 27.6684L25.4986 27.5335C26.6022 27.0896 27.6084 26.4309 28.46 25.5949C29.0295 25.0375 29.5243 24.4073 29.9316 23.7203C30.1666 23.3215 30.3712 22.9051 30.5427 22.4752C31.203 20.829 31.3705 19.0237 31.0244 17.2825C30.6782 15.5413 29.8337 13.9408 28.5954 12.679C27.8207 11.8849 26.9085 11.2408 25.9038 10.7785C27.0291 11.8515 27.8855 13.1791 28.4021 14.6519C28.5457 15.0604 28.6637 15.4781 28.7547 15.9024C28.7864 15.963 28.8295 16.057 28.8704 16.1496C29.1044 16.6972 29.2714 17.2715 29.3675 17.8599C29.4328 18.2609 29.4659 18.665 29.4659 19.0717C29.4675 20.0581 29.2719 21.0346 28.8907 21.9429C28.5095 22.8512 27.9506 23.6725 27.2474 24.3576L27.1952 24.4072C26.5542 25.0253 25.8074 25.5208 24.9911 25.8698C24.1882 26.4727 23.2983 26.9474 22.3526 27.2775C21.9417 27.4224 21.5208 27.5406 21.0943 27.6311C20.5701 27.7405 20.0381 27.8078 19.5034 27.8322H19.5008L19.5013 27.8318ZM16.0562 26.566C16.4884 26.7184 16.9311 26.8365 17.3825 26.9195C18.5481 27.1405 19.7453 27.1291 20.9067 26.8862C21.6956 26.7216 22.4603 26.4552 23.1817 26.0934C24.9811 25.1923 26.431 23.7111 27.3018 21.8844C27.3871 21.703 27.4655 21.5265 27.5386 21.3451L27.5486 21.3165C28.1865 19.7303 28.3608 17.993 28.0509 16.3099V16.3056C28.0405 16.24 28.0281 16.1748 28.0134 16.1101C27.961 15.8513 27.8965 15.5951 27.8202 15.3424C27.7365 15.0588 27.6387 14.7797 27.5273 14.5061C26.7802 12.6439 25.4403 11.0854 23.7188 10.0762C23.3211 9.84168 22.9068 9.63704 22.4792 9.46395C18.0075 7.66231 12.9046 9.64315 10.8232 13.99C10.8039 14.0296 10.7856 14.0698 10.7684 14.1104C11.848 12.9797 13.1767 12.122 14.6465 11.6069C15.0528 11.4645 15.4675 11.3477 15.8882 11.2573C15.9557 11.2208 16.0562 11.1738 16.1581 11.1321C16.3026 11.0715 16.4519 11.0117 16.6034 10.9586C17.0162 10.8138 17.4405 10.7048 17.8717 10.6327C19.7075 10.3351 21.5874 10.7386 23.1443 11.7645C23.4481 11.9635 23.7375 12.1844 24.0083 12.4278C24.1432 12.5477 24.2738 12.6724 24.4004 12.8028C25.0162 13.4427 25.5116 14.1903 25.8624 15.009C25.9277 15.1636 25.9895 15.3182 26.0435 15.479C26.1884 15.8874 26.2964 16.3082 26.3673 16.7369C26.6174 18.2328 26.3972 19.7702 25.7375 21.1334C25.4335 21.7686 25.0418 22.3571 24.5741 22.8814C23.8857 23.6442 23.0493 24.2561 22.1169 24.6792C21.1844 25.1023 20.1758 25.3275 19.1535 25.341C18.7879 25.3467 18.4223 25.3234 18.061 25.2729C17.2993 25.1673 16.5583 24.9436 15.8643 24.6097C15.3931 24.3844 14.9464 24.1102 14.5316 23.7915C14.8083 24.8269 15.3318 25.7783 16.0562 26.5629H16.0576L16.0562 26.566ZM14.3261 22.5889C14.8672 23.1397 15.4995 23.5907 16.1947 23.9215C16.3492 23.9953 16.5072 24.0638 16.6665 24.1257C15.5523 22.9423 14.8613 21.4175 14.7031 19.7929C14.3792 20.687 14.2509 21.6413 14.327 22.5902V22.588L14.3261 22.5889ZM23.3345 15.8778C24.4428 17.0609 25.1342 18.5794 25.3018 20.1987C25.6257 19.3124 25.7554 18.3672 25.6822 17.4269V17.4233C25.0176 16.7456 24.2176 16.2184 23.3354 15.8769L23.3345 15.8778Z" fill="url(#paint0_radial_2402_3372)"/>
    </g>
    <defs>
        <radialGradient id="paint0_radial_2402_3372" cx="0" cy="0" r="1" gradientUnits="userSpaceOnUse" gradientTransform="translate(19.9996 20.0006) scale(11.2003 11.1984)">
            <stop stop-color="#FDC300"/>
            <stop offset="0.09" stop-color="#FDC109"/>
            <stop offset="0.25" stop-color="#FDBC21"/>
            <stop offset="0.44" stop-color="#FEB348"/>
            <stop offset="0.66" stop-color="#FEA77E"/>
            <stop offset="0.91" stop-color="#FF98C3"/>
            <stop offset="1" stop-color="#FF92DE"/>
        </radialGradient>
        <clipPath id="clip0_2402_3372">
            <rect width="22.4" height="22.4" fill="white" transform="translate(8.80009 8.7998)"/>
        </clipPath>
    </defs>
</svg>
