<svg xmlns="http://www.w3.org/2000/svg" width="350" height="80" viewBox="0 0 1293.189 252.655">
                <g id="cs22logo_alt_star_color" transform="translate(15938.766 -4598.198)">
                    <g id="Group_205" data-name="Group 205" transform="translate(-15607.594 4607.271)">
                        <path id="Path_2417" data-name="Path 2417" d="M47.222,25.314a23.624,23.624,0,0,0,10.015-1.843A14.9,14.9,0,0,0,63.327,18.5a18.892,18.892,0,0,0,2.965-7.211,43.625,43.625,0,0,0,.8-8.413V0H88.245V2.88q0,20.03-10.5,30.847T47.222,44.543q-19.229,0-30.446-11.7T5.559-1.286v-25A60.36,60.36,0,0,1,8.443-45.594a39.124,39.124,0,0,1,8.333-14.422,36.453,36.453,0,0,1,13.14-8.974,45.622,45.622,0,0,1,17.306-3.125A50,50,0,0,1,64.849-69.23a34.1,34.1,0,0,1,12.9,8.333A35.36,35.36,0,0,1,85.6-47.757a53.038,53.038,0,0,1,2.644,17.306v2.884H67.093v-2.884a34.225,34.225,0,0,0-.961-8.012,20.984,20.984,0,0,0-3.2-7.211,16.653,16.653,0,0,0-6.089-5.208,20.677,20.677,0,0,0-9.615-2,19.53,19.53,0,0,0-9.134,2,18.583,18.583,0,0,0-6.41,5.448,23.119,23.119,0,0,0-3.766,8.012,37.313,37.313,0,0,0-1.2,9.535V.316a41.964,41.964,0,0,0,1.122,10.015,22.883,22.883,0,0,0,3.525,7.932,15.943,15.943,0,0,0,6.33,5.208A22.32,22.32,0,0,0,47.222,25.314ZM164.04,18.263H125.9L120.454,42.3H98.34L125.1-69.871h39.74L191.6,42.3H169.488ZM130.389-1.927h29l-12.98-57.367h-2.884ZM281.018,42.3H259.866V8.649a9.437,9.437,0,0,0-2-6.25q-2-2.4-6.65-2.4H226.856V42.3H205.7V-69.871h42.945a44.208,44.208,0,0,1,15.223,2.4,30.837,30.837,0,0,1,10.977,6.65,28.927,28.927,0,0,1,6.73,9.855A31.086,31.086,0,0,1,283.9-38.944V-35.1a24.243,24.243,0,0,1-3.686,12.9,23.341,23.341,0,0,1-11.377,9.214V-10.1a13.478,13.478,0,0,1,8.894,4.327,13.449,13.449,0,0,1,3.285,9.294ZM226.856-20.2h20.191q7.692,0,11.7-3.605t4.006-10.175V-35.9a13.378,13.378,0,0,0-4.006-9.695q-4.006-4.086-11.7-4.086H226.856Zm72.59-49.676h40.7q20.832,0,30.927,9.695t10.1,30.046V2.56q0,20.351-10.1,30.046T340.148,42.3h-40.7V21.949h10.576V-49.68H299.446Zm40.7,91.98q11.057,0,15.464-5.208T360.018.637V-30.13q0-9.615-4.407-14.582T340.148-49.68h-8.974V22.109Zm118.1-3.846H420.109L414.661,42.3H392.548L419.308-69.871h39.74L485.809,42.3H463.7ZM424.6-1.927h29l-12.98-57.367h-2.884ZM552.471,31.724h2.884V-69.871h21.152V42.3H535.164L522.025-59.294H519.14V42.3H497.988V-69.871h41.343Zm41.5-58.008q0-21.793,10.977-33.811t30.366-12.018q19.39,0,30.366,12.018T676.66-26.284v25q0,22.434-10.977,34.132t-30.366,11.7q-19.389,0-30.366-11.7T593.974-1.286Zm41.343,51.6a22.2,22.2,0,0,0,9.615-1.843,16.071,16.071,0,0,0,6.249-5.208,20.881,20.881,0,0,0,3.365-8.012A50.709,50.709,0,0,0,655.508,0V-27.566a42.246,42.246,0,0,0-1.122-9.935,22.852,22.852,0,0,0-3.525-8.012,17.446,17.446,0,0,0-6.25-5.368,19.905,19.905,0,0,0-9.294-2,19.905,19.905,0,0,0-9.294,2,17.444,17.444,0,0,0-6.249,5.368,22.853,22.853,0,0,0-3.525,8.012,42.246,42.246,0,0,0-1.122,9.935V0a50.714,50.714,0,0,0,.961,10.256,20.882,20.882,0,0,0,3.365,8.012,16.072,16.072,0,0,0,6.25,5.208A22.2,22.2,0,0,0,635.317,25.314ZM66.131,91.347a15.654,15.654,0,0,0-5.208-11.7q-5.208-4.968-14.662-4.968-8.012,0-12.659,3.285a10.341,10.341,0,0,0-4.647,8.894,11.825,11.825,0,0,0,1.122,5.208A10.687,10.687,0,0,0,34,96.235a29.951,29.951,0,0,0,7.371,3.285,97.58,97.58,0,0,0,11.618,2.724q17.627,3.2,26.921,10.736t9.294,22.274v1.923a34.645,34.645,0,0,1-2.8,14.182,29.888,29.888,0,0,1-8.092,10.816,36.878,36.878,0,0,1-12.82,6.89,55.757,55.757,0,0,1-16.986,2.4,55.761,55.761,0,0,1-19.47-3.125,38.977,38.977,0,0,1-14.021-8.653,36.517,36.517,0,0,1-8.493-12.98,44.683,44.683,0,0,1-2.884-16.265V125.64H24.788v3.846q0,10.1,5.849,16.1T48.825,151.6q9.615,0,14.262-4.166a12.91,12.91,0,0,0,4.647-9.935,14.3,14.3,0,0,0-.961-5.208,11.066,11.066,0,0,0-3.365-4.487,23.378,23.378,0,0,0-6.57-3.605,57.791,57.791,0,0,0-10.576-2.724,106.924,106.924,0,0,1-15.544-3.766,43.255,43.255,0,0,1-12.259-6.169,26.559,26.559,0,0,1-8.092-9.615,31.3,31.3,0,0,1-2.884-14.1v-.961a29.08,29.08,0,0,1,2.8-12.739,30.859,30.859,0,0,1,7.852-10.175,36.279,36.279,0,0,1,12.179-6.73,49.722,49.722,0,0,1,15.944-2.4,51.287,51.287,0,0,1,17.627,2.8,37.869,37.869,0,0,1,12.9,7.612,31.794,31.794,0,0,1,7.852,11.057,33.381,33.381,0,0,1,2.644,13.14v5.769H66.131ZM185.352,57.055v73.392q0,19.229-10.175,30.126t-30.206,10.9q-20.03,0-30.206-10.9T104.59,130.447V57.055h21.152v73.392q0,9.935,4.647,15.544t14.582,5.609q9.935,0,14.582-5.609t4.647-15.544V57.055Zm12.179,0h37.177l6.41,84.288v16.345h3.846V141.343l6.41-84.288h37.177V169.226H269.32V94.232l1.923-25.639H267.4l-8.333,100.633H227.336L218.683,68.593h-3.846l1.923,25.639v74.994H197.531Zm98.069,0h37.177l6.41,84.288v16.345h3.846V141.343l6.41-84.288h37.177V169.226H367.389V94.232l1.923-25.639h-3.846l-8.333,100.633H325.405L316.752,68.593h-3.846l1.923,25.639v74.994H295.6Zm106.081,0h74.994V77.246H449.755v71.789h26.921v20.191H401.681V149.035H428.6V77.246H401.681Zm95.185,0h80.763V77.246H547.824v91.98H526.672V77.246H496.866Z" transform="translate(-3.636 72.114)" fill="#438f68" />
                        <path id="Path_2418" data-name="Path 2418" d="M83.381,29.8V42.3H7.425V23.071A32.325,32.325,0,0,1,9.989,9.69,27.956,27.956,0,0,1,17.28-.084a40.7,40.7,0,0,1,11.457-6.81,98.844,98.844,0,0,1,15.223-4.647q14.262-3.2,20.591-9.134a19.2,19.2,0,0,0,6.33-14.582v-.961a25.793,25.793,0,0,0-1.442-8.493,21.729,21.729,0,0,0-4.487-7.531,21.716,21.716,0,0,0-7.772-5.368,28.864,28.864,0,0,0-11.3-2q-12.339,0-19.149,7.531t-6.81,20.03V-25H6.464v-8.012A42.8,42.8,0,0,1,9.028-47.757a37.256,37.256,0,0,1,7.531-12.5A35.686,35.686,0,0,1,28.9-68.909a42.26,42.26,0,0,1,16.986-3.2A44.5,44.5,0,0,1,62.87-69.149,35.563,35.563,0,0,1,74.888-61.3a31.454,31.454,0,0,1,7.131,11.057,35.425,35.425,0,0,1,2.324,12.579v2.884A31.861,31.861,0,0,1,76.33-12.9Q68.318-3.85,50.691,0,35.308,3.361,28.1,8.889t-7.211,16.1V29.8Zm20.511-56.085q0-21.793,10.416-33.811t29-12.018q18.588,0,29,12.018t10.416,33.811v25q0,22.434-10.416,34.132t-29,11.7q-18.588,0-29-11.7T103.892-1.286Zm39.42,58.649q12.98,0,19.47-9.054t6.49-25.559V-25.323a57.132,57.132,0,0,0-1.6-14.021,31.838,31.838,0,0,0-4.887-10.9,23.27,23.27,0,0,0-8.172-7.131,23.968,23.968,0,0,0-11.3-2.564,23.848,23.848,0,0,0-11.377,2.564,23.493,23.493,0,0,0-8.092,7.131,31.838,31.838,0,0,0-4.887,10.9,57.132,57.132,0,0,0-1.6,14.021V-2.248q0,16.505,6.49,25.559T143.312,32.365Zm-10.256-46.15A9.856,9.856,0,0,1,136.1-21a9.856,9.856,0,0,1,7.211-3.045A9.856,9.856,0,0,1,150.523-21a9.856,9.856,0,0,1,3.045,7.211,9.856,9.856,0,0,1-3.045,7.211,9.856,9.856,0,0,1-7.211,3.045A9.856,9.856,0,0,1,136.1-6.574,9.856,9.856,0,0,1,133.057-13.785ZM279.519,29.8V42.3H203.564V23.071a32.325,32.325,0,0,1,2.564-13.38,27.955,27.955,0,0,1,7.291-9.775,40.7,40.7,0,0,1,11.457-6.81A98.844,98.844,0,0,1,240.1-11.542q14.262-3.2,20.591-9.134a19.2,19.2,0,0,0,6.33-14.582v-.961a25.793,25.793,0,0,0-1.442-8.493,21.729,21.729,0,0,0-4.487-7.531,21.716,21.716,0,0,0-7.772-5.368,28.864,28.864,0,0,0-11.3-2q-12.339,0-19.149,7.531t-6.81,20.03V-25H202.6v-8.012a42.8,42.8,0,0,1,2.564-14.742,37.256,37.256,0,0,1,7.531-12.5,35.686,35.686,0,0,1,12.339-8.653,42.26,42.26,0,0,1,16.986-3.2,44.5,44.5,0,0,1,16.986,2.965A35.563,35.563,0,0,1,271.026-61.3a31.454,31.454,0,0,1,7.131,11.057,35.425,35.425,0,0,1,2.324,12.579v2.884A31.861,31.861,0,0,1,272.469-12.9Q264.456-3.85,246.83,0q-15.383,3.365-22.594,8.894t-7.211,16.1V29.8Zm98.069,0V42.3H301.633V23.071A32.325,32.325,0,0,1,304.2,9.69a27.956,27.956,0,0,1,7.291-9.775,40.7,40.7,0,0,1,11.457-6.81,98.843,98.843,0,0,1,15.223-4.647q14.262-3.2,20.591-9.134a19.2,19.2,0,0,0,6.33-14.582v-.961a25.793,25.793,0,0,0-1.442-8.493,21.73,21.73,0,0,0-4.487-7.531,21.716,21.716,0,0,0-7.772-5.368,28.864,28.864,0,0,0-11.3-2q-12.339,0-19.149,7.531t-6.81,20.03V-25h-13.46v-8.012a42.8,42.8,0,0,1,2.564-14.742,37.255,37.255,0,0,1,7.531-12.5,35.686,35.686,0,0,1,12.339-8.653,42.26,42.26,0,0,1,16.986-3.2,44.5,44.5,0,0,1,16.986,2.965A35.562,35.562,0,0,1,369.1-61.3a31.454,31.454,0,0,1,7.131,11.057,35.425,35.425,0,0,1,2.324,12.579v2.884A31.861,31.861,0,0,1,370.538-12.9Q362.526-3.85,344.9,0,329.515,3.361,322.3,8.889t-7.211,16.1V29.8Z" transform="translate(583.468 199.04)" fill="#154666" />
                    </g>
                    <g id="Group_206" data-name="Group 206" transform="translate(-15938.766 4598.198)">
                        <path id="Path_966" data-name="Path 966" d="M6.264,169.488a5.931,5.931,0,1,0,5.585,6.259A5.925,5.925,0,0,0,6.264,169.488Z" transform="translate(0 -49.257)" fill="#154666" />
                        <path id="Path_967" data-name="Path 967" d="M105.232,169.008a18.377,18.377,0,0,0,17.274,19.36c.356.018.709.031,1.056.031a18.347,18.347,0,1,0-18.33-19.391Z" transform="translate(-30.576 -44.091)" fill="#154666" />
                        <path id="Path_968" data-name="Path 968" d="M6.264,169.488a5.931,5.931,0,1,0,5.585,6.259A5.925,5.925,0,0,0,6.264,169.488Z" transform="translate(0 -49.257)" fill="#154666" />
                        <path id="Path_969" data-name="Path 969" d="M100.078,21.441a5.931,5.931,0,1,0-7.965-2.628A5.932,5.932,0,0,0,100.078,21.441Z" transform="translate(-26.587 -2.968)" fill="#154666" />
                        <path id="Path_970" data-name="Path 970" d="M124.392,64.685a9.165,9.165,0,1,0-12.307-4.06A9.16,9.16,0,0,0,124.392,64.685Z" transform="translate(-32.29 -13.758)" fill="#154666" />
                        <path id="Path_971" data-name="Path 971" d="M40.16,97.572a7.547,7.547,0,1,0-2.173-10.447A7.546,7.546,0,0,0,40.16,97.572Z" transform="translate(-10.68 -24.331)" fill="#154666" />
                        <path id="Path_972" data-name="Path 972" d="M53.307,164.828A9.166,9.166,0,1,0,61.94,174.5,9.167,9.167,0,0,0,53.307,164.828Z" transform="translate(-12.678 -47.902)" fill="#154666" />
                        <path id="Path_973" data-name="Path 973" d="M41.268,251.316a7.548,7.548,0,1,0,10.137,3.34A7.546,7.546,0,0,0,41.268,251.316Z" transform="translate(-10.787 -72.807)" fill="#154666" />
                        <path id="Path_974" data-name="Path 974" d="M91.163,130.032a10.781,10.781,0,1,0-3.1-14.931A10.775,10.775,0,0,0,91.163,130.032Z" transform="translate(-25.08 -32.038)" fill="#154666" />
                        <path id="Path_975" data-name="Path 975" d="M250.718,63.869a9.167,9.167,0,1,0-2.637-12.691A9.164,9.164,0,0,0,250.718,63.869Z" transform="translate(-71.666 -13.67)" fill="#154666" />
                        <path id="Path_976" data-name="Path 976" d="M277.824,20.7a5.93,5.93,0,1,0-1.71-8.214A5.931,5.931,0,0,0,277.824,20.7Z" transform="translate(-79.967 -2.851)" fill="#154666" />
                        <path id="Path_977" data-name="Path 977" d="M246.5,151.468a18.345,18.345,0,0,0-2.087,36.631c.352.018.707.028,1.056.028a18.345,18.345,0,0,0,1.031-36.66Z" transform="translate(-66.009 -44.014)" fill="#154666" />
                        <path id="Path_978" data-name="Path 978" d="M137.532,125.453A18.346,18.346,0,1,0,153.9,98.846a18.347,18.347,0,0,0-16.369,26.607Z" transform="translate(-39.403 -28.729)" fill="#154666" />
                        <path id="Path_979" data-name="Path 979" d="M336.588,97.369a7.548,7.548,0,1,0-10.137-3.345A7.552,7.552,0,0,0,336.588,97.369Z" transform="translate(-94.644 -24.145)" fill="#154666" />
                        <path id="Path_980" data-name="Path 980" d="M273.05,110.988a10.782,10.782,0,1,0,14.482,4.774A10.78,10.78,0,0,0,273.05,110.988Z" transform="translate(-77.635 -31.921)" fill="#154666" />
                        <path id="Path_981" data-name="Path 981" d="M188.133,15.085a7.549,7.549,0,1,0-7.109-7.964A7.549,7.549,0,0,0,188.133,15.085Z" transform="translate(-52.61 0)" fill="#154666" />
                        <path id="Path_982" data-name="Path 982" d="M186.762,79.383A10.785,10.785,0,1,0,176.608,68,10.786,10.786,0,0,0,186.762,79.383Z" transform="translate(-51.324 -16.808)" fill="#154666" />
                        <path id="Path_983" data-name="Path 983" d="M102.155,235.046a10.782,10.782,0,1,0-14.479-4.78A10.786,10.786,0,0,0,102.155,235.046Z" transform="translate(-25.146 -62.381)" fill="#154666" />
                        <path id="Path_984" data-name="Path 984" d="M199.528,107a18.336,18.336,0,1,0,15.356-8.287A18.367,18.367,0,0,0,199.528,107Z" transform="translate(-57.119 -28.69)" fill="#154666" />
                        <path id="Path_985" data-name="Path 985" d="M231.481,214.382a18.35,18.35,0,1,0-8.126,24.637A18.263,18.263,0,0,0,231.481,214.382Z" transform="translate(-57.181 -59.374)" fill="#154666" />
                        <path id="Path_986" data-name="Path 986" d="M284.043,216a10.783,10.783,0,1,0,3.1,14.929A10.79,10.79,0,0,0,284.043,216Z" transform="translate(-77.702 -62.265)" fill="#154666" />
                        <path id="Path_987" data-name="Path 987" d="M332.893,173.9a9.167,9.167,0,1,0-9.671,8.63A9.17,9.17,0,0,0,332.893,173.9Z" transform="translate(-91.428 -47.727)" fill="#154666" />
                        <path id="Path_988" data-name="Path 988" d="M373.6,168.677a5.932,5.932,0,1,0,5.581,6.259A5.936,5.936,0,0,0,373.6,168.677Z" transform="translate(-106.76 -49.022)" fill="#154666" />
                        <path id="Path_989" data-name="Path 989" d="M337.7,251.106a7.548,7.548,0,1,0,2.174,10.45A7.544,7.544,0,0,0,337.7,251.106Z" transform="translate(-94.751 -72.622)" fill="#154666" />
                        <path id="Path_990" data-name="Path 990" d="M101.362,329.308a5.93,5.93,0,1,0,1.7,8.21A5.929,5.929,0,0,0,101.362,329.308Z" transform="translate(-26.79 -95.428)" fill="#154666" />
                        <path id="Path_991" data-name="Path 991" d="M279.1,328.568a5.929,5.929,0,1,0,7.968,2.627A5.928,5.928,0,0,0,279.1,328.568Z" transform="translate(-80.172 -95.311)" fill="#154666" />
                        <path id="Path_992" data-name="Path 992" d="M169.485,232.83a18.343,18.343,0,1,0-15.355,8.287A18.224,18.224,0,0,0,169.485,232.83Z" transform="translate(-39.466 -59.413)" fill="#154666" />
                        <path id="Path_993" data-name="Path 993" d="M125.812,283.489a9.166,9.166,0,1,0,2.64,12.691A9.165,9.165,0,0,0,125.812,283.489Z" transform="translate(-32.441 -81.957)" fill="#154666" />
                        <path id="Path_994" data-name="Path 994" d="M188.632,333.595a7.55,7.55,0,1,0,7.107,7.965A7.549,7.549,0,0,0,188.632,333.595Z" transform="translate(-52.505 -96.953)" fill="#154666" />
                        <path id="Path_995" data-name="Path 995" d="M187.35,266.647a10.783,10.783,0,1,0,10.154,11.38A10.785,10.785,0,0,0,187.35,266.647Z" transform="translate(-51.14 -77.494)" fill="#154666" />
                        <path id="Path_996" data-name="Path 996" d="M252.135,282.668a9.166,9.166,0,1,0,12.313,4.062A9.166,9.166,0,0,0,252.135,282.668Z" transform="translate(-71.816 -81.87)" fill="#154666" />
                    </g>
                </g>
            </svg>