<svg width="20" height="19" viewBox="0 0 20 19" fill="none" xmlns="http://www.w3.org/2000/svg">
<g id="hydra 1" clip-path="url(#clip0_2044_2978)">
<path id="Vector" d="M14.0839 18.085C12.9887 18.582 11.8503 18.8918 10.6436 18.9709C9.49677 19.0456 8.36558 18.9787 7.25598 18.6767C6.61181 18.5018 6.00962 18.2354 5.43143 17.9268C4.64571 17.5078 3.90318 17.0241 3.24941 16.438C2.77318 16.0112 2.34733 15.542 1.99946 15.0149C1.97187 14.9737 1.94908 14.9302 1.94788 14.8645C2.11222 14.9826 2.27656 15.1018 2.4421 15.2188C3.86959 16.2218 5.38225 17.0854 7.09283 17.6103C7.73221 17.8064 8.38837 17.9591 9.06493 17.9524C9.85305 17.9435 10.6172 17.8231 11.3369 17.4832C11.9655 17.1868 12.5917 16.8949 13.1651 16.5104C13.7361 16.1271 14.1835 15.6412 14.5458 15.0851C14.7569 14.762 15.0028 14.4444 15.1312 14.0922C15.3663 13.4437 15.5786 12.7828 15.6434 12.0908C15.7046 11.44 15.5426 10.8215 15.3531 10.2075C15.1096 9.41744 14.7749 8.66635 14.2471 7.99662C13.5393 7.09843 12.5953 6.50893 11.4809 6.1345C10.5932 5.83585 9.67191 5.6843 8.73625 5.58624C8.43755 5.55503 8.14486 5.4592 7.85096 5.39011C7.00407 5.18952 6.15837 4.98559 5.30907 4.78946C5.16752 4.75714 5.09435 4.69251 5.04757 4.56547C4.82924 3.97597 4.60373 3.38758 4.37341 2.80254C4.31823 2.66213 4.34822 2.58524 4.49936 2.52506C5.70013 2.04811 6.89251 1.54999 8.14606 1.20008C8.45435 1.11427 8.77703 1.05744 9.09732 1.02735C9.6923 0.970517 10.2873 1.00395 10.8823 1.05298C11.0058 1.06301 11.139 1.05298 11.2577 1.02066C12.7152 0.615033 14.1883 0.274036 15.6974 0.0868218C16.3583 0.00547279 17.0229 -0.0469026 17.6862 0.0678775C17.7522 0.0790212 17.8146 0.102423 17.883 0.158141C17.8218 0.177086 17.7618 0.197144 17.7006 0.214974C16.8753 0.448992 16.0464 0.674094 15.2259 0.921485C14.9548 1.00283 14.7017 1.13879 14.4414 1.25357C14.3802 1.28143 14.3226 1.32043 14.2699 1.36166C14.0827 1.50987 14.1055 1.6514 14.3382 1.71826C14.5098 1.76729 14.6909 1.78958 14.8685 1.82412C14.9272 1.83527 14.986 1.84975 15.0772 1.86981C14.9968 1.95116 14.944 2.01022 14.8852 2.06371C14.7881 2.14952 14.8109 2.19855 14.9284 2.24424C15.2091 2.35233 15.4886 2.46266 15.7657 2.57855C16.6498 2.94852 17.4787 3.40207 18.1985 4.01275C18.2896 4.09075 18.3664 4.18324 18.4492 4.26905C18.442 4.28577 18.4348 4.3036 18.4276 4.32031H17.36C17.3528 4.33591 17.3468 4.35151 17.3396 4.36823C17.3935 4.43732 17.4463 4.50753 17.5039 4.57439C18.5775 5.8392 19.1965 7.28008 19.4184 8.8714C19.6284 10.3736 19.434 11.8334 18.8498 13.2464C18.5283 14.0254 18.1265 14.7686 17.6131 15.454C17.0637 16.1861 16.3451 16.7622 15.5534 17.2559C15.0808 17.5501 14.583 17.8086 14.0851 18.0883M9.01455 1.92442C8.79862 1.93222 8.5815 1.93333 8.36558 1.95228C8.25882 1.96119 8.18444 2.01691 8.24802 2.13615C8.44835 2.5128 8.85381 2.58301 9.16809 2.28547C9.24007 2.2175 9.27485 2.11609 9.32763 2.03028C9.23287 1.99685 9.1381 1.96342 9.01455 1.92442Z" fill="#434656"/>
<path id="Vector_2" d="M13.3762 12.0074C12.9312 11.6374 12.4417 11.3533 11.8947 11.1538C11.121 10.8719 10.3569 10.9343 9.59996 11.1984C8.49876 11.5839 7.5439 12.1935 6.65022 12.8922C5.94607 13.4427 5.24312 13.9966 4.54377 14.5537C4.21389 14.8156 3.87321 14.8869 3.45576 14.7198C2.81999 14.4668 2.15903 14.2651 1.58443 13.8918C1.31453 13.7169 1.21376 13.4728 1.29653 13.192C1.47527 12.5858 1.6744 11.984 1.99468 11.4246C2.13743 11.175 2.32097 11.0435 2.67364 11.1204C2.82599 11.1538 3.01192 11.0992 3.17026 11.0513C3.83723 10.8496 4.4586 10.5543 5.06559 10.2311C5.89929 9.78647 6.75698 9.38864 7.66865 9.10113C8.20486 8.93175 8.76146 8.91058 9.32526 8.94066C9.91305 8.97187 10.4912 9.04207 11.061 9.18137C11.854 9.37527 12.6037 9.65832 13.1927 10.2077C13.9808 10.9432 14.571 11.7856 14.6801 12.8499C14.7173 13.2198 14.6861 13.5954 14.6861 13.9687C14.6693 13.972 14.6514 13.9765 14.6346 13.9798C14.6094 13.9364 14.5806 13.894 14.559 13.8483C14.427 13.572 14.2975 13.2956 14.1679 13.0193C13.9856 12.6315 13.7097 12.3072 13.3786 12.0074M2.778 13.2399C2.86797 13.0928 2.86677 12.9435 2.76721 12.8588C2.66045 12.7696 2.53209 12.7652 2.41094 12.822C2.27418 12.8855 2.25979 13.0059 2.28618 13.1296C2.32697 13.3157 2.54289 13.3714 2.778 13.2399Z" fill="#434656"/>
<path id="Vector_3" d="M13.0943 9.32592C12.1575 8.67847 11.1162 8.3319 9.96106 8.26504C8.60554 8.18815 7.3388 8.50129 6.12483 9.02281C5.47226 9.30363 4.84609 9.6346 4.20432 9.93659C3.9812 10.0413 3.75088 10.1338 3.51816 10.2208C3.06233 10.389 2.64488 10.35 2.24542 10.0558C1.7536 9.69255 1.23538 9.35935 0.732761 9.00944C0.495246 8.84451 0.435268 8.6573 0.570819 8.40879C0.709969 8.1536 0.871911 7.90733 1.05065 7.67331C1.28816 7.3624 1.53647 7.05818 1.80518 6.77067C2.04989 6.50879 2.37737 6.34498 2.71685 6.20791C3.25306 5.99172 3.82166 5.897 4.39985 5.90258C5.0968 5.90815 5.79015 5.96498 6.4835 6.04856C7.0641 6.11876 7.64949 6.14439 8.23368 6.18897C9.49562 6.28369 10.7312 6.48539 11.8768 7.01472C12.936 7.50281 13.7385 8.24275 14.2891 9.21448C14.4295 9.46299 14.5446 9.72486 14.655 9.98674C14.6958 10.0848 14.7054 10.1996 14.7042 10.3066C14.7018 10.4392 14.5998 10.4993 14.4738 10.4369C14.3443 10.3723 14.2255 10.2854 14.1152 10.194C13.7745 9.91096 13.4398 9.62123 13.0931 9.32703M1.62644 8.67401C1.66843 8.69407 1.70801 8.72527 1.7524 8.73419C1.88675 8.75982 2.0307 8.74756 2.08348 8.62164C2.12306 8.52803 2.12186 8.39765 2.08348 8.30404C2.0307 8.17923 1.88555 8.16586 1.7524 8.1926C1.53767 8.23606 1.4729 8.4556 1.62884 8.67401H1.62644Z" fill="#434656"/>
</g>
<defs>
<clipPath id="clip0_2044_2978">
<rect width="19" height="19" fill="white" transform="translate(0.5)"/>
</clipPath>
</defs>
</svg>
