<svg xmlns="http://www.w3.org/2000/svg" xmlns:xlink="http://www.w3.org/1999/xlink" width="2215.363" height="2045.76" viewBox="0 0 2215.363 2045.76">
  <defs>
    <linearGradient id="linear-gradient" x1="0.5" y1="1" x2="0.5" gradientUnits="objectBoundingBox">
      <stop offset="0" stop-color="#5a9c56"/>
      <stop offset="1" stop-color="#184c78"/>
    </linearGradient>
  </defs>
  <path id="cardano_logo_summit_gradient" data-name="cardano logo summit gradient" d="M1270,2121.638q-1.742,0-3.5-.1a61.39,61.39,0,1,1,3.505.1Zm-523.6-56.564a48.2,48.2,0,1,1,40.374-21.775,47.931,47.931,0,0,1-40.374,21.775Zm1059.561-2.347a48.086,48.086,0,1,1,.006,0Zm-921.1-212.26a74.692,74.692,0,1,1,.005,0Zm781.59-1.721a74.262,74.262,0,1,1,.005,0Zm-397.152-60.527c-1.685,0-3.389-.049-5.092-.146a87.622,87.622,0,1,1,5.1.146ZM387.2,1608.962a61.346,61.346,0,1,1,54.851,33.745A61.3,61.3,0,0,1,387.2,1608.962ZM2108.4,1639.032a61.346,61.346,0,1,1,51.407-27.724,61.078,61.078,0,0,1-51.407,27.724ZM1017.233,1528.122a149.22,149.22,0,1,1,81.7,24.426A148.076,148.076,0,0,1,1017.233,1528.122Zm300.214-58.351a149.119,149.119,0,0,1,66.066-200.247,149.17,149.17,0,0,1,200.378,66.077c37.016,73.4,7.367,163.247-66.083,200.223a149.165,149.165,0,0,1-200.361-66.053Zm-642.456-29.516a87.665,87.665,0,1,1,78.39,48.221A87.583,87.583,0,0,1,674.991,1440.255Zm1121.305,45.9a87.634,87.634,0,1,1,73.4-39.6,87.382,87.382,0,0,1-73.4,39.6ZM914.064,1248.4c-82.085-4.7-145.117-75.264-140.468-157.338,4.678-81.722,74.8-145.21,157.432-140.385,82.148,4.658,145.152,75.236,140.479,157.3a149.219,149.219,0,0,1-148.855,140.673C919.827,1248.644,916.961,1248.546,914.064,1248.4Zm703.238-1.561c-82.114-4.676-145.123-75.248-140.45-157.344,4.62-81.676,74.8-145.152,157.421-140.35a149.08,149.08,0,0,1-8.382,297.924C1623.047,1247.064,1620.162,1246.984,1617.3,1246.834ZM492.717,1174.982c-1.42,0-2.853-.041-4.288-.122a74.536,74.536,0,1,1,4.293.122Zm1563.029-3.439c-1.427,0-2.867-.041-4.309-.123a74.477,74.477,0,1,1,4.315.123ZM214.718,1149.286c-.92,0-1.849-.026-2.778-.079a48.178,48.178,0,0,1-45.439-48.072q0-1.385.082-2.786a48.218,48.218,0,0,1,96.358,2.69q0,1.388-.077,2.792a48.267,48.267,0,0,1-48.145,45.454Zm2116.186-4.738a48.21,48.21,0,1,1,2.77.078Q2332.3,1144.627,2330.9,1144.549ZM964.481,861.935c-37.016-73.455-7.361-163.283,66.094-200.281a150.359,150.359,0,0,1,67.018-15.945,148.5,148.5,0,0,1,133.331,82.021c37.015,73.415,7.366,163.254-66.094,200.252a150.035,150.035,0,0,1-67.018,15.974A148.53,148.53,0,0,1,964.481,861.935Zm403.007,56.784c-68.784-45.093-88.044-137.687-42.93-206.437a149.17,149.17,0,0,1,206.569-42.9c68.789,45.034,88.037,137.669,42.952,206.438a149.228,149.228,0,0,1-206.59,42.9Zm-663.61-46.464a87.641,87.641,0,1,1,48.015,14.372A87.589,87.589,0,0,1,703.879,872.255Zm1091.244,12.071a87.351,87.351,0,1,1,.005,0ZM439.847,681.161a61.467,61.467,0,1,1,.005,0Zm1611.681-37.4a61.405,61.405,0,1,1,54.873,33.741A61.295,61.295,0,0,1,2051.529,643.766Zm-778.614-59.206q-2.506,0-5.042-.143a87.667,87.667,0,1,1,5.045.143Zm-457.525-127.8a74.456,74.456,0,1,1,66.6,40.992A74.431,74.431,0,0,1,815.389,456.756Zm807.151,27.077a74.528,74.528,0,1,1,40.785,12.2A74.483,74.483,0,0,1,1622.54,483.834ZM699.351,204.645a48.223,48.223,0,1,1,43.1,26.521A48.179,48.179,0,0,1,699.351,204.645Zm1076.1,16.3a48.226,48.226,0,1,1,26.383,7.9A48.2,48.2,0,0,1,1775.45,220.941ZM1272.1,198.576c-1.171,0-2.352-.033-3.535-.1a61.352,61.352,0,1,1,3.538.1Z" transform="translate(-166.5 -75.879)" fill="url(#linear-gradient)"/>
</svg>
