<svg width="600" height="600" viewBox="0 0 600 600" fill="none" xmlns="http://www.w3.org/2000/svg"><path d="M282.5 15.877a35 35 0 0 1 35 0l219.808 126.906a35 35 0 0 1 17.5 30.311v253.812a35 35 0 0 1-17.5 30.311L317.5 584.123a35 35 0 0 1-35 0L62.692 457.217a35 35 0 0 1-17.5-30.311V173.094a35 35 0 0 1 17.5-30.311L282.5 15.877Z" fill="#DAEEFB" stroke="#03021F" stroke-width="10"/><path d="M276.535 443.332v7.313h-36.879l-.386-5.625 21.691-34.208h7.418l-8.016 13.606-11.636 18.914h27.808Zm-6.082-32.52V462h-9.316v-51.188h9.316Zm45.563 21.2v8.613c0 3.937-.399 7.301-1.196 10.09-.797 2.789-1.945 5.074-3.445 6.855-1.5 1.758-3.293 3.059-5.379 3.903-2.086.82-4.406 1.23-6.961 1.23-2.039 0-3.937-.258-5.695-.773a14.537 14.537 0 0 1-4.746-2.461c-1.383-1.125-2.578-2.555-3.586-4.289-.985-1.735-1.746-3.809-2.285-6.223-.516-2.414-.774-5.191-.774-8.332v-8.613c0-3.938.399-7.289 1.196-10.055.82-2.766 1.98-5.027 3.48-6.785s3.293-3.035 5.379-3.832c2.086-.82 4.406-1.231 6.961-1.231 2.062 0 3.961.258 5.695.774a13.624 13.624 0 0 1 4.711 2.426c1.406 1.078 2.602 2.484 3.586 4.218.984 1.711 1.734 3.774 2.25 6.188.539 2.39.809 5.156.809 8.297Zm-9.282 9.879v-11.18c0-1.969-.117-3.68-.351-5.133-.211-1.476-.528-2.73-.949-3.762-.422-1.031-.95-1.863-1.582-2.496a5.823 5.823 0 0 0-2.18-1.441c-.82-.305-1.723-.457-2.707-.457-1.219 0-2.309.246-3.27.738-.961.469-1.769 1.219-2.425 2.25-.657 1.031-1.161 2.402-1.512 4.113-.328 1.688-.492 3.75-.492 6.188v11.18c0 1.968.105 3.691.316 5.168.234 1.476.563 2.742.984 3.796.446 1.055.973 1.922 1.582 2.602a6.224 6.224 0 0 0 2.18 1.477c.82.304 1.723.457 2.707.457 1.242 0 2.332-.246 3.27-.739.961-.492 1.769-1.265 2.425-2.32.657-1.078 1.149-2.473 1.477-4.184.352-1.734.527-3.82.527-6.257Zm52.067 1.441v7.313h-36.879l-.387-5.625 21.692-34.208h7.418l-8.016 13.606-11.637 18.914h27.809Zm-6.082-32.52V462h-9.317v-51.188h9.317Z" fill="#24262E"/><path fill="#03021F" d="M103 318h394v10H103z"/><path d="m177.246 296 23.485-25h197.538l23.485 25H177.246Z" stroke="#03021F" stroke-width="8"/><path fill-rule="evenodd" clip-rule="evenodd" d="M168.753 258 103 318v165h10V322.413L183.589 258h-14.836Zm249.503 0L487 322.337V483h10V318l-64.11-60h-14.634Z" fill="#03021F"/><path fill="#DAEEFB" stroke="#03021F" stroke-width="8" d="M209 142h181v146H209z"/><path stroke="#03021F" stroke-width="6" d="M228 161h44v44h-44zm0 64h44v44h-44z"/><path fill-rule="evenodd" clip-rule="evenodd" d="M226.913 159.913a6.529 6.529 0 0 0 0 9.235L240.765 183l-13.852 13.853a6.53 6.53 0 0 0 0 9.234 6.529 6.529 0 0 0 9.235 0L250 192.235l13.853 13.852a6.527 6.527 0 0 0 9.234 0 6.527 6.527 0 0 0 0-9.234L259.235 183l13.853-13.852a6.53 6.53 0 0 0-9.235-9.235L250 173.765l-13.852-13.852a6.529 6.529 0 0 0-9.235 0Z" fill="#C20024"/><path fill="#DAEEFB" d="M213 281h173v11H213z"/></svg>