<svg width="175" height="108" viewBox="0 0 175 108" fill="none" xmlns="http://www.w3.org/2000/svg">
<g clip-path="url(#clip0_472_1535)">
<path d="M12.1642 35.2669C10.3876 35.2669 8.73995 34.9509 7.22125 34.319C5.70251 33.6583 4.48469 32.6099 3.56773 31.1736C2.67943 29.7087 2.23528 27.7697 2.23528 25.3569V13.4217C2.23528 11.0088 2.67943 9.08424 3.56773 7.64802C4.48469 6.18305 5.70251 5.13457 7.22125 4.50265C8.73995 3.84196 10.4019 3.51163 12.2072 3.51163C14.213 3.51163 15.9753 3.85634 17.4941 4.54574C19.0414 5.20639 20.2449 6.13996 21.1046 7.3464C21.9929 8.55285 22.437 10.0034 22.437 11.6982C22.437 12.8185 22.2078 13.5653 21.7493 13.9388C21.2908 14.2834 20.5888 14.4558 19.6432 14.4558C18.8695 14.4558 18.2104 14.3265 17.666 14.068C17.1502 13.7808 16.8779 13.3211 16.8493 12.6892C16.8493 12.3445 16.792 11.9423 16.6774 11.4828C16.5914 10.9944 16.4052 10.5205 16.1186 10.0609C15.8321 9.60129 15.3879 9.2135 14.7862 8.89754C14.213 8.58155 13.4107 8.42358 12.3791 8.42358C10.9177 8.42358 9.80019 8.84007 9.02651 9.67312C8.25283 10.4774 7.86598 11.7269 7.86598 13.4217V25.3569C7.86598 27.0804 8.25283 28.3442 9.02651 29.1485C9.82882 29.9528 10.975 30.355 12.4651 30.355C13.4393 30.355 14.213 30.197 14.7862 29.881C15.3592 29.565 15.7748 29.1772 16.0326 28.7177C16.3192 28.2293 16.5055 27.7267 16.5914 27.2096C16.706 26.6926 16.792 26.2042 16.8493 25.7446C16.9066 25.0553 17.1932 24.5956 17.709 24.3659C18.2248 24.1073 18.8551 23.9781 19.6002 23.9781C20.5744 23.9781 21.2908 24.1648 21.7493 24.5382C22.2078 24.9116 22.437 25.6441 22.437 26.7357C22.437 28.4591 21.9929 29.9672 21.1046 31.2598C20.2449 32.5524 19.0414 33.5434 17.4941 34.2328C15.9467 34.9222 14.1701 35.2669 12.1642 35.2669Z" fill="#03021F"/>
<path d="M27.5855 35.0084C27.0697 35.0084 26.5396 34.9078 25.9952 34.7068C25.4507 34.5057 24.9922 34.2328 24.6197 33.8881C24.2472 33.5434 24.061 33.1413 24.061 32.6817C24.061 32.5955 24.0753 32.4519 24.1039 32.2508L32.3996 5.14895C32.6001 4.517 33.0443 4.04304 33.732 3.72706C34.4484 3.41109 35.2077 3.2531 36.0101 3.2531C36.8411 3.2531 37.6004 3.41109 38.2882 3.72706C38.9759 4.04304 39.4199 4.517 39.6206 5.14895L47.9162 32.2508C47.9734 32.4519 48.0022 32.5955 48.0022 32.6817C48.0022 33.1126 47.8015 33.5147 47.4004 33.8881C47.0278 34.2328 46.5696 34.5057 46.025 34.7068C45.4804 34.9078 44.9504 35.0084 44.4347 35.0084C43.976 35.0084 43.575 34.9366 43.2311 34.793C42.9161 34.6206 42.7012 34.319 42.5864 33.8881L40.9531 28.1575H31.0671L29.4768 33.8881C29.3621 34.319 29.1329 34.6206 28.789 34.793C28.4452 34.9366 28.044 35.0084 27.5855 35.0084ZM32.2706 23.7626H39.7496L36.0101 10.5349L32.2706 23.7626Z" fill="#03021F"/>
<path d="M68.1702 35.2238C67.7979 35.2238 67.4253 35.1089 67.0526 34.8791C66.7088 34.6493 66.4367 34.319 66.236 33.8881L60.1325 21.9961H56.5219V33.1987C56.5219 33.802 56.2356 34.2615 55.6623 34.5775C55.0893 34.8647 54.4446 35.0084 53.7281 35.0084C53.0404 35.0084 52.3956 34.8647 51.7939 34.5775C51.2209 34.2615 50.9342 33.802 50.9342 33.1987V5.27822C50.9342 4.78987 51.0919 4.37339 51.407 4.02869C51.7509 3.68398 52.1953 3.51163 52.7395 3.51163H61.25C63.1412 3.51163 64.8463 3.78451 66.3649 4.3303C67.9123 4.87605 69.1446 5.80961 70.0614 7.13097C70.9786 8.42359 71.4368 10.2189 71.4368 12.5169C71.4368 14.1829 71.1935 15.6048 70.7061 16.7825C70.2191 17.9315 69.546 18.865 68.6864 19.5832C67.8551 20.2726 66.8953 20.7896 65.8061 21.1343L71.4802 31.6045C71.5374 31.7194 71.5804 31.8486 71.6088 31.9923C71.6376 32.1072 71.6518 32.2077 71.6518 32.2939C71.6518 32.7535 71.4798 33.2131 71.136 33.6727C70.7921 34.1323 70.3481 34.5057 69.8035 34.793C69.2877 35.0802 68.7435 35.2238 68.1702 35.2238ZM56.5219 17.6012H61.25C62.6542 17.6012 63.7718 17.2565 64.6026 16.5671C65.4339 15.8777 65.8491 14.6999 65.8491 13.0339C65.8491 11.3104 65.4339 10.1183 64.6026 9.45768C63.7718 8.76828 62.6542 8.42358 61.25 8.42358H56.5219V17.6012Z" fill="#03021F"/>
<path d="M77.814 35.0084C77.0687 35.0084 76.4669 34.836 76.0087 34.4913C75.5789 34.1467 75.364 33.7301 75.364 33.2418V5.27822C75.364 4.78987 75.5789 4.37339 76.0087 4.02869C76.4669 3.68398 77.0687 3.51163 77.814 3.51163H85.4219C87.3415 3.51163 89.0608 3.84196 90.5798 4.50265C92.0984 5.13457 93.3019 6.18305 94.1903 7.64802C95.1071 9.08424 95.5657 11.0088 95.5657 13.4217V25.0983C95.5657 27.5112 95.1071 29.4501 94.1903 30.9151C93.3019 32.3513 92.0984 33.3998 90.5798 34.0605C89.0608 34.6924 87.3415 35.0084 85.4219 35.0084H77.814ZM80.9517 30.0965H85.4219C86.8545 30.0965 87.972 29.6943 88.7745 28.89C89.5766 28.057 89.978 26.7931 89.978 25.0983V13.4217C89.978 11.7269 89.5766 10.4774 88.7745 9.67311C87.972 8.84007 86.8687 8.42358 85.4649 8.42358H80.9517V30.0965Z" fill="#03021F"/>
<path d="M101.672 35.0084C101.156 35.0084 100.626 34.9078 100.081 34.7068C99.5366 34.5057 99.0784 34.2328 98.7058 33.8881C98.3331 33.5434 98.147 33.1413 98.147 32.6817C98.147 32.5955 98.1612 32.4519 98.19 32.2508L106.486 5.14895C106.686 4.517 107.13 4.04304 107.818 3.72706C108.535 3.41109 109.294 3.2531 110.096 3.2531C110.927 3.2531 111.686 3.41109 112.374 3.72706C113.062 4.04304 113.506 4.517 113.707 5.14895L122.002 32.2508C122.059 32.4519 122.088 32.5955 122.088 32.6817C122.088 33.1126 121.887 33.5147 121.486 33.8881C121.114 34.2328 120.656 34.5057 120.111 34.7068C119.566 34.9078 119.036 35.0084 118.521 35.0084C118.062 35.0084 117.661 34.9366 117.317 34.793C117.002 34.6206 116.787 34.319 116.672 33.8881L115.039 28.1575H105.153L103.563 33.8881C103.448 34.319 103.219 34.6206 102.875 34.793C102.531 34.9366 102.13 35.0084 101.672 35.0084ZM106.357 23.7626H113.836L110.096 10.5349L106.357 23.7626Z" fill="#03021F"/>
<path d="M127.814 35.0084C127.126 35.0084 126.482 34.8647 125.88 34.5775C125.307 34.2615 125.02 33.802 125.02 33.1987V5.27822C125.02 4.675 125.307 4.22974 125.88 3.94251C126.482 3.65525 127.126 3.51163 127.814 3.51163C128.502 3.51163 129.061 3.58344 129.49 3.72706C129.949 3.87069 130.365 4.15795 130.737 4.58882C131.138 4.99096 131.554 5.62292 131.983 6.48466L140.279 22.5562V5.27822C140.279 4.64626 140.566 4.20104 141.139 3.94251C141.74 3.65525 142.385 3.51163 143.073 3.51163C143.789 3.51163 144.434 3.65525 145.007 3.94251C145.58 4.20104 145.867 4.64626 145.867 5.27822V33.1987C145.867 33.802 145.58 34.2615 145.007 34.5775C144.434 34.8647 143.789 35.0084 143.073 35.0084C142.414 35.0084 141.798 34.8791 141.225 34.6206C140.68 34.3621 140.236 33.9025 139.892 33.2418L130.608 15.9208V33.1987C130.608 33.802 130.322 34.2615 129.748 34.5775C129.175 34.8647 128.531 35.0084 127.814 35.0084Z" fill="#03021F"/>
<path d="M160.844 35.2669C158.953 35.2669 157.248 34.9509 155.729 34.319C154.21 33.6583 152.993 32.6099 152.075 31.1736C151.187 29.7087 150.743 27.7697 150.743 25.3569V13.4217C150.743 11.0088 151.187 9.08424 152.075 7.64802C152.993 6.18305 154.196 5.13457 155.686 4.50265C157.205 3.84196 158.924 3.51163 160.844 3.51163C162.735 3.51163 164.44 3.84196 165.959 4.50265C167.506 5.13457 168.724 6.18305 169.612 7.64802C170.501 9.08424 170.945 11.0088 170.945 13.4217V25.3569C170.945 27.7697 170.501 29.7087 169.612 31.1736C168.724 32.6099 167.506 33.6583 165.959 34.319C164.44 34.9509 162.735 35.2669 160.844 35.2669ZM160.844 30.355C162.248 30.355 163.351 29.9528 164.153 29.1485C164.956 28.3442 165.357 27.0804 165.357 25.3569V13.4217C165.357 11.6982 164.956 10.4343 164.153 9.63003C163.351 8.82572 162.248 8.42358 160.844 8.42358C159.44 8.42358 158.337 8.82572 157.534 9.63003C156.76 10.4343 156.374 11.6982 156.374 13.4217V25.3569C156.374 27.0804 156.76 28.3442 157.534 29.1485C158.337 29.9528 159.44 30.355 160.844 30.355Z" fill="#03021F"/>
<path d="M10.9607 71.1739C9.09812 71.1739 7.40749 70.9012 5.88879 70.3553C4.39871 69.8094 3.20954 69.1346 2.32123 68.3302C1.46159 67.4973 1.03176 66.664 1.03176 65.8311C1.03176 65.4291 1.13205 64.9982 1.33264 64.5385C1.56188 64.0503 1.86275 63.6479 2.23527 63.332C2.60778 62.9873 3.02328 62.815 3.48176 62.815C3.94022 62.815 4.37005 62.9873 4.77124 63.332C5.1724 63.6479 5.63089 64.0357 6.14668 64.4954C6.66247 64.9263 7.29285 65.3141 8.03791 65.6588C8.78293 65.9746 9.69987 66.1327 10.7888 66.1327C11.6484 66.1327 12.4364 66.0035 13.1528 65.7449C13.8978 65.4576 14.4853 65.0413 14.9151 64.4954C15.3736 63.9495 15.6028 63.2459 15.6028 62.3841C15.6028 61.4651 15.3592 60.6895 14.8721 60.0574C14.385 59.4253 13.7259 58.8798 12.8949 58.4201C12.0639 57.9604 11.1613 57.5153 10.187 57.0844C9.21275 56.6535 8.22415 56.1938 7.22124 55.7056C6.24696 55.2174 5.34433 54.6284 4.51335 53.939C3.711 53.2496 3.05194 52.4021 2.53615 51.3969C2.04901 50.3917 1.80545 49.1564 1.80545 47.6914C1.80545 46.0829 2.10632 44.7326 2.70808 43.6412C3.33848 42.5498 4.15513 41.6734 5.15808 41.0129C6.18966 40.3235 7.32152 39.8353 8.5537 39.5479C9.78584 39.2321 11.018 39.0739 12.2502 39.0739C12.9092 39.0739 13.6829 39.1313 14.5712 39.2463C15.4882 39.3325 16.3908 39.5048 17.2791 39.7633C18.1961 40.0219 18.9411 40.3808 19.5142 40.8405C20.116 41.2714 20.4169 41.8458 20.4169 42.564C20.4169 42.8799 20.3309 43.2676 20.159 43.7274C20.0157 44.1871 19.7721 44.6033 19.4283 44.9769C19.113 45.3504 18.6976 45.537 18.1818 45.537C17.7233 45.537 17.2648 45.4078 16.8063 45.1492C16.3765 44.8619 15.8034 44.5891 15.087 44.3306C14.3993 44.0432 13.4537 43.8997 12.2502 43.8997C11.2472 43.8997 10.3733 44.029 9.62826 44.2875C8.8832 44.546 8.32443 44.9196 7.95194 45.4078C7.57942 45.8675 7.39317 46.4561 7.39317 47.1743C7.39317 47.9211 7.63671 48.5531 8.12387 49.0702C8.63966 49.5872 9.29871 50.047 10.1011 50.449C10.932 50.851 11.8347 51.2534 12.809 51.6554C13.7832 52.0574 14.7575 52.5314 15.7318 53.0773C16.7347 53.5943 17.6516 54.2264 18.4826 54.9731C19.3136 55.7198 19.9727 56.6535 20.4598 57.7738C20.947 58.8652 21.1905 60.2155 21.1905 61.824C21.1905 63.8633 20.7464 65.5868 19.8581 66.9945C18.9698 68.3733 17.7519 69.4216 16.2046 70.1398C14.6858 70.8292 12.9379 71.1739 10.9607 71.1739Z" fill="#03021F"/>
<path d="M35.2226 71.0447C33.2741 71.0447 31.5261 70.7288 29.9788 70.0967C28.4314 69.4362 27.1992 68.3875 26.2823 66.9514C25.3653 65.4864 24.9068 63.5475 24.9068 61.1346V41.056C24.9068 40.4239 25.1934 39.9788 25.7665 39.7203C26.3396 39.4329 26.9843 39.2894 27.7007 39.2894C28.3884 39.2894 29.0188 39.4329 29.5919 39.7203C30.1937 39.9788 30.4946 40.4239 30.4946 41.056V61.1346C30.4946 62.8292 30.9101 64.0934 31.741 64.9263C32.572 65.7307 33.7326 66.1327 35.2226 66.1327C36.684 66.1327 37.8302 65.7307 38.6612 64.9263C39.5208 64.0934 39.9507 62.8292 39.9507 61.1346V41.056C39.9507 40.4239 40.2228 39.9788 40.7673 39.7203C41.3403 39.4329 41.9996 39.2894 42.7445 39.2894C43.4322 39.2894 44.0628 39.4329 44.6357 39.7203C45.2375 39.9788 45.5384 40.4239 45.5384 41.056V61.1346C45.5384 63.5475 45.0798 65.4864 44.1629 66.9514C43.2461 68.3875 41.9996 69.4362 40.4235 70.0967C38.8761 70.7288 37.1425 71.0447 35.2226 71.0447Z" fill="#03021F"/>
<path d="M53.3504 70.7861C52.6627 70.7861 52.018 70.6426 51.4162 70.3553C50.8433 70.0394 50.5566 69.5797 50.5566 68.9765V42.0901C50.5566 41.056 50.8433 40.3377 51.4162 39.9357C52.018 39.5048 52.6627 39.2894 53.3504 39.2894C54.0382 39.2894 54.6111 39.3613 55.0697 39.5048C55.5567 39.6483 56.0012 39.9357 56.4022 40.3666C56.832 40.7974 57.276 41.4295 57.7347 42.2624L63.0215 51.9139L68.2654 42.2624C68.7811 41.4295 69.2252 40.7974 69.5978 40.3666C69.9989 39.9357 70.4433 39.6483 70.9303 39.5048C71.4173 39.3613 71.9906 39.2894 72.6496 39.2894C73.3661 39.2894 74.0108 39.5048 74.5838 39.9357C75.1567 40.3377 75.4434 41.056 75.4434 42.0901V68.9765C75.4434 69.5797 75.1425 70.0394 74.5408 70.3553C73.9678 70.6426 73.3373 70.7861 72.6496 70.7861C71.9618 70.7861 71.3171 70.6426 70.7154 70.3553C70.1424 70.0394 69.8557 69.5797 69.8557 68.9765V50.4921L64.8697 59.4542C64.6118 59.8562 64.311 60.1578 63.9671 60.359C63.6232 60.5314 63.2794 60.6176 62.9355 60.6176C62.6205 60.6176 62.2908 60.5314 61.9469 60.359C61.6319 60.1867 61.3452 59.8851 61.0873 59.4542L56.1443 50.1905V68.9765C56.1443 69.5797 55.8576 70.0394 55.2847 70.3553C54.7117 70.6426 54.0669 70.7861 53.3504 70.7861Z" fill="#03021F"/>
<path d="M83.4048 70.7861C82.717 70.7861 82.0723 70.6426 81.4706 70.3553C80.8972 70.0394 80.6109 69.5797 80.6109 68.9765V42.0901C80.6109 41.056 80.8972 40.3377 81.4706 39.9357C82.0723 39.5048 82.717 39.2894 83.4048 39.2894C84.0925 39.2894 84.6655 39.3613 85.1241 39.5048C85.6111 39.6483 86.0551 39.9357 86.4565 40.3666C86.8864 40.7974 87.3304 41.4295 87.789 42.2624L93.0758 51.9139L98.3197 42.2624C98.8355 41.4295 99.2795 40.7974 99.6521 40.3666C100.053 39.9357 100.497 39.6483 100.985 39.5048C101.472 39.3613 102.045 39.2894 102.704 39.2894C103.42 39.2894 104.065 39.5048 104.638 39.9357C105.211 40.3377 105.498 41.056 105.498 42.0901V68.9765C105.498 69.5797 105.197 70.0394 104.595 70.3553C104.022 70.6426 103.392 70.7861 102.704 70.7861C102.016 70.7861 101.371 70.6426 100.77 70.3553C100.196 70.0394 99.91 69.5797 99.91 68.9765V50.4921L94.9241 59.4542C94.6662 59.8562 94.3653 60.1578 94.0214 60.359C93.6776 60.5314 93.3337 60.6176 92.9899 60.6176C92.6744 60.6176 92.3451 60.5314 92.0013 60.359C91.6858 60.1867 91.3995 59.8851 91.1416 59.4542L86.1986 50.1905V68.9765C86.1986 69.5797 85.912 70.0394 85.339 70.3553C84.7656 70.6426 84.1209 70.7861 83.4048 70.7861Z" fill="#03021F"/>
<path d="M113.459 70.7861C112.771 70.7861 112.126 70.6426 111.525 70.3553C110.952 70.0394 110.665 69.5797 110.665 68.9765V41.056C110.665 40.4239 110.952 39.9788 111.525 39.7203C112.126 39.4329 112.771 39.2894 113.459 39.2894C114.175 39.2894 114.82 39.4329 115.393 39.7203C115.966 39.9788 116.253 40.4239 116.253 41.056V68.9765C116.253 69.5797 115.966 70.0394 115.393 70.3553C114.82 70.6426 114.175 70.7861 113.459 70.7861Z" fill="#03021F"/>
<path d="M130.135 70.7861C129.419 70.7861 128.774 70.6426 128.201 70.3553C127.628 70.0394 127.341 69.5797 127.341 68.9765V44.3306H121.023C120.478 44.3306 120.048 44.0721 119.733 43.555C119.418 43.038 119.261 42.449 119.261 41.7884C119.261 41.1852 119.404 40.6251 119.69 40.108C119.977 39.5621 120.421 39.2894 121.023 39.2894H139.204C139.835 39.2894 140.279 39.5621 140.537 40.108C140.823 40.6251 140.967 41.1852 140.967 41.7884C140.967 42.449 140.809 43.038 140.494 43.555C140.207 44.0721 139.777 44.3306 139.204 44.3306H132.929V68.9765C132.929 69.5797 132.628 70.0394 132.026 70.3553C131.453 70.6426 130.823 70.7861 130.135 70.7861Z" fill="#03021F"/>
<path d="M2.4072 106.949C2.23527 106.949 2.06334 106.877 1.89141 106.733C1.71948 106.59 1.63351 106.403 1.63351 106.173V101.994C1.63351 100.787 1.9917 99.6811 2.70808 98.6759C3.42445 97.6706 4.34142 96.7227 5.45896 95.8321C6.5765 94.9131 7.76566 94.0225 9.0265 93.1607C10.316 92.2701 11.5195 91.3511 12.637 90.4031C13.7546 89.4264 14.6715 88.3923 15.3879 87.3009C16.1043 86.1806 16.4625 84.9311 16.4625 83.5523C16.4625 82.4893 16.2189 81.4698 15.7318 80.4931C15.2446 79.4878 14.5139 78.6546 13.5397 77.994C12.5654 77.3335 11.3332 77.003 9.84317 77.003C8.1525 77.003 6.74843 77.4912 5.63089 78.468C4.51335 79.4159 3.95457 80.8235 3.95457 82.6905C3.95457 82.8629 3.88292 83.0352 3.73965 83.2076C3.62503 83.3511 3.42445 83.423 3.1379 83.423C2.85135 83.423 2.65076 83.3368 2.53615 83.1645C2.45018 82.9633 2.4072 82.6474 2.4072 82.2166C2.4072 80.9528 2.7224 79.8179 3.35281 78.8127C4.01187 77.7786 4.90019 76.9599 6.01773 76.3567C7.16391 75.7535 8.46773 75.4519 9.92914 75.4519C11.5911 75.4519 13.0239 75.8254 14.2274 76.5721C15.4309 77.3189 16.3622 78.3099 17.0212 79.5452C17.6803 80.7516 18.0098 82.0731 18.0098 83.5092C18.0098 85.0315 17.6517 86.4103 16.9353 87.6456C16.2189 88.8808 15.3019 90.0011 14.1844 91.0064C13.0669 92.0116 11.8633 92.9595 10.5739 93.8501C9.31303 94.7119 8.12387 95.5736 7.00633 96.4353C5.88879 97.2682 4.9718 98.1446 4.25545 99.0637C3.53907 99.9543 3.18088 100.931 3.18088 101.994V105.397H17.709C17.9095 105.397 18.0815 105.469 18.2248 105.613C18.368 105.756 18.4397 105.943 18.4397 106.173C18.4397 106.374 18.368 106.561 18.2248 106.733C18.0815 106.877 17.9095 106.949 17.709 106.949H2.4072Z" fill="#03021F"/>
<path d="M30.9879 107.207C29.4118 107.207 27.9934 106.92 26.7326 106.345C25.4718 105.742 24.4688 104.794 23.7238 103.502C22.9788 102.209 22.6063 100.486 22.6063 98.3312V84.3278C22.6063 82.1735 22.9788 80.45 23.7238 79.1574C24.4688 77.8648 25.4718 76.9311 26.7326 76.3567C27.9934 75.7535 29.4118 75.4519 30.9879 75.4519C32.5639 75.4519 33.9823 75.7535 35.2431 76.3567C36.5326 76.9311 37.5499 77.8648 38.2949 79.1574C39.04 80.45 39.4122 82.1735 39.4122 84.3278V98.3312C39.4122 100.486 39.04 102.209 38.2949 103.502C37.5499 104.794 36.5326 105.742 35.2431 106.345C33.9823 106.92 32.5639 107.207 30.9879 107.207ZM30.9879 105.656C33.137 105.656 34.8133 105.067 36.0168 103.889C37.2489 102.683 37.865 100.83 37.865 98.3312V84.3278C37.865 81.8288 37.2489 79.9903 36.0168 78.8127C34.8133 77.6062 33.137 77.003 30.9879 77.003C28.8387 77.003 27.1624 77.6062 25.9589 78.8127C24.7554 79.9903 24.1536 81.8288 24.1536 84.3278V98.3312C24.1536 100.83 24.7554 102.683 25.9589 103.889C27.1624 105.067 28.8387 105.656 30.9879 105.656ZM31.0308 92.7298C30.6583 92.7298 30.3288 92.6006 30.0422 92.3421C29.7843 92.0547 29.6554 91.7246 29.6554 91.3511C29.6554 90.9775 29.7843 90.6617 30.0422 90.4031C30.3288 90.1446 30.6583 90.0153 31.0308 90.0153C31.4034 90.0153 31.7186 90.1446 31.9765 90.4031C32.2343 90.6617 32.3633 90.9775 32.3633 91.3511C32.3633 91.7246 32.2343 92.0547 31.9765 92.3421C31.7186 92.6006 31.4034 92.7298 31.0308 92.7298Z" fill="#03021F"/>
<path d="M44.6342 106.949C44.4623 106.949 44.2904 106.877 44.1184 106.733C43.9465 106.59 43.8605 106.403 43.8605 106.173V101.994C43.8605 100.787 44.2186 99.6811 44.9351 98.6759C45.6512 97.6706 46.5684 96.7227 47.686 95.8321C48.8035 94.9131 49.9924 94.0225 51.2535 93.1607C52.543 92.2701 53.7465 91.3511 54.864 90.4031C55.9816 89.4264 56.8984 88.3923 57.6149 87.3009C58.331 86.1806 58.6895 84.9311 58.6895 83.5523C58.6895 82.4893 58.4458 81.4698 57.9588 80.4931C57.4714 79.4878 56.7407 78.6546 55.7667 77.994C54.7923 77.3335 53.56 77.003 52.0702 77.003C50.3793 77.003 48.9754 77.4912 47.8579 78.468C46.7404 79.4159 46.1816 80.8235 46.1816 82.6905C46.1816 82.8629 46.1098 83.0352 45.9667 83.2076C45.8519 83.3511 45.6512 83.423 45.3649 83.423C45.0782 83.423 44.8775 83.3368 44.7632 83.1645C44.6772 82.9633 44.6342 82.6474 44.6342 82.2166C44.6342 80.9528 44.9493 79.8179 45.5798 78.8127C46.2388 77.7786 47.1272 76.9599 48.2447 76.3567C49.3907 75.7535 50.6947 75.4519 52.1561 75.4519C53.8179 75.4519 55.2509 75.8254 56.4544 76.5721C57.6579 77.3189 58.5889 78.3099 59.2482 79.5452C59.9072 80.7516 60.2368 82.0731 60.2368 83.5092C60.2368 85.0315 59.8784 86.4103 59.1623 87.6456C58.4458 88.8808 57.5289 90.0011 56.4114 91.0064C55.2939 92.0116 54.0904 92.9595 52.8009 93.8501C51.5398 94.7119 50.3509 95.5736 49.2333 96.4353C48.1158 97.2682 47.1986 98.1446 46.4825 99.0637C45.766 99.9543 45.4079 100.931 45.4079 101.994V105.397H59.936C60.1363 105.397 60.3082 105.469 60.4518 105.613C60.5949 105.756 60.6667 105.943 60.6667 106.173C60.6667 106.374 60.5949 106.561 60.4518 106.733C60.3082 106.877 60.1363 106.949 59.936 106.949H44.6342Z" fill="#03021F"/>
<path d="M71.9254 107.207C70.5212 107.207 69.2889 107.006 68.2289 106.604C67.1685 106.173 66.2801 105.627 65.564 104.967C64.8475 104.306 64.3175 103.588 63.9736 102.812C63.6298 102.008 63.4578 101.218 63.4578 100.442C63.4578 99.9543 63.515 99.638 63.6298 99.4945C63.7729 99.3222 63.9448 99.236 64.1456 99.236C64.4606 99.236 64.6755 99.3364 64.7903 99.5376C64.9047 99.71 64.9622 99.9112 64.9622 100.141C64.9622 100.572 65.0482 101.103 65.2201 101.735C65.4205 102.367 65.7643 102.985 66.2517 103.588C66.7387 104.162 67.4264 104.651 68.3149 105.053C69.2029 105.455 70.3492 105.656 71.7535 105.656C73.9598 105.656 75.6649 105.067 76.8684 103.889C78.1003 102.683 78.7166 100.83 78.7166 98.3312V97.5125C78.7166 95.3582 78.1003 93.7497 76.8684 92.6868C75.6649 91.5953 74.0169 91.0494 71.9254 91.0494C71.6387 91.0494 71.4238 90.9775 71.2806 90.834C71.1659 90.6617 71.1087 90.4751 71.1087 90.2739C71.1087 90.0727 71.1659 89.9003 71.2806 89.7568C71.4238 89.5845 71.6245 89.4983 71.8824 89.4983C73.2291 89.4983 74.3466 89.2971 75.235 88.8951C76.1519 88.4931 76.8254 87.8468 77.2552 86.9562C77.7134 86.0371 77.9429 84.8306 77.9429 83.3368C77.9429 81.2686 77.4843 79.7033 76.5675 78.6403C75.6791 77.5489 74.1747 77.003 72.0543 77.003C70.7361 77.003 69.6615 77.1896 68.8306 77.5631C67.9994 77.9367 67.3547 78.4107 66.8964 78.985C66.4666 79.5594 66.1657 80.1484 65.9938 80.7516C65.8503 81.3548 65.7789 81.9007 65.7789 82.3889C65.7789 82.7048 65.7071 82.9633 65.564 83.1645C65.4205 83.3368 65.2343 83.423 65.0052 83.423C64.8333 83.423 64.6897 83.3942 64.5754 83.3368C64.4606 83.2507 64.3747 83.1072 64.3175 82.906C64.2599 82.7048 64.2315 82.4462 64.2315 82.1304C64.2315 81.6133 64.3317 80.9813 64.5324 80.2346C64.7615 79.4878 65.1484 78.7554 65.6929 78.0371C66.2659 77.2904 67.0684 76.6725 68.0999 76.1844C69.1599 75.6962 70.5212 75.4519 72.1833 75.4519C73.6447 75.4519 74.9196 75.6962 76.0087 76.1844C77.0975 76.6725 77.9429 77.4627 78.5447 78.5542C79.1748 79.6456 79.4903 81.1105 79.4903 82.949C79.4903 85.0461 79.1319 86.6834 78.4157 87.861C77.6992 89.0101 76.8538 89.8288 75.8798 90.317C77.1405 90.8629 78.1862 91.71 79.0175 92.8591C79.8484 94.0082 80.264 95.5594 80.264 97.5125V98.3312C80.264 100.486 79.8913 102.209 79.1464 103.502C78.4012 104.794 77.3984 105.742 76.1377 106.345C74.8766 106.92 73.4728 107.207 71.9254 107.207Z" fill="#03021F"/>
</g>
<defs>
<clipPath id="clip0_472_1535">
<rect width="175" height="107.333" fill="white"/>
</clipPath>
</defs>
</svg>
