<svg width="64" height="64" viewBox="0 0 64 64" fill="none" xmlns="http://www.w3.org/2000/svg"><path d="M57.999 8.315A6.249 6.249 0 0 0 51.766 2.125L12.206 1.999A6.205 6.205 0 0 0 6.001 8.192v40.812c0 3.412 2.785 5.998 6.205 5.998h33.792l-1.623 -5.499 13.624 12.5V8.315Zm-17.418 32.911s-1.091 -1.298 -1.999 -2.414c3.968 -1.119 5.478 -3.561 5.478 -3.561a17.364 17.364 0 0 1 -3.479 1.779 21.256 21.256 0 0 1 -12.229 1.27 23.043 23.043 0 0 1 -4.449 -1.3 17.649 17.649 0 0 1 -2.209 -1.024c-0.092 -0.061 -0.179 -0.092 -0.271 -0.154 -0.061 -0.031 -0.092 -0.059 -0.128 -0.059a10.621 10.621 0 0 1 -0.845 -0.515s1.452 2.386 5.299 3.533c-0.911 1.147 -2.03 2.476 -2.03 2.476 -6.689 -0.21 -9.231 -4.557 -9.231 -4.557 0 -9.633 4.357 -17.454 4.357 -17.454 4.36 -3.231 8.474 -3.139 8.474 -3.139l0.305 0.361c-5.448 1.541 -7.931 3.924 -7.931 3.924s0.666 -0.361 1.787 -0.845c3.238 -1.418 5.811 -1.782 6.874 -1.902a2.995 2.995 0 0 1 0.515 -0.061 25.702 25.702 0 0 1 6.116 -0.059 25.201 25.201 0 0 1 9.111 2.867s-2.391 -2.268 -7.539 -3.807l0.425 -0.481s4.147 -0.092 8.474 3.146c0 0 4.362 7.818 4.362 17.452 0 -0.036 -2.545 4.311 -9.234 4.524Z" fill="#434656"/><path d="M26.506 27.251c-1.725 0 -3.087 1.48 -3.087 3.32 0 1.843 1.393 3.32 3.087 3.32 1.725 0 3.087 -1.477 3.087 -3.32 0.031 -1.843 -1.362 -3.32 -3.087 -3.32Zm11.046 0c-1.723 0 -3.087 1.48 -3.087 3.32 0 1.843 1.393 3.32 3.087 3.32 1.728 0 3.09 -1.477 3.09 -3.32s-1.393 -3.32 -3.09 -3.32Z" fill="#434656"/></svg>