<svg width="19" height="19" viewBox="0 0 19 19" fill="none" xmlns="http://www.w3.org/2000/svg">
<g id="Button Icons">
<path id="Vector" d="M7.48125 10.9846L8.23334 8.51061L6.175 6.98665H8.68855L9.5 4.35436L10.2917 6.98665H12.825L10.7865 8.51061L11.5188 10.9846L9.5 9.46061L7.48125 10.9846ZM4.71042 18.4658V12.4096C4.06389 11.763 3.59879 11.0439 3.31511 10.2523C3.03143 9.46061 2.88959 8.66235 2.88959 7.85749C2.88959 5.99707 3.52292 4.43023 4.78959 3.15697C6.05625 1.8837 7.62639 1.24707 9.5 1.24707C11.3604 1.24707 12.9306 1.8837 14.2104 3.15697C15.4903 4.43023 16.1302 5.99707 16.1302 7.85749C16.1302 8.66235 15.9851 9.46061 15.6948 10.2523C15.4045 11.0439 14.9361 11.763 14.2896 12.4096V18.4658L9.5 16.8825L4.71042 18.4658ZM9.5 12.9044C10.9118 12.9044 12.1059 12.4162 13.0823 11.4398C14.0587 10.4634 14.5469 9.26929 14.5469 7.85749C14.5469 6.44568 14.0587 5.25158 13.0823 4.2752C12.1059 3.29881 10.9118 2.81061 9.5 2.81061C8.0882 2.81061 6.8941 3.29881 5.91771 4.2752C4.94132 5.25158 4.45313 6.44568 4.45313 7.85749C4.45313 9.26929 4.94132 10.4634 5.91771 11.4398C6.8941 12.4162 8.0882 12.9044 9.5 12.9044ZM6.01667 16.6846L9.5 15.5367L12.9833 16.6846V13.4189C12.4424 13.7884 11.8717 14.0589 11.2714 14.2304C10.671 14.4019 10.0806 14.4877 9.5 14.4877C8.91945 14.4877 8.329 14.4019 7.72865 14.2304C7.1283 14.0589 6.55764 13.7884 6.01667 13.4189V16.6846Z" fill="#106593"/>
</g>
</svg>
