<svg width="19" height="19" viewBox="0 0 19 19" fill="none" xmlns="http://www.w3.org/2000/svg">
<g id="Button Icons">
<path id="Vector" d="M7.48132 10.9846L8.2334 8.51061L6.17507 6.98665H8.68861L9.50007 4.35436L10.2917 6.98665H12.8251L10.7865 8.51061L11.5188 10.9846L9.50007 9.46061L7.48132 10.9846ZM4.71048 18.4658V12.4096C4.06395 11.763 3.59885 11.0439 3.31517 10.2523C3.03149 9.46061 2.88965 8.66235 2.88965 7.85749C2.88965 5.99707 3.52298 4.43023 4.78965 3.15697C6.05632 1.8837 7.62645 1.24707 9.50007 1.24707C11.3605 1.24707 12.9306 1.8837 14.2105 3.15697C15.4903 4.43023 16.1303 5.99707 16.1303 7.85749C16.1303 8.66235 15.9851 9.46061 15.6949 10.2523C15.4046 11.0439 14.9362 11.763 14.2896 12.4096V18.4658L9.50007 16.8825L4.71048 18.4658ZM9.50007 12.9044C10.9119 12.9044 12.106 12.4162 13.0824 11.4398C14.0587 10.4634 14.5469 9.26929 14.5469 7.85749C14.5469 6.44568 14.0587 5.25158 13.0824 4.2752C12.106 3.29881 10.9119 2.81061 9.50007 2.81061C8.08826 2.81061 6.89416 3.29881 5.91777 4.2752C4.94138 5.25158 4.45319 6.44568 4.45319 7.85749C4.45319 9.26929 4.94138 10.4634 5.91777 11.4398C6.89416 12.4162 8.08826 12.9044 9.50007 12.9044ZM6.01673 16.6846L9.50007 15.5367L12.9834 16.6846V13.4189C12.4424 13.7884 11.8718 14.0589 11.2714 14.2304C10.6711 14.4019 10.0806 14.4877 9.50007 14.4877C8.91951 14.4877 8.32906 14.4019 7.72871 14.2304C7.12836 14.0589 6.5577 13.7884 6.01673 13.4189V16.6846Z" fill="#434656"/>
</g>
</svg>
