<svg width="244" height="350" viewBox="0 0 244 350" fill="none" xmlns="http://www.w3.org/2000/svg">
<g clip-path="url(#clip0_1422_4514)">
<path d="M16.937 249.289C14.4633 249.289 12.1692 248.85 10.0546 247.973C7.93996 247.055 6.24431 245.598 4.96757 243.604C3.73073 241.569 3.1123 238.876 3.1123 235.524V218.947C3.1123 215.595 3.73073 212.922 4.96757 210.927C6.24431 208.892 7.93996 207.436 10.0546 206.558C12.1692 205.64 14.4833 205.182 16.9969 205.182C19.7897 205.182 22.2435 205.661 24.3581 206.618C26.5126 207.536 28.1883 208.832 29.3853 210.508C30.6222 212.184 31.2406 214.198 31.2406 216.553C31.2406 218.109 30.9214 219.146 30.283 219.665C29.6446 220.144 28.6671 220.383 27.3505 220.383C26.2732 220.383 25.3555 220.203 24.5975 219.844C23.8793 219.445 23.5003 218.807 23.4604 217.929C23.4604 217.45 23.3806 216.892 23.221 216.254C23.1013 215.575 22.842 214.917 22.443 214.279C22.044 213.64 21.4256 213.101 20.5877 212.663C19.7897 212.223 18.6726 212.004 17.2363 212.004C15.2015 212.004 13.6454 212.583 12.5682 213.74C11.4909 214.857 10.9523 216.592 10.9523 218.947V235.524C10.9523 237.918 11.4909 239.674 12.5682 240.791C13.6853 241.908 15.2813 242.467 17.356 242.467C18.7125 242.467 19.7897 242.247 20.5877 241.808C21.3857 241.369 21.9642 240.83 22.3233 240.192C22.7223 239.514 22.9816 238.816 23.1013 238.098C23.2609 237.38 23.3806 236.701 23.4604 236.063C23.5402 235.105 23.9392 234.467 24.6574 234.148C25.3755 233.789 26.2532 233.609 27.2906 233.609C28.6471 233.609 29.6446 233.868 30.283 234.387C30.9214 234.906 31.2406 235.923 31.2406 237.439C31.2406 239.833 30.6222 241.928 29.3853 243.723C28.1883 245.519 26.5126 246.895 24.3581 247.853C22.2036 248.81 19.7299 249.289 16.937 249.289Z" fill="#03021F"/>
<path d="M38.4092 248.93C37.691 248.93 36.9529 248.79 36.1948 248.511C35.4368 248.232 34.7984 247.853 34.2797 247.374C33.761 246.895 33.5017 246.336 33.5017 245.698C33.5017 245.579 33.5216 245.379 33.5616 245.1L45.1121 207.456C45.3913 206.578 46.0098 205.92 46.9674 205.481C47.9648 205.042 49.0221 204.823 50.1393 204.823C51.2963 204.823 52.3536 205.042 53.3112 205.481C54.2687 205.92 54.887 206.578 55.1664 207.456L66.717 245.1C66.7966 245.379 66.8367 245.579 66.8367 245.698C66.8367 246.297 66.5572 246.855 65.9988 247.374C65.48 247.853 64.8419 248.232 64.0837 248.511C63.3255 248.79 62.5875 248.93 61.8693 248.93C61.2308 248.93 60.6724 248.83 60.1936 248.631C59.7549 248.392 59.4557 247.973 59.2959 247.374L57.0217 239.414H43.2568L41.0425 247.374C40.8829 247.973 40.5637 248.392 40.0849 248.631C39.6061 248.83 39.0475 248.93 38.4092 248.93ZM44.9325 233.31H55.346L50.1393 214.937L44.9325 233.31Z" fill="#03021F"/>
<path d="M94.918 249.229C94.3997 249.229 93.8808 249.07 93.3619 248.751C92.8832 248.431 92.5043 247.973 92.2248 247.374L83.7265 230.856H78.6993V246.417C78.6993 247.254 78.3007 247.892 77.5024 248.332C76.7046 248.73 75.8069 248.93 74.8093 248.93C73.8517 248.93 72.954 248.73 72.1161 248.332C71.3184 247.892 70.9192 247.254 70.9192 246.417V207.636C70.9192 206.957 71.1388 206.379 71.5775 205.9C72.0563 205.421 72.6751 205.182 73.4328 205.182H85.2826C87.9158 205.182 90.2899 205.561 92.4044 206.319C94.5589 207.077 96.2747 208.373 97.5513 210.209C98.8284 212.004 99.4664 214.498 99.4664 217.69C99.4664 220.004 99.1276 221.979 98.449 223.615C97.7709 225.21 96.8336 226.507 95.6367 227.505C94.4793 228.462 93.1429 229.181 91.6264 229.659L99.5267 244.202C99.6064 244.361 99.6662 244.541 99.7058 244.741C99.7458 244.9 99.7656 245.04 99.7656 245.16C99.7656 245.798 99.5262 246.436 99.0474 247.075C98.5687 247.713 97.9504 248.232 97.1922 248.631C96.474 249.03 95.7163 249.229 94.918 249.229ZM78.6993 224.752H85.2826C87.2377 224.752 88.7938 224.273 89.9506 223.316C91.108 222.358 91.6862 220.722 91.6862 218.408C91.6862 216.014 91.108 214.358 89.9506 213.441C88.7938 212.483 87.2377 212.004 85.2826 212.004H78.6993V224.752Z" fill="#03021F"/>
<path d="M108.346 248.93C107.308 248.93 106.47 248.691 105.832 248.212C105.234 247.733 104.934 247.155 104.934 246.476V207.636C104.934 206.957 105.234 206.379 105.832 205.9C106.47 205.421 107.308 205.182 108.346 205.182H118.939C121.611 205.182 124.005 205.64 126.12 206.558C128.235 207.436 129.91 208.892 131.147 210.927C132.424 212.922 133.063 215.595 133.063 218.947V235.165C133.063 238.517 132.424 241.21 131.147 243.245C129.91 245.239 128.235 246.695 126.12 247.614C124.005 248.491 121.611 248.93 118.939 248.93H108.346ZM112.714 242.108H118.939C120.933 242.108 122.489 241.549 123.607 240.432C124.723 239.274 125.282 237.519 125.282 235.165V218.947C125.282 216.592 124.723 214.857 123.607 213.74C122.489 212.583 120.953 212.004 118.998 212.004H112.714V242.108Z" fill="#03021F"/>
<path d="M141.564 248.93C140.846 248.93 140.108 248.79 139.35 248.511C138.591 248.232 137.953 247.853 137.435 247.374C136.916 246.895 136.656 246.336 136.656 245.698C136.656 245.579 136.676 245.379 136.716 245.1L148.267 207.456C148.546 206.578 149.165 205.92 150.122 205.481C151.12 205.042 152.177 204.823 153.294 204.823C154.451 204.823 155.508 205.042 156.466 205.481C157.424 205.92 158.042 206.578 158.321 207.456L169.872 245.1C169.951 245.379 169.991 245.579 169.991 245.698C169.991 246.297 169.712 246.855 169.154 247.374C168.635 247.853 167.997 248.232 167.238 248.511C166.48 248.79 165.742 248.93 165.024 248.93C164.386 248.93 163.827 248.83 163.348 248.631C162.91 248.392 162.61 247.973 162.451 247.374L160.176 239.414H146.412L144.197 247.374C144.037 247.973 143.718 248.392 143.24 248.631C142.761 248.83 142.203 248.93 141.564 248.93ZM148.087 233.31H158.501L153.294 214.937L148.087 233.31Z" fill="#03021F"/>
<path d="M177.964 248.93C177.006 248.93 176.109 248.73 175.271 248.332C174.473 247.892 174.074 247.254 174.074 246.417V207.636C174.074 206.798 174.473 206.179 175.271 205.78C176.109 205.381 177.006 205.182 177.964 205.182C178.922 205.182 179.7 205.281 180.298 205.481C180.937 205.68 181.515 206.079 182.034 206.678C182.593 207.236 183.171 208.114 183.769 209.311L195.32 231.634V207.636C195.32 206.758 195.719 206.139 196.517 205.78C197.355 205.381 198.252 205.182 199.21 205.182C200.207 205.182 201.105 205.381 201.903 205.78C202.701 206.139 203.1 206.758 203.1 207.636V246.417C203.1 247.254 202.701 247.892 201.903 248.332C201.105 248.73 200.207 248.93 199.21 248.93C198.292 248.93 197.435 248.751 196.636 248.392C195.879 248.032 195.26 247.394 194.781 246.476L181.854 222.418V246.417C181.854 247.254 181.456 247.892 180.657 248.332C179.859 248.73 178.962 248.93 177.964 248.93Z" fill="#03021F"/>
<path d="M223.954 249.289C221.32 249.289 218.947 248.85 216.832 247.973C214.717 247.055 213.022 245.598 211.745 243.604C210.508 241.569 209.889 238.876 209.889 235.524V218.947C209.889 215.595 210.508 212.922 211.745 210.927C213.022 208.892 214.697 207.436 216.772 206.558C218.887 205.64 221.281 205.182 223.954 205.182C226.587 205.182 228.961 205.64 231.075 206.558C233.23 207.436 234.926 208.892 236.162 210.927C237.399 212.922 238.018 215.595 238.018 218.947V235.524C238.018 238.876 237.399 241.569 236.162 243.604C234.926 245.598 233.23 247.055 231.075 247.973C228.961 248.85 226.587 249.289 223.954 249.289ZM223.954 242.467C225.909 242.467 227.445 241.908 228.562 240.791C229.679 239.674 230.237 237.918 230.237 235.524V218.947C230.237 216.553 229.679 214.797 228.562 213.68C227.445 212.563 225.909 212.004 223.954 212.004C221.999 212.004 220.463 212.563 219.345 213.68C218.268 214.797 217.729 216.553 217.729 218.947V235.524C217.729 237.918 218.268 239.674 219.345 240.791C220.463 241.908 221.999 242.467 223.954 242.467Z" fill="#03021F"/>
<path d="M15.2613 299.163C12.6678 299.163 10.3139 298.784 8.19928 298.026C6.12456 297.268 4.46878 296.33 3.23194 295.213C2.035 294.056 1.43652 292.899 1.43652 291.742C1.43652 291.183 1.57617 290.585 1.85545 289.947C2.17464 289.268 2.59357 288.71 3.11225 288.271C3.63092 287.792 4.20945 287.553 4.84782 287.553C5.48617 287.553 6.08464 287.792 6.64325 288.271C7.20181 288.71 7.8402 289.249 8.55837 289.887C9.27653 290.486 10.1543 291.024 11.1916 291.503C12.229 291.942 13.5057 292.161 15.0219 292.161C16.2188 292.161 17.316 291.982 18.3135 291.623C19.3508 291.223 20.1687 290.645 20.7672 289.887C21.4056 289.129 21.7248 288.152 21.7248 286.955C21.7248 285.677 21.3856 284.6 20.7074 283.723C20.0291 282.845 19.1114 282.087 17.9544 281.449C16.7973 280.81 15.5405 280.192 14.184 279.593C12.8275 278.995 11.451 278.356 10.0545 277.678C8.69799 277 7.4412 276.182 6.28417 275.224C5.16701 274.267 4.24935 273.09 3.53118 271.693C2.85291 270.297 2.51378 268.581 2.51378 266.547C2.51378 264.312 2.93271 262.437 3.77057 260.921C4.64833 259.404 5.7854 258.188 7.18188 257.27C8.61821 256.313 10.1942 255.634 11.9098 255.235C13.6254 254.796 15.341 254.577 17.0567 254.577C17.9743 254.577 19.0516 254.657 20.2884 254.817C21.5652 254.936 22.822 255.176 24.0588 255.535C25.3356 255.894 26.3729 256.392 27.1709 257.031C28.0087 257.629 28.4277 258.427 28.4277 259.425C28.4277 259.863 28.308 260.402 28.0686 261.041C27.8691 261.679 27.53 262.257 27.0512 262.776C26.6123 263.295 26.0338 263.554 25.3156 263.554C24.6772 263.554 24.0388 263.375 23.4005 263.016C22.802 262.616 22.004 262.238 21.0066 261.879C20.0491 261.479 18.7324 261.28 17.0567 261.28C15.6602 261.28 14.4433 261.46 13.406 261.819C12.3686 262.178 11.5906 262.696 11.072 263.375C10.5533 264.013 10.2939 264.831 10.2939 265.828C10.2939 266.866 10.633 267.744 11.3113 268.462C12.0295 269.18 12.9472 269.818 14.0643 270.377C15.2214 270.935 16.4781 271.494 17.8347 272.053C19.1912 272.611 20.5478 273.269 21.9043 274.028C23.3007 274.746 24.5775 275.623 25.7346 276.661C26.8916 277.698 27.8092 278.995 28.4875 280.551C29.1658 282.067 29.5049 283.942 29.5049 286.177C29.5049 289.009 28.8865 291.403 27.6497 293.358C26.4128 295.273 24.7171 296.729 22.5626 297.727C20.448 298.685 18.0142 299.163 15.2613 299.163Z" fill="#03021F"/>
<path d="M49.0428 298.984C46.3297 298.984 43.8959 298.545 41.7414 297.667C39.5869 296.749 37.8713 295.293 36.5946 293.298C35.3178 291.264 34.6794 288.57 34.6794 285.219V257.33C34.6794 256.452 35.0784 255.834 35.8764 255.475C36.6743 255.076 37.572 254.876 38.5695 254.876C39.5271 254.876 40.4049 255.076 41.2028 255.475C42.0407 255.834 42.4596 256.452 42.4596 257.33V285.219C42.4596 287.573 43.0381 289.328 44.1952 290.486C45.3522 291.602 46.9681 292.161 49.0428 292.161C51.0776 292.161 52.6736 291.602 53.8305 290.486C55.0275 289.328 55.626 287.573 55.626 285.219V257.33C55.626 256.452 56.0048 255.834 56.7631 255.475C57.5608 255.076 58.4789 254.876 59.516 254.876C60.4736 254.876 61.3515 255.076 62.1493 255.475C62.9872 255.834 63.4061 256.452 63.4061 257.33V285.219C63.4061 288.57 62.7676 291.264 61.491 293.298C60.2144 295.293 58.4789 296.749 56.2843 297.667C54.1298 298.545 51.716 298.984 49.0428 298.984Z" fill="#03021F"/>
<path d="M74.2834 298.625C73.3258 298.625 72.4281 298.425 71.5903 298.026C70.7925 297.587 70.3933 296.949 70.3933 296.111V258.766C70.3933 257.33 70.7925 256.333 71.5903 255.774C72.4281 255.176 73.3258 254.876 74.2834 254.876C75.241 254.876 76.0387 254.976 76.6773 255.176C77.3554 255.375 77.9742 255.774 78.5326 256.373C79.131 256.971 79.7493 257.848 80.3878 259.006L87.749 272.412L95.0504 259.006C95.7686 257.848 96.3868 256.971 96.9057 256.373C97.4641 255.774 98.0829 255.375 98.761 255.176C99.439 254.976 100.237 254.876 101.155 254.876C102.152 254.876 103.05 255.176 103.848 255.774C104.646 256.333 105.045 257.33 105.045 258.766V296.111C105.045 296.949 104.626 297.587 103.788 298.026C102.99 298.425 102.112 298.625 101.155 298.625C100.197 298.625 99.2996 298.425 98.4617 298.026C97.6639 297.587 97.2648 296.949 97.2648 296.111V270.437L90.3225 282.885C89.9634 283.443 89.5445 283.862 89.0657 284.142C88.5869 284.381 88.1081 284.501 87.6293 284.501C87.1906 284.501 86.7316 284.381 86.2529 284.142C85.8142 283.902 85.415 283.483 85.0559 282.885L78.1735 270.018V296.111C78.1735 296.949 77.7743 297.587 76.9765 298.026C76.1787 298.425 75.281 298.625 74.2834 298.625Z" fill="#03021F"/>
<path d="M116.13 298.625C115.173 298.625 114.275 298.425 113.437 298.026C112.639 297.587 112.24 296.949 112.24 296.111V258.766C112.24 257.33 112.639 256.333 113.437 255.774C114.275 255.176 115.173 254.876 116.13 254.876C117.088 254.876 117.885 254.976 118.524 255.176C119.202 255.375 119.82 255.774 120.379 256.373C120.978 256.971 121.596 257.848 122.234 259.006L129.596 272.412L136.897 259.006C137.615 257.848 138.234 256.971 138.752 256.373C139.311 255.774 139.929 255.375 140.608 255.176C141.286 254.976 142.084 254.876 143.002 254.876C143.999 254.876 144.896 255.176 145.695 255.774C146.492 256.333 146.892 257.33 146.892 258.766V296.111C146.892 296.949 146.473 297.587 145.635 298.026C144.836 298.425 143.959 298.625 143.002 298.625C142.044 298.625 141.146 298.425 140.308 298.026C139.51 297.587 139.111 296.949 139.111 296.111V270.437L132.169 282.885C131.81 283.443 131.391 283.862 130.912 284.142C130.434 284.381 129.955 284.501 129.476 284.501C129.037 284.501 128.578 284.381 128.1 284.142C127.66 283.902 127.262 283.483 126.903 282.885L120.02 270.018V296.111C120.02 296.949 119.621 297.587 118.823 298.026C118.025 298.425 117.127 298.625 116.13 298.625Z" fill="#03021F"/>
<path d="M157.976 298.625C157.018 298.625 156.121 298.425 155.283 298.026C154.485 297.587 154.086 296.949 154.086 296.111V257.33C154.086 256.452 154.485 255.834 155.283 255.475C156.121 255.076 157.018 254.876 157.976 254.876C158.974 254.876 159.871 255.076 160.669 255.475C161.467 255.834 161.866 256.452 161.866 257.33V296.111C161.866 296.949 161.467 297.587 160.669 298.026C159.871 298.425 158.974 298.625 157.976 298.625Z" fill="#03021F"/>
<path d="M181.196 298.625C180.198 298.625 179.3 298.425 178.503 298.026C177.704 297.587 177.306 296.949 177.306 296.111V261.879H168.508C167.75 261.879 167.151 261.519 166.713 260.801C166.274 260.083 166.054 259.265 166.054 258.348C166.054 257.51 166.254 256.732 166.653 256.013C167.052 255.255 167.67 254.876 168.508 254.876H193.824C194.701 254.876 195.32 255.255 195.679 256.013C196.077 256.732 196.277 257.51 196.277 258.348C196.277 259.265 196.058 260.083 195.619 260.801C195.22 261.519 194.621 261.879 193.824 261.879H185.086V296.111C185.086 296.949 184.667 297.587 183.829 298.026C183.031 298.425 182.153 298.625 181.196 298.625Z" fill="#03021F"/>
<path d="M3.35167 348.854C3.11228 348.854 2.87289 348.754 2.6335 348.555C2.39411 348.355 2.27441 348.096 2.27441 347.777V341.971C2.27441 340.296 2.77314 338.759 3.7706 337.363C4.76805 335.966 6.04481 334.65 7.60084 333.413C9.15687 332.136 10.8126 330.9 12.5682 329.703C14.3636 328.466 16.0393 327.189 17.5953 325.872C19.1514 324.516 20.4281 323.079 21.4256 321.563C22.423 320.007 22.9218 318.272 22.9218 316.357C22.9218 314.88 22.5826 313.464 21.9043 312.108C21.226 310.711 20.2086 309.554 18.8521 308.636C17.4956 307.718 15.7799 307.26 13.7053 307.26C11.3512 307.26 9.39626 307.938 7.84023 309.295C6.2842 310.611 5.50618 312.566 5.50618 315.16C5.50618 315.399 5.40642 315.639 5.20693 315.878C5.04734 316.077 4.76805 316.177 4.36907 316.177C3.97009 316.177 3.6908 316.057 3.53121 315.818C3.41151 315.539 3.35167 315.1 3.35167 314.501C3.35167 312.746 3.79054 311.17 4.66831 309.774C5.58596 308.337 6.82282 307.2 8.37885 306.362C9.97475 305.524 11.7902 305.105 13.825 305.105C16.139 305.105 18.134 305.624 19.8097 306.661C21.4854 307.699 22.7821 309.075 23.6998 310.791C24.6174 312.467 25.0763 314.302 25.0763 316.297C25.0763 318.411 24.5775 320.326 23.5801 322.042C22.5826 323.757 21.3059 325.314 19.7498 326.71C18.1938 328.107 16.5181 329.423 14.7227 330.66C12.9671 331.857 11.3114 333.054 9.75534 334.251C8.19931 335.408 6.92253 336.625 5.92511 337.902C4.92764 339.138 4.42892 340.495 4.42892 341.971V346.699H24.6573C24.9366 346.699 25.176 346.799 25.3755 346.999C25.575 347.198 25.6747 347.457 25.6747 347.777C25.6747 348.055 25.575 348.315 25.3755 348.555C25.176 348.754 24.9366 348.854 24.6573 348.854H3.35167Z" fill="#03021F"/>
<path d="M43.1465 349.213C40.9521 349.213 38.9772 348.814 37.2217 348.016C35.4661 347.178 34.0697 345.861 33.0324 344.066C31.995 342.271 31.4763 339.877 31.4763 336.884V317.434C31.4763 314.442 31.995 312.048 33.0324 310.252C34.0697 308.457 35.4661 307.16 37.2217 306.362C38.9772 305.524 40.9521 305.105 43.1465 305.105C45.341 305.105 47.3159 305.524 49.0714 306.362C50.8669 307.16 52.2833 308.457 53.3206 310.252C54.358 312.048 54.8764 314.442 54.8764 317.434V336.884C54.8764 339.877 54.358 342.271 53.3206 344.066C52.2833 345.861 50.8669 347.178 49.0714 348.016C47.3159 348.814 45.341 349.213 43.1465 349.213ZM43.1465 347.058C46.1389 347.058 48.473 346.24 50.1487 344.605C51.8643 342.929 52.7221 340.356 52.7221 336.884V317.434C52.7221 313.963 51.8643 311.409 50.1487 309.774C48.473 308.098 46.1389 307.26 43.1465 307.26C40.1542 307.26 37.8201 308.098 36.1444 309.774C34.4687 311.409 33.6308 313.963 33.6308 317.434V336.884C33.6308 340.356 34.4687 342.929 36.1444 344.605C37.8201 346.24 40.1542 347.058 43.1465 347.058ZM43.2064 329.104C42.6877 329.104 42.2289 328.925 41.8299 328.566C41.4708 328.166 41.2913 327.707 41.2913 327.189C41.2913 326.67 41.4708 326.232 41.8299 325.872C42.2289 325.513 42.6877 325.334 43.2064 325.334C43.7251 325.334 44.164 325.513 44.523 325.872C44.8821 326.232 45.0617 326.67 45.0617 327.189C45.0617 327.707 44.8821 328.166 44.523 328.566C44.164 328.925 43.7251 329.104 43.2064 329.104Z" fill="#03021F"/>
<path d="M62.1471 348.854C61.9077 348.854 61.6683 348.754 61.4289 348.555C61.1895 348.355 61.0698 348.096 61.0698 347.777V341.971C61.0698 340.296 61.5684 338.759 62.566 337.363C63.5631 335.966 64.8402 334.65 66.3962 333.413C67.9523 332.136 69.6077 330.9 71.3636 329.703C73.159 328.466 74.8347 327.189 76.3907 325.872C77.9468 324.516 79.2233 323.079 80.221 321.563C81.2181 320.007 81.7171 318.272 81.7171 316.357C81.7171 314.88 81.3778 313.464 80.6997 312.108C80.0211 310.711 79.0037 309.554 77.6475 308.636C76.2908 307.718 74.575 307.26 72.5007 307.26C70.1463 307.26 68.1917 307.938 66.6356 309.295C65.0796 310.611 64.3016 312.566 64.3016 315.16C64.3016 315.399 64.2017 315.639 64.0023 315.878C63.8426 316.077 63.5631 316.177 63.1645 316.177C62.7653 316.177 62.4859 316.057 62.3266 315.818C62.2069 315.539 62.1471 315.1 62.1471 314.501C62.1471 312.746 62.5858 311.17 63.4637 309.774C64.3812 308.337 65.6182 307.2 67.1742 306.362C68.7698 305.524 70.5856 305.105 72.6204 305.105C74.9341 305.105 76.9294 305.624 78.6051 306.661C80.2808 307.699 81.5772 309.075 82.4952 310.791C83.4126 312.467 83.8717 314.302 83.8717 316.297C83.8717 318.411 83.3726 320.326 82.3755 322.042C81.3778 323.757 80.1013 325.314 78.5452 326.71C76.9892 328.107 75.3135 329.423 73.5181 330.66C71.7622 331.857 70.1068 333.054 68.5507 334.251C66.9947 335.408 65.7176 336.625 64.7205 337.902C63.7229 339.138 63.2243 340.495 63.2243 341.971V346.699H83.4527C83.7317 346.699 83.971 346.799 84.1709 346.999C84.3702 347.198 84.4701 347.457 84.4701 347.777C84.4701 348.055 84.3702 348.315 84.1709 348.555C83.971 348.754 83.7317 348.854 83.4527 348.854H62.1471Z" fill="#03021F"/>
<path d="M100.146 349.213C98.1912 349.213 96.4754 348.933 94.9995 348.375C93.5231 347.777 92.2861 347.018 91.289 346.101C90.2913 345.183 89.5534 344.186 89.0746 343.108C88.5958 341.991 88.3564 340.894 88.3564 339.817C88.3564 339.138 88.4361 338.7 88.5958 338.5C88.7951 338.261 89.0345 338.141 89.314 338.141C89.7527 338.141 90.0519 338.281 90.2117 338.56C90.3709 338.799 90.4511 339.078 90.4511 339.398C90.4511 339.996 90.5708 340.734 90.8102 341.612C91.0891 342.49 91.5679 343.348 92.2465 344.186C92.9246 344.984 93.8822 345.662 95.1192 346.221C96.3557 346.779 97.9518 347.058 99.907 347.058C102.979 347.058 105.353 346.24 107.029 344.605C108.744 342.929 109.602 340.356 109.602 336.884V335.747C109.602 332.755 108.744 330.52 107.029 329.044C105.353 327.528 103.059 326.77 100.146 326.77C99.7472 326.77 99.448 326.67 99.2487 326.471C99.0889 326.232 99.0093 325.972 99.0093 325.693C99.0093 325.413 99.0889 325.174 99.2487 324.975C99.448 324.735 99.7274 324.616 100.087 324.616C101.962 324.616 103.518 324.336 104.755 323.778C106.031 323.219 106.969 322.321 107.567 321.085C108.205 319.808 108.525 318.132 108.525 316.057C108.525 313.185 107.886 311.01 106.61 309.534C105.373 308.018 103.278 307.26 100.326 307.26C98.4904 307.26 96.9942 307.519 95.8374 308.038C94.68 308.556 93.7822 309.215 93.1442 310.013C92.5458 310.811 92.1268 311.629 91.8874 312.467C91.6876 313.304 91.5882 314.062 91.5882 314.741C91.5882 315.18 91.4883 315.539 91.289 315.818C91.0891 316.057 90.83 316.177 90.5109 316.177C90.2716 316.177 90.0717 316.137 89.9125 316.057C89.7527 315.938 89.633 315.738 89.5534 315.459C89.4732 315.18 89.4337 314.82 89.4337 314.382C89.4337 313.664 89.5732 312.786 89.8526 311.748C90.1716 310.711 90.7103 309.693 91.4685 308.696C92.2663 307.659 93.3836 306.801 94.82 306.123C96.2958 305.444 98.1912 305.105 100.505 305.105C102.54 305.105 104.315 305.444 105.832 306.123C107.348 306.801 108.525 307.898 109.363 309.414C110.24 310.93 110.679 312.965 110.679 315.519C110.679 318.431 110.18 320.705 109.183 322.341C108.186 323.937 107.009 325.074 105.652 325.753C107.408 326.51 108.864 327.688 110.021 329.284C111.178 330.879 111.757 333.034 111.757 335.747V336.884C111.757 339.877 111.238 342.271 110.201 344.066C109.163 345.861 107.767 347.178 106.011 348.016C104.256 348.814 102.301 349.213 100.146 349.213Z" fill="#03021F"/>
<path fill-rule="evenodd" clip-rule="evenodd" d="M121.233 10.3998C122.261 10.4584 123.283 10.2108 124.17 9.68832C125.057 9.16588 125.769 8.39209 126.217 7.46489C126.664 6.53763 126.826 5.49858 126.682 4.47917C126.539 3.45976 126.096 2.50577 125.411 1.7379C124.725 0.970024 123.827 0.422762 122.83 0.165335C121.834 -0.0920911 120.783 -0.0481141 119.811 0.291703C118.839 0.631523 117.99 1.25191 117.371 2.07439C116.752 2.89688 116.391 3.8845 116.333 4.91234C116.256 6.28969 116.729 7.64138 117.647 8.67033C118.566 9.69933 119.856 10.3214 121.233 10.3998ZM166.5 12.9763C165.691 12.9836 164.898 12.7506 164.221 12.3069C163.314 11.7125 162.68 10.7826 162.458 9.72129C162.237 8.66001 162.446 7.55417 163.039 6.64663C163.482 5.96908 164.115 5.43814 164.86 5.12092C165.605 4.80371 166.427 4.71453 167.222 4.86464C168.018 5.01475 168.75 5.39743 169.328 5.96421C169.906 6.53105 170.303 7.25649 170.468 8.04888C170.634 8.84121 170.561 9.66481 170.258 10.4155C169.955 11.1662 169.436 11.8102 168.767 12.266C168.098 12.7219 167.31 12.9691 166.5 12.9763ZM78.4589 12.7358C79.177 12.367 79.7702 11.794 80.1635 11.0889C80.5562 10.3839 80.7325 9.57824 80.6684 8.77346C80.6048 7.96867 80.3045 7.20076 79.8054 6.56627C79.3064 5.93183 78.6304 5.45925 77.8631 5.20798C77.0963 4.95673 76.2718 4.93805 75.4938 5.15429C74.7163 5.37055 74.02 5.81203 73.4926 6.42322C72.9652 7.03441 72.6302 7.78801 72.5303 8.58905C72.4298 9.3901 72.5693 10.2029 72.9299 10.925C73.1725 11.4084 73.5086 11.839 73.918 12.192C74.3278 12.5449 74.8034 12.8133 75.3174 12.9816C75.8315 13.15 76.3738 13.2149 76.913 13.1727C77.4522 13.1305 77.9774 12.982 78.4589 12.7358ZM82.4494 95.2951C80.2153 92.7863 79.0686 89.4931 79.2609 86.1395L79.2262 86.1465C79.3683 83.6805 80.2286 81.3101 81.7024 79.3276C83.1756 77.3452 85.197 75.8378 87.5172 74.9908C89.8373 74.1439 92.3547 73.9953 94.7587 74.5628C97.1628 75.1303 99.3477 76.3892 101.044 78.1841C102.741 79.979 103.875 82.2318 104.306 84.6637C104.738 87.0955 104.447 89.6005 103.471 91.8694C102.495 94.1382 100.877 96.0721 98.8139 97.4314C96.7519 98.7908 94.3371 99.5165 91.8668 99.5191H91.1759C87.8223 99.3236 84.6835 97.8039 82.4494 95.2951ZM29.7956 83.4924C30.4912 83.082 31.2928 82.8869 32.0991 82.9318C32.6355 82.9612 33.1608 83.0959 33.6449 83.3288C34.1291 83.5613 34.5625 83.8878 34.9202 84.2885C35.2779 84.6888 35.5529 85.1563 35.7294 85.664C35.9059 86.1711 35.9804 86.7086 35.9486 87.2446C35.9023 88.0509 35.618 88.8252 35.1316 89.4701C34.6453 90.1146 33.9787 90.6008 33.2162 90.8669C32.4537 91.1325 31.6295 91.1667 30.8477 90.9642C30.0658 90.7622 29.3615 90.3326 28.8237 89.7304C28.286 89.1276 27.9389 88.3795 27.8263 87.5796C27.7137 86.7797 27.8406 85.9648 28.1912 85.237C28.5417 84.5098 29.1001 83.9022 29.7956 83.4924ZM93.947 32.5836C93.332 33.671 92.4086 34.5516 91.2935 35.1142C90.5523 35.488 89.7449 35.7121 88.9172 35.7737C88.0895 35.8353 87.258 35.7332 86.4699 35.4733C85.6817 35.2134 84.9523 34.8006 84.3239 34.2587C83.6955 33.7169 83.1799 33.0564 82.8064 32.3152C82.2448 31.1995 82.0262 29.9423 82.179 28.7025C82.3313 27.4627 82.8486 26.296 83.664 25.3498C84.4794 24.4037 85.5572 23.7206 86.7611 23.387C87.965 23.0534 89.2405 23.0841 90.4267 23.4753C91.613 23.8666 92.6566 24.6008 93.4261 25.5851C94.195 26.5694 94.6551 27.7596 94.748 29.0053C94.8405 30.2511 94.5621 31.4963 93.947 32.5836ZM48.1054 50.5048C48.9657 51.0705 49.9744 51.3683 51.004 51.3605C52.0336 51.3529 53.0377 51.0399 53.8894 50.4613C54.7412 49.8827 55.4016 49.0645 55.7885 48.1102C56.1748 47.1559 56.2694 46.1084 56.0605 45.1003C55.8516 44.0921 55.3482 43.1686 54.6145 42.4466C53.8803 41.7246 52.9486 41.2365 51.9372 41.0442C50.9257 40.8517 49.88 40.9637 48.9321 41.3659C47.9844 41.768 47.1771 42.4423 46.6126 43.3033C45.8566 44.4566 45.5892 45.8627 45.8691 47.2129C46.149 48.5632 46.9533 49.7471 48.1054 50.5048ZM52.234 81.496C53.3101 80.8618 54.5499 80.5609 55.797 80.6309C57.4701 80.7271 59.0368 81.4837 60.1525 82.7341C61.2683 83.985 61.8422 85.6271 61.7476 87.3001C61.676 88.5473 61.2362 89.7453 60.4838 90.7424C59.7315 91.7395 58.7007 92.4908 57.5214 92.9023C56.3421 93.3137 55.0671 93.3661 53.8579 93.053C52.6486 92.7398 51.5594 92.0751 50.7278 91.1432C49.8962 90.2113 49.3596 89.0539 49.1858 87.8169C49.0121 86.5798 49.2089 85.3193 49.7514 84.194C50.294 83.0692 51.1579 82.1298 52.234 81.496ZM48.7958 123.101C47.8774 123.565 47.1172 124.291 46.6113 125.187C46.1054 126.084 45.8766 127.11 45.9537 128.136C46.0309 129.162 46.4105 130.142 47.0447 130.953C47.6789 131.763 48.5391 132.367 49.5165 132.689C50.4941 133.011 51.5451 133.035 52.5365 132.76C53.5282 132.484 54.4158 131.921 55.0869 131.141C55.7586 130.361 56.1834 129.4 56.309 128.378C56.434 127.357 56.2534 126.321 55.7901 125.403C55.4818 124.792 55.057 124.248 54.5387 123.802C54.0203 123.355 53.4193 123.016 52.7698 122.802C52.1203 122.589 51.435 122.505 50.7531 122.556C50.0712 122.607 49.4061 122.793 48.7958 123.101ZM77.4938 68.7929C76.0233 68.8063 74.5816 68.3825 73.3516 67.5767C72.534 67.0418 71.8297 66.3509 71.2793 65.544C70.729 64.7366 70.3432 63.8288 70.1444 62.8723C69.9456 61.9158 69.937 60.9294 70.1198 59.9697C70.3025 59.01 70.6723 58.0952 71.2093 57.2787C72.0157 56.0492 73.1688 55.0863 74.5223 54.5113C75.8764 53.9369 77.3699 53.7766 78.8148 54.0507C80.2596 54.3253 81.5907 55.0221 82.6396 56.0529C83.6891 57.0837 84.4089 58.4024 84.7081 59.842C85.0079 61.2821 84.8738 62.7782 84.3228 64.1419C83.7719 65.5056 82.8293 66.6753 81.6137 67.503C80.398 68.3312 78.9644 68.7801 77.4938 68.7929ZM151.254 34.6164C152.301 35.2996 153.528 35.6569 154.778 35.6432C156.029 35.6295 157.247 35.2454 158.279 34.5395C159.311 33.8336 160.111 32.8375 160.577 31.6771C161.043 30.5168 161.155 29.2443 160.898 28.0206C160.641 26.7968 160.027 25.6766 159.134 24.8017C158.24 23.9269 157.107 23.3364 155.878 23.1052C154.65 22.874 153.38 23.0123 152.229 23.5026C151.079 23.9929 150.1 24.8133 149.416 25.86C148.96 26.5552 148.646 27.3336 148.493 28.1503C148.338 28.9671 148.347 29.8063 148.518 30.6198C148.688 31.4333 149.018 32.205 149.488 32.8909C149.957 33.5766 150.558 34.163 151.254 34.6164ZM152.25 74.1001C150.591 74.005 148.93 74.2369 147.361 74.784C145.792 75.3307 144.347 76.1808 143.106 77.2864C140.602 79.5189 139.086 82.655 138.894 86.0043C138.701 89.3542 139.847 92.6431 142.08 95.1482C144.312 97.6527 147.448 99.1681 150.798 99.3605H151.531C153.971 99.3594 156.359 98.6519 158.406 97.3246C160.453 95.9967 162.073 94.1051 163.07 91.8779C164.066 89.6502 164.397 87.1821 164.022 84.7711C163.647 82.3595 162.583 80.1083 160.958 78.2883C159.857 77.047 158.52 76.0376 157.025 75.3184C155.53 74.5992 153.907 74.185 152.25 74.1001ZM100.109 71.7879C98.1118 70.5584 96.497 68.7956 95.447 66.6982C94.4814 64.7703 94.0245 62.6281 94.1191 60.4741C94.2142 58.3201 94.8576 56.2266 95.9888 54.3911C97.12 52.5557 98.7017 51.0398 100.583 49.9872C102.465 48.9346 104.584 48.3801 106.74 48.3765C109.08 48.3653 111.378 49.0059 113.374 50.2265C115.371 51.4471 116.989 53.1996 118.046 55.2877C119.023 57.2173 119.489 59.3648 119.4 61.5252C119.311 63.6861 118.669 65.7882 117.537 67.6301C116.404 69.4726 114.818 70.9939 112.93 72.0492C111.043 73.104 108.916 73.6582 106.754 73.6576C104.408 73.6651 102.107 73.0175 100.109 71.7879ZM194.623 50.4922C195.541 50.0286 196.301 49.3031 196.808 48.4074C197.315 47.5117 197.544 46.486 197.467 45.4599C197.391 44.4338 197.012 43.4533 196.379 42.6424C195.745 41.8316 194.886 41.2267 193.909 40.9042C192.932 40.5817 191.881 40.5561 190.889 40.8306C189.898 41.1052 189.01 41.6675 188.338 42.4466C187.665 43.2256 187.239 44.1865 187.113 45.2077C186.987 46.2289 187.166 47.2645 187.628 48.1838C188.25 49.4168 189.336 50.3525 190.648 50.7853C191.959 51.2181 193.389 51.1127 194.623 50.4922ZM159.422 57.4989C160.147 56.2191 161.235 55.1824 162.548 54.5209C163.42 54.0811 164.37 53.8172 165.344 53.7445C166.318 53.6718 167.297 53.7921 168.225 54.0982C169.153 54.4044 170.011 54.8907 170.75 55.5287C171.49 56.1672 172.096 56.9447 172.535 57.8179C173.196 59.1313 173.454 60.6114 173.274 62.0713C173.094 63.5311 172.485 64.905 171.525 66.0185C170.564 67.1327 169.295 67.9369 167.878 68.3291C166.461 68.7218 164.959 68.6855 163.562 68.2243C162.166 67.7632 160.937 66.8986 160.032 65.7391C159.127 64.5801 158.585 63.1785 158.477 61.7117C158.368 60.2449 158.697 58.7786 159.422 57.4989ZM125.371 42.1332C124.104 42.8801 122.645 43.2348 121.177 43.1525C119.206 43.0403 117.362 42.1502 116.047 40.6779C114.733 39.2056 114.057 37.2717 114.169 35.3014C114.253 33.8335 114.771 32.4235 115.656 31.2497C116.542 30.0758 117.755 29.1907 119.143 28.7064C120.532 28.2221 122.033 28.1601 123.456 28.5285C124.88 28.8968 126.161 29.6788 127.141 30.7758C128.12 31.8727 128.752 33.2353 128.957 34.6913C129.162 36.1473 128.93 37.6314 128.292 38.956C127.654 40.2806 126.638 41.3862 125.371 42.1332ZM80.8848 119.064C82.1983 118.402 83.2857 117.365 84.0097 116.085C84.7338 114.804 85.0619 113.338 84.9529 111.871C84.8433 110.404 84.3015 109.003 83.3957 107.844C82.4895 106.685 81.2605 105.821 79.8637 105.361C78.4664 104.901 76.9643 104.865 75.5472 105.259C74.1296 105.652 72.861 106.457 71.9013 107.572C70.9416 108.686 70.3341 110.061 70.1556 111.521C69.9766 112.981 70.2352 114.461 70.8978 115.774C71.7864 117.534 73.3371 118.87 75.21 119.487C77.0829 120.103 79.1241 119.952 80.8848 119.064ZM123.954 61.9623C123.725 59.1575 124.438 56.3569 125.981 54.0031C127.133 52.246 128.706 50.8034 130.555 49.8056C132.405 48.8078 134.474 48.2862 136.575 48.2876C139.389 48.2912 142.122 49.2332 144.34 50.9645C146.559 52.6957 148.137 55.1172 148.824 57.8462C149.511 60.5751 149.268 63.4553 148.135 66.0308C147.001 68.6064 145.041 70.7299 142.564 72.0663C140.087 73.4022 137.236 73.874 134.461 73.407C131.686 72.9405 129.146 71.5614 127.242 69.4886C125.34 67.4153 124.182 64.7671 123.954 61.9623ZM147.972 106.894C146.958 104.884 145.428 103.182 143.536 101.961C141.646 100.741 139.464 100.048 137.215 99.952C134.967 99.8569 132.733 100.363 130.746 101.419C128.759 102.475 127.089 104.041 125.909 105.958C124.729 107.874 124.082 110.07 124.035 112.32C123.987 114.57 124.54 116.792 125.638 118.757C126.735 120.721 128.337 122.357 130.278 123.497C132.219 124.635 134.428 125.236 136.679 125.236C138.659 125.222 140.608 124.749 142.374 123.854C145.36 122.342 147.626 119.709 148.675 116.53C149.725 113.351 149.471 109.886 147.972 106.894ZM165.933 104.79C167.403 104.778 168.845 105.203 170.074 106.009C171.72 107.094 172.869 108.787 173.269 110.717C173.67 112.647 173.289 114.657 172.21 116.307C171.403 117.537 170.249 118.499 168.895 119.073C167.541 119.647 166.047 119.806 164.602 119.531C163.157 119.256 161.826 118.559 160.778 117.527C159.729 116.495 159.01 115.176 158.711 113.736C158.413 112.296 158.548 110.8 159.1 109.436C159.652 108.073 160.596 106.904 161.812 106.077C163.028 105.25 164.462 104.802 165.933 104.79ZM194.291 87.01C194.361 85.7628 194.06 84.5231 193.426 83.4469C192.792 82.3708 191.852 81.5067 190.728 80.9643C189.602 80.4214 188.342 80.2248 187.105 80.3985C185.868 80.5727 184.71 81.1092 183.778 81.9406C182.847 82.772 182.182 83.8616 181.869 85.0708C181.556 86.2795 181.608 87.5545 182.019 88.7338C182.431 89.9137 183.182 90.9444 184.179 91.6968C185.176 92.4492 186.374 92.8889 187.621 92.9605C189.295 93.0546 190.937 92.4812 192.188 91.3655C193.438 90.2498 194.195 88.683 194.291 87.01ZM209.481 83.0692C210.179 82.6593 210.982 82.4648 211.79 82.5118C212.873 82.5759 213.886 83.0665 214.607 83.876C215.329 84.6856 215.7 85.7484 215.64 86.831C215.593 87.6389 215.308 88.4148 214.82 89.0608C214.333 89.7069 213.665 90.1937 212.901 90.4598C212.137 90.7259 211.311 90.7595 210.528 90.5565C209.744 90.3534 209.039 89.9227 208.501 89.3184C207.962 88.714 207.615 87.9638 207.503 87.1628C207.391 86.3613 207.519 85.5443 207.871 84.8159C208.223 84.0871 208.783 83.4795 209.481 83.0692ZM195.313 123.08C194.453 122.517 193.444 122.221 192.415 122.23C191.385 122.239 190.382 122.553 189.532 123.133C188.682 123.712 188.022 124.531 187.636 125.485C187.251 126.439 187.157 127.487 187.367 128.494C187.577 129.502 188.08 130.424 188.814 131.145C189.548 131.867 190.48 132.354 191.491 132.546C192.502 132.739 193.547 132.626 194.494 132.225C195.442 131.823 196.249 131.149 196.813 130.289C197.188 129.717 197.447 129.077 197.575 128.405C197.702 127.733 197.696 127.043 197.557 126.373C197.418 125.704 197.148 125.069 196.763 124.504C196.378 123.938 195.885 123.455 195.313 123.08ZM76.9274 160.607C77.7364 160.601 78.5294 160.834 79.2059 161.278C79.6553 161.573 80.0422 161.953 80.3441 162.398C80.6465 162.842 80.8581 163.342 80.9671 163.868C81.0767 164.394 81.0809 164.937 80.9799 165.465C80.8795 165.993 80.6759 166.496 80.3804 166.945C79.9364 167.621 79.3016 168.151 78.5567 168.466C77.8112 168.782 76.9894 168.869 76.1948 168.718C75.3997 168.566 74.6682 168.182 74.0911 167.615C73.5145 167.047 73.1191 166.322 72.9551 165.529C72.7905 164.737 72.8648 163.914 73.1683 163.164C73.4718 162.414 73.9912 161.771 74.6602 161.315C75.3292 160.861 76.1179 160.614 76.9274 160.607ZM164.96 160.85C164.237 161.214 163.638 161.784 163.24 162.489C162.841 163.193 162.661 164 162.721 164.807C162.781 165.614 163.079 166.385 163.577 167.023C164.075 167.66 164.752 168.136 165.52 168.389C166.289 168.642 167.115 168.662 167.895 168.446C168.675 168.229 169.373 167.786 169.901 167.173C170.429 166.56 170.764 165.804 170.862 165.001C170.96 164.198 170.818 163.383 170.454 162.661C170.212 162.18 169.879 161.752 169.472 161.401C169.065 161.05 168.593 160.783 168.082 160.615C167.572 160.446 167.033 160.381 166.498 160.421C165.962 160.461 165.439 160.607 164.96 160.85ZM119.465 111.602C119.694 114.407 118.98 117.208 117.438 119.562C116.291 121.323 114.72 122.769 112.871 123.767C111.022 124.765 108.952 125.284 106.85 125.278C104.036 125.275 101.302 124.334 99.0832 122.604C96.8635 120.874 95.2845 118.453 94.5963 115.724C93.9075 112.995 94.149 110.114 95.2819 107.538C96.4152 104.962 98.3752 102.837 100.851 101.501C103.328 100.164 106.18 99.6912 108.955 100.157C111.73 100.624 114.271 102.002 116.174 104.076C118.078 106.148 119.236 108.797 119.465 111.602ZM92.1645 138.975C91.1193 138.291 89.8945 137.933 88.6452 137.945C87.3964 137.957 86.1792 138.339 85.1468 139.042C84.115 139.746 83.3151 140.74 82.848 141.899C82.3805 143.057 82.2672 144.328 82.5221 145.551C82.7775 146.773 83.3893 147.893 84.2801 148.769C85.1714 149.643 86.3021 150.235 87.5295 150.467C88.7569 150.7 90.0254 150.564 91.1754 150.076C92.3248 149.587 93.3042 148.769 93.9887 147.725C94.9062 146.322 95.2295 144.613 94.887 142.973C94.545 141.332 93.5655 139.894 92.1645 138.975ZM118.719 163.898C119.605 163.376 120.627 163.128 121.654 163.187C122.337 163.226 123.005 163.398 123.621 163.696C124.237 163.993 124.788 164.408 125.243 164.918C125.698 165.429 126.048 166.024 126.273 166.669C126.498 167.315 126.594 167.998 126.554 168.681C126.495 169.708 126.133 170.695 125.513 171.517C124.893 172.338 124.044 172.958 123.072 173.296C122.1 173.635 121.05 173.678 120.053 173.42C119.057 173.162 118.16 172.614 117.475 171.846C116.79 171.078 116.348 170.124 116.205 169.105C116.062 168.086 116.225 167.047 116.672 166.12C117.119 165.194 117.831 164.42 118.719 163.898ZM121.709 130.44C120.24 130.351 118.777 130.7 117.506 131.442C116.235 132.185 115.213 133.289 114.57 134.613C113.926 135.936 113.69 137.422 113.891 138.88C114.093 140.338 114.722 141.704 115.7 142.804C116.678 143.904 117.961 144.689 119.385 145.06C120.81 145.431 122.313 145.37 123.703 144.886C125.093 144.402 126.308 143.517 127.195 142.342C128.081 141.166 128.599 139.754 128.683 138.285C128.796 136.32 128.125 134.391 126.818 132.92C125.511 131.45 123.673 130.558 121.709 130.44ZM149.474 141.012C150.087 139.92 151.01 139.036 152.126 138.47C152.865 138.092 153.671 137.865 154.498 137.8C155.325 137.735 156.157 137.833 156.946 138.09C157.735 138.347 158.466 138.757 159.096 139.296C159.726 139.836 160.244 140.494 160.62 141.234C161.189 142.348 161.414 143.607 161.267 144.85C161.121 146.092 160.609 147.264 159.796 148.215C158.983 149.167 157.907 149.856 156.702 150.195C155.498 150.535 154.22 150.51 153.03 150.122C151.84 149.735 150.792 149.003 150.018 148.02C149.244 147.037 148.779 145.846 148.682 144.598C148.586 143.35 148.861 142.102 149.474 141.012Z" fill="#03021F"/>
</g>
<defs>
<clipPath id="clip0_1422_4514">
<rect width="243.664" height="350" fill="white"/>
</clipPath>
</defs>
</svg>
