<svg width="20" height="20" viewBox="0 0 20 20" fill="none" xmlns="http://www.w3.org/2000/svg"><mask id="a" style="mask-type:luminance" maskUnits="userSpaceOnUse" x="0" y="0" width="20" height="19"><path d="M19.918 0H.082v18.96h19.836V0Z" fill="#fff"/></mask><g mask="url(#a)" fill="#434656"><path d="M4.585 6.167H.333v12.794h4.252V6.167Z"/><path fill-rule="evenodd" clip-rule="evenodd" d="M2.487 0C1.033 0 .082.956.082 2.21s.923 2.21 2.35 2.21h.027c1.484 0 2.407-.982 2.407-2.21C4.838.954 3.943 0 2.489 0h-.002Zm12.536 5.867c-2.257 0-3.267 1.241-3.833 2.112v.042h-.028c.008-.014.02-.03.028-.042V6.167H6.938c.055 1.2 0 12.794 0 12.794h4.252v-7.145c0-.382.028-.764.14-1.037.308-.764 1.006-1.556 2.181-1.556 1.54 0 2.155 1.174 2.155 2.893v6.845h4.252v-7.336c0-3.93-2.098-5.758-4.895-5.758Z"/></g></svg>